<svg width="1000" height="600" viewBox="0 0 1000 600" xmlns="http://www.w3.org/2000/svg"><title>build</title><g fill="none" fill-rule="evenodd"><path d="M0 300V0h1000v600H0V300zm175 238c1 0 8-1 15-1s14-1 15-2c1 0 5 0 9 1h13c4-1 5-1 7-4 1-2 3-4 5-5 5-3 7-7 8-15 0-3 1-8 2-11 0-3 1-9 1-14s1-10 1-11c1-1 2-6 2-11 1-4 2-10 3-11 1-2 2-7 3-12 0-5 1-8 2-8v-11c0-13-1-16-8-18-2 0-5-1-6-2-2-1-24-1-46 0-17 0-17 1-17-10 0-6 0-7 2-8 8-3 12-11 8-16-2-3-5-3-9-1-2 1-5 2-7 2h-4v5c0 4-1 6-2 6 0 0-3 1-5 3s-3 3-3 5c0 4 1 6 7 6 2 0 4 1 4 1 2 2 2 7 1 8s-11 2-20 3c-4 0-10 1-14 1-5 1-10 2-13 2s-6 1-6 2c-2 1-4 2-12 4-4 1-7 7-6 12 0 6 3 14 5 18 1 2 1 4 1 4 0 1 2 4 3 8 2 3 3 7 3 9 0 4 5 23 6 24l1 2c0 1 0 3 1 4 3 4 6 13 5 14h-3c-2 0-30 2-38 3-4 1-5 2-5 3-1 2 4 4 11 3 8 0 6 2-2 3-9 1-17 5-14 7h7c6-1 7-1 7 1 0 5-1 5 29 5 27 0 28 0 29 2 2 2 3 2 12 1 5 0 11-1 12-1zm294-8c21-1 30-1 37-2 6-1 16-4 19-6 5-2 11-3 13-1 2 1 4 2 5 1 4 0 8-8 9-17 0-4 1-7 1-8 1-1 2-4 3-8s2-9 3-11 3-7 3-11c2-7 2-9 5-15 1-2 2-6 3-9 1-4 2-9 3-12 2-6 3-16 3-17-1-1-1-3-1-6 0-5 0-6-4-8-2-1-4-1-7-1s-5 0-7-1c-5-3-15-5-26-5-6 1-15 1-19 1l-8-1-1-10c-1-5-2-14-2-19s-1-17-1-26l-1-17h5c3 0 5 1 8 4 2 2 6 5 8 7 3 2 7 5 9 8l6 4c1 0 2 0 3-1 2-2 2-3 3-11 0-8-1-10-2-13-2-2-3-5-3-5-1 0-2-2-3-4s-4-6-8-9c-6-7-11-9-18-8-3 0-4 0-4 3-1 3 2 5 6 5 4-1 8 1 12 5 4 5 12 16 12 20 0 3-3 4-5 2-1 0-3-2-5-2l-4-4c-2-4-9-10-11-11-1 0-3 0-4 1-2 1-3 1-4-1-1-1-1-3-1-4s0-5-1-8c-1-7-2-25-1-35 0-6 1-9 4-8 4 2 10 2 12 0 2 0 3-1 3-1s0-2-1-3c-1-3 0-4 3-7 4-5 4-8-1-12-3-3-4-4-9-3-9 0-13 3-16 7-4 6-5 24-3 42 0 8 0 11-1 12-1 0-1 0 0 0s1 1 1 2c0 0-2 1-4 1-5 0-15 3-20 6-3 2-5 4-5 4-2-1-9 8-12 13-2 3-3 6-3 10-1 5 0 6 2 9 3 3 6 3 11-2 1-1 5-4 7-5s4-2 5-3c0-1 4-3 8-5s8-4 8-5c1-1 2-1 3-1 2 0 2 6 3 37 0 13 1 27 1 30 1 3 1 8 1 10l-1 3-8 2c-6 1-14 2-23 2-15 0-12-1-31 9-3 1-4 5-3 8 1 1 2 7 4 12 1 6 2 11 3 13 3 6 6 13 6 18v8c4 15 6 20 11 29 2 5 5 10 5 11 0 0-2 1-5 0-6-1-8 0-9 3 0 3 0 3-21 4-6 0-12 0-13 1-2 1-2 3 1 5l3 1-3 1c-4 1-6 3-4 5 1 1 2 2 8 1 4 0 8 0 9 1 2 1 27 2 31 2 1 0 8-1 15-1zm328 0c10-1 20-1 21-1 4 0 16-2 21-3 12-3 14-4 14-5 0 0 1-3 4-5 5-6 7-11 9-19 0-3 1-7 2-9 0-2 1-3 1-4 1-2 3-8 5-12 1-2 2-6 2-8s1-6 2-7c2-4 2-6 4-19 0-4 1-6 2-7 1-2 1-5 0-10-1-7-4-10-8-10-2 0-5-1-7-2s-8-2-15-2c-6 0-11-1-12-1-1-2-8-3-14-3h-7c-1-1-1-7-2-17 0-6 0-15-1-19 0-5-1-18 0-29v-25c0-4-1-18-1-32-1-28-1-30 4-29 5 2 8 5 12 14 2 5 5 11 5 14 1 2 3 7 4 10 0 3 2 9 3 13 0 4 1 8 2 8 0 1 1 2 1 3 0 2 2 4 6 8 3 3 10 7 12 7 4 0 7-3 7-8 0-2 1-5 1-5 2-5 3-14 3-28-1-14-1-18-3-22-1-4-2-8-3-10 0-2-1-5-2-6 0-1-1-3-2-5-1-4-4-8-13-17-7-7-10-9-20-13-1 0-3-1-4-2s-2-1-5 0c-2 1-4 2-4 1 0 0 0-5 1-12 1-14 4-28 10-39 2-3 3-3 4 0 4 10 3 17-3 23-5 5-5 7-2 10 2 2 5 2 8-1 2-2 4-3 4-3 2-1 11-10 15-15 2-2 3-6 4-9 1-10 2-12 3-12 3-2 9 12 7 16-1 2-1 3 1 5 1 3 1 5 1 7-1 5 1 10 4 9 2 0 8-8 11-15 2-6 2-8 2-15s-1-9-4-15-3-8-2-9c1 0 6 1 6 3 0 0 1 1 2 1 2 0 5 0 8 1 6 2 9 1 8-4-1-7-2-9-6-14-3-3-5-6-5-6 0-1-7-9-11-12-2-2-5-3-9-3-5-1-6-1-9-4-1-2-3-4-3-4s-1-3-2-5c-2-4-4-5-6-5-4-1-9 2-11 7-2 4-3 4-9 2-4-2-17-5-25-6-2-1-4 0-5 1-3 2-6 8-6 10s-2 3-4 4c-2 2-3 2-2 6l1 4-6 3c-11 6-26 19-33 28-5 6-2 15 4 15 8-1 13-2 17-6 3-3 6-5 8-5 1 0 4-2 6-3 4-3 22-12 23-11 0 0-2 3-5 6-10 10-16 26-12 32 2 3 3 3 10 0 3-2 6-3 7-3 0 0 2-1 3-2s2-1 2-1c0 2-3 11-4 14-1 0-2 6-3 11 0 5-1 10-2 10 1 1 1 3 0 11 0 5-1 9-1 9s-2 0-4-1-4-1-6-1-4 1-5 1c-8 2-22 7-25 9-1 1-3 3-4 3-5 1-21 17-25 26-2 2-3 5-4 7-4 7-6 12-6 17-1 8 2 16 5 17s8 1 9 0 3-2 7-3c3-1 7-3 9-6 2-2 5-4 6-5 3-2 16-20 16-22 0-1 14-15 16-14 1 0 3 0 5 1l4 1v11c0 59 0 93 1 113l1 25h-5c-23 0-40 1-49 3-5 1-10 2-12 2-4 1-6 4-6 8v4c-3 1-1 9 3 19 2 4 5 18 7 30 1 8 4 20 8 32 0 2 1 4 1 5s1 2 1 3c1 2 0 2-7 2-3-1-5 0-7 1-1 1-4 2-11 2-6 0-9 0-10 1-1 2-4 2-17 2-14 0-16 0-16 2-1 3 2 4 10 4 4-1 15 0 24 0l16 1 1 3v3l17 1c10 0 18 0 18 1h1s9 0 19-1zM125 171c0-1 2-1 3-1 3 0 14-4 14-6h1c1 0 2-1 2-1 0-1 1-2 3-3 2-2 5-4 6-6 2-3 2-4 0-7s-6-7-14-10c-2-1-5-3-5-4h-5c-3 0-4-1-4-2s2-4 5-7l8-8c2-3 8-12 8-14 0-1-7-12-9-14-4-3-10-4-21-3-6 1-11 2-12 2 0 1-2 1-3 1s-4 2-5 3c-3 2-3 3-3 7 0 3 0 4 3 4 2 1 3 2 4 4 1 4 0 49-1 55-1 3 0 3 2 6 2 1 4 3 6 3 1 0 3 0 3 1 0 0 3 1 7 1s7-1 7-1zm121-12c7-3 11-8 14-14 2-6 3-37 1-40-2-2-4-2-8 0-3 1-3 1-2 7 1 11 1 25-2 30-2 5-5 7-10 8-8 2-8 2-12-7-4-7-5-9-5-16-1-5-1-10-2-10 0-1-1-6-1-12 0-10 0-10-3-11-2-1-3-1-5 0-2 2-2 2-2 12v14c1 3 2 8 2 11 2 6 3 9 8 19 3 7 6 9 11 11 4 1 11 1 16-2zm97 1c1-2-1-11-3-13-1-2-2-26-1-34s0-11-3-12c-1 0-1-1-1-2s-4-1-5 1c-2 2-2 5-2 25 0 23 0 24 2 28 3 5 8 10 10 10 1 0 2-1 3-3zm124-9c15-2 22-3 28-3 4 0 7 0 9-1s2-5-1-7c-2-2-7-2-39 0l-10 1-1-4c-2-4-2-12-1-13s2-6 2-12c0-10 0-12-1-13-4-4-8-3-9 3-1 5-2 20-2 31-1 10 1 15 5 18 2 2 11 2 20 0zm120-6c1-1 3-1 5-2 3-1 9-3 10-4s3-2 5-3c3-1 5-2 5-3 0 0 1-1 2-1 3-1 10-8 12-13 2-3 2-13 0-15 0 0-2-3-3-4-2-2-3-4-3-5h-2s-2-2-5-3c-4-3-10-4-24-5-7-1-9 0-9 0 0 1-2 2-3 2-3-1-7 2-7 5 0 0 0 2 1 3s1 2 7 1l7-1 2 5c1 4 2 8 2 18-1 15-1 16-9 15-7 0-9 4-4 9 2 3 8 4 11 1zM101 528h2c3-1 3 0 1 1-1 0-2 0-3-1zm118-3c-1-1-3-1-5-1-1 0-2-1-2-1 0-1-5-1-11-1-9 0-10-1-13-3-2-2-3-2-9-1h-18l1-2c1-2 2-3 5-3h8c2 1 3 1 4 0 2-3 2-5 0-7s-3-2-11-1c-9 0-12 0-12-3 0-2 3-3 8-2 4 0 5 0 6-2 3-4-3-7-13-6-7 0-10-1-9-5 0-2 1-2 7-2 7-1 8-1 9-3v-4c-1 0-6-1-11-1-6-1-11-1-11-2s4-1 8-2c10 0 12-2 6-6-3-1-4-2-11-1-6 1-8 0-8-1-1-2 0-3 6-3s8-1 7-3c-1-4-7-6-13-5-5 1-7 0-6-2 1 0 1 0 2 1 0 1 1 1 2 0 0-1 2-2 4-2 5-1 6-3 4-6-2-2-2-4-2-5 1-2 0-3-2-4s-3-2-3-3c0 0 4-1 10-1 11 0 20 0 71-4 8 0 19-1 24-3 5-1 9-1 9-1 2 1-4 29-7 35-1 2-3 10-7 24-1 5-2 10-2 11-1 1-2 6-3 13 0 1 0 2-1 3 0 0-1 3-2 5-2 9-6 12-9 10zm-74-8c-2-3-2-4 2-4s7 2 7 5c0 2-7 2-9-1zm-7-14c-1-3 4-5 7-2 2 2 1 4-3 4-3 1-3 0-4-2zm-6-11c-2-2-2-7-1-7s2-1 3-1c2-1 6 3 6 6 0 4-5 5-8 2zm-4-16c-1-1 2-2 4-1s1 3-1 3-3-1-3-2zm0-33v-1c1 0 2 0 2 1 0 0 0 1-1 1s-1-1-1-1zm3-10h1c3 0 3 0 1 1-1 0-2 0-2-1zm57-16c0-4 0-5 1-6 1 0 12-1 26-1 19-1 25-1 29 1 2 0 4 1 4 2s-7 3-17 6c-2 0-6 1-10 1-8 0-23 1-29 2l-4 1v-6zm-18-1c-2-1-1-1 1-2 4-2 7-1 6 1s-4 2-7 1zm252 106c-3-1-3-1 0-1 2 0 4 0 4 1s-1 1-4 0zm9-1v-1c1 0 2 0 2 1v1c-1 0-2-1-2-1zm42-9c1-1 2-1 3 0s0 2-1 2c-2 0-3-1-2-2zm14 1c0-1 1-1 3-2 5 0 7 0 7 2 0 1-9 1-10 0zm20-4c1-5-1-6-15-6-11 0-11 0-11-1 0-2 0-2 3-2 2 0 5 1 7 1 4 1 7-1 7-4s-3-4-14-4c-9 0-10-1-12-3-2-1-2-3-2-3 0-2 9-2 11 0 1 2 3 2 5-1 1-2 1-2 0-5-2-3-7-4-16-3-5 0-5 0-7-3-1-2-1-3-1-3 1-1 7-1 13-2 7 0 11-1 13-2s1-1-2-4l-4-2c-2 0-3-3-2-5 0-1-1-2-3-3-3-2-5-3-15-2-9 0-11 0-12-2-1-3 1-4 10-4 11 0 13-1 12-4 0-4-8-5-22-3-3 1-3 0-3-1s1-1 6-1c7 0 7-1 8-3 1-4-2-5-10-6-8 0-10 0-9-3 1-2 1-3 9-3 15 0 25 0 45-3 11-1 26-3 33-3s17-1 23-2c11-1 12-1 11 5-1 1-2 6-3 9-3 7-4 13-5 17 0 2-2 8-4 13-2 6-4 13-5 16 0 3-1 6-1 7-1 0-2 3-2 6-1 3-2 7-3 8s-2 4-2 6c-1 3-3 4-8 7s-7 4-15 4l-9 1 1-4zm-40-5c-1-1 0-1 1-1 2 0 3 1 2 2-1 0-2 0-3-1zm-7-12c-3-3-3-4-1-5 0 0 2 0 3 2 3 4 1 6-2 3zm-1-29c-4-1-4-3-1-4 5-1 17 1 14 3 0 1-11 1-13 1zm46-53c-1-2 0-7 1-8 2-1 28-1 34-1l4 1-4 2c-2 2-5 3-10 3-8 1-21 2-23 3h-2zm-49-88c0-1 1-4 5-8 7-7 17-12 24-12s7 2 0 6c-4 1-6 3-7 3-1 1-3 2-8 5-1 0-4 2-7 4-6 4-6 4-7 2zm345 195c0-1 0-1 1-1s1 0 1 1l-1 1-1-1zm25-1c-1-1-3-1-6-1s-4-1-4-1c0-1-1-2-2-3-1-2-3-2-10-2-5-1-8-1-8-2-1-1 0-2 4-1 4 0 5 0 6-2 1-1 1-2-1-4-2-1-4-2-10-2-7-1-7-1-8-3s-1-3-1-4c1-1 9-2 12-1 5 2 9-1 6-5-1-2-5-3-14-2-9 2-12 1-11-1 0-2 2-2 8-3 4-1 9-1 11-1 4-1 5-2 3-5-2-2-3-2-15-1h-13l-1-2c-2-4-1-4 4-4s10 2 9 4c-1 0 1 0 2-1 4-2 5-4 2-8-2-2-2-3-9-3h-10c-4 0-5-2-5-5-1-2 3-3 11-2 7 0 8 0 9-2 1-1 1-2-2-4-3-3-4-3-19-1-4 1-4 1-4-1s0-2 6-3c7-1 10-2 9-4 0-3-4-5-12-4-7 1-8 1-8-1s-1-2-2-2v-2c1-1 10-1 51-1 28 0 54 0 58-1h9c0 1-2 8-6 16-1 2-2 6-3 8 0 2-1 5-2 6-1 0-2 4-3 7s-2 6-2 7c-2 0-10 22-11 25-1 5-4 11-5 10 0-1-1-1 0 0 0 2-1 5-3 7l-4 4c-2 3-5 3-6 1zm20-3c0-1 0-2 1-4 1-1 2-3 2-4s0-3 2-5c1-2 2-4 2-5 0-3 3-11 5-10 0 1 1 0 0 0-1-2 2-10 4-12 1-1 2 0 2 1 0 2-1 3-2 3s-1 1-1 2c1 1-1 7-3 12-1 2-1 5-1 6s-1 3-3 5c-1 3-2 3-3 2v1c0 1 0 4-1 5-2 4-3 4-4 3zm-75-4c-2-2 1-3 7-3s8 1 6 3c-1 2-12 2-13 0zm-5-12c0-3 0-3 5-3 4-1 5 0 6 1 2 3 1 4-6 4l-6 1 1-3zm-5-13c0-1-1-5-2-9-1-6-1-8 0-8 2-1 5 1 4 3 0 1 0 2 1 2 0 0 1 1 1 3s0 4 1 4 2 2 3 3c2 2 2 3 0 4s-6 1-8-2zm103-15c0-2 2-8 3-9 2-1 2 5 0 7-2 3-3 3-3 2zm-56-51c-2 0-4-1-6-1l-4-1 3-2 3-3c0-1 2 0 4 2 4 3 5 4 4 5h-4zm14 0c-1-1-1-2-1-4 0-3 0-3 2-3 3 0 4 1 2 2s-2 2-1 3c1 0 2 1 2 2s-3 1-4 0zm22 0l-4-1 4-2c4-1 6-2 11 0 6 1 9 2 6 2-8 1-15 1-17 1zm10-2c0-1-1 0-2 0-1 1-1 1 1 1 1 0 1-1 1-1zm3-115c-1-3-1-11 0-24 0-5-1-7-3-10-1-2-3-4-3-5s0-2-1-3c-2-2-2-4-2-5-1-4-9-17-14-21-4-4-4-6-2-7 2-3 9 0 15 6 7 5 12 14 12 20 0 2 1 4 2 5 5 4 6 9 6 23 0 7 0 13-1 15-1 1-2 4-3 6s-2 4-3 4-2-2-3-4zm-109-14c-1-1-1-3-1-3 0-2 8-14 12-19 7-8 19-19 20-19 0 0 1-1 1-2 0-2-1-2-5-2-3 0-4 0-7 3-2 2-4 3-4 3h-1c0 1-3 5-7 9l-3 2 2-2c5-11 26-25 39-26 4-1 5 0 3 1-4 2-14 11-17 15-3 2-4 4-5 4 0 0-1 2-1 8 0 5-4 11-10 17-2 3-4 5-4 6-1 0-9 7-10 7l-2-2zm97-16c-1-2-1-4-1-4 1-1 3 4 2 5 0 1 0 1-1-1zm-3-6v-2c1-1 2 0 1 2 0 1 0 1-1 0zm-8-13c-7-8-8-11-8-13s1-2 1-2c2 0 6 5 9 10 2 3 4 11 3 10l-5-5zm-14-26c0-2 0-2 2-2 3 0 3 0 1 2s-3 2-3 0zm26-60c-1-7-1-7 2-7 2 0 3 0 3 2 0 1 0 1 1 1 1-1 0 5-1 7-3 3-4 2-5-3zm37-5c0-1-2-3-3-6-2-2-3-4-3-5s-2-2-3-4c-3-3-4-5-3-7 1-1 7 3 7 5 0 1 1 3 2 4 2 1 4 11 3 13 0 1 0 1 0 0zm-73-2c0-1 0-3 1-3 0 0 1 0 1 1s-1 3-1 3c-1 0-1 0-1-1zm4-6c0-2 4-6 5-6 0 0 2-2 5-4 4-3 7-3 7 1s-1 4-2 4c-2-1-11 2-13 4-1 2-2 2-2 1zm-49-3c-1-2 9-12 21-21 1-1 4-3 15-8 5-3 9-4 15-4l7-1 4 4c6 5 5 7-1 4-10-4-28 1-41 12-3 2-6 4-7 4 0 0-3 2-6 5-4 3-7 5-7 5zm80-12c-1 0-2-3-4-5-2-4-2-5-1-7 2-3 7-5 11-4 2 0 4-1 5-1 2-1 3-1 4 0 1 2 1 2 0 5-1 2-2 4-3 5-1 0-1 2-1 2 0 2-8 5-11 5zm36-10c0-2 2-2 2 0 0 1 0 2-1 2s-1-1-1-2zm-2-9c-5-1-7-3-4-5 1-2 5-2 8 1 4 3 4 5 2 4h-6zm-42-7c-1-1-4-3-6-4-3-1-6-3-7-5-3-3-6-3-7-1-2 2-3 1-3-2 0-2 2-2 10 0 12 3 21 7 21 10 0 1-2 2-3 2-3 2-3 2-5 0zm-9-9s-1-1-2-1-1 0-1 1c1 0 3 1 3 0zm29 9c-5-1-5-2-2-7 1-2 2-3 2-3 0-1 2 0 3 0 3 2 5 8 3 10 0 1-1 1-1 1-1 0-3 0-5-1zm-743 48c-1 0-1-3-1-5s-1-4-1-4c-2-1-2-8 0-9 2-2 19 1 25 4 5 3 6 5 3 7-2 2-9 6-11 6-1 0-1 0-2 1 0 1-12 2-13 0zm-2-36c-1-1-1-6-1-13 0-16 0-16 10-16 10-1 13 1 13 7 0 5-1 6-6 11-2 3-5 6-6 6s-2 0-3 1c-1 3-6 5-7 4zm488 3s-1-5-1-11c-1-5-2-12-2-14-1-4-1-4 2-4 5 0 9 2 14 6 3 3 4 4 4 8s-1 5-4 8c-4 3-11 9-12 9 0 0-1-1-1-2z" fill="#FDFDFD"/><path d="M151 538c-1-2-2-2-29-2-30 0-29 0-29-5 0-2-1-2-7-1h-7c-3-2 5-6 14-7 8-1 10-3 2-3-7 1-12-1-11-3 0-1 1-2 5-3 8-1 36-3 38-3h3c1-1-2-10-5-14-1-1-1-3-1-4l-1-2c-1-1-6-20-6-24 0-2-1-6-3-9-1-4-3-7-3-8 0 0 0-2-1-4-2-4-5-12-5-18-1-5 2-11 6-12 8-2 10-3 12-4 0-1 3-2 6-2s8-1 13-2c4 0 10-1 14-1 9-1 19-2 20-3s1-6-1-8c0 0-2-1-4-1-6 0-7-2-7-6 0-2 1-3 3-5s5-3 5-3c1 0 2-2 2-6v-5h4c2 0 5-1 7-2 4-2 7-2 9 1 4 5 0 13-8 16-2 1-2 2-2 8 0 11 0 10 17 10 22-1 44-1 46 0 1 1 4 2 6 2 7 2 8 5 8 18v11c-1 0-2 3-2 8-1 5-2 10-3 12-1 1-2 7-3 11 0 5-1 10-2 11 0 1-1 6-1 11s-1 11-1 14c-1 3-2 8-2 11-1 8-3 12-8 15-2 1-4 3-5 5-2 3-3 3-7 4h-13c-4-1-8-1-9-1-1 1-8 2-15 2s-14 1-15 1-7 1-12 1c-9 1-10 1-12-1zm-45-10h-5c2 1 5 1 5 0zm119-6c1-2 3-5 3-7 1-2 2-5 2-5 1-1 1-2 1-3 1-7 2-12 3-13 0-1 1-6 2-11 4-14 6-22 7-24 3-6 9-34 7-35 0 0-4 0-9 1-5 2-16 3-24 3-51 4-60 4-71 4-6 0-10 1-10 1 0 1 1 2 3 3s3 2 2 4c0 1 0 3 2 5 2 3 1 5-4 6-2 0-4 1-4 2-1 1-2 1-2 0-1-1-1-1-2-1-1 2 1 3 6 2 6-1 12 1 13 5 1 2-1 3-7 3s-7 1-6 3c0 1 2 2 8 1 7-1 8 0 11 1 6 4 4 6-6 6-4 1-8 1-8 2s5 1 11 2c5 0 10 1 11 1v4c-1 2-2 2-9 3-6 0-7 0-7 2-1 4 2 5 9 5 10-1 16 2 13 6-1 2-2 2-6 2-5-1-8 0-8 2 0 3 3 3 12 3 8-1 9-1 11 1s2 4 0 7c-1 1-2 1-4 0h-8c-3 0-4 1-5 3l-1 2h18c6-1 7-1 9 1 3 2 4 3 13 3 6 0 11 0 11 1 0 0 1 1 2 1 2 0 4 0 5 1 2 1 4 1 6-3zm-71-4c0-3-3-5-7-5s-4 1-2 4 9 3 9 1zm-8-14c1-2-2-5-4-4-3 0-5 1-4 3s1 3 4 2c2 0 4-1 4-1zm-8-11c1 0 2-2 2-3 0-3-4-7-6-6-1 0-2 1-3 1s-1 5 1 7 3 2 6 1zm-5-17c1-1-2-2-4-1s-1 3 2 3c1 0 2-1 2-2zm-3-33c0-1-1-1-2-1v1s0 1 1 1 1-1 1-1zm5-10h-4c1 1 4 1 4 0zm70-12c5-1 12-1 16-1s8-1 10-1c10-3 17-5 17-6s-2-2-4-2c-4-2-10-2-29-1-14 0-25 1-26 1-1 1-1 2-1 6v6l4-1c2 0 8-1 13-1zm-28-6c1-2-2-3-6-1-2 1-3 1-1 2 3 1 6 1 7-1zm262 116c-8-1-15-1-16-2s-5-1-9-1c-6 1-7 0-8-1-2-2 0-4 4-5l3-1-3-1c-3-2-3-4-1-5 1-1 7-1 13-1 21-1 21-1 21-4 1-3 3-4 9-3 3 1 5 0 5 0 0-1-3-6-5-11-5-9-7-14-11-29v-8c0-5-3-12-6-18-1-2-2-7-3-13-2-5-3-11-4-12-1-3 0-7 3-8 19-10 16-9 31-9 9 0 17-1 23-2l8-2 1-3c0-2 0-7-1-10 0-3-1-17-1-30-1-31-1-37-3-37-1 0-2 0-3 1 0 1-4 3-8 5s-8 4-8 5c-1 1-3 2-5 3s-6 4-7 5c-5 5-8 5-11 2-2-3-3-4-2-9 0-4 1-7 3-10 3-5 10-14 12-13 0 0 2-2 5-4 5-3 15-6 20-6 2 0 4-1 4-1 0-1 0-2-1-2s-1 0 0 0c1-1 1-4 1-12-2-18-1-36 3-42 3-4 7-7 16-7 5-1 6 0 9 3 5 4 5 7 1 12-3 3-4 4-3 7 1 1 1 3 1 3s-1 1-3 1c-2 2-8 2-12 0-3-1-4 2-4 8-1 10 0 28 1 35 1 3 1 7 1 8s0 3 1 4c1 2 2 2 4 1 1-1 3-1 4-1 2 1 9 7 11 11l4 4c2 0 4 2 5 2 2 2 5 1 5-2 0-4-8-15-12-20-4-4-8-6-12-5-4 0-7-2-6-5 0-3 1-3 4-3 7-1 12 1 18 8 4 3 7 7 8 9s2 4 3 4c0 0 1 3 3 5 1 3 2 5 2 13-1 8-1 9-3 11-1 1-2 1-3 1l-6-4c-2-3-6-6-9-8-2-2-6-5-8-7-3-3-5-4-8-4h-5l1 17c0 9 1 21 1 26s1 14 2 19l1 10 8 1c4 0 13 0 19-1 11 0 21 2 26 5 2 1 4 1 7 1s5 0 7 1c4 2 4 3 4 8 0 3 0 5 1 6 0 1-1 11-3 17-1 3-2 8-3 12-1 3-2 7-3 9-3 6-3 8-5 15 0 4-2 9-3 11s-2 7-3 11-2 7-3 8c0 1-1 4-1 8-1 9-5 17-9 17-1 1-3 0-5-1-2-2-8-1-13 1-3 2-13 5-19 6-7 1-16 1-37 2-7 0-14 1-15 1h-15zm-13-9c0-1-2-1-4-1-3 0-3 0 0 1s4 1 4 0zm7-1c0-1-1-1-2-1v1s1 1 2 1v-1zm43-9c-1-1-2-1-3 0s0 2 2 2c1 0 2-1 1-2zm21 1c0-2-2-2-7-2-2 1-3 1-3 2 1 1 10 1 10 0zm33-5c5-3 7-4 8-7 0-2 1-5 2-6s2-5 3-8c0-3 1-6 2-6 0-1 1-4 1-7 1-3 3-10 5-16 2-5 4-11 4-13 1-4 2-10 5-17 1-3 2-8 3-9 1-6 0-6-11-5-6 1-16 2-23 2s-22 2-33 3c-20 3-30 3-45 3-8 0-8 1-9 3-1 3 1 3 9 3 8 1 11 2 10 6-1 2-1 3-8 3-5 0-6 0-6 1s0 2 3 1c14-2 22-1 22 3 1 3-1 4-12 4-9 0-11 1-10 4 1 2 3 2 12 2 10-1 12 0 15 2 2 1 3 2 3 3-1 2 0 5 2 5l4 2c3 3 4 3 2 4s-6 2-13 2c-6 1-12 1-13 2 0 0 0 1 1 3 2 3 2 3 7 3 9-1 14 0 16 3 1 3 1 3 0 5-2 3-4 3-5 1-2-2-11-2-11 0 0 0 0 2 2 3 2 2 3 3 12 3 11 0 14 1 14 4s-3 5-7 4c-2 0-5-1-7-1-3 0-3 0-3 2 0 1 0 1 11 1 14 0 16 1 15 6l-1 4 9-1c8 0 10-1 15-4zm-60-5h-2c-1 0-2 0-1 1 2 2 4 1 3-1zm-7-11c0-2-3-6-4-5-2 1-2 2 1 5 2 2 4 2 3 0zm9-30c3-2-9-4-14-3-3 1-3 3 1 4 2 0 13 0 13-1zm44-54c5 0 11-1 14-1 5 0 8-1 10-3l4-2-4-1c-6 0-32 0-34 1-1 1-2 6-1 8h2c1 0 5-1 9-2zm-53-88c3-2 6-4 7-4 5-3 7-4 8-5 1 0 3-2 7-3 7-4 7-6 0-6s-17 5-24 12c-4 4-5 7-5 8 1 2 1 2 7-2zm314 211c0-1-8-1-18-1l-17-1v-3l-1-3-16-1c-9 0-20-1-24 0-8 0-11-1-10-4 0-2 2-2 16-2 13 0 16 0 17-2 1-1 4-1 10-1 7 0 10-1 11-2 2-1 4-2 7-1 7 0 8 0 7-2 0-1-1-2-1-3s-1-3-1-5c-4-12-7-24-8-32-2-12-5-26-7-30-4-10-6-18-3-19v-4c0-4 2-7 6-8 2 0 7-1 12-2 9-2 26-3 49-3h5l-1-25c-1-20-1-54-1-113v-11l-4-1c-2-1-4-1-5-1-2-1-16 13-16 14 0 2-13 20-16 22-1 1-4 3-6 5-2 3-6 5-9 6-4 1-6 2-7 3s-6 1-9 0-6-9-5-17c0-5 2-10 6-17 1-2 2-5 4-7 4-9 20-25 25-26 1 0 3-2 4-3 3-2 17-7 25-9 1 0 3-1 5-1s4 0 6 1 4 1 4 1 1-4 1-9c1-8 1-10 0-11 0 0-1 0 0 0s2-5 2-10c1-5 2-11 3-11 1-3 4-12 4-14 0 0-1 0-2 1s-3 2-3 2c-1 0-4 1-7 3-7 3-8 3-10 0-4-6 2-22 12-32 3-3 5-6 5-6-1-1-19 8-23 11-2 1-5 3-6 3-2 0-5 2-8 5-4 4-9 5-17 6-6 0-9-9-4-15 7-9 22-22 33-28l6-3-1-4c-1-4 0-4 2-6 2-1 4-2 4-4s3-8 6-10c1-1 3-2 5-1 8 1 21 4 25 6 6 2 7 2 9-2 2-5 7-8 11-7 2 0 4 1 6 5 1 2 2 5 2 5s2 2 3 4c3 3 4 3 9 4 4 0 7 1 9 3 4 3 11 11 11 12 0 0 2 3 5 6 4 5 5 7 6 14 1 5-2 6-8 4-3-1-6-1-8-1-1 0-2-1-2-1 0-2-5-3-6-3-1 1-1 3 2 9s4 8 4 15 0 9-2 15c-3 7-9 15-11 15-3 1-5-4-4-9 0-2 0-4-1-7-2-2-2-3-1-5 2-4-4-18-7-16-1 0-2 2-3 12-1 3-2 7-4 9-4 5-13 14-15 15 0 0-2 1-4 3-3 3-6 3-8 1-3-3-3-5 2-10 6-6 7-13 3-23-1-3-2-3-4 0-6 11-9 25-10 39-1 7-1 12-1 12 0 1 2 0 4-1 3-1 4-1 5 0s3 2 4 2c10 4 13 6 20 13 9 9 12 13 13 17 1 2 2 4 2 5 1 1 2 4 2 6 1 2 2 6 3 10 4 9 3 41 0 50 0 0-1 3-1 5 0 5-3 8-7 8-2 0-9-4-12-7-4-4-6-6-6-8 0-1-1-2-1-3-1 0-2-4-2-8-1-4-3-10-3-13-1-3-3-8-4-10 0-3-3-9-5-14-4-9-7-12-12-14-5-1-5 1-4 29 0 14 1 28 1 32v25c-1 11 0 24 0 29 1 4 1 13 1 19 1 10 1 16 2 17h7c6 0 13 1 14 3 1 0 6 1 12 1 7 0 13 1 15 2s5 2 7 2c4 0 7 3 8 10 1 5 1 8 0 10-1 1-2 3-2 7-2 13-2 15-4 19-1 1-2 5-2 7s-1 6-2 8c-2 4-4 10-5 12 0 1-1 2-1 4-1 2-2 6-2 9-2 8-4 13-9 19-3 2-4 5-4 5 0 1-2 2-14 5-5 1-17 3-21 3-1 0-11 0-21 1s-19 1-19 1h-1zm26-14c0-1 0-1-1-1s-1 0-1 1l1 1 1-1zm29-2l4-4c2-2 3-5 3-7-1-1 0-1 0 0 1 1 4-5 5-10 1-3 9-25 11-25 0-1 1-4 2-7s2-7 3-7c1-1 2-4 2-6 1-2 2-6 3-8 4-8 6-15 6-16h-9c-4 1-30 1-58 1-41 0-50 0-51 1v2c1 0 2 0 2 2s1 2 8 1c8-1 12 1 12 4 1 2-2 3-9 4-6 1-6 1-6 3s0 2 4 1c15-2 16-2 19 1 3 2 3 3 2 4-1 2-2 2-9 2-8-1-12 0-11 2 0 3 1 5 5 5h10c7 0 7 1 9 3 3 4 2 6-2 8-1 1-3 1-2 1 1-2-4-4-9-4s-6 0-4 4l1 2h13c12-1 13-1 15 1 2 3 1 4-3 5-2 0-7 0-11 1-6 1-8 1-8 3-1 2 2 3 11 1 9-1 13 0 14 2 3 4-1 7-6 5-3-1-11 0-12 1 0 1 0 2 1 4s1 2 8 3c6 0 8 1 10 2 2 2 2 3 1 4-1 2-2 2-6 2-4-1-5 0-4 1 0 1 3 1 8 2 7 0 9 0 10 2 1 1 2 2 2 3 0 0 1 1 4 1s5 0 6 1c1 2 4 2 6-1zm18-5c1-1 1-4 1-5v-1c1 1 2 1 3-2 2-2 3-4 3-5s0-4 1-6c2-5 4-11 3-12 0-1 0-2 1-2s2-1 2-3c0-1-1-2-2-1-2 2-5 10-4 12 1 0 0 1 0 0-2-1-5 7-5 10 0 1-1 3-2 5-2 2-2 4-2 5s-1 3-2 4c-2 2-1 5 1 5l2-4zm-66-1c2-2 0-3-6-3s-9 1-7 3c1 2 12 2 13 0zm-6-11c0-1 0-2-1-3s-2-2-6-1c-5 0-5 0-5 3l-1 3 6-1c3 0 6-1 7-1zm-9-12c2-1 2-2 0-4-1-1-2-3-3-3s-1-2-1-4-1-3-1-3c-1 0-1-1-1-2 1-2-2-4-4-3-1 0-1 2 0 8 1 9 3 12 6 11h4zm98-19c2-2 2-8 0-7-1 1-3 7-3 9 0 1 1 1 3-2zm-54-50c0-1-3-3-5-4-2-2-4-3-4-2l-3 3-3 2 4 1c8 1 11 1 11 0zm13 1c0-1-1-2-2-2-1-1-1-2 1-3s1-2-2-2c-2 0-2 0-2 3 0 2 0 3 1 4s4 1 4 0zm35-1c3 0 0-1-6-2-5-2-7-1-11 0l-4 2 4 1c2 0 9 0 17-1zm2-116c1-2 2-5 3-6 1-2 1-8 1-15 0-14-1-19-6-23-1-1-2-3-2-5 0-6-5-15-12-20-6-6-13-9-15-6-2 1-2 3 2 7 5 4 13 17 14 21 0 1 0 3 2 5 1 1 1 2 1 3s2 3 3 5c2 3 3 5 3 10-1 19 0 28 3 28 1 0 2-2 3-4zm-108-15c2-2 4-4 5-4 0-1 2-3 4-6 6-6 10-12 10-17 0-6 1-8 1-8 1 0 2-2 5-4 3-4 13-13 17-15 2-1 1-2-3-1-13 1-34 15-39 26l-2 2 3-2c4-4 7-8 7-9h1s2-1 4-3c3-3 4-3 7-3 4 0 5 0 5 2 0 1-1 2-1 2-1 0-13 11-20 19-4 5-12 17-12 19 0 1 3 5 3 5s3-2 5-3zm90-18c-1-3-2-1 0 3 1 2 1 2 1 1s0-2-1-4zm-2-5c-1-1-2 0-1 2 1 1 1 1 1 0 1-1 0-2 0-2zm-4-9c-1-5-9-17-12-17-1 0-1 4 1 7s11 13 11 13c1 0 0-1 0-3zm-16-28c2-2 2-2-1-2-2 0-2 0-2 2s1 2 3 0zm28-57c1-2 2-8 1-7-1 0-1 0-1-1 0-2-1-2-3-2-3 0-3 0-2 7 1 5 2 6 5 3zm32-15c-1-3-2-6-3-6-1-1-2-3-2-4 0-2-6-6-7-5-1 2 0 4 3 7 1 2 3 3 3 4s1 3 3 5c1 3 3 5 3 6s0 1 0 0v-7zm-71 3c0-1-1-1-1-1-1 0-1 2-1 3s0 1 1 1c0 0 1-2 1-3zm4-5c2-2 11-5 13-4 1 0 2 0 2-4s-3-4-7-1c-3 2-5 4-5 4-1 0-5 4-5 6 0 1 1 1 2-1zm-38-12c1 0 4-2 7-4 13-11 31-16 41-12 6 3 7 1 1-4l-4-4-7 1c-6 0-10 1-15 4-11 5-14 7-15 8-12 9-22 19-21 21 0 0 3-2 7-5 3-3 6-5 6-5zm76-5c1 0 2-1 2-2 0 0 0-2 1-2 1-1 2-3 3-5 1-3 1-3 0-5-1-1-2-1-4 0-1 0-3 1-5 1-4-1-9 1-11 4-1 2-1 3 1 7 3 6 6 6 13 2zm29-7c0-2-2-2-2 0 0 1 0 2 1 2s1-1 1-2zm4-9c0-2-7-6-9-6-1 0-3 0-3 1-3 2-1 4 4 5h8zm-45-7c1 0 3-1 3-2 0-3-9-7-21-10-8-2-10-2-10 0 0 3 1 4 3 2 1-2 4-2 7 1 1 2 4 4 7 5 2 1 5 3 6 4 2 2 2 2 5 0zm21 0c2-2 0-8-3-10-1 0-3-1-3 0 0 0-1 1-2 3-4 6-4 6 7 8 0 0 1 0 1-1zm-752 59c0-1-2-1-3-1-2 0-4-2-6-3-2-3-3-3-2-6 1-6 2-51 1-55-1-2-2-3-4-4-3 0-3-1-3-4 0-4 0-5 3-7 1-1 4-3 5-3s3 0 3-1c1 0 6-1 12-2 11-1 17 0 21 3 2 2 9 13 9 14 0 2-6 11-8 14l-8 8c-3 3-5 6-5 7s1 2 4 2h5c0 1 3 3 5 4 8 3 12 7 14 10s2 4 0 7c-1 2-4 4-6 6-2 1-3 2-3 3 0 0-1 1-2 1h-1c0 2-11 6-14 6-1 0-3 0-3 1 0 0-3 1-7 1s-7-1-7-1zm16-11c1-1 1-1 2-1 2 0 9-4 11-6 3-2 2-4-3-7-6-3-23-6-25-4-2 1-2 8 0 9 0 0 1 2 1 4 0 6 1 7 8 6 3 0 6-1 6-1zm-8-40c1-1 2-1 3-1s4-3 6-6c5-5 6-6 6-11 0-6-3-8-13-7-10 0-10 0-10 16 0 7 0 12 1 13s6-1 7-4zm111 41c-5-2-8-4-11-11-5-10-6-13-8-19 0-3-1-8-2-11v-14c0-10 0-10 2-12 2-1 3-1 5 0 3 1 3 1 3 11 0 6 1 11 1 12 1 0 1 5 2 10 0 7 1 9 5 16 4 9 4 9 12 7 5-1 8-3 10-8 3-5 3-19 2-30-1-6-1-6 2-7 1-1 3-1 4-1 4 0 5 2 5 19-1 21-2 25-10 32-5 5-16 8-22 6zm105-1c-1-2-3-5-5-7-2-4-2-5-2-28 0-20 0-23 2-25 1-2 5-2 5-1s0 2 1 2c3 1 4 4 3 12s0 32 1 34c1 0 2 3 2 6 3 9-1 12-7 7zm112-9c-5-4-7-14-4-37 1-18 3-21 10-15 1 1 1 3 1 13 0 6-1 11-2 12s-1 9 1 13l1 4 10-1c32-2 37-2 39 0 3 2 3 6 1 7s-5 1-9 1c-6 0-13 1-28 3-9 2-18 2-20 0zm129-7c-5-5-3-9 4-9 8 1 8 0 9-15 0-10-1-14-2-18l-2-5-7 1c-6 1-6 0-7-1s-1-3-1-3c0-3 4-6 7-5 1 0 3-1 3-2 0 0 2-1 9 0 14 1 20 2 24 5 3 1 5 3 5 3h2c0 1 1 3 3 5 1 1 3 4 3 4 2 2 2 12 0 15-2 5-9 12-12 13-1 0-2 1-2 1 0 1-2 2-5 3-2 1-4 2-5 3s-7 3-10 4c-2 1-4 1-5 2-3 3-9 2-11-1zm29-18c2-1 6-4 8-6 3-3 4-4 4-8s-1-5-4-8c-5-4-9-6-14-6-3 0-3 0-2 4 0 2 1 9 2 14 1 11 1 13 2 13 0 0 2-2 4-3zm247 290c1 0 2-1 2 0 0 0 0 1-1 1-2 0-2 0-1-1zm-27-313c0-1 0-1 1-1 2 1 2 2 1 2s-2-1-2-1z" fill="#434343"/></g></svg>