<svg width="306" height="466" viewBox="0 0 306 466" xmlns="http://www.w3.org/2000/svg"><title>canvas</title><path d="M261 465c-3-1-6-5-5-7h6c8 0 16-4 14-8 0-1-3-2-5-3-6-2-12-7-13-10v-6c1-5 8-10 13-10s10 3 10 6c1 3 0 3-2 2-8-2-8-2-12 1-3 3-3 3-2 6 1 1 2 3 3 3 6 2 13 6 14 7 2 3 2 8-1 12-3 5-13 8-20 7zm-229-5c-2-2-5-4-6-7-2-4-3-5-2-9 1-7 4-12 8-17 7-7 15-8 20-3 4 4 3 8-2 10-4 1-7 0-4-3 1-2 0-4-4-3-5 2-11 12-11 17-1 3 2 8 4 9 3 2 9 2 13 0s8-1 8 2c0 5-17 7-24 4zm57-3c-2-2-3-3-2-6 0-3 0-3-3-3-4 1-6 2-7 5 0 3-3 4-5 2s-2-2-1-7c1-3 3-6 4-8s2-6 2-8 2-5 3-6 2-2 2-3c0-2 3-3 5-1s4 7 5 14c0 2 2 5 3 6 2 1 2 1 0 3s-2 3-1 5c1 1 2 4 2 6 0 3-1 4-3 4-1 0-3-2-4-3zm-3-19c0-2-3-2-3 1-1 1 0 2 1 2s2-1 2-3zm24 15c-1-2-1-4 0-8 1-3 2-7 2-10 1-7 2-8 5-8 2 0 4 2 8 7s7 9 8 9c2 2 2 2 4-8 1-7 1-8 4-9 2-2 3-2 4 0 2 1 2 2 0 7-1 3-3 8-3 13-2 12-5 12-15 1-3-4-6-7-7-7 0-1-4 12-4 14 0 3-5 2-6-1zm122 0c-2-1-2-3-2-4s-1-1-3-1-5-1-6-1c-3-1-3-1-3 2 0 2-3 6-4 6s-2-1-3-2c-2-3-2-7 1-14 1-2 3-5 3-7 1-4 7-9 10-9s5 2 8 9c1 4 2 5 4 6s3 3 2 5c-1 0-1 3-1 6 0 5 0 6-2 6-1 0-3 0-4-2zm-5-14v-3l-2-3-2 3c-3 4-3 6 0 5 2 0 3-1 4-2zm-50 13c-1 0-2-3-2-4-1-2-2-4-3-5v-3s-2-3-3-5c-2-3-3-8-1-9h3c2 0 3 2 5 7 1 4 3 7 3 7 1 0 3-3 5-6 5-9 8-12 11-12 4 0 3 4-1 10-3 3-8 12-11 19-1 3-5 3-6 1zm114-71c-1-2-2-4-2-6 0-1-2-5-4-7-2-3-3-6-3-7 0-3-3-3-17-1-17 2-26 3-29 1-3-1-4-1-7-1-2 1-5 1-7 1s-3 1-3 1c0 1-2 1-3 1-4-1-27 3-30 5h-4c-2-1-2-3-3-9 0-4 0-5-2-6-3-2-4-3-4-7-1-3-1-3 12-3 6 1 12 0 15 0 7-2 10-1 9 3v3c1 0 2-1 2-2s0-1 0 0c1 1 2 1 4 1 2-1 8-2 13-3 8-1 11-1 15 0 2 0 6 1 9 1 2 1 5 2 6 3 2 1 3 1 4 0 3-2 6-1 7 1s8 2 9 0-2-10-5-16c-1-2-3-8-5-14-1-5-3-12-4-13-1-2-3-7-4-10-1-4-4-8-5-10s-2-5-2-6c0 0-2-5-4-9s-5-9-5-10c-1-4-2-6-5-4h-7c-3 0-8 1-11 1-6 2-19 4-26 5-9 1-17 3-17 4s-1 8-1 16c-1 16-2 30-3 40-1 4-2 11-3 16 0 5-1 10-1 11-1 1-1 6 0 11 0 6 0 9-1 10 0 1-3 2-8 2-7 0-8-1-11-3-2-3-2-4-2-12 0-5 0-10 1-11 2-5 3-35 3-58-1-7-1-14 0-16 1-4 1-4-8-4h-15l-9-1-4-4c-2-2-4-4-4-5s-1-4-2-7c-3-5-4-8-9-25-2-5-3-11-4-13-2-3-2-3-4-2-1 1-2 4-3 6-2 2-3 6-4 8-1 1-5 8-8 15s-7 13-8 14-3 5-5 9-5 8-6 9c-1 2-1 3-1 4s-7 12-17 27c-3 6-7 13-8 16-2 6-5 9-8 10-2 0-3 1-4 3 0 2-1 2-5 1-15-2-15-2-16-5 0-3 1-4 6-10 1-2 3-3 3-4s0-2 1-2c1-1 2-3 2-4s1-2 3-3 4-3 6-8c2-3 4-7 6-8 2-3 18-28 18-30 0 0 1-3 3-6 3-5 19-37 22-44 1-2 2-5 3-6 0-1 0-2 1-3 0-1 2-6 5-11 2-6 4-11 4-12 0 0-1-6-4-11-2-6-5-14-6-18-2-5-4-10-6-13-4-11-6-18-8-26 0-3-3-12-5-19-3-7-5-14-5-16-1-2-2-4-2-5-1-2-3-8-3-10 0-1 1-2 2-3 2 0 4-2 5-3 3-2 4-3 13-3 11 0 12 0 25-2 10-1 11-2 10-7-1-4-1-4 2-7 4-5 9-8 14-9 2 0 4-1 4-2s-2-4-3-7-2-6-2-7c1-3 6-7 11-9 6-2 10-2 12 0 1 2 5 11 5 14s2 4 6 2c6-2 14 0 14 4 0 2 4 11 7 13s3 2 14 0c15-2 33-4 36-3 2 0 4 3 8 10 3 6 6 10 6 11 0 0 1 3 2 5 2 3 4 6 4 8 0 1 2 5 3 8s4 10 5 16c1 5 3 11 4 13 1 3 2 7 6 20 1 4 4 11 5 15s3 10 4 13c3 9 6 17 7 20 1 1 1 2 1 3 0 0 0 1 1 3 1 1 2 3 2 4s0 3 1 5c1 1 3 6 4 9 3 11 6 18 9 22 1 1 3 5 3 6 1 4 3 11 7 18 3 5 3 5 1 7-2 3-10 5-22 5-6 0-11 1-11 1 0 1 2 4 4 8s4 8 4 9 0 3 1 4c2 3 4 13 7 25 2 11 6 26 8 28 0 1 2 5 3 10 2 4 3 8 4 8 0 0 1 1 1 2 0 2 1 5 2 8 2 4 3 7 2 8 0 1-2 2-4 2-5 2-5 3-3 10 1 5 0 8-3 8s-4-1-4-3zm-129-22c0-12 1-25 5-39 1-9 3-50 2-52h-2c-2 1-3 9-4 26 0 9-1 20-1 25-1 5-2 17-3 26-1 14-1 18 0 19 2 2 4 0 3-5zm132-3l-1-1h-1c0 1 0 2 1 2l1-1zm-2-8c0-3-4-10-5-8v-7c-1 0-4-10-6-22-3-12-7-24-8-27s-3-8-4-11c-1-4-3-9-5-13-3-7-4-7-6-7s-2 0-2 2 0 5 2 8c1 2 2 5 3 7 0 1 3 9 6 18s6 18 7 22c2 3 4 8 5 12 2 4 3 9 4 12 4 11 9 19 9 14zM18 323c1-2 1-4 1-4-1-1-4 1-5 3-2 4-2 5 1 5 1 0 2-2 3-4zm11-18c4-6 5-10 1-4-1 1-3 4-4 5-1 2-2 4-2 5 0 3 2 1 5-6zm7-14s-1 1-1 2c-2 3-2 3 0 1 1-1 2-2 1-3zm6-7v-1c-1 0-2 1-2 2-3 5-1 4 2-1zm86-30c3 2 26-2 29-4 1-1 5-2 10-3 5 0 18-2 28-4 17-3 21-3 42-3 14 0 23-1 26-1 1-1 8-2 14-2 11-2 14-3 11-5-1-1-3-4-4-7-4-14-10-30-11-33-2-3-3-8-4-12-2-4-4-10-5-13-1-4-3-11-5-16-1-4-3-9-4-11-1-1-2-4-2-6s-2-5-3-8c-1-4-2-10-4-15-1-6-3-12-4-14s-1-4-1-6c0-5-18-43-23-49-2-2-3-2-7-3-7 0-34 3-41 4-4 1-10 2-16 3-5 1-16 3-22 4-7 1-14 2-15 3-2 0-4 0-5 2-2 1-3 2-7 1-2 0-10 0-18 1-7 1-16 3-20 3-11 1-13 1-12 4 0 2 0 4 1 5s2 4 3 7c1 7 12 39 17 50 1 3 4 9 5 13s4 11 6 16c3 8 3 10 6 21 1 4 3 10 5 14 1 4 2 8 2 10l5 10c1 4 3 9 4 11 1 7 8 26 12 32 1 2 2 2 3 1h4zm5-217c2 0 4-1 5-1 0-1 2-2 3-2 2 0 11-2 13-4 2-1 2-4 0-5s-29 6-35 9c-2 1-4 2-5 2s-1 1-1 2 7 0 20-1zm0-23c0-2-3-4-4-4-3 0-4 2-3 4s7 2 7 0zm-16 328h-15c-7 0-14-1-17-1-4-1-10-2-15-2-6-1-11-2-12-2-5-1-18-4-18-4v-2c1-2 2-2 13-1 7 0 17 1 22 2 5 0 20 1 33 1 23 0 24 0 26 2s2 2 0 5c-1 2-2 3-6 3h-6c-1 0-4 0-5-1z" fill="#434343" fill-rule="evenodd"/></svg>