<svg width="348" height="498" viewBox="0 0 348 498" xmlns="http://www.w3.org/2000/svg"><title>delivery</title><path d="M322 496c-3-3-2-5 0-9 2-2 3-4 3-5 0 0 2-3 3-6 2-3 3-6 2-6-4-2-11-7-13-11-4-6-4-7-1-8 1-1 2 0 4 2 7 8 7 9 11 9s5-1 6-7c1-3 3-5 4-6 1-2 2-2 4 0 1 1 3 2 3 4 0 3-3 9-5 10-1 1-14 29-14 31 0 1-3 4-5 4-1 0-2-1-2-2zm-58-4c-1-2-1-10 0-22 2-15 3-17 11-19s13-2 15 1c3 5 0 11-7 15-3 1-5 2-5 2-1 1 8 10 11 11 1 1 4 1 6 1 2-1 3 0 4 1 3 3-4 7-11 6-2 0-5-3-9-7s-7-7-7-6c0 0-1 4-1 8-1 4-1 8-2 8-1 2-4 2-5 1zm16-32c4-2 4-4 0-4-5 1-7 2-7 5 0 2 3 2 7-1zm-62 28l-3-3c-1-2-1-28 0-29 1-2 14-4 20-4s12 2 10 4c0 1-5 1-11 2-5 0-10 1-11 2-1 0-1 2-1 4 0 3 0 4 4 4 2 0 5-1 6-2 2-1 6 1 6 3s-3 3-9 4-7 2-7 5v3l8 1c4 0 9 1 10 1 2 1 2 4 0 5-1 1-19 1-22 0zm-165-1c-5-1-5-6-3-20 1-4 1-6 1-8-2-4-1-5 3-5 1 0 6-1 10-3 9-2 13-2 13 2 0 1-1 3-2 3-4 0-15 2-15 3-2 1-2 8-1 9h6c7-1 8-1 9 1 1 3-1 4-9 5-8 2-10 3-9 5s2 2 9 1c5 0 8 0 9 1 2 2 1 5-2 6-4 1-17 1-19 0zm128 0c-2-1-5-6-8-12-2-5-5-11-6-12-2-2-2-5 1-6s5 2 10 13c3 5 5 10 6 10s4-7 7-16c2-7 5-9 7-6 2 1 2 2 0 5-1 2-1 4-1 4 0 3-7 17-9 19-3 3-5 3-7 1zM4 486c-4-1-4-5-2-6 2 0 3 0 5 1h3s1-6 1-12c0-10 0-13-1-13s-1-2-1-3c0-2 0-3 3-4 6-3 13-1 19 5 6 5 7 11 4 18-2 5-7 10-14 13-5 3-14 3-17 1zm18-9c9-5 11-17 2-21-2-1-3-1-4 0-2 2-3 23-1 23 0 0 2-1 3-2zm119 6c-2-2-3-4-3-8 0-16 1-20 5-18 2 1 3 3 3 7v13c1 8 1 9-1 9-1 0-3-2-4-3zm-43 0l-2-2 2-11c3-16 4-17 7-16 4 0 4 4 2 9-1 2-2 6-2 9l-1 5 9-1c11 0 15 2 11 6-2 1-4 1-11 1-4 0-9 1-10 1s-3 0-5-1zm-2-69c-1 0-3-1-5-1-5-1-10-4-9-7 0-1 0-2-1-3-1-2-1-3 0-5s3-7 4-11c1-5 2-13 4-17 2-9 5-25 6-33 0-2 1-4 2-5 1 0 1-2 1-3 0-2 1-5 2-7 1-3 3-11 4-18 3-10 3-13 2-14s-3-2-11-1c-5 0-12 1-14 1-4 1-5 0-8-3-4-4-5-4-5-13-1-5-1-25-1-44 0-20-1-38-1-41s1-23 1-45c1-53 1-77 0-91l-1-12 3-3 3-3h34c22 0 34-1 35-2 1 0 2-2 2-5 0-4 0-5 11-8 4-1 9-2 9-2 1 0 1-1 0-3-2-3-2-3 2-8 2-3 5-6 5-6 1-1 5-1 8-1 8 1 9 4 10 12 0 5 0 7 1 7s3 1 6 2c4 2 5 2 6 1 1 0 2 0 4 1 3 2 3 2 2 8l-1 6h18c41 0 55 1 57 3 1 1 2 4 2 17-1 8-1 19-1 24-3 22-5 64-5 74 1 27 0 61-2 101-1 6 0 12 0 15 1 5 1 6 0 8-1 1-1 3-1 4 0 3-4 6-10 6-3 0-6 1-7 0h-15c-12-1-14 0-14 1s1 4 4 8c4 6 17 31 17 32v3c1 1 2 5 3 8s5 11 8 18c3 6 6 12 6 13l2 6c1 3 3 7 4 10 2 3 3 7 4 8 2 3 3 13 1 14h-4c-2 0-5 1-7 2-5 2-9 2-11 0-1-1-3-1-4-1-2 0-3 0-4-1-2-1-10-18-12-24-1-3-2-7-3-8-1-2-1-4-1-5s-4-9-8-17c-4-9-9-20-11-24-1-5-4-11-6-14s-6-11-8-17c-3-7-6-13-7-13-1-1-5-1-12-1h-10l-1 7c-1 3-2 8-3 11-1 6-3 19-3 23v24c0 16-1 21-2 23-2 6-3 9-1 10 1 1 2 2 1 6v5l27-1c15 0 29-1 31-1 4-1 8 2 7 6 0 1-1 4-1 6 1 6-1 6-8 4-4-2-8-2-29-2-16 0-29 1-39 2-9 1-19 2-23 2-8 0-8 0-8-2-1-3 0-4 4-5 2 0 3 0 3-3v-4c1 0 5-1 10-1l9-1-1-5c0-3 0-6 1-6 0 0 0-1-1-3v-6c-3 0-4-17-1-26 0-3 1-15 1-33 1-29 1-29-1-29-3 0-7 7-9 15-1 4-2 10-4 14-2 6-12 41-16 56-5 15-6 18-5 21 0 1 0 4-1 6s-2 5-2 8-1 6-2 6c-1 2-5 2-6 0zm168-10c3-1 5-1 6-2 0 0-1-5-4-10-2-6-5-13-6-17-2-4-4-11-7-15-2-4-6-13-8-20-8-20-19-41-27-49-2-3-4-3-6-3h-3s1 5 4 10c2 5 5 13 7 18 2 4 5 12 7 17 2 4 5 11 7 15s4 9 6 12c1 2 3 7 4 11 2 3 3 6 4 7 0 1 1 4 2 7s2 8 4 11c1 2 1 5 1 7s0 3 1 2 4-1 8-1zm-167-2c1-1 2-4 2-5 0-3 3-17 8-31 5-15 10-33 14-49 2-7 4-16 6-20 1-4 2-8 2-9h-4c-4 1-4 2-6 7-2 3-3 7-4 8-1 2-4 12-6 24-3 9-6 22-8 28-3 7-5 15-8 29-4 19-4 18-1 19 3 2 4 2 5-1zm114 0c-2-2-3-2-3 0h3zm6 0c0-1-1-1-2-1s-2 0-2 1c0 0 0 1 1 1 2 0 3-1 3-1zm-63-36c0-1 1-6 1-14 0-12 0-13-2-13-1-1-1 0-1 4 0 3 1 6 1 8 1 2 0 2-3 3-3 2-3 2-3 7v6c1 1 5 1 7-1zm2-42h-1c-1 0-1 1-1 2h1s1-1 1-2zm73-43h-3 3zm-135-8c20 1 51 0 52-1 0 0 0-1-1-1-1-1-1-3-1-4s-1-3-2-3c-1-1-21-1-39 0-5 0-12 1-15 2-4 2-8 2-9 2-3-1-3 0-1 4 0 2 1 2 1 2 1-1 5-1 15-1zm162-1s1-1 1-2-8-4-11-4c-1 0-4-1-7-2-8-2-18-4-21-3-3 0-23-2-27-3-2-1-2 0-2 7v8h3c1 0 3-1 3-2 1 0 11 1 22 1 12 0 22 1 22 1 1 0 16 0 17-1zm11-1v-4c0-2 0-3-1-2-1 0-2 7-1 7s2-1 2-1zm-93-7c5-1 6-1 7-4 1-5 4-19 5-23 0-2 2-9 3-14 2-7 3-11 2-11-1-2-39-1-42 1-2 1-2 1 1 2 2 1 3 2 2 4 0 1 0 3 1 4 2 3 1 5-2 6s-3 3-1 3 6 2 6 4l-2 2c-2 1-1 1 1 3s4 3 4 4 0 2 2 3c1 1 2 2 2 3 0 2-4 3-8 3-4 1-7 2-6 3 0 1 3 1 6 1 5 0 5 0 5 3 1 1 1 3 2 4 2 2 3 2 12-1zm-95-1c0-1-1-1-1-1-1-1-1 0-1 1s0 2 1 1c0 0 1 0 1-1zm189-4c0-1 0-9 1-18 1-11 1-30 1-58 1-48 1-57 4-95 2-22 2-40 1-42-1 0-9-1-18-1h-17v3c1 4 0 6-6 9l-5 3 5 1c6 1 15 4 19 8s8 13 7 17-2 5-10 3l-3-1 1 5c1 7-2 12-9 19-7 6-10 7-12 3-1-2-1-2 0-5 2-3 1-12-1-14-2-1-2 0-3 6 0 2-1 5-3 6-2 2-2 4-2 14 0 6-1 12-1 12 0 1-1 3-2 6-1 5-4 9-11 16-6 7-11 9-13 6-1-1-1-3-1-3 0-1 1-6 1-12 0-11-1-15-6-22-7-8-13-12-18-12s-11 8-14 22c-3 10-3 40 0 50 0 1 1 5 1 8l1 4h15c18 0 20 1 26 8 3 3 4 4 3 8 0 2-2 8-4 13-1 5-2 10-2 11s-1 3-2 5c-2 4-2 12 0 11 0 0 1-1 1-3 1-1 1-2 1-3 1 0 5 0 9 1 6 0 8 0 10-1s3-1 8 0c3 1 8 2 10 3 3 1 4 1 5 0 1-2 2-2 8 0 4 1 9 1 11 1 5 0 10 3 10 7 0 3 0 4 2 4 1 0 2-1 2-3zm-177-6c1-1 4-1 8-1 3 0 7-1 7-2 1-1 2-1 6 1 3 1 8 1 16 1h11v-3c0-1-2-7-4-14-6-17-7-20-9-23-1-1-1-3-1-4 0-2 8-7 16-8 6-1 7-1 7-3-4-24-5-46-3-58 1-8 2-12 6-19 1-2 1-4 1-4-1-1-10 5-12 8-1 2-4 5-6 7-1 2-2 4-2 5s-3 3-6 5c-6 5-9 10-9 15s-2 6-7 4c-6-4-10-10-13-21-2-10-2-10-1-14 1-2 4-7 7-10 5-6 6-7 15-12 11-5 17-6 24-4 2 1 7 2 12 2 9 1 10 1 13-1s4-3 5-6c1-4 0-4-3-3-4 2-5 2-10-2-3-3-3-3-3-9v-5c1 0 4-3 7-6 5-5 8-7 13-8l6-2h-8c-7 0-9-1-9-4 0-1 3-3 8-5 4-2 7-4 7-5-1-2-27-4-52-4-17 1-49 2-49 3-1 0-1 14-1 30s-1 36-1 45c-1 8-1 17 0 19 0 2 0 7-1 12s-1 9-1 10 0 22 1 48v47c1 1 13-1 15-2zm56-13h-2 2zm-3-8c0-1-1-1-1-1-1 0-2 0-2 1 0 0 0 1 1 1s2-1 2-1zm-3-8c0-1-1-1-1-1-1 0-1 0-1 1 0 0 0 1 1 1l1-1zm4-10h-2 2zm62-74c1-2 2-6 2-10 1-6 0-7-1-7 0 0-2 0-2 2-1 1-2 2-3 2-2 0-1 5 2 8 2 2 1 4-2 4s-4 1-2 3c2 3 4 2 6-2zm-85-9c2-3 5-7 6-8l6-6c3-1 7-4 9-6 3-1 5-3 5-3 0-1-3-2-7-2l-7-2-3 3c-3 3-5 4-7 4-5 0-7 1-3 2 3 1 3 4 1 6-1 0-1 2-1 3s-1 2-3 4c-4 2-4 3-4 6 0 4 1 5 3 5 0 0 2-2 5-6zm-16-2c0-1-1-1-1-1-1 0-1 1-1 2 0 0 0 1 1 1 0 0 1-1 1-2zm95-13c2-5 2-6-1-9-2-2-4-3-7-2-3 0-4 0-4 2-1 1 0 2 2 2 3 0 4 1 4 5-1 3 1 6 3 6 1 0 2-2 3-4zm15-16c0-2-1-2-2-2s-1 1-1 3c0 3 0 4 1 3s2-3 2-4zm23-2c3-3 3-4 1-7-2-4-2-4-6-4h-4c0 1 1 3 2 6s3 6 3 7 0 3 1 3 2-2 3-5zm-34 1c0-2-4-7-6-6s-2 4 1 6c4 3 5 3 5 0zm-34-18c2-2 7-5 10-7 7-4 8-5 3-6-4-1-8 1-12 5-8 8-9 14-1 8zm81 1c1-1-2-6-5-8-3-4-8-5-13-6-4 0-5 0-5 2-1 1 0 2 2 2 4 0 7 1 14 6 5 5 6 5 7 4zm-37-4c2-1 3-4 3-6 1-3 1-3-3-4-7-1-10 0-10 6 0 2 0 4 2 5 3 3 5 2 8-1zm-24-10c1-1 0-2-1 0-1 1-1 2-1 2 1 0 2-1 2-2zm4-11c-3-3-6-4-8-4-1 0-2 0-2 1v1c1 0 3 2 6 4 4 4 5 4 7 3s2-1-3-5zm22 1c1-1 4-3 7-4 3-2 6-3 6-4 1-1-4-1-8 1s-12 8-12 9c-1 1 5 0 7-2zm-8-6c1-2 4-4 6-5 1 0 3-1 3-2 0-2-2-2-7-1-3 0-6 1-7 2s-2 1-4 0c-3-2-8-2-7-1 0 2 10 9 12 9l4-2zm-20-18c2-1 4-1 5 0 1 0 2 0 1-1 0-1-15-5-24-7-7-1-9 0-13 1-2 2-4 3-4 3 0 1 5 2 11 2 7 0 14 1 16 1 4 2 5 2 8 1zm-9-23c0-3-1-4-3-3-4 0-5 4-1 6 3 2 4 2 4-3z" fill="#424242" fill-rule="evenodd"/></svg>