<svg width="340" height="451" viewBox="0 0 340 451" xmlns="http://www.w3.org/2000/svg"><title>discovery</title><path d="M1 449c-1-3 0-4 6-5 3-1 6-2 6-3 1-1 1-4 1-11-1-5-1-10-1-12 1-2 0-3-1-4-2-3-1-5 3-6 14-4 28 7 26 19-1 4-2 6-5 9-7 6-13 10-21 12-10 3-13 3-14 1zm27-14c8-6 9-14 2-19-8-5-11-2-10 11 1 7 2 11 3 11s3-2 5-3zm293 11c0-4 1-8 3-13l2-6-8-8c-8-8-10-12-9-14 2-3 5-2 7 2 3 5 10 12 12 11 1 0 2-3 3-6 3-9 3-10 6-10 4 0 3 5-4 27-7 19-6 19-9 19-1 0-3-1-3-2zm-270-1c-2-2-2-2-1-21 1-12 2-14 4-14 3 0 3 3 3 20v16h-3c-1 0-3 0-3-1zm186-1c-2-1-6-2-10-2s-7-1-8-1c-1-1-1-10 0-14 0-2 1-6 1-9 1-8 3-13 6-14 4-1 14-1 16 1 5 3 2 7-4 5-5-1-8 0-9 4-3 7-2 8 6 8 5 1 7 1 7 4s-5 4-11 3c-5-1-5-1-4 2 0 3 1 3 6 4 10 3 13 4 12 7 0 4-3 4-8 2zm50-2c-3-1-6-4-7-5-2-1-4-3-6-3-2-1-2-1-2 3 0 5-3 7-6 6-2-1-3-5-2-14 2-13 2-13 0-15-5-3 2-9 12-10 12-1 15 10 5 20-2 2-4 4-3 4 3 3 12 7 15 8 6 1 7 4 3 7-3 2-4 2-9-1zm-10-24c4-3 4-8 1-8-2 0-4 2-5 6s0 5 1 5 2-2 3-3zm-167 23c-9-7-11-18-5-26 4-7 15-11 18-7 2 2 1 5-2 5s-9 3-11 6c-3 6-1 11 4 16 2 3 3 3 9 2 7 0 10 0 10 3 0 2-6 4-13 4-5 0-7-1-10-3zm-40-1c-1-1-1-3-1-4 0-2 1-2 6-3 9 0 10-2 7-5-7-7-9-11-9-15s2-7 9-7c4-1 6 0 7 1 4 3 3 6-2 5-3 0-7 2-7 4 0 0 2 3 5 6 6 6 8 9 5 13-3 5-16 9-20 5zm74-4c-5-4-6-11-2-19 3-6 3-6 8-7 4-1 5 0 7 1 1 1 2 2 2 3s1 3 2 6c4 6 3 10-1 14-3 3-4 4-8 4-5 1-6 0-8-2zm11-7c2-2 3-3 2-5-2-6-5-7-9-2-2 4-2 6 0 8 3 2 5 2 7-1zm28 8c-2-1-3-5-6-15l-2-10c2-3 8 0 8 4 0 3 2 9 3 9s2-2 3-4 4-6 7-9c5-4 6-6 8-5 5 0 4 3-3 9-4 4-7 8-9 13-4 8-6 10-9 8zM12 318c-2-2-2-5-3-19 0-9-1-18-2-19 0-2 0-5 1-10 1-11 1-74 0-77-1-1-2-4-2-7s0-5 1-6c2-2 3-2 15-1 8 0 19 0 25-1 17-1 19-1 46-2 13 0 25-1 26-2 0 0 8 0 17-1 15 0 16 0 18 2 1 1 1 3 1 6 0 2-1 9-1 14 0 6-1 11-1 13-1 1-2 13-3 26-1 21-1 33 1 69 0 10-1 13-4 14h-8c-4-1-12-1-17-1-6 0-25 0-41 1-36 1-62 2-65 3-2 0-3 0-4-2zm30-9c1 0 0-2 0-3-1-2-2-3-7-2-3 0-5 1-6 2-2 1-4 1-6-2-1-3 1-6 5-9s5-5 1-4c-7 2-8 2-9-1l-2-3-1 2c-2 3-2 3 0 4 1 1 2 3 2 8 0 4 0 8 1 8 1 1 21 1 22 0zm40 1c4-1 5-1 4-3-1-4-1-4-7-5-3 0-5 0-6 2-1 1-3 2-4 3-1 2-1 2 0 3 3 1 7 1 13 0zm39-2c4 0 6-1 6-2 1-3-1-5-7-5-5 0-6 0-9 3-2 2-5 3-6 4h16zm-66-5c0-1 2-3 4-4 4-2 7-6 8-9 0-2 1-4 2-4 0-1 1-4 1-8l1-6-4-1c-2 0-4-1-6-3-1-1-3-1-3-1-2 0-5 7-6 15-1 4-2 8-3 8 0 1-1 4-1 6 0 4 1 6 3 8l2 2s1-1 2-3zm48-4h-2 2zm33-4c3-2 2-4-1-4-1 0-3-1-3-2-3-3-4-2-5 2-2 6-2 7 3 6 2 0 5-1 6-2zm-94-10c0-2-1-3-2-3-1-1-1 0-1 3 0 2-1 4-2 4 0 0 0 1 1 2 1 2 1 1 2-1s1-4 2-5zm71-2c0-9-1-12-8-24-3-4-6-5-6-1 0 1-2 4-5 7-6 5-6 7-4 11 3 7 8 12 16 14 4 1 7 2 7 2 1 0 1-4 0-9zm24-1c4-2 4-2 3-4s-2-2-3-1c-2 1-3 2-4 2-2 0-3 1-3 3-2 3-1 5 1 3 1-1 4-2 6-3zm-117-2c3-2 3-3 0-4s-4 0-4 3c0 2 0 2 4 1zm120-12v-4c0-3 0-3-3-3s-6 0-7 1c-2 0-3 1-2 3 0 2 1 4 2 4 1 2 9 1 10-1zm-108-3c8-4 15-10 16-14 0-2 1-4 2-4v-5c0-4 0-4-4-4-8-1-20 9-22 18 0 2-1 5-2 7-1 1-1 2 0 4s2 2 10-2zm39-11c0-1-1-3-2-4-1 0-2-2-3-4-2-4-6-5-5-1 0 1 1 2 2 2s1 0 1 1v1c1 0 2 0 2 1 0 4 1 6 3 6 1 0 2-1 2-2zm60 1c0-1 2-1 5-2 2-1 4-1 4-2-1-2-17 1-17 3s7 2 8 1zm-49-3c4-1 3-2 0-2-2 0-3 1-3 1-1 2 0 2 3 1zm38-6c2-1 5-2 5-2 0-1-1-2-2-3-2-2-3-2-5 0-3 2-6 5-5 6s1 1 7-1zm-96-7c6-6 6-8-1-5-4 1-5 4-5 8 0 2 1 2 6-3zm52 2c0-3-2-5-4-4 0 0-1 0 0 0 1-2-3-5-5-5-2 1-2 1 3 6l6 6v-3zm13 1c0-1-1-1-1-1-2 0-3 1-2 2s3 1 3-1zm14-6c0-1 2-2 3-2 3-1 16-13 17-16 0-1 1-2 1-2 2 0 5-9 4-11 0-1-1-1-2-1-2 0-12 3-12 3-1 1-3 2-5 2-5 2-15 12-15 15 0 2 0 3 2 5 1 1 2 3 3 5 1 4 2 4 4 2zm29-4c1-1 0-1-1-1 0 0-1 0 0 0 0-1 0-2 1-2s2 0 3-1c1-2 3-3 5-3 3-1 3-4 4-25 1-16 1-17-5-17-4-1-5 0-9 4-3 3-4 5-4 7 0 5 0 6 5 6 4 0 5 0 7 2 2 3 3 4 2 9 0 3-1 6-2 7s-1 2-1 2c0 1-3 4-6 7s-5 6-5 7h3c2 0 3-1 3-2zm-98-1c0-1-1-1-1-1s-1 0-1 1 0 2 1 2c0 0 1-1 1-2zm46-1c1-2 0-2-3-2s-3 0-1 2 3 2 4 0zm-22-9c1-1 2-2 2-3 1-2-15-17-18-18-7-2-9-3-9-2s-2 1-4 1c-6-1-5 3 1 9 1 1 2 3 2 3 0 1 3 4 6 7l5 5h6c6 0 7 0 9-2zm-38-7c1-2-1-5-2-4s-1 5 0 5 2-1 2-1zm54-3c0-1 3-4 5-6 4-5 10-16 10-19 0-1-2-1-9-1H68l-3 1v5c0 7 2 17 3 17 1 1 2 2 2 3 0 3 2 3 4 0zm31-9c3-1 3-2 3-3s-1-3-1-4c-1-2-1-4-2-4-1-1-1-3-1-4s-1-2-2-2-2 3-3 9c0 2-1 5-2 6s-1 3-1 4 0 2 3 1c1 0 4-1 6-3zm-49-9c0-7-2-8-15-6-4 1-5 2-2 3s13 6 13 7c0 0 1 1 2 1s2-2 2-5zm-34-2c1 0 2-1 2-2 0-2-7-2-8 0s2 3 6 2zm161 122c-8-4-8-3-8-29-1-55-1-104 0-106s5-2 7 0c2 0 7 0 23-1 33-4 46-5 79-4h31l4 3 3 3v41c0 22-1 48-1 59 0 10 0 19 1 19 0 0 1 2 1 5 1 4 0 6-6 9-3 1-5 1-10 1-5-1-7 0-11 1-3 2-4 2-8 0-5-1-9-2-35-1-34 0-51 1-59 2-6 0-8 0-11-2zm14-7v-4c-1-2-1-4-3-4-2-1-4-4-3-6 0-1 2-1 3-1 3 0 4-2 1-4-2-1-2-2-2-4 1-3 3-4 5-3s6 0 5-2c0-2-7-4-12-4-2 0-4-1-4-2h-2c-2 1-2 15 0 18 0 1 1 4 1 8 1 8 2 10 7 9 2 0 3-1 4-1zm53-2l-7-7c-7-7-8-8-9-11-1-2-2-1-2 3 0 1-1 3-1 4-1 1-2 4-2 7l-1 5h11c6 0 11-1 11-1zm14-2h-1c-1 0-1 0-1 1s0 1 1 1c0 0 1-1 1-2zm40 2c1-1 1-2-1-6-1-2-3-5-4-5-2-1 0-5 3-7 3-1 3-1 1-1-1 0-3-2-4-3-2-2-2-3 0-5 1-2 1-2 0-2s-3-1-4-2c-2-3-1-6 2-6 1 0 3-1 3-1 0-1-1-1-2-1s-3-2-5-3l-2-3 2-1c2-2 2-3 2-5-1-4 1-5 11-6 6-1 8-2 5-3-1-1-2 0-2 0-1 2-3 2-3 1s-3-1-6-1c-7 0-10-2-9-5 0-1 1-2 4-2 1-1 4-1 4-2 1 0 4-1 8 0h6v-4c-1-6-1-6-3-5 0 1-7 1-15 1-12 0-14 0-14-1-2-4-2-5 1-6 2-1 3-1 2-3-1-4 1-6 10-6 8-1 11 0 11 4 0 3 0 3 3 4 2 1 4 1 5 1 0 0 1-4 1-7v-6h-19l1-4c1-4 1-4 7-4 3 0 5 0 5-1 1-1-1-1-4-1-4 0-6-1-7-2-2-2-3-2-3-1 0 2-8 11-10 11-1 0-2 0-3 2 0 1-1 2-2 2 0 0-3 1-7 2-3 2-7 4-8 4-2 1-2 4 0 4s12 8 17 15c6 7 8 17 5 24 0 2-1 3-3 2-2 0-3 0-3 1-1 0 3 9 5 10 1 1 2 2 2 3s0 2 1 2c1 1 2 3 2 5 0 1 1 3 2 3 1 1 2 3 4 11 1 8 4 11 8 9zm-20-8c1-1 0-3 0-4-1-1-2-4-3-7-1-2-3-4-3-4-1 0-1-1-1-2s-1-3-2-4c-2-2-2-3-2-4s-3-5-7-8c-8-8-9-7-7 1 1 6 1 21 0 26 0 1 0 3 1 4 2 2 3 2 5 1 3-1 3-2 1-4-3-2-3-6-1-7h6c7 0 11 4 7 8-2 1-2 2 1 4 2 3 5 3 5 0zm-64-1v-5c4-7 4-7 3-12-1-3-3-7-5-10l-3-4-1 4c-2 5-2 10-1 17 2 9 4 13 6 13 1 0 2-1 1-3zm25-18c3-5 4-9 1-14-1-2-3-5-5-7s-4-4-5-6l-1-2-3 3c-3 2-3 3-1 5 1 1 2 4 2 8 2 7 7 16 9 16 0 0 2-1 3-3zm66-2c2-1 2-9 0-10-3-2-4-1-2 2v6c-1 3-1 3 2 2zm-117-9c4-1 6 0 7 0 1 1 2 1 2-1 1-3 0-6-2-6-4 2-9 2-11 0-1-1-1-2-1-3 0-2 3-3 6-3s9-2 9-3-4-2-11-3c-4-1-5-1-5-3 0-1 1-2 6-4s5-2 8 0c2 2 2 2 5-2 1-1 2-4 2-5 0-2 0-2-7-1-5 0-10 1-12 1-3 1-4 0-4-1-1-2-1-3 0-4 2-2 13-4 23-5l6-1 4-5c2-4 4-7 4-9s0-4 3-7c1-1 3-4 4-6s2-3 3-3 4-2 7-3c2-1 5-3 6-3l6-2 5-2h-9c-12 0-30 1-39 3l-8 1 9 1c5 0 9 1 10 2s2 2 3 2 1 0 0 2c-1 1-5 1-15 2-21 1-25 1-25 4 0 1 0 1 6 1 4 0 11 0 17-1 10-1 14 0 14 4 0 3-4 4-14 4h-10c0 1-3 1-6 1s-6 1-7 1c0 1-1 4-1 8 0 8 1 49 2 50h3c1 0 4-1 7-1zm28-22c1-2 3-4 3-5s1-1 2-1c0 0 1-2 3-5 1-2 3-6 4-7 2-5 2-8-2-8-2-1-3 0-5 3-2 2-3 4-3 5s-1 2-1 2c-1 0-1 0-1 1 0 0-2 3-3 6-1 2-3 6-3 8-1 3 0 4 1 4 2 0 4-2 5-3zm54-3c0-2-1-3-6-7-4-4-5-5-10-8-3-2-6-3-8-3-1 0-3-1-3-2-1-1-2-1-3 1-3 3 3 13 10 15 1 1 5 2 8 2 4 0 6 0 8 1 3 3 4 3 4 1zm-35-35c2-3 2-3 10-3 5 1 13-2 18-5 2-1 5-2 6-2 3 0 4 0 4-2 1-5-8-6-23-2-3 0-4 1-4 2 0 0-2 1-5 1-4 1-12 6-13 9s0 5 3 5c2 0 4-1 4-3zm70-8c0-1-1-1-1-1v3c1 0 1-1 1-2zm-6-10c7 0 9-2 7-4s-29-5-30-3 2 5 6 6c1 0 3 1 3 1 0 1 0 2 2 2 1 1 2 1 4-1 1-1 3-1 8-1zM71 152c-3-1-4-2-4-1-1 1-1 1-3 0-2 0-11-1-20-1-15 0-23 0-37 2-2 1-4 0-5-1-2-2-2-6 0-7 1-1 1-4 1-9 0-4 1-10 2-14 0-5 1-12 2-18 0-5 1-13 1-17 2-9 2-60 0-66C6 10 6 10 8 9c1-1 4-1 6-1 3 0 6-1 6-2 1 0 19-1 65-2h65c1 0 2 2 3 4 1 4 2 9 2 59 0 77 0 77-7 77-2 0-3 0-3 1-1 4-6 4-35 5-24 0-27 0-30 2s-4 2-9 0zm-4-10c1-2-2-15-3-16-2-1-3-5-6-13-3-9-7-19-9-20-1-1-2-3-3-5 0-3-2-7-3-9-1-3-2-6-2-7s-1-2-1-2c-1 0-2-2-2-4s-1-5-2-6c-2-4-3-13-1-14 0-1 2-2 3-4 2-3 3-3 6-3 5 0 27-3 27-4 1-2 20-3 38-4 9 0 16 0 16-1 0 0 2 0 3 1h4c1-1 4-1 7 0 6 1 6 0 6-7s0-9-4-10c-4-2-86-2-106-1-7 1-14 2-15 2-1 1-3 2-4 2s-2 1-1 4c1 8 2 33 2 43 0 6-1 22-2 35-2 27-2 33 0 35 0 0 1 2 1 4 0 1 0 3 1 3 0 1 8 1 16 1 9-1 17 0 19 0 1 1 5 1 8 1 5 0 7 0 7-1zm77-4v-11c1-4 2-21 2-37l1-30-3-1c-1 0-5-1-7-1s-8 1-13 1H92l-23 1 2 2c2 2 4 2 21 2 15 1 19 1 20 3s1 2-2 3c-3 2-4 3-2 6 1 2 2 3 1 4-1 2-3 2-17 2-15 0-19 0-17 2 1 1 30 1 34 0s5 0 6 1c3 3 3 5 1 7-1 1-1 2 0 4 1 1 1 5 1 8 0 6 0 7-2 9l-2 1 3 3c2 2 2 3 1 5 0 1-1 2-2 3v2c1 2 1 3 0 5-2 1-4 2-10 2-7 0-10 0-9 2s7 2 8 1c0 0 4-1 9-1 9-1 9-1 10 2s2 3 16 3h5v-3zm-36-23H98c-12 0-15 1-5 1 6 1 14 1 15-1zm-8-9c-1-1-8-3-9-2-2 1 1 3 5 3 3 0 4-1 4-1zM71 73h-2 2zm35-23h-2 2zm-45-2c1-2 0-2-5-2-4 1-4 1-1 2 3 2 5 2 6 0zm116 98c-1-2-1-7-1-19 0-10 0-18-1-18-1-1-1-6 1-9 1-2 1-6 1-13 0-6 1-13 1-16 1-8 0-37-2-44 0-4-1-8-1-11-1-5 0-5 3-9l3-3 28-1c15-1 30-2 33-2h36c17 0 31-1 33-1 6 0 7 0 11 1 7 2 7 2 6 30 0 14-1 31-1 39-1 10 0 14 1 15s0 7-2 8c-1 1-2 5-2 22 0 16 0 22 1 23s1 2 0 3c-1 3-5 4-8 3-8-2-20-3-45-3-26 0-40 1-68 3-5 1-11 1-13 1-2-1-4 0-4 1-2 2-9 2-10 0zm66-12c1-1 2-43 1-44s-2-1-5 2c-2 2-6 5-8 6s-6 3-7 4l-4 2c-1 1-3 2-6 4-10 5-14 8-14 11-1 2-2 3-4 4-4 1-4 1-6-1s-4-2-5 0c0 2 0 11 1 12 0 1 9 1 29 1 15 0 28-1 28-1zm69 0c2-1 2 1 3-27v-6h-6c-8-1-18-3-23-6-4-3-10-8-15-13l-3-3c-1 0-6-8-6-9 0 0-1-1-1-2-1 0-3-2-4-4l-2-3-1 3c-2 3-2 26-1 32 1 2 1 7 1 11s1 9 1 11c1 5 3 14 3 15s9 1 54 1zm-118-32c2-1 6-3 9-4 2-1 6-2 8-3 1-1 3-2 4-2 2 0 8-3 15-8 2-2 4-4 4-6 1-2 2-3 3-3 0 0 1-1 1-2s-1-1-1-1c-1 0-2 1-4 1-2 1-3 2-3 3s-18 13-20 13c-1 0-3 0-4 2-2 1-4 2-5 2h-2c0 1-3 3-7 5-6 3-8 5-6 7 1 1 3 0 8-4zm-1-12c2-2 4-3 5-4 0-1 2-2 4-3 2 0 6-3 9-5s6-3 7-3 2-1 2-2c1-3 12-8 16-7 2 0 2 0 3-2v-3c-1-1-14 0-18 1-1 1-3 2-5 2-1 1-3 2-4 2-2 0-5 2-10 7-2 1-4 3-5 4-3 1-9 11-9 13s0 2 5 0zm115-2c-1-1-2-2-4-3-9-7-14-14-14-19 0-1-2-3-3-5-5-6-6-8-6-9 0 0-1-1-3-1-1 0-4-3-7-6-6-5-11-6-10-2s10 16 14 19c3 2 5 4 5 5 0 0 1 3 3 5s4 5 4 5c0 1 12 10 15 11 4 1 7 1 6 0zm10-16c0-6 0-7-3-9-1-2-2-3-2-4s-1-2-1-3c-1-1-2-3-2-4s-2-2-3-2c-1-1-3-2-3-2v-4c-1-8-13-16-28-17-5-1-10-1-11-1-7 1-7 2-7 3s1 2 4 2c2 0 5 1 5 2 0 0 1 1 3 1 1 0 2 0 2 1 0 0 0 1 1 1 5 2 19 16 22 21 1 2 2 4 2 5 1 0 2 1 2 3 1 3 10 13 14 15 3 2 4 0 5-8zm-126-5c2-3 22-12 24-12 1 0 3-1 3-2 1-1 8-1 19-1 4 0 4-1 5-4 0-2 0-7-1-10 0-4-1-9-1-10 0-2 0-5-1-6 0-1-1-4-1-7V9l-17 1c-21 1-35 2-37 4-1 1-1 5 0 17 1 9 2 21 2 27 1 11 1 12 5 9zm127-35c0-7 1-13 1-14v-3c-3-4-23-8-40-7h-17c-7 1-9 2-10 7l-1 4 5-1c10-2 31 0 35 2 0 1 3 2 6 3 4 2 12 8 12 10 0 1 7 11 9 11V32zM71 210c0-2 0-2 1-1 0 1 1 2 0 2 0 0-1 0-1-1zm115 11c-1 0-2-1-2-2s2-3 4-4c2 0 17-2 18-3s5 3 5 5-4 4-10 4c-3 0-6 0-6 1-1 1-5 1-9-1z" fill="#434343" fill-rule="evenodd"/></svg>