<svg width="1000" height="600" viewBox="0 0 1000 600" xmlns="http://www.w3.org/2000/svg"><title>organise</title><g fill="none" fill-rule="evenodd"><path d="M0 300V0h1000v600H0V300zm218 177c1 0 4 1 6 1 3 0 5 0 8-2 7-3 8-5 4-8-3-2-3-3-3-7 1-5 0-5-5-9-3-3-7-5-9-6-2 0-5-1-6-2-4-2-25 1-30 4-2 2-7 11-7 14 0 4 1 7 4 7 1 0 2 1 3 2 1 2 6 6 9 6 4 0 5-3 5-9 1-7 1-8 5-8s5 2 1 2c-4 1-6 4-3 7 2 1 3 3 3 4s1 2 2 4c2 1 3 2 6 1 2 0 5-1 7-1zm55-5c1 0 3-1 6-1h9c5-1 6-1 7-3 0-1 2-4 3-7 3-3 3-5 3-7-1-2 0-3 2-5 1-1 3-3 3-4 0 0 0-2 2-4s2-3 1-7c-1-2-1-5-1-7s0-3-1-5c-2-2-2-3-2-4s-9-8-14-11c-6-3-17-1-22 4-2 1-4 3-5 3-4 0-11 5-14 10-5 7-6 10-5 13 1 1 2 4 2 6 0 4 4 18 6 20 0 1 2 2 4 2 3 0 4 1 2 3-2 1-2 2 0 5 2 1 3 2 7 1 3 0 6-1 7-2zm-126 0c2-1 4-1 5 0 2 1 9 1 12-1 1-1 1-2 1-9-1-6-1-7 0-9 1-1 2-1 3-1s2-2 3-3c1-3-1-5-4-5s-4-2-7-8c-2-4-4-5-12-8-2-1-6-3-9-5s-5-2-10-2c-7-1-13 2-21 10s-12 16-12 27c-1 9 1 12 6 13 2 1 6-2 7-5 0-2 5 1 7 4 0 2 1 2 3 2 4-1 5-2 4-5s0-3 6-4c5-1 5-1 4 2-1 4 0 7 2 6 1 0 3 0 4 1 2 2 3 2 8 0zm648-2c1-2 2-2 4-2 4 1 6-1 6-10 0-6 0-9 1-10s1-3 1-4c1-2-3-7-6-9-2-1-6-4-9-7s-7-7-9-8c-5-3-6-3-18-3-14 0-14 0-20 3-4 2-9 5-10 6-6 3-16 14-17 17 0 2-2 4-3 6-2 3-1 5 3 7l4 4c3 7 5 8 9 4 1-2 3-2 4-2 3 0 3 2 0 4-2 0-3 1-3 2 0 3 2 5 4 4s18-2 33-3c10-1 12 0 15 1 2 1 4 2 4 3 0 0 1 1 2 1 3 0 4-1 5-4zm-355-5c3-1 5-3 6-4 2-4 7-5 10-1 3 3 6 3 11 2 3-1 4-1 5 0 2 2 6 1 9-2 2-4 4-4 6-1 2 2 6 2 8 0 1-1 2-3 1-5 0-2-1-9-1-16 0-11-1-12-3-14s-6-2-6 1c-1 2-2 2-7-1-2-2-4-3-6-2-1 0-3 0-5-1-7-4-10-4-18-4-14 2-31 14-34 24-1 2 0 3 2 5s4 4 4 5 1 2 3 4c2 1 4 2 4 4 0 3 3 8 5 7 0 0 3 0 6-1zm411-1c3-1 7-1 10-1s7-1 8-1c3-2 11-2 12 0 1 1 3 1 4-2 0-2 2-4 4-5 3-1 3-2 5-9 1-5 1-9 0-11-1-5-1-10 2-18 1-7 1-8 0-10s-1-4-1-5-2-2-3-3c-2-1-7-6-12-10-5-5-10-10-12-10-4-2-15-1-19 1-2 1-4 2-5 2s-3 1-6 2c-7 4-15 12-18 20-6 15-6 13-3 18 2 4 2 4 0 7-1 1-1 2-1 3-1 2 2 8 4 10 1 1 1 2 0 4s-1 2 1 4c2 1 3 2 3 4 0 7 4 12 7 9 1-2 2-3 1-8v-6c2 1 7 9 7 12 0 2 2 4 5 4 0 0 4 0 7-1zm-191-2h7c4-1 13-4 17-6 1-1 2-3 2-8 0-10 4-27 6-29 1-2 1-8-1-10s-2-3-2-4-6-6-7-6-2-1-3-2c-1-2-6-5-11-7l-9-4-9 1c-12 1-19 3-26 10-6 5-9 11-9 16 0 2-1 5-2 6-2 2-2 4-2 5 0 2-1 4-2 4 0 1 0 2 1 5s1 6 1 13c-1 8 0 10 1 11 3 3 5 2 8-1 3-2 4-3 7-2 2 1 4 1 5 1 0 0 1 1 2 3 2 6 5 7 14 6 4 0 10-1 12-2zm-277-6c7-1 18-6 19-8s-2-6-4-7-2-2-3-5c-1-5-1-6 2-6 2 1 6-1 6-3 0-1 0-3 1-4 1-2 1-3 0-5s-2-6-2-10c-1-6 0-7 2-9l2-3-2-4c-4-8-10-13-16-15-7-2-12-2-22-1-15 2-22 7-27 18-1 1-2 5-4 7-2 4-2 7 0 10 1 1 2 4 2 9 0 8 2 13 7 18 1 2 3 5 3 6v5c0 5 2 7 4 8 2 0 3 1 4 2 2 1 7 1 14 0 3-1 9-2 14-3zm166-3c4 0 10-1 13-1 3-1 8-1 11-1 6 1 9-1 8-6 0-2 0-4 2-6 1-2 2-4 2-6 0-1 1-3 2-5 3-3 3-7 1-12-1-2-2-7-2-10-1-7-3-11-9-17-6-5-6-5-11-4-4 1-5 0-10-2s-6-2-11-2c-4 1-8 2-10 2-5 2-14 9-16 13-1 2-3 4-4 6-3 5-3 16 0 22 1 1 3 2 5 3 4 1 4 1 2 3-2 1-3 2-2 4 0 2 0 3-3 4-4 3-3 5 2 10 3 5 4 5 8 4 3 0 6 0 9 2 2 1 4 1 5 0 1 0 4-1 8-1zm-339-19c7-2 15-10 17-15 1-4 0-10-2-17-1-5-4-8-14-13-5-3-8-3-11-1-6 4-13 20-14 29 0 10 8 19 16 19 1 0 5 0 8-2zm-71-27c3-1 8-5 11-8 6-6 6-6 8-17 2-8 3-12 2-19 0-4-1-9-2-10-4-7-17-11-24-7-4 2-14 11-14 13 0 1-2 3-3 5-3 4-4 8-6 18-1 7-1 9 1 14 2 6 6 11 10 13s11 1 17-2zm328-1c5-4 12-14 12-18s-3-11-7-21c-3-5-4-7-7-8-3-2-14-3-17-1-7 2-14 13-15 21v5c-1 2 0 10 2 14 1 3 4 6 9 9 2 2 12 3 16 2 2 0 5-2 7-3zm312-2c8-5 14-9 14-11 0-1 0-2 1-2 3-3 1-15-4-21-2-3-3-5-3-5 0-1-3-2-6-3-8-4-14-3-22 3-10 6-15 15-13 26 0 5 6 13 10 14 2 1 4 2 5 3 3 1 11-1 18-4zm-487-9c10-7 10-8 10-22 0-12 0-15-4-18-1-1-2-3-4-5-2-3-3-3-6-3s-5 0-7 2c-1 1-3 3-5 4-3 2-9 11-10 16-1 2-2 7-2 10-1 7 1 11 7 16 8 6 12 6 21 0zm387-25c5-5 6-7 6-11 1-6-1-15-4-20-2-3-3-4-7-6-2 0-5-1-5-2-1-1-7 0-11 2-8 3-14 13-14 22-1 8 3 16 9 19 3 1 9 2 15 2 5 0 5-1 11-6zm-120 1c5-3 11-7 11-9 0-1 0-3 2-6 1-3 2-5 1-11 0-4-1-9-1-11 0-6-6-12-11-12-5-1-14 5-19 10-8 9-11 21-6 30 4 10 13 13 23 9zm306-3c5-3 13-9 15-13 6-9 5-18-1-30-3-7-13-15-18-15-8 0-19 9-25 19-2 5-3 7-3 14-1 7 0 9 2 13 4 8 10 12 17 13 9 1 11 1 13-1zm-481-10c10-5 13-8 13-18 0-6-1-7-5-14s-7-10-10-9c-1 0-4-1-6-3l-4-2-5 2c-4 2-10 8-13 14-1 2-2 6-2 10-1 5 0 7 2 11 3 6 7 10 11 11 4 2 13 1 19-2zM142 240c7-2 14-6 18-10 2-1 3-2 4-2 0 1 1 1 0 0 0-2 3-10 4-10v-1c-1 0-1-2-1-4 1-1 0-4 0-5-1-1-3-5-4-8-2-4-4-8-5-8-2-1-2-2-2-3s-6-6-10-8c-2-1-5-2-6-3-2-1-6-1-8 1 0 0-3 2-5 3-3 2-6 5-7 7-2 3-3 5-4 5v1c0 1-1 2-1 2-1 0-4 5-6 12-2 5-2 11 1 16 1 3 3 6 3 6 0 1 4 6 7 8s13 4 16 3l6-2zm613-5l8-4c4-2 13-10 14-13 2-3 3-12 1-12v-2c0-1-1-1-1-1-1 0-2-2-3-4-1-3-10-11-13-11l-3-3c-2-2-4-4-6-5s-4-2-5-4c-3-3-2-6 2-6 1 0 3-1 3-2h2c1 0 2 0 2 1 0 0 0 1 1 1 0 0 2 0 3 2 2 2 4 2 7-1 3-2 3-4 1-8s-7-6-15-6c-9 0-16 2-20 6-3 3-3 3-2 8 0 4 1 6 3 8 1 1 1 2 1 2s0 1 2 3c1 1 2 3 3 3s2 0 3 2c0 1 2 2 3 2 0 0 2 0 3 2 0 1 2 2 2 2 1 0 2 0 2 1 0 0 0 1 1 1 3 0 13 11 13 14 0 1-8 9-10 9-1 0-1 0-1 1 0 0-1 1-2 1s-3 0-4 1c-2 2-16 2-16 1s-1-2-2-3c-3-3-6-3-7-1-1 1-2 1-2 1-1 0-1 2-1 5 1 10 4 11 21 11 5 0 8-1 12-2zm-527-2c4-3 5-7 3-9-1-1-2-2-1-9 0-5 1-9 1-9 1-1 7 2 11 5 1 1 3 3 4 3 0 0 2 0 3 2 1 1 3 2 4 2s2 0 2 1c0 0 0 1 1 1s4 0 6 2c3 1 5 2 7 2h5c3 1 4 1 5-1 2-1 3-3 3-4 0-3-3-6-5-6-1 0-2-1-3-1-1-1-8-3-10-3-4-1-15-8-15-10 0-1 1-2 2-4 3-3 9-11 9-13 0-1 0-1 1-1s1-8-1-11c0-1-1-2-1-2-1 0-2-1-3-2-3-3-6-5-10-4-6 0-16 2-22 5l-5 3-1 10c0 5-1 13-1 16s-1 11-1 18c-1 12 0 18 3 19 3 2 7 2 9 0zm652-2c3-2 4-5 3-9-1-3-2-3-6-4h-7c-3 2-12 2-22 1l-6-1v-5c0-12 2-15 18-16 5 0 9-1 9-1 1-1 1-1 2-1 2 0 3-4 1-7l-1-3-12 1-13 1 1-4c0-3 1-6 1-9 1-6 2-8 5-8 1 0 3-1 3-2 1-1 4 0 20 2 4 1 6-2 4-6s-3-4-11-6c-7-1-9-1-17 0-5 1-10 2-11 3-3 2-4 6-5 12 0 3-2 7-3 10s-1 7-1 9-1 4-1 4c-1 1-2 9-2 19l-1 18 4 1c1 1 8 2 14 2h10c0 1 5 1 11 1 8 0 11-1 13-2zm-509-5l6-2c2 0 11-12 11-13s0-1 1-1c0 0 1-1 1-2v-3c1-1 2-6 2-12 1-12 0-14-5-14-1 0-3-1-3-2-1 0-2 0-5 3s-4 4-9 4c-5 1-9 1-11 1l-2 2c-3 2-3 9-1 11 1 2 8 2 9 1 1-2 11-2 13-1 3 2-1 12-8 16-3 2-14 3-18 2-1-1-4-4-5-6-3-5-4-6-4-14 0-4 1-8 1-9 1 0 2-2 2-3s0-2 1-2c0 0 1-1 1-2s0-1 1-1c0 0 1-1 1-2 0 0 1-2 3-3 2-2 4-4 6-5 2-2 5-2 7 1 4 5 11-2 9-8-2-5-13-10-13-6 0 0-1 1-2 1-3 0-13 5-16 8-5 5-9 14-12 24-3 8-3 12 0 18 1 2 1 4 2 5 0 1 1 3 2 4 5 6 11 12 13 13 4 1 17 0 22-3zm159 0c1-2 3-4 3-5v-3c0-1 0-3 1-5 3-19 7-27 9-24l2 2c0 1 1 3 3 5 4 4 7 9 6 11-1 0 0 1 0 0 1 0 2 1 4 3 1 3 4 6 6 8s3 4 3 4 1 1 3 2c3 2 4 3 6 1 7-3 10-10 10-21v-8c1-1 2-5 2-10 0-6 0-11 2-16 3-8 3-9-2-13-1-1-3-2-4-2-3 0-4 2-4 10 0 4-1 8-1 8-1 0-1 2-1 4 0 3-1 6-1 6-1 0-1 2-1 3 0 7-2 20-3 21-2 2-5 0-7-4 0-1-2-3-3-5-1-1-2-3-2-3 0-1-1-1-1-1-1 0-2-2-2-3 0-2-1-4-2-4v-2c0-1-2-3-4-5s-4-6-5-9c-4-10-12-14-15-7-1 2-2 4-2 5s0 4-1 6c-1 3-2 7-2 10-1 3-2 8-3 10 0 2-1 5-1 7s-1 4-2 4v10c0 8 0 9 2 11 3 2 4 2 7-1zm-61-4c2-1 2-4 3-10v-9c-3-2-1-8 3-8 1 0 2-1 2-1 0-1 0-1 2-1s5-3 5-5c0-3-3-4-8-4-4 0-8-4-9-9-1-4-3-8-4-8v-2c0-1-3-4-5-6-4-4-5-5-8-5s-4 1-7 9c-1 1-2 3-2 5-1 1-2 3-3 5 0 2-1 4-2 4v2c0 1-1 2-1 2-1 0-1 1-1 2s-1 3-1 3c-1 0-1 0-1 1 0 2-1 3-1 3-1 0-1 1-1 3 0 1-1 2-1 2-1 0-1 0-1 1s-2 4-4 8-3 8-3 9-1 1-2 1c-1-1 2 4 4 6 1 1 3 2 5 2 4 0 6-3 6-6 0-1 1-3 3-5 1-2 2-4 2-6 0-1 0-2 2-2 1 0 3-1 3-2 0 0 1-1 2-1 2 0 4 0 5-1 2-2 6-2 7 0 0 1 0 4-1 8-1 6-1 7 1 11 1 3 2 4 4 5 4 2 5 2 7-1zm195 0v-5c-1-6-1-34 0-36 2-2 2-10 0-13-2-2-5-2-9 1-2 3-2 4-2 8 0 3-1 6-1 6-1 1-2 8-3 22-1 9-1 10 2 13 4 5 4 5 8 5 3 0 4 0 5-1zM273 435c-2-2-4-3-4-3-1-2 5-5 8-5 3 1 3 3 1 4v3c0 4-1 4-5 1zm-148 15v-4c0-4 0-4 3-4 2-1 3 0 4 2 0 2 0 3-1 4-1 2-5 3-6 2zm622 1v-8c0-5 1-6 2-5h1c0-1 2-2 4-2 1 0 1 2-1 6-1 4 0 7 6 7 2 0 4 0 4 1s-1 1-3 1-5 1-7 1c-7 2-7 2-6-1zm-305-13c0-3-1-3 13-3 8 0 12 1 5 2-2 0-5 1-6 1-11 2-12 2-12 0zm399 9c0-1 0-1 2 0s1 3-1 3c-1 0-1-1-1-3zm-2-21v-9c0-5 0-10-1-11 0-1 0-2 3-4 3-4 5-4 7-2 0 1 2 1 3 1 2 0 3 0 4 4 0 2 1 4 1 4 0 1-2 2-5 3-4 1-5 2-5 4s0 2 6 2h5l-2 1-3 2 3 1 2 1-3 1c-2 0-4 1-6 2-4 1-8 1-9 0zm-194-4c-1-1-3-1-4-1-2 0-3-1-2-3 0-2 0-5-1-7-2-4-2-4 5-8 6-3 9-3 12-2 1 1 0 2-2 2-6 1-7 8-1 8 2 0 3 2 3 6 0 5 0 5-4 6-3 1-4 1-6-1zm-17-6c0-1 1-2 1-2 1-1 2 0 1 2 0 1-1 2-1 2-1 1-2 0-1-2zm-2-11s0-1 1-2 1-1 1 1c-1 1-2 2-2 1zm36-3c0-1 1-1 1-1s1 0 1 1c0 0-1 1-2 1v-1zm-300 23v-2c1-1 7 2 6 3s-6 1-6-1zm4 0s-1-1-2-1-1 0-1 1c1 0 3 1 3 0zm-16-5c0-2 0-3 1-3 0 0 1 1 1 2s-1 3-1 3c-1 0-1-1-1-2zm7-14c0-1 2-3 5-5 5-3 6-3 11-3 3 1 5 0 6 0 1-2 5-2 5 0s-2 3-5 4c-2 0-6 2-9 3-9 2-13 3-13 1zm191 25c0-1 0-1 1-1s1 0 1 1c0 0-1 1-2 1v-1zm-4-11c0-1 1-1 2-1 2 0 2 0 2 1 0 0-1 1-3 1-1 0-1-1-1-1zm-10-18c-1-1 2-4 5-4s3 1-1 3c-2 2-4 2-4 1zm-339 20c-2-3-2-10 0-14 3-7 6-11 9-12 2-2 3-2 6 0 4 2 8 9 7 13s-9 13-14 15c-6 2-6 2-8-2zm-67-23c-4-1-5-2-6-7-2-11-2-18 0-24 3-5 7-10 9-10 1 0 2-1 2-2 0-2 5-4 10-4 4 0 4 0 5 2 2 3 2 15 0 25-1 8-1 8-6 13-8 7-10 9-14 7zm317 2c-3-4-5-9-5-15-1-5 0-7 2-12 1-4 3-6 6-7 3-3 4-3 6 0 1 1 1 2 1 3 1 0 2-1 3-3l2-3 2 4c3 6 5 14 4 20-1 3-2 5-5 7-8 7-13 9-16 6zm312-3c-3-1-5-5-5-10 0-7 7-18 13-19 2-1 3 0 5 2 1 2 2 2 4 1 5-2 7 0 7 6 0 3-1 7-1 8l-3 6c-2 5-14 9-20 6zm-480-8c-6-2-8-13-3-23 3-6 9-11 12-11 2 0 3 2 3 5 0 2 0 4 2 5 3 4 3 12-1 17-1 2-4 4-5 5-1 0-3 1-4 2s-3 1-4 0zm377-24c-5-5-4-18 3-25 3-3 4-3 7-2 1 1 3 2 5 2 3 1 3 1 3 6 1 8 0 13-3 16-6 6-12 7-15 3zm-109-2c-4-3-6-15-2-20 3-7 9-11 9-8h-2c0-1 0 0 1 1 2 3 4 3 7 0 3-2 3-2 4 2 0 2 0 4 1 4s-1 7-3 11c-2 2-4 5-6 5l-4 4c-2 3-2 3-5 1zm302-4c-6-3-8-7-7-16 0-9 2-13 9-20 4-4 5-4 7-4 3 1 4 2 3 5-1 1-2 4-2 6 0 4 3 5 7 0 1-2 3-3 4-3 0 1 3 14 3 17 0 1-2 4-3 6-3 4-14 12-16 11-1 0-3 0-5-2zm-486-11c-3-5-3-10-1-15 4-10 11-15 14-12 1 1 3 2 4 2 2 0 3 1 3 2 1 3 1 4-1 10-3 10-5 13-8 14-2 0-4 1-5 1-2 2-4 2-6-2zM130 230c-7-1-11-9-9-16 1-1 2-4 2-6v-3c1 0 2-1 2-2 1-3 6-8 9-9 2-1 9 0 13 2 3 1 8 8 8 10 0 1 0 3 1 3s1 1 0 2-1 4-1 5c0 2-1 4-1 4-1 0-1 0-1 1 0 2-6 6-10 7-1 0-2 0-3 1-4 1-7 1-10 1zm100-45c-1-7 1-9 5-9 1 0 3-1 3-1 1-1 8-1 9 0s1 2 0 4c-1 1-1 2-1 2 0 2-6 8-9 9-5 3-6 2-7-5zm219-1s0-2 1-4c3-5 7-3 5 3-1 1-6 2-6 1zm4-3s-1 0-1 1c0 2 0 2 1 1 0-1 1-2 0-2z" fill="#FEFEFE"/><path d="M205 477c-1-2-2-3-2-4s-1-3-3-4c-3-3-1-6 3-7 4 0 3-2-1-2s-4 1-5 8c0 6-1 9-5 9-3 0-8-4-9-6-1-1-2-2-3-2-3 0-4-3-4-7 0-3 5-12 7-14 5-3 26-6 30-4 1 1 4 2 6 2 2 1 6 3 9 6 5 4 6 4 5 9 0 4 0 5 3 7 4 3 3 5-4 8-3 2-5 2-8 2-5-1-8-1-13 0-3 1-4 0-6-1zm54-4c-2-3-2-4 0-5 2-2 1-3-2-3-2 0-4-1-4-2-2-2-6-16-6-20 0-2-1-5-2-6-1-3 0-6 5-13 3-5 10-10 14-10 1 0 3-2 5-3 5-5 16-7 22-4 5 3 14 10 14 11s0 2 2 4c1 2 1 3 1 5s0 5 1 7c1 4 1 5-1 7s-2 4-2 4c0 1-2 3-3 4-2 2-3 3-2 5 0 2 0 4-3 7-1 3-3 6-3 7-1 2-2 2-7 3h-9c-3 0-5 1-6 1-1 1-4 2-7 2-4 1-5 0-7-1zm19-39v-3c2-1 2-3-1-4-3 0-9 3-8 5 0 1 7 5 8 5s1-1 1-3zm-139 38c-1-1-3-1-4-1-2 1-3-2-2-6 1-3 1-3-4-2-6 1-7 1-6 4s0 4-4 5c-2 0-3 0-3-2-2-3-7-6-7-4-1 3-5 6-7 5-5-1-7-4-6-13 0-11 4-19 12-27s14-11 21-10c5 0 7 0 10 2s7 4 9 5c8 3 10 4 12 8 3 6 4 8 7 8s5 2 4 5c-1 1-2 3-3 3s-2 0-3 1c-1 2-1 3 0 9 0 7 0 8-1 9-3 2-10 2-12 1-1-1-3-1-5 0-5 2-6 2-8 0zm-8-24c1-1 1-2 1-4-1-2-2-3-4-2-3 0-3 0-3 4v4c1 1 5 0 6-2zm657 25c0-1-2-2-4-3-3-1-5-2-15-1-15 1-31 2-33 3s-4-1-4-4c0-1 1-2 3-2 3-2 3-4 0-4-1 0-3 0-4 2-4 4-6 3-9-4l-4-4c-4-2-5-4-3-7 1-2 3-4 3-6 1-3 11-14 17-17 1-1 6-4 10-6 6-3 6-3 20-3 12 0 13 0 18 3 2 1 6 5 9 8s7 6 9 7c3 2 7 7 6 9 0 1 0 3-1 4s-1 4-1 10c0 9-2 11-6 10-2 0-3 0-4 2-1 3-2 4-5 4-1 0-2-1-2-1zm-35-21c2 0 5-1 7-1s3 0 3-1-2-1-4-1c-6 0-7-3-6-7 2-4 2-6 1-6-2 0-4 1-4 2h-1c-1-1-2 0-2 5v8c-1 3-1 3 6 1zm-322 12c-2-2-2-4-2-5 0-2-2-3-4-4-2-2-3-3-3-4s-2-3-4-5-3-3-2-5c1-4 4-8 10-13 9-7 16-10 24-11 8 0 11 0 18 4 2 1 4 1 5 1 2-1 4 0 6 2 5 3 6 3 7 1 0-3 4-3 6-1s3 3 3 14c0 7 1 14 1 16 1 2 0 4-1 5-2 2-6 2-8 0-2-3-4-3-6 1-3 3-7 4-9 2-1-1-2-1-5 0-5 1-8 1-11-2-3-4-8-3-10 1-1 2-9 5-12 5-1 0-2-1-3-2zm23-26c1 0 4-1 6-1 7-1 3-2-5-2-14 0-13 0-13 3 0 2 1 2 12 0zm386 26c-1 0-1-2-1-3 0-3-5-11-7-12v6c1 5 0 6-1 8-3 3-7-2-7-9 0-2-1-3-3-4-2-2-2-2-1-4s1-3 0-4c-2-2-5-8-4-10 0-1 0-2 1-3 2-3 2-3 0-7-3-5-3-3 3-18 3-8 11-16 18-20 3-1 5-2 6-2s3-1 5-2c4-2 15-3 19-1 2 0 7 5 12 10 5 4 10 9 12 10 1 1 3 2 3 3s0 3 1 5 1 3 0 10c-3 8-3 13-2 18 1 2 1 6 0 11-2 7-2 8-5 9-2 1-4 3-4 5-1 3-3 3-4 2-1-2-9-2-12 0-1 0-5 1-8 1s-7 0-10 1c-7 2-8 2-11 0zm4-15c0-1 0-2-1-2-2-1-2-1-2 0 0 3 2 3 3 2zm4-23c2-1 4-2 6-2l3-1-2-1-3-1 3-2 2-1h-5c-6 0-6 0-6-2s1-3 5-4c3-1 5-2 5-3 0 0-1-2-1-4-1-4-2-4-4-4-1 0-3 0-3-1-2-2-4-2-7 2-3 2-3 3-3 4 1 1 1 6 1 11v9c1 1 5 1 9 0zm-210 37c-2-1-3-3-4-5s-2-3-2-3c-1 0-3 0-5-1-3-1-4 0-7 2-3 3-5 4-8 1-1-1-2-3-1-11 0-7 0-10-1-13s-1-4-1-5c1 0 2-2 2-4 0-1 0-3 2-5 1-1 2-4 2-6 0-5 3-11 9-16 7-7 14-9 26-10l9-1 9 4c5 2 10 5 11 7 1 1 2 2 3 2s7 5 7 6 0 2 2 4 2 8 1 10c-2 2-6 19-6 29 0 5-1 7-2 8-4 2-13 5-17 6h-7c-2 1-8 2-12 2-6 0-8 0-10-1zm16-41c1 0 1-2 1-5 0-4-1-6-3-6-6 0-5-7 1-8 2 0 3-1 2-2-3-1-6-1-12 2-7 4-7 4-5 8 1 2 1 5 1 7-1 2 0 3 2 3 1 0 3 0 4 1 2 2 3 2 6 1 1 0 3-1 3-1zm-24-6c1-2 0-3-1-2 0 0-1 1-1 2-1 2 0 3 1 2 0 0 1-1 1-2zm-2-12c0-2 0-2-1-1-2 2-2 3-1 3s2-1 2-2zm36-2c0-1-1-1-1-1s-1 0-1 1v1c1 0 2-1 2-1zm-305 58c-2-1-3-1-4-1-1-1-2-2-4-2-2-1-4-3-4-8v-5c0-1-2-4-3-6-5-5-7-10-7-18 0-5-1-8-2-9-2-3-2-6 0-10 2-2 3-6 4-7 5-11 12-16 27-18 10-1 15-1 22 1 6 2 12 7 16 15l2 4-2 3c-2 2-3 3-2 9 0 4 1 8 2 10s1 3 0 5c-1 1-1 3-1 4 0 2-4 4-6 3-3 0-3 1-2 6 1 3 1 4 3 5s5 5 4 7-12 7-19 8c-5 1-11 2-14 3-4 0-8 1-10 1zm9-34c1-1-5-4-6-3v2c0 2 5 2 6 1zm-16-7c0-1-1-2-1-2-1 0-1 1-1 3 0 1 0 2 1 2 0 0 1-2 1-3zm18-14c3-1 7-3 9-3 3-1 5-2 5-4s-4-2-5 0c-1 0-3 1-6 0-5 0-6 0-11 3-7 4-7 7-2 6 2 0 6-1 10-2zm166 49c-3-2-6-2-9-2-4 1-5 1-8-4-5-5-6-7-2-10 3-1 3-2 3-4-1-2 0-3 2-4 2-2 2-2-2-3-2-1-4-2-5-3-3-6-3-17 0-22 1-2 3-4 4-6 2-4 11-11 16-13 2 0 6-1 10-2 5 0 6 0 11 2s6 3 10 2c5-1 5-1 11 4 6 6 8 10 9 17 0 3 1 8 2 10 2 5 2 9-1 12-1 2-2 4-2 5 0 2-1 4-2 6-2 2-2 4-2 6 1 5-2 7-8 6-3 0-8 0-11 1-3 0-9 1-13 1s-7 1-8 1c-1 1-3 1-5 0zm14-23c0-1 0-1-1-1s-1 0-1 1v1c1 0 2-1 2-1zm-2-11c0-1 0-1-2-1-1 0-2 0-2 1 0 0 0 1 1 1 2 0 3-1 3-1zm-7-22c1-1-4 0-6 1-3 3-1 5 3 2 1-1 3-2 3-3zm-344 37c-4-2-5-3-8-8-2-4-3-6-3-10 1-9 8-25 14-29 3-2 6-2 11 1 10 5 13 8 14 13 2 7 3 13 2 17-2 5-10 13-17 15-6 3-9 3-13 1zm6-11c5-2 13-11 14-15s-3-11-7-13c-3-2-4-2-6 0-3 1-6 5-9 12-2 4-2 11 0 14 2 4 2 4 8 2zm-81-15c-4-2-8-7-10-13-2-5-2-7-1-14 2-10 3-14 6-18 1-2 3-4 3-5 0-2 10-11 14-13 7-4 20 0 24 7 1 1 2 6 2 10 1 7 0 11-2 19-2 11-2 11-8 17-9 10-21 14-28 10zm20-17c5-5 5-5 6-13 2-10 2-22 0-25-1-2-1-2-5-2-5 0-10 2-10 4 0 1-1 2-2 2-2 0-6 5-9 10-2 6-2 13 0 24 1 5 2 6 6 7 4 2 6 0 14-7zm309 17c-3 0-6-1-7-2-5-3-8-6-9-9-2-4-3-12-2-14v-5c1-8 8-19 15-21 3-2 14-1 17 1 3 1 4 3 7 8 4 10 7 17 7 21s-7 14-12 18c-5 3-9 4-16 3zm3-8c7-5 11-9 12-13 1-6-1-14-4-20l-2-4-2 3c-1 2-2 3-3 3 0-1 0-2-1-3-2-3-3-3-6 0-3 1-5 3-6 7-4 9-3 19 3 27 2 2 5 2 9 0zm307 7c-1-1-3-2-5-3-4-1-10-9-10-14-2-11 3-20 13-26 8-6 14-7 22-3 3 1 6 2 6 3 0 0 1 2 3 5 5 6 7 18 4 21-1 0-1 1-1 2 0 2-6 6-14 11-7 3-15 5-18 4zm10-11c3-2 5-4 6-5l3-6c0-1 1-5 1-8 0-6-2-8-7-6-2 1-3 1-4-1-2-2-3-3-5-2-6 1-13 12-13 19 0 11 8 15 19 9zm-493 2c-5-2-10-7-13-10-1-3-2-5-1-10 0-3 1-8 2-10 1-5 7-14 10-16 2-1 4-3 5-4 2-2 4-2 7-2s4 0 6 3c2 2 3 4 4 5 4 3 4 6 4 18 0 14 0 15-10 22-7 5-10 6-14 4zm7-11c1-1 4-3 5-5 4-5 4-13 1-17-2-1-2-3-2-5 0-3-1-5-3-5-3 0-9 5-12 11-5 10-3 21 3 23 1 1 3 1 4 0s3-2 4-2zm374-12c-5-1-8-3-11-7-4-5-6-14-3-21 2-7 8-13 13-15 4-2 10-3 11-2 0 1 3 2 5 2 4 2 5 3 7 6 3 5 5 14 4 20 0 4-1 6-6 11-6 5-6 6-11 6h-9zm5-9c7-5 9-9 8-20 0-5 0-5-3-6-2 0-4-1-5-2h-3c-3 0-7 5-9 11-4 13 3 22 12 17zm-122 3c-5-4-9-11-9-17 0-11 9-24 20-29 6-3 9-3 13-1 4 3 6 7 6 11 0 2 1 7 1 11 1 6 0 8-1 11-2 3-2 5-2 6 0 2-6 6-11 9-6 2-12 2-17-1zm8-7l4-4c2 0 4-3 6-5 2-4 4-11 3-11s-1-2-1-4c-1-4-1-4-4-2-3 3-5 3-7 0-1-1-1-2-1-1h2c0-3-6 1-9 8-4 5-2 17 2 20 3 2 3 2 5-1zm302 6c-7-1-13-5-17-13-2-4-3-6-2-13 0-7 1-9 3-14 6-10 17-19 25-19 5 0 15 8 18 15 8 16 6 29-7 38-9 7-8 7-20 6zm7-10c7-5 12-11 12-14s-3-16-3-17c-1 0-3 1-4 3-4 5-7 4-7 0 0-2 1-5 2-6 1-3 0-4-3-5-2 0-3 0-7 4-7 7-9 11-9 20-1 7 0 8 1 11 2 3 8 7 11 7 1 0 4-1 7-3zm-494 1c-4-1-8-5-11-11-2-4-3-6-2-11 0-4 1-8 2-10 3-6 9-12 13-14l5-2 4 2c2 2 5 3 6 3 3-1 6 2 10 9s5 8 5 14c0 4-1 7-2 9-4 8-22 15-30 11zm2-9c1 0 3-1 5-1 3-1 5-4 8-14 2-6 2-7 1-10 0-1-1-2-3-2-1 0-3-1-4-2-3-3-10 2-14 12-2 5-2 10 1 15 2 4 4 4 6 2zM129 241c-3 0-7-1-9-2-3-2-7-7-7-8 0 0-2-3-3-6-3-5-3-11-1-16 2-7 5-12 6-12 0 0 1-1 1-2v-1c1 0 2-2 4-5 1-2 4-5 7-7 2-1 5-3 5-3 2-2 6-2 8-1 1 1 4 2 6 3 4 2 10 7 10 8s0 2 2 3c1 0 3 4 5 8 1 3 3 7 4 8 0 1 1 4 0 5 0 2 0 4 1 4v1c-1 0-4 8-4 10 1 1 0 1 0 0-1 0-2 1-4 2-4 4-11 8-18 10l-6 2c-1 0-4 0-7-1zm11-12c1-1 2-1 3-1 4-1 10-5 10-7 0-1 0-1 1-1 0 0 1-2 1-4 0-1 0-4 1-5s1-2 0-2-1-2-1-3c0-2-5-9-8-10-4-2-11-3-13-2-3 1-8 6-9 9 0 1-1 2-2 2v3c0 2-1 5-2 6-1 4 0 10 3 13s9 4 16 2zm591 8c-6-1-8-4-9-11 0-3 0-5 1-5 0 0 1 0 2-1 1-2 4-2 7 1 1 1 2 2 2 3s14 1 16-1c1-1 3-1 4-1s2-1 2-1c0-1 0-1 1-1 2 0 10-8 10-9 0-3-10-14-13-14-1 0-1-1-1-1 0-1-1-1-2-1 0 0-2-1-2-2-1-2-3-2-3-2-1 0-3-1-3-2-1-2-2-2-3-2s-2-2-3-3c-2-2-2-3-2-3s0-1-1-2c-2-2-3-4-3-8-1-5-1-5 2-8 4-4 11-6 20-6 8 0 13 2 15 6s2 6-1 8c-3 3-5 3-7 1-1-2-3-2-3-2-1 0-1-1-1-1 0-1-1-1-2-1h-2c0 1-2 2-3 2-4 0-5 3-2 6 1 2 3 3 5 4s4 3 6 5l3 3c3 0 12 8 13 11 1 2 2 4 3 4 0 0 1 0 1 1v2c2 0 1 9-1 12-1 3-10 11-14 13l-8 4c-5 2-15 3-24 2zm-512-4c-3-1-4-7-3-19 0-7 1-15 1-18s1-11 1-16l1-10 5-3c6-3 16-5 22-5 4-1 7 1 10 4 1 1 2 2 3 2 0 0 1 1 1 2 2 3 2 11 1 11s-1 0-1 1c0 2-6 10-9 13-1 2-2 3-2 4 0 2 11 9 15 10 2 0 9 2 10 3 1 0 2 1 3 1 2 0 5 3 5 6 0 1-1 3-3 4-1 2-2 2-5 1h-5c-2 0-4-1-7-2-2-2-5-2-6-2s-1-1-1-1c0-1-1-1-2-1s-3-1-4-2c-1-2-3-2-3-2-1 0-3-2-4-3-4-3-10-6-11-5 0 0-1 4-1 9-1 7 0 8 1 9s1 2 0 4c-2 6-7 8-12 5zm18-43c3-1 9-7 9-9 0 0 0-1 1-2 1-2 1-3 0-4s-8-1-9 0c0 0-2 1-3 1-4 0-6 2-5 9s2 8 7 5zm619 42h-10c-6 0-13-1-14-2l-4-1 1-18c0-10 1-18 2-19 0 0 1-2 1-4s0-6 1-9 3-7 3-10c1-6 2-10 5-12 1-1 6-2 11-3 8-1 10-1 17 0 8 2 9 2 11 6s0 7-4 6c-16-2-19-3-20-2 0 1-2 2-3 2-3 0-4 2-5 8 0 3-1 6-1 9l-1 4 13-1 12-1 1 3c2 3 1 7-1 7-1 0-1 0-2 1 0 0-4 1-9 1-16 1-18 4-18 16v5l6 1c10 1 19 1 22-1h7c4 1 5 1 6 4 2 8-2 10-16 11-6 0-11 0-11-1zm-507-3c-2-1-8-7-13-13-1-1-2-3-2-4-1-1-1-3-2-5-3-6-3-10 0-18 3-10 7-19 12-24 3-3 13-8 16-8 1 0 2-1 2-1 0-4 11 1 13 6 2 6-5 13-9 8-2-3-5-3-7-1-2 1-4 3-6 5-2 1-3 3-3 3 0 1-1 2-1 2-1 0-1 0-1 1s-1 2-1 2c-1 0-1 1-1 2s-1 3-2 3c0 1-1 5-1 9 0 8 1 9 4 14 1 2 4 5 5 6 4 1 15 0 18-2 4-3 7-7 9-11 1-3 1-4-1-5s-12-1-13 1c-1 1-8 1-9-1-2-2-2-9 1-11l2-2c2 0 6 0 11-1 5 0 6-1 9-4s4-3 5-3c0 1 2 2 3 2 5 0 6 2 5 14 0 6-1 11-2 12v3c0 1-1 2-1 2-1 0-1 0-1 1s-9 13-11 13l-6 2c-5 3-18 4-22 3zm174-2c-2-2-2-3-2-11v-10c1 0 2-2 2-4s1-5 1-7c1-2 2-7 3-10 0-3 1-7 2-10 1-2 1-5 1-6s1-3 2-5c3-7 11-3 15 7 1 3 3 7 5 9s4 4 4 5v2c1 0 2 2 2 4 0 1 1 3 2 3 0 0 1 0 1 1 0 0 1 2 2 3 1 2 3 4 3 5 2 4 5 6 7 4 1-1 3-14 3-21 0-1 0-3 1-3 0 0 1-3 1-6 0-2 0-4 1-4 0 0 1-4 1-8 0-12 4-14 11-4 1 1 1 3-1 9-2 5-2 10-2 16 0 5-1 9-2 10v8c0 11-3 18-10 21-2 2-3 1-6-1-2-1-3-2-3-2s-1-2-3-4-5-5-6-8c-2-2-3-3-4-3 0 1-1 0 0 0 1-2-2-7-6-11-2-2-3-4-3-5l-2-2c-2-3-6 5-9 24-1 2-1 4-1 5v3c-1 2-5 8-7 7 0 0-2 0-3-1zm-61-4c-2-1-3-2-4-5-2-4-2-5-1-11 1-4 1-7 1-8-1-2-5-2-7 0-1 1-3 1-5 1-1 0-2 1-2 1 0 1-2 2-3 2-2 0-2 1-2 2 0 2-1 4-2 6-2 2-3 4-3 5 0 3-2 6-6 6-2 0-4-1-5-2-2-2-5-7-4-6 1 0 2 0 2-1s1-5 3-9 4-7 4-8 0-1 1-1c0 0 1-1 1-2 0-2 0-3 1-3 0 0 1-1 1-3 0-1 0-1 1-1 0 0 1-2 1-3s0-2 1-2c0 0 1-1 1-2v-2c1 0 2-2 2-4 1-2 2-4 3-5 0-2 1-4 2-5 3-8 4-9 7-9s4 1 8 5c2 2 5 5 5 6v2c1 0 3 4 4 8 1 5 5 9 9 9 5 0 8 1 8 4 0 2-3 5-5 5s-2 0-2 1c0 0-1 1-2 1-4 0-6 6-3 8v9c-1 6-1 9-3 10-2 3-3 3-7 1zm-7-40c2-6-2-8-5-3-2 4-2 5 1 5 2 0 4-1 4-2zm199 39c-6-6-6-7-5-17 1-14 2-21 3-22 0 0 1-3 1-6 0-4 0-5 2-8 4-3 7-3 9-1 2 3 2 11 0 13-1 2-1 30 0 36 1 5 0 7-5 6-2 0-4 0-5-1zM363 425c0-1 0-1 1-1 2 1 2 2 1 2s-2-1-2-1zm89-243c0-1 1-1 1-1 1 0 0 1 0 2-1 1-1 1-1-1z" fill="#424242"/></g></svg>