<svg width="585" height="532" viewBox="0 0 585 532" xmlns="http://www.w3.org/2000/svg"><title>review</title><path d="M101 531c-1-1 0-9 2-12 1-2 4-26 3-30 0-7 4-10 13-10 5 0 6 0 9 3 4 4 4 5 4 9 1 6 1 6-6 12l-6 6 3 3c2 2 4 4 6 5s4 3 5 4 3 2 4 2c7 1 9 5 4 7-2 1-3 1-6-1l-4-2c0-1-1-2-3-3-3-1-8-5-11-9l-8-6c0 1-1 5-1 10s-1 10-2 11c-1 2-4 3-6 1zm21-32c4-3 5-4 5-7 0-5-3-7-7-7-5 0-7 2-8 9-2 9 2 11 10 5zm208 32c-2-2-2-3 0-9s2-24-1-30c-1-3-1-4 0-5s12-3 24-4c6-1 6-1 7 1s1 3 1 3c0 1-5 2-10 2s-11 1-12 2c-2 0-3 1-2 4 1 9 1 9 8 8 6 0 8 0 9 2 1 1 1 2 1 2 0 1-8 3-13 3-1 0-2 0-2 1-1 1-4 12-3 13 0 0 3 0 15-2l6-3c3-2 6-1 6 2 0 4-11 9-23 10-1 0-4 1-6 1s-4 0-5-1zm-100-9c-1-3-3-9-5-13-2-5-3-8-4-8 0 1-1 0 0 0 0-1 0-3-1-5-3-7-3-11 1-11 2 0 3 3 5 7 0 2 4 13 7 21 1 2 4 0 4-2 0-1 0-4 1-6 2-1 4-7 6-11 3-6 4-8 6-7 1 0 2 1 3 2s0 2-3 5c-2 2-4 3-4 4 0 0 0 3-1 5-3 6-5 14-5 18 0 3-1 4-3 5-4 1-4 1-7-4zm-68 2c-2-2-2-2 0-20 1-5 1-11 1-14v-7c10-1 19-1 20 1s-2 5-7 5c-2 0-5 0-5 1-2 1-2 7-1 8 1 0 4 0 8-1 7 0 8 0 7 3s-2 3-7 4c-8 1-9 1-10 5-1 8-1 8 4 8 12 0 19 1 20 2 2 2 2 3 0 5-2 1-3 1-10 1-5-1-9-1-11 0-4 1-7 1-9-1zm125-1c-2-2-2-3-2-13 0-7 1-15 1-18 0-5 0-6 2-6 1 0 3 0 4 1 1 2 1 3 0 7 0 3-1 9-1 14 0 8 1 10 2 11 2 3 2 3 0 5-3 2-4 2-6-1zm148 0c-1-1-3-4-6-8-4-7-6-9-6-6 0 0-1 2-2 2-1 1-2 4-3 7-1 2-2 5-2 5h-4l-3 1-5-16c-3-8-6-16-6-17s0-3-1-4c-3-6 2-8 6-2 1 2 2 4 2 6 0 1 1 5 2 9s3 8 4 10c0 2 1 3 2 3s4-6 6-12c1-5 1-5 3-5s8 5 8 7c0 0 1 3 3 6 4 6 4 6 5 4 3-3 14-23 14-26 0-4 4-6 6-2 1 1 0 2-2 6-3 4-5 8-10 23-4 9-4 10-7 10-2 0-3 0-4-1zm-176-81c-1-1-1-2-1-4 1-3 1-3-3-2-3 0-5 2-7 4l-2 3-3-3c-2-3-4-3-5-1-2 2-4 2-7-1-3-2-3-2-6 0s-3 2-5 0c-3-3-7-3-11 1-2 1-4 3-5 3-2 0-3-1-3-3s-1-4-2-4h-3c-11-2-10-2-13 1-2 3-4 3-6 0-1-4-4-5-4-2 0 2-3 4-5 3 0-1-2-1-4-1-1 0-3-1-4-2-1-2-2-2-5-2-2 1-5 2-7 4-3 2-4 2-6 1l-2-2c0-3-2-3-4-1-3 3-4 3-6 1-1-1-2-2-4-1-1 0-3 0-4-1-2-2-2-2-5-1-2 1-5 3-6 4-2 1-3 1-4 0-2-2-2-5 0-5v-1c0-1-2-1-3-1-3 1-4 0-4-2-1-2-4-4-15-6-1 0-3-1-3-2h-5c-4 0-6-3-4-6s1-4-5-5c-8 0-10 0-9-3 0-3 0-3 6-3 5 1 9-1 9-4 0-1-4-1-6 1-2 1-3 1-5-1-1-1-3-2-4-3-1 0-2-1-2-2 0-2 1-2 15-2 12 1 15 1 15-1 0-3-3-8-7-14-2-3-4-6-3-7 0 0-1-2-2-3-2-4-5-9-9-18-3-6-5-11-6-13s-3-4-6-6c-3-1-6-2-8-3-1-1-3-1-4-1-3 0-4-5-3-11 2-9 3-16 1-19-2-4-1-12 2-14 3-3 3-8 1-15-9-24-9-25-12-26-1 0-3-2-4-4s-4-6-7-9c-7-7-11-13-11-14s-2-2-4-4c-5-5-5-6-2-10 2-2 2-3 2-6-1-2 0-3 1-4 2-1 2-2-2-7-5-5-5-6-1-10 3-3 5-5 18-11 4-2 9-5 11-7 3-3 4-3 8-2 3 0 6 1 7 2s3 2 7 2h4l10 9c6 5 11 10 12 11 3 3 8 9 8 11-1 2 3 4 16 10 20 11 33 18 42 22 4 2 8 4 9 4 1-1 3-10 4-15 1-4 4-18 9-37 1-6 3-12 3-15s1-5 2-6c0-1 1-4 2-8 2-9 6-24 10-35 5-14 10-35 10-41s0-6-2-6c-4-1-5-4-6-12-1-9 0-11 8-11 6 1 7 0 6-2-3-13-5-32-3-34 0-1 2-1 4-1s13 1 24 1c26 0 26 0 26 17-1 11 0 13 1 16 3 3 3 3 8 3 8 0 11 5 6 10-1 1-2 3-2 5 0 1-1 4-3 5-1 2-2 4-2 5l4 8c3 4 7 10 9 14s6 10 8 14c2 3 5 7 5 9 1 1 4 5 6 10 3 4 5 8 6 10 0 2 4 9 8 16 6 13 10 22 15 34 4 9 7 14 9 15 0 0 3-3 6-5 9-8 27-23 30-24 1-1 5-5 9-8s9-7 12-9 7-5 9-8c5-4 5-4 3-7-2-2-2-3 0-6 1-2 3-6 5-7 4-5 6-8 10-15 3-4 4-6 7-6h5c1 1 2-1 2-5 1-4 2-6 8-6 4-1 5 0 7 2l3 3c1 0 4 1 8 3s9 5 11 5 4 2 6 4c1 2 3 4 5 5 2 3 2 7 0 8-4 2-1 8 4 9 3 1 9 4 9 6-1 2-6 8-8 8-5-1-15 8-19 16-2 3-2 6-2 59 0 31 0 57 1 57 1 1 23-6 25-7 1-1 5-2 9-4 10-3 19-7 21-8 2-2 0-3-4-1-2 1-3 1-4-1-2-3 0-6 8-9 6-3 9-4 12-3h4c0-1 4-1 9-1 7-1 8-1 13-4l6-4 2 2c5 4 9 9 12 14 1 2 4 7 6 9 5 5 5 7 3 8s-4 3-7 6c-3 2-5 4-6 4s-3 0-5 1c-2 2-2 3-1 6 4 8 3 10-7 13-3 1-6 2-7 3-3 3-6 4-9 2l-4-2c-1 1-3 4-6 8s-8 11-11 15c-9 12-18 27-34 53-3 5-6 11-8 13l-3 4 3 3c2 2 3 3 2 4-1 2-1 3 2 5 2 2 5 4 6 4 4 2 2 7-3 6-2 0-3 0-4 2-2 2-3 2-9 0-1-1-1 0-1 2s-1 3-3 3c-1 0-3 2-4 3 0 1-1 2-3 1-3 0-4 0-5 2-1 1-3 2-5 1-1 0-3 0-4 1-1 0-3 1-5 0-3 0-5 0-6 2-2 2-4 3-7 2-2 0-5 1-7 2-3 1-3 1-5-2-3-4-4-4-5-1 0 1-1 2-1 2-1 1-3 2-4 2-6 3-20 2-29-3-4-2-7-2-6 1 0 2 0 3-1 4-2 2-5 1-7-3-1-2-3-2-4 1-1 1-2 1-3 1s-2 0-3 2c-1 1-2 2-4 1-2 0-4-1-5-1-2 0-3-1-4-2 0-1-1-1-2-1-2 0-2 0-2 3 1 4 1 4-7 2-2-1-5-2-6-3-3-2-7-2-7 0v3c-1 1-4 1-6-2-3-3-6-3-6-1-1 3-3 4-5 3-2-2-3-2-4 1 0 1-1 2-3 1-2 0-2-1-4-6-2-3-3-3-4 3-1 3-1 4-3 3-2 0-3-1-4-3 0-3 0-3-3-3-2 0-3 0-3 3-1 3-2 4-4 4-1 0-3 0-4 1-2 3-4 3-5 1zm-21-13c1-1 0-2-2-1-1 0-2 1-2 2-1 1 0 2 2 1 1 0 2-1 2-2zm-16 1c0-1-2-1-3-1 0 1 0 2 1 2s2-1 2-1zm109-6h-2 2zm-39-4c9 0 19-1 24-1 4 0 13-1 21-1 7 0 18-1 25-1 18-1 29-1 36-3h7c1 0 5 0 10-1s11-2 14-2c6-1 7-2 5-4-1-1-2-4-3-7-5-14-8-19-10-20s-5-2-8-2h-10c-23-5-28-5-34-5-5 0-7 0-7 1-1 2-2 2-6 0-5-2-9-2-46-1-22 0-42 1-44 1-3 0-9 1-14 1-11 1-30 3-41 5-4 0-10 1-13 1-14 0-51 5-63 7-8 2-26 9-28 11v4c-1 4-2 6-5 6-2 0-2-1-2-3 0-4-2-5-4-3s-1 4 4 7c2 1 5 3 7 4 3 2 7 2 17 3 7 0 16 1 20 1 3 0 26 1 51 1s52 1 60 1c7 1 16 1 18 1 1 0 10-1 19-1zm164-15c5-3 4-5-2-9-3-1-5-3-5-4-1-2-17-9-18-8s6 15 8 18c1 1 2 3 3 4 0 1 1 1 5 1 3 0 7-1 9-2zm-354-14c1 0 2-3 3-6 1-4 4-12 7-19 2-7 6-17 8-23 2-5 5-15 7-20 2-6 4-11 4-12 2-3 0-4-8-5-4 0-10-1-13-2s-9-2-13-2h-7l-2 6c-1 3-1 8-1 13-1 9-1 10-12 9-10-1-10-1-7 7 1 2 3 7 4 11 2 3 5 9 7 12 5 6 8 11 8 13 0 1 1 5 3 9s3 8 4 9c1 2 5 2 8 0zm17-4c5-2 22-8 34-13 5-1 11-3 13-5 7-3 12-5 14-5 1 0 2-1 3-1 9-5 24-10 42-15 4-1 11-3 14-4s7-1 8-1c3 0 18-5 20-7 2-1-1-2-8-3-3 0-10-2-14-3s-11-3-15-3c-4-1-8-2-9-3-1 0-4-1-6-1s-7-1-11-2l-8-2-8 6c-4 4-9 8-11 9s-6 5-10 8-9 7-11 9c-2 1-7 6-12 10-5 5-10 10-12 11-2 2-4 3-5 4-1 0-3 3-6 5-2 1-4 4-4 4v1c-1 0-2 0-3 1-1 2 0 2 5 0zm356-7c3-4 6-9 8-12 3-6 4-8 14-23 4-6 9-15 12-19s6-9 7-10c1-2 3-4 4-5 0-2 3-6 6-10 9-13 8-12 6-14-7-5-16-19-16-25 0-1-1-2-1-2-1 0-21 6-32 10-3 2-8 3-12 4-8 3-11 5-10 7 0 1 1 5 1 10 1 8 2 20 4 36 2 14 2 24 3 44 0 11 0 17 1 17 0 0 3-4 5-8zm-13-9c2-17 1-30-3-55-1-9-2-20-2-25-1-5-1-10-2-10-1-2-8 0-16 3-4 1-9 3-12 4-3 0-6 1-8 2s-5 2-8 3c-5 1-21 7-23 8-1 1-1 2 4 13 3 5 6 11 6 12 0 0 2 3 3 5s5 8 7 13c3 4 6 9 7 11s3 4 3 6c2 5 11 10 16 11 8 0 12 1 13 3s2 3 2 4c2 1 11 3 12 3 0-1 1-5 1-11zm-296 9c3-1 9-2 12-2s10-1 14-2c5-1 10-2 13-2h9c2-1 8-2 12-2s8-1 9-1c1-1 23-2 41-3 17-1 95-1 107 0h6c-1 0-3-1-5-2-3-2-21-6-37-10-5-1-11-3-13-3-1-1-3-1-4-1-2 0-29-8-42-12-7-2-8-2-14 0-2 1-5 2-7 2s-6 2-10 3-8 3-10 3c-1 0-4 0-6 1s-8 2-12 4c-19 4-29 8-44 14-4 2-7 4-8 4s-4 1-7 2c-6 3-12 5-15 6-4 1-2 3 2 2 2 0 6-1 9-1zm-34-15c5-5 14-12 18-16 8-7 24-19 33-27 6-4 6-6 2-5-2 0-4-1-5-1-1-1-5-2-10-2-4-1-9-2-12-2-8-2-20-4-20-3-1 0-2 4-4 8-1 4-3 10-5 14-1 4-3 10-4 13s-2 6-3 7c0 1-1 5-2 9-2 4-3 9-4 10-1 2-2 4-2 6l-1 3 4-3c3-1 9-6 15-11zm276-3c-7-7-21-17-37-25-6-4-12-7-13-8-2-2-3-2-4-2l-6-4c-7-4-10-4-22 0-5 2-14 5-21 7-6 2-11 4-11 5 0 2 6 3 18 6 13 3 22 5 26 7 2 0 3 1 15 3 4 1 9 2 11 3 1 1 5 2 8 2 4 1 10 2 12 4 1 0 5 1 10 2 5 2 11 3 13 4 7 3 7 2 1-4zm1-8s-1-2-2-3c-4-6-18-32-21-39-2-4-3-7-4-8 0 0-5 1-11 3s-13 5-16 6c-6 2-8 3-5 5 1 1 5 3 8 5s8 5 12 7c3 1 11 7 19 12 9 6 15 9 16 9 0-1 1 0 0 0 0 0 0 1 1 2 1 2 3 2 3 1zm-122-23c5-2 11-4 14-5 2-1 8-2 13-4 10-3 18-6 20-7 0-1-1-2-5-4-2-2-5-3-5-3-1 0-1-1-2-1 0-1-5-3-11-6-27-14-31-15-34-17-2 0-5-2-6-3-3-1-11-5-17-7-4-2-4-1-16 8-3 3-8 7-10 9s-7 6-11 10c-5 4-9 8-9 8-1 1-3 2-4 3-4 3-2 4 3 5 3 0 9 2 14 3 4 1 11 3 14 4 3 0 9 2 14 3 4 1 10 3 14 3 4 1 8 2 9 2 3 2 6 2 15-1zM76 321c2-1 5-7 5-9 0-1-2 0-6 3-4 4-7 6-8 6-3 0-3 1 0 2 4 0 8 0 9-2zm-10-7c5-3 9-7 9-9 0-1-2-4-3-5-5-7-16-3-16 6 0 5 1 8 4 9h2s2 0 4-1zm133-4c3-2 9-8 14-12 4-4 10-10 13-11 8-7 18-16 18-17 0 0-4-2-7-3-4-2-10-4-13-6-12-5-13-5-14-5s-3-2-5-3-6-3-9-4c-2-2-7-3-9-5-3-1-6-3-7-3-4-3-20-9-21-9 0 0 0 2-1 4 0 2-1 6-2 10-3 13-5 19-5 22-3 8-6 17-8 25-2 5-3 9-3 10s6 2 14 3c12 3 24 5 32 6 6 2 8 2 13-2zm148 1c2-1 8-3 13-5 15-5 18-7 19-7 0-1-1-4-2-8-2-4-3-7-3-7 0-1-14-25-18-30-2-4-5-9-6-12-10-19-21-40-22-40s-3 1-5 3-4 5-5 6c-1 0-12 10-24 22-21 20-28 26-35 32-4 3-4 4-1 5 1 1 6 3 11 5 15 8 27 13 33 16 4 1 9 4 11 5 3 2 8 4 12 6 3 2 8 5 11 7 6 4 6 4 11 2zM84 301c0-2-1-2-2-2-3 0-3 0-1 3 1 3 3 2 3-1zm54-9c2-5 4-13 5-17 2-5 3-10 4-13 3-10 7-31 7-33 0 0-3-2-6-3-5-3-10-5-18-9-4-2-9-5-12-6-4-2-9-4-10-5-2-2-6-3-9-5-3-1-6-2-6-3-4-2-14-6-17-7-2 0-2 1-3 5-2 6-3 8-9 14-5 5-16 11-24 13-6 1-6 0 1 19 2 7 5 17 7 22 3 12 5 15 11 15 5 0 5 0 7 2 2 4 0 6-6 5-4 0-5 0-4 1 0 2 2 2 6 3 9 1 10 0 9-3-1-4 0-5 7-4 5 1 6 1 7 3 2 5 8 9 14 10 3 1 8 2 12 3 5 1 15 3 22 3 1 0 2-2 5-10zm257 1c5-2 13-4 19-6 5-1 9-3 10-4 0 0 2-1 3-1 3 0 25-7 27-8 1-2 2-96 1-104-1-5-1-5-5-6-8-2-16-8-16-12 0-2-2-2-7-2-7 0-15-8-15-13 0-3-3-3-5 0-2 2-13 11-20 16-2 2-8 6-13 10-4 3-12 10-17 13-4 4-12 10-16 14-10 8-9 7-4 16l6 12c2 4 6 12 9 17s6 9 6 9c0 1 2 4 4 8s5 8 5 8 1 3 3 5c1 2 3 5 3 5 0 2 12 27 13 27 0 0 4-2 9-4zm-344-5c0-2-3-5-4-4 0 1 1 6 2 6s2-1 2-2zm502-1c2-1 3-3 3-3 1-2-3-2-4-1 0 1 0 1 1 1 2-1 2 0 1 0-1 1-3 1-4 1-2-1-4 1-4 3 0 1 4 0 7-1zm-13-9c2-4-5-16-12-17-2-1-4-2-5-2-4-2 1 11 7 18 4 4 8 5 10 1zm8-10c0-1-1-1-2-1-1-1-1 0-1 1 0 2 2 2 3 0zm-287-11c2-2 5-5 7-6 2-2 13-12 25-24s24-23 27-26l5-5-4-8c-2-5-7-14-10-20-16-34-22-46-33-64-6-11-11-20-11-20l-6-8c-2-4-6-10-7-13l-2-5-6 2c-6 2-11 2-30 2-13-1-13-1-15 9-1 5-8 28-10 33-1 2-3 10-4 17-1 1-2 4-3 6s-1 5-1 6c0 3-1 6-4 14-1 3-2 9-3 14s-3 10-3 12c-1 2-2 6-3 11-1 4-2 10-4 15-4 15-6 27-6 27 1 1 4 3 8 4 3 1 11 5 17 8 11 5 25 12 37 17 3 2 10 5 15 6 4 2 9 4 11 4 2 1 5-1 13-8zm288-3c-1-3 2-5 4-4 2 2 3 2 8-3 3-3 4-4 3-5s-2-2-4-2c-3-1-16 4-17 6-1 0 2 6 4 8 1 2 2 2 2 0zM42 215c3 0 7-2 9-3 4-2 14-13 15-16 0-2 1-4 1-5 0 0 0-2-2-4-2-3-6-3-10 0l-4 2-2-2c-3-2-6-1-12 5-4 4-6 6-7 11-4 13-1 15 12 12zm-30-12c0-1 0-2-2-2v2c0 2 1 2 2 0zm14-7c0-2-4-6-5-6-2 0-2 0 1 4 1 2 4 3 4 2zm6-10c0-1-1-2-2-2-2-1-2 0-2 2 0 1 0 2 2 1 1 0 2-1 2-1zm10-7c1-2-1-4-3-3-3 1-3 5-1 5 1 0 3-1 4-2zm-28-5c2-2 5-4 6-4 1-1 2-2 1-2-2 0-11 6-11 8s0 2 4-2zm39 1s-1-2-1-3c-2-3-4-3-6-1-1 1-1 2 1 3s6 2 6 1zm400-22c-1-2-1-4-1-5-1-1-11 0-12 2-2 1 7 8 11 7 2 0 2 0 2-4zm-11-10c4 0 8-1 8-2 1 0 1-3 1-6s1-6 1-7c1 0 1-2 0-4-1-3-3-3-8-1-2 1-3 1-5-1-1-3-1-3-8-1s-8 3-10 6c-4 8-4 7-1 11 4 6 10 8 22 5zm22-7c0-2-4-3-5-2s1 2 3 2h2zm-1-9c1-1-1-5-3-6-2-2-3-1-2 3s1 4 3 4c1 0 2-1 2-1zm-41-19c0-1-1-1-2-1v1s0 1 1 1 1-1 1-1zm23-7c-2-5-4-6-7-3-2 2-1 4 3 5s5 1 4-2zM241 55c1-1 3-2 3-3s-27 0-32 1c-4 1-5 2-1 3 6 1 27 0 30-1zm-43-5l-1-1h-1c0 1 0 2 1 2l1-1zm38-5c0-1-2-1-3-1-2 0-4 0-4-1-4 0-10 1-10 2h17zm-14-10s0-1-1-2-1-3-1-4-1-1-2-1c-2 0-3-3-1-5 0-1 3-1 9-1 5 0 9-1 9-1 1-2-3-2-17-2-6 1-8 0-9-1s-2-1-3-1l1-1c1-2 1-3 0-4s-2 0-2 2c-1 2 0 9 4 17l2 6 5-1c2 0 5-1 6-1zm4-22c0-2-12-2-13 0 0 0 2 1 6 1s7-1 7-1z" fill="#434343" fill-rule="evenodd"/></svg>