<svg width="280" height="428" viewBox="0 0 280 428" xmlns="http://www.w3.org/2000/svg"><title>shape</title><path d="M42 427c-3-1-7-4-7-6 0-1 0-2 2-3 2-2 2-2 4 1 1 2 3 3 5 3 6 0 14-5 14-9 0-3-6-8-11-9-9-4-13-10-9-15 4-6 18-9 23-5 3 3 1 6-4 6-8-1-10-1-12 1-1 1-1 2-1 3l6 4c8 5 13 10 14 14s-2 10-8 12c-5 3-12 4-16 3zm59-2c-2-2-2-3-2-10v-7h-9c-2 1-2 2-2 7s-1 7-3 8c-2 3-3 3-5 0-1-2-2-3-1-5 2-2 4-17 3-21-1-5 0-8 2-8 3 0 4 2 4 8-1 5 0 6 7 5l5-1 1-6c0-5 0-5 3-5 2 0 2 1 2 4 1 1 0 7-1 13-1 9-1 10 1 13 1 3 1 4 0 6s-3 2-5-1zm71 1c-1-1-1-3 0-7 0-4 0-12 1-17 0-10 0-11 2-13 4-3 15-7 17-6 6 2 7 12 3 17-2 3-10 8-14 9-2 0-2 1-2 8 0 4-1 8-1 9-1 2-5 2-6 0zm15-27c1 0 2-2 3-4 3-5-2-7-7-3-2 1-2 3-2 6 0 4 0 4 2 3 2 0 4-1 4-2zm-45 25c-1-2-2-4-1-8 0-5 0-5-2-5-3-1-7 2-9 5-1 3-2 4-5 4-2 1-4-4-2-6 3-4 7-12 9-18 2-8 6-11 10-10 2 1 6 8 6 12 0 5 1 6 5 6s6 1 5 3c0 1-2 2-4 2-5 0-7 3-6 10 1 3 0 5-1 6-2 1-3 1-5-1zm-1-21c1-3 1-5-1-5-1 0-5 6-4 7s5 0 5-2zm70 21c-4-3-3-10 0-26 2-4 2-9 2-10-1-4 1-6 8-7 10-2 13-2 15 0 1 1 2 2 2 3 0 0-3 1-6 1-11 1-12 2-14 14l-1 4 8-1c7 0 9 0 10 2s0 3-7 3c-8 1-11 3-13 6-1 4 1 6 7 6 11-1 13-1 14 1 1 1 1 2-1 3-1 1-4 2-12 2-9 1-10 0-12-1zm-80-146c-12 0-24-1-28-2-10-2-21-5-24-7-2-2-9-4-18-6-8-2-9-2-16-9-5-5-7-7-9-7-5 0-5 1-13-17-1-5-5-12-8-17s-5-11-6-12c0-2-1-7-2-11s-2-9-3-10c0-1-1-3-1-4 0-2 0-7-1-12-3-12-2-38 1-49 1-4 3-10 4-14 1-5 3-10 4-13 2-4 3-8 4-10 2-4 9-17 13-22 2-2 5-6 6-8 6-7 16-17 22-21 3-2 6-4 6-3 0 0 2-1 3-2 4-3 28-13 36-15 8-3 22-5 33-6 9-1 26 1 36 4 3 1 10 2 17 2 6 0 12 1 14 2 1 1 5 2 8 3s8 3 10 4 5 2 6 3c3 0 14 8 19 14 12 13 19 26 23 42 11 39 13 48 13 80-1 31-1 40-5 45-1 1-2 4-2 7-2 7-4 10-7 13-1 2-4 7-6 11-4 7-15 20-18 20 0 0-4 1-8 4-18 10-19 10-52 21-10 3-23 4-51 2zm-51-16l-4-2c-2-1-6-3-9-4-3-2-6-2-7-2s2 2 8 4c9 4 12 5 12 4zm29-1c2-1 5-3 8-3s6-1 7-1c1-1 4-1 7-1 6 0 6 0 7-3 0-3 1-3 4-4 1 0 4-1 4-2 1 0 3-1 5-1 4-2 3-4-1-4-3 0-4-1-4-2-1-2-2-2-6-2-5 0-5-1-5-2 0-3-1-3-8 0-6 2-9 3-8 5-1 0-2 1-4 3-1 1-3 3-5 4-1 2-2 3-2 4 1 0 0 1 0 0-2-1-4 3-4 7s1 5 5 2zm94-4c3-1 8-5 12-7 4-3 9-6 12-8 10-7 14-11 9-11-3 0-11-9-14-15-4-8-6-19-4-27 1-3 0-4-2-4-6-3-7-3-11 1-2 2-4 4-4 5h-1c-1 0-3 1-6 3-4 3-11 4-13 3-3-2-11-14-13-18-2-7-3-15-1-23 1-5 2-8 3-8 0-1 3-3 5-5 3-3 4-3 8-3 3 0 5-1 6-2s2-1 8-1c8 1 11 2 13 8 2 2 3 5 5 7 1 2 2 4 2 8 0 6 0 6 2 7 4 1 7 1 8-2 2-6 7-14 10-15 5-2 14-5 21-5h7c2-1-2-22-6-39-2-6-3-7-4-4-1 1-4 3-6 4-6 2-6 2-18-2-3-1-8-3-9-3-2 0-6-2-8-3-5-2-7-2-7 1 0 1 0 2 2 3 1 0 2 2 3 3 1 2 2 3 1 5-1 3-1 4-1 5 4 6-13 22-18 18-2-2-8 0-12 3l-4 3-5-3c-7-4-11-8-11-10 0-1-1-3-3-5s-2-3 0-7c0-2 1-6 0-10 0-5 0-7 2-10 2-4 10-11 14-12 1 0 3-1 3-2h3c2 0 3-1 2-4 0-2-1-8-1-15 0-13 1-16 7-28 2-5 2-7 1-8 0-1-1-1-2-1s-4-1-6-2c-5-2-5-2-6 0-2 2-4 11-4 17 0 3-1 4-2 5s-4 3-6 6c-3 3-6 5-7 6-1 0-1 1-1 1 0 1 0 1-1 1-2 0-15 9-14 10 1 0 0 1 0 0-1 0-4 2-4 3s1 2 4 3c5 2 8 4 8 7 0 1 1 2 3 3 3 1 4 2 5 8 0 2 0 4-2 5-1 1-3 3-3 4s-1 4-2 7c-2 2-3 6-3 8-1 3-1 4-4 5-2 0-5 2-7 4-3 2-4 2-6 1h-5c-2 0-3 0-5-3-1-1-4-3-7-4-10-5-12-11-8-21 2-8 3-10 7-14l3-4-2-3-2-4h-9c-5 0-10-1-11-1-2-1-4-2-6-2s-4-2-5-4c-2-3-3-3-9-5-3-1-10-2-15-3s-10-2-11-2-2 1-6 6c-3 3-5 7-6 9-2 3-2 3 4 8 3 4 7 8 8 9 0 2 3 4 6 6 5 3 6 6 7 15 1 6 2 10 5 13s4 3 6 0c1-3 7-5 12-6 2 0 4 0 6-1 3-2 7-2 10 0 2 1 3 4 10 13 3 5 4 6 4 13s-1 9-3 13c-3 6-10 13-13 13-1 0-4 0-7 2-5 2-9 2-13-3-2-2-5-4-7-6-1-1-3-4-4-7s-1-5-3-5h-4c-1 1-7 15-7 16s-3 4-6 7-7 8-10 11c-2 3-6 6-9 7-4 2-5 3-5 4 0 2 6 14 12 24 7 10 18 22 25 27 4 2 8 5 9 5 3 1 36-16 41-21 3-3 4-3 5-1 2 1 3 1 7 0 6-3 8-4 8-9 0-4-1-5-3-5l-4-4c-1-2-4-5-6-7-4-3-4-4-4-8 0-2 0-4 2-6l4-8c1-4 3-7 6-9 2-3 4-6 5-7 1-2 3-2 16-3 5 0 6 0 7 2 1 1 3 2 4 3 1 0 2 1 3 3 1 4 2 6 5 11 2 3 2 5 2 10s0 7-3 12c-4 6-9 12-11 13-1 0-1 2-2 4 0 4 0 5 1 5s4 1 7 2c3 2 7 4 9 4 4 1 19 17 22 24 2 3 3 5 4 6s6 0 12-3zM98 242c1-2 1-2-1-1-1 0-2 1-2 1-1 2 1 2 3 0zm-63-11c0-1-1-2-2-3-3-2-3-1-1 2 1 2 3 2 3 1zm213-11c0-2 1-6 2-11 2-10 2-10-1-11-1 0-2-1-1-3 1-3 0-3-2-2-2 0-3 0-6-3-4-4-6-4-7 0 0 2-1 2-3 2-3 0-3 0-2 4 1 8 3 14 7 17 1 1 3 3 3 4s1 4 3 5c4 4 4 4 6 2 1-1 1-3 1-4zm-112 2c0-1 0-3-1-4 0-2-1-2-2-2-1 1-1 3 0 7 1 2 2 2 3-1zm5-12c1-1 2-2 2-7 0-6 0-7 2-8 1-1 2-2 2-4 0-3-5-10-9-12s-5-2-10-1c-4 1-5 2-7 5-3 6-1 18 5 23 3 3 11 5 15 4zm57-25c6-3 11-12 8-14-1 0-2-3-2-5-1-5-2-6-5-4-2 1-4 1-4 1-1-1-3-2-5-2-5-1-7 1-7 5 0 2-1 4-2 5-1 2-2 4-1 6 0 2 0 3-1 4-1 2-1 2 0 2 1 1 2 1 3 2 1 2 13 2 16 0zm22-6c0-1-1-2-2-2-3-2-4 0-2 1 2 2 4 2 4 1zm16-1s1-4 1-8c1-7 1-8-1-7-3 3-5 9-5 13 0 3 0 3 2 3 1 0 3 0 3-1zM95 149v-6c-1-1-1-3 1-5 2-5 2-12-2-14s-13 0-19 6c-3 3-3 5-1 13 2 7 5 8 14 8 6 0 6 0 7-2zm-59-2v-4c0-1-1-2-1-2-1 0-1-1-1-11v-8c1-1 1-4 1-7 0-7 2-10 5-8 1 1 2 4 2 8v6c2 1 1 15 0 17-1 1-1 2-1 4 1 2 2 3 4 3s2 0 3-7v-15c0-7 0-7-4-14-6-7-14-14-17-13-1 0-2 1-4 5-2 7-2 9 0 8 3-1 6 1 5 4 0 2 1 5 2 6 1 2 1 5 1 6 0 3 1 19 2 22 1 2 3 1 3 0zm29-11c1-1 0-2-1-1l-1 1c-1 1 0 2 1 1l1-1zm206-7c-1-2-1-2-1 0v5l1 2v-7zm-258-8v3-3zm164-5l5-5c1-1 3-2 8-2 8-1 9-3 2-10-3-3-5-4-10-5-5-2-5-2-10 1-7 5-10 12-7 20 2 8 6 8 12 1zm-53-6c2-4 2-4 0-7-3-3-2-7 1-9 2-1 2-2 1-4s-1-4-1-5c1-4-3-3-7 1-5 4-8 10-8 17 0 6 0 7 3 9 4 4 8 3 11-2zm72-19c0-2-2-3-4-2 0 0 0 1 1 2 1 2 3 2 3 0zm57-4c0-1-1-1-1-1-1 0-3-2-6-4-11-10-14-11-4-1 5 5 7 7 9 7s2-1 2-1zm-46-8c0-1-1-3-2-3-1-1-1-3-1-4 0-2-1-4-1-6-1-2 0-2 2-2 1 0 2-1 3-2 0-3 3-3 5-1 5 5 13 9 9 5-1-2-2-2-3-2 0 1-1 0 0 0 0 0-1-3-4-6-4-5-4-6-2-7s2-2 0-4c-1-2-3-4-4-4-2-2-2-5 0-6 1-1 3 0 5 2 4 4 5 4 5 1 0-4-3-6-12-9-6-2-7-2-9-1-1 1-1 2-1 3 1 0 0 1 0 0-1 0-2 1-3 3-2 4-2 6-2 13 0 8 0 10 3 16 3 7 9 16 11 16 0 0 1-1 1-2zm-85-3c1-2-1-7-2-7-2-1-3 2-2 5s3 3 4 2zm-1-16c3-1 5-2 5-3s-2-1-5-1h-4c0 1 0 1-1 1s-4 1-6 1c-2 1-3 0-3 0 0-3 5-8 7-9 3-1 3-3 0-2-1 0-3-1-4-1-2-1-4-1-5-1s-3-1-4-1c-1-1-3-1-6-1-4 0-5 0-5-2-1-1 2-2 12-6 4-2 5-3 2-3-1 0-2-1-2-2s-1-1-4-1c-3 1-3 0-4-2s-1-2-4-1-4 2-4 3c1 0 0 1 0 0-2-1-9 3-8 4h-1c-3-1-3 2 1 10 7 14 16 19 31 19 6 0 9 0 12-2zM56 50c0-2-3-3-5-1-2 1-2 3 2 3 2 0 3-1 3-2zm182-3c-1-2-2-2-2-1s1 3 2 3v-2zM60 34c0-1-4 2-4 3 0 0 1 0 2-1l2-2zm11-6c9-5 23-12 27-13 1 0 3-1 3-2 0-2-3-2-6 1-2 1-6 3-10 4-4 2-8 3-9 4 0 1-1 2-2 2s-11 7-11 7c0 1 2 0 8-3zm42-7c12-4 13-5 6-4-3 0-6 1-6 1-1 1-2 1-3 1s-3 0-3 1c-1 1-2 1-3 1h1c1-2 0-2-2-1-1 0-1 1-1 2 1 0 0 1 0 0-1 0-3 0-4 1l-3 2 5-1c2 0 8-2 13-3zm37 2c0-1-1-1-1-1-1 0-2 0-2 1 0 0 0 1 1 1s2-1 2-1zm38-8c0-2-5-4-7-3-1 1 0 2 3 3 1 1 3 1 3 1s1 0 1-1zm44 161h1-1zM34 145v-2 2zm179-86c-1-1-2-1-1-1s2 0 2 1c1 1 0 1-1 0zm-1-24c-1 0-2-1-2-1 0-1 3 1 4 2s1 1-2-1zM105 60c0-1 1-1 4-1 2 1 4 1 4 1s-2 1-4 1c-3 0-4-1-4-1z" fill="#424242" fill-rule="evenodd"/></svg>