<svg width="477" height="460" viewBox="0 0 477 460" xmlns="http://www.w3.org/2000/svg"><title>transform</title><path d="M38 457c-2-2-2-4-3-13 0-6-1-11-1-11s-2 0-4 1c-5 2-7 1-7-2 0-2 4-5 7-5 2 0 4-2 6-3 4-2 4-2 6 0 2 1 4 2 8 1 9 0 12 2 8 6-2 1-3 1-8 1-2-1-6-1-6-1-2 1-3 5-1 16 1 9 1 11-1 12s-2 1-4-2zm44 1c-1-1-1-5-1-13 1-8 0-13 0-13-5-3 4-13 12-14 5 0 7 1 9 4 4 5 3 9-2 14-3 3-4 5-4 6s1 2 2 2 3 0 5 1 5 3 7 3c3 1 5 2 5 4 1 3 0 5-4 4-3 0-6-1-10-3-10-7-14-7-11-1 1 2 1 3-1 4-2 3-5 4-7 2zm11-24c2-1 4-5 4-7 0-1-2-1-3-1-4 0-5 1-6 5 0 3 0 4 2 4 0 0 1 0 3-1zm265 22c-2-2-1-17 0-19 1 0 2-2 2-4 0-1 0-3 1-4 1-2 1-2 4 1s3 3 6 1c6-4 5-10-1-6-3 2-6 2-7 0-2-6 3-10 11-9 8 0 10 3 9 9 0 5-1 7-9 12l-2 1 2 3c2 1 5 3 7 3 8 2 11 6 7 10-2 1-2 1-6 0-2-1-6-3-7-5-2-1-5-3-7-3-2-1-3-1-3 1v5c0 2 0 3-1 4-1 2-5 2-6 0zm-190-1c-1-2 0-13 2-22 3-8 4-11 6-10 2 0 8 5 11 10 4 5 7 9 8 9s2-2 2-5v-12c1-8 1-9 3-10s3-1 4 1c2 1 2 2 0 7-1 3-2 8-1 13 0 9-1 12-4 14-3 1-6-1-13-9-3-3-6-5-7-5-2 0-3 7-3 13 0 3-1 5-2 6-3 2-5 2-6 0zm-21-2c0-1-1-4-1-8-1-6-1-6-4-6-2 1-6 5-6 7 0 4-5 6-7 3-3-5 5-28 11-30 3-1 5 1 10 9 4 7 4 7 4 15 0 6 0 8-2 10s-3 2-5 0zm80-1c-3-1-6-4-4-6 0-1 2-1 5-1 5 1 11-1 10-3 0 0-2-2-5-3-2-1-6-4-8-7-4-4-5-5-4-8 2-8 15-13 22-7 3 2 3 4 1 5-1 1-3 1-4 0-2-2-8-1-10 1-3 3-1 6 6 10 9 5 12 7 12 10s-1 4-6 6-10 3-15 3zm43-3c-1-2-1-9-1-16l1-13h5c3 0 9-1 14-1 10-1 14 0 14 3 0 2-4 3-11 4-12 0-18 2-14 6 1 1 2 2 7 1 5 0 7 0 9 1l2 2-3 2c-1 1-4 2-9 2-7 0-8 1-7 6 1 6-6 9-7 3zm48 0c-8-6-7-20 1-28 3-3 4-3 8-3 6 0 6 0 8 4 1 2 2 4 2 5 2 0 4 9 3 12-1 4-6 8-12 11-7 2-6 2-10-1zm13-8c4-5 3-12-3-15-2-1-3 0-5 1-3 3-4 9-3 13 1 3 2 4 5 4 2 0 4-1 6-3zm74 6c-1-1-1-3-1-6 0-2 1-8 1-13s1-9 1-10c2-1 5 1 6 4 1 2 1 2 3-1 3-4 6-3 9 2 1 2 2 5 3 5 0 1 3-2 6-5 4-4 6-5 7-5 4 1 5 5 6 14 1 4 2 9 2 10s0 2-2 3c-3 2-3 2-5-1-2-2-3-3-3-9v-7c-1 0-2 1-3 3-2 2-3 4-3 4-1 0-2 2-4 5-4 8-9 5-9-5 0-3-1-6-1-6-1-1-5 9-6 14 0 2-1 4-2 5-2 1-4 1-5-1zM2 258c-2-4-2-6 1-8 3-3 3-7 2-16-1-6-1-7 0-8 2-1 6-1 8 1 1 1 1 1 1 12l1 9h7c11 0 15 1 14 4 0 2-1 2-6 3-3 1-8 2-9 2-9 1-11 1-15 2-3 1-4 0-4-1zm99 0c-2-2-3-7-2-10 1-1 2-3 4-3 1-1 3-3 3-4s2-4 5-7c17-18 24-27 24-31 0-2 1-3 2-4 2 0 4-3 6-6 2-4 4-7 6-9 1-1 3-4 4-6 2-2 9-12 16-21 18-24 27-38 34-50 1-2 5-7 8-10 5-5 7-6 9-6s3-1 2-2v-3c1-2 12-2 47 0 36 1 46 1 76 1 11-1 23 0 28 0 4 1 9 1 12 1 2 0 18-1 36-1 24 0 33-1 39-2 4-1 7-1 8-1 2-1 9 6 9 8 0 1-2 3-4 5-5 4-13 15-13 17 0 0-2 2-3 4-2 1-5 6-8 10-2 3-7 9-10 12s-5 6-5 7c0 0-4 4-7 8-4 4-7 8-7 8 0 1-2 3-5 6-6 8-11 14-14 20-1 2-4 8-7 11-11 14-16 21-22 31-4 5-7 10-9 12-1 2-2 4-3 5 0 1-2 3-5 5l-5 3h-32c-18 0-36 0-40 1-6 1-27 1-95 2-6 0-20-1-32-1-25-1-35-1-38 1-4 1-11 1-12-1zm182-12c5-1 16-2 25-2 25-1 33-2 35-6l6-6c2-2 4-6 6-8 2-3 5-7 8-10 2-3 5-7 6-9 1-3 6-9 13-16 1-2 3-4 4-5 1-2 6-9 12-16 11-15 20-28 20-29s5-7 11-14c3-3 5-6 6-7 0-1 4-6 8-11s8-10 8-11-8-1-40-1c-49 0-183-1-186-2-2-1-7 7-6 9s14 2 16 0c3-1 8 0 8 3 0 1-1 2-3 4-3 2-3 2-15 1-6-1-12-1-12-1-1 0-1 1 0 2 0 1 3 1 11 2 6 0 12 1 13 1 2 1 3 5 2 6-1 2-26 1-30-1-2-1-2-1-4 0-2 3-5 8-4 8h20c18-1 20-1 22 0 1 1 2 2 2 3 0 2-4 5-6 4h-3c-2 1-32 2-35 0-3-1-4-1-6 2l-3 3s8 1 17 1 20 1 26 1c10 2 13 3 11 6-1 2-2 2-7 2-3-1-15-1-25-1-24 0-23 0-24-2-1-3-2-3-3 0 0 1-3 4-5 7-4 4-5 5-3 6 1 1-1 1 32 1 23 0 25 0 27 2 3 2 3 4 2 5-1 0-15 1-31 1-24 0-30 0-33-1-2-1-4-1-4-1-1 1-4 5-7 9-8 10-14 21-13 22h11c5 0 14-1 21-1 23-1 32-2 39-3 8-2 17-1 19 2 2 1 2 2-1 5-3 2-4 3-5 2s-4-1-10-1c-26 1-50 2-63 3-8 0-15 1-17 1-2 1-5 6-4 7h9c5-1 12-1 15-1 40 2 69 3 78 2 8 0 11 0 12 1 2 2 2 4 0 5-1 2-21 2-63 0-10 0-25-1-34-1-13 0-16 0-17-2-2-2-2-2-5 1s-8 10-8 11 2 1 7 1c4 0 22 0 41 1 31 1 54 0 60-2 2 0 3 0 5 2 5 6 2 8-12 7-5 0-11 0-12 1h-23c-28 0-63-2-67-4-3-2-3-2-6 2s-4 7-2 8h11c15 1 47 1 47 2 1 1 98 0 105 0zm-228 7c-1-1-1-3-1-4s3-2 6-2c7-1 15-2 19-3 3-1 8 2 8 4s-4 3-9 4c-2 0-6 0-9 1-2 1-4 1-4 1s-2 0-4 1c-5 2-4 2-6-2zM6 208c-2-2-3-6-1-10 1-3 2-7 1-11 0-5 0-7 2-8 1-2 2-2 4 0l3 2-1 11c0 7-1 13-2 15-2 3-5 3-6 1zm1-49c-2-2-2-3 0-7 0-3 1-7 0-13-1-9 0-11 5-10s5 1 4 16c-1 9-2 14-3 15-2 1-4 1-6-1zm1-45c-2-2-2-3 0-15 0-2 1-6 1-10 0-9 1-10 5-10h4c1 2 21 3 26 2 2-1 4-1 7 1 5 2 5 3 3 6-1 2-3 2-10 2-4 0-12 0-16-1h-9c-1 1-2 5-2 12-1 10-1 12-3 13-3 2-4 2-6 0zm148-20s-4-1-9-1c-11-1-15-2-15-4-1-4 2-5 15-4 10 0 12 0 15 1 2 2 4 3 4 4 0 3-8 6-10 4zm21-4c-1-2-1-3 0-4 0-2 2-2 6-2s8-1 9-2c5-1 9 0 9 4 0 5-3 6-14 6-8 0-10-1-10-2zM76 90c-1-2-1-6 1-7 3-1 18-2 21-2 2 1 7 5 6 7 0 2-2 2-14 2H76zm218-42c-1-3 0-7 4-9 9-6 11-8 10-9s-18-1-21 0c-1 0-2 0-2-1-6-2-23-3-58-3-21-1-40-1-42-2-6-1-59 0-68 1-8 1-11 0-11-3s1-4 9-5c11-1 149 1 168 2 12 2 23 2 24 1s0-2-5-6c-5-3-7-8-5-11 3-4 6-3 13 3 3 3 7 6 8 6 2 0 5 2 7 4 3 1 6 3 8 4 3 1 3 2 3 4 0 3-1 5-11 11-13 7-19 11-19 12s-6 4-9 4c-1 0-2-1-3-3zM169 186c-2-1-2-4-1-5 3-2 23-4 40-4 31 1 41 2 38 7-1 2-3 2-7 2-43-1-48-1-64 1-3 0-5 0-6-1z" fill="#444" fill-rule="evenodd"/></svg>