<?xml version="1.0" encoding="UTF-8" standalone="no"?>
<svg width="1000px" height="600px" viewBox="0 0 1000 600" version="1.1" xmlns="http://www.w3.org/2000/svg" xmlns:xlink="http://www.w3.org/1999/xlink">
    <!-- Generator: Sketch 3.8.3 (29802) - http://www.bohemiancoding.com/sketch -->
    <title>build</title>
    <desc>Created with Sketch.</desc>
    <defs></defs>
    <g id="Page-1" stroke="none" stroke-width="1" fill="none" fill-rule="evenodd">
        <g id="Build">
            <g id="build">
                <path d="M0,300 L0,0 L500,0 L1000,0 L1000,300 L1000,600 L500,600 L0,600 L0,300 L0,300 Z M175,538 C176,538 183,537 190,537 C197,537 204,536 205,535 C206,535 210,535 214,536 L227,536 C231,535 232,535 234,532 C235,530 237,528 239,527 C244,524 246,520 247,512 C247,509 248,504 249,501 C249,498 250,492 250,487 C250,482 251,477 251,476 C252,475 253,470 253,465 C254,461 255,455 256,454 C257,452 258,447 259,442 C259,437 260,434 261,434 L261,423 C261,410 260,407 253,405 C251,405 248,404 247,403 C245,402 223,402 201,403 C184,403 184,404 184,393 C184,387 184,386 186,385 C194,382 198,374 194,369 C192,366 189,366 185,368 C183,369 180,370 178,370 L174,370 L174,375 C174,379 173,381 172,381 C172,381 169,382 167,384 C165,386 164,387 164,389 C164,393 165,395 171,395 C173,395 175,396 175,396 C177,398 177,403 176,404 C175,405 165,406 156,407 C152,407 146,408 142,408 C137,409 132,410 129,410 C126,410 123,411 123,412 C121,413 119,414 111,416 C107,417 104,423 105,428 C105,434 108,442 110,446 C111,448 111,450 111,450 C111,451 113,454 114,458 C116,461 117,465 117,467 C117,471 122,490 123,491 L124,493 C124,494 124,496 125,497 C128,501 131,510 130,511 L127,511 C125,511 97,513 89,514 C85,515 84,516 84,517 C83,519 88,521 95,520 C103,520 101,522 93,523 C84,524 76,528 79,530 L86,530 C92,529 93,529 93,531 C93,536 92,536 122,536 C149,536 150,536 151,538 C153,540 154,540 163,539 C168,539 174,538 175,538 L175,538 Z M469,530 C490,529 499,529 506,528 C512,527 522,524 525,522 C530,520 536,519 538,521 C540,522 542,523 543,522 C547,522 551,514 552,505 C552,501 553,498 553,497 C554,496 555,493 556,489 C557,485 558,480 559,478 C560,476 562,471 562,467 C564,460 564,458 567,452 C568,450 569,446 570,443 C571,439 572,434 573,431 C575,425 576,415 576,414 C575,413 575,411 575,408 C575,403 575,402 571,400 C569,399 567,399 564,399 C561,399 559,399 557,398 C552,395 542,393 531,393 C525,394 516,394 512,394 L504,393 L503,383 C502,378 501,369 501,364 C501,359 500,347 500,338 L499,321 L504,321 C507,321 509,322 512,325 C514,327 518,330 520,332 C523,334 527,337 529,340 L535,344 C536,344 537,344 538,343 C540,341 540,340 541,332 C541,324 540,322 539,319 C537,317 536,314 536,314 C535,314 534,312 533,310 C532,308 529,304 525,301 C519,294 514,292 507,293 C504,293 503,293 503,296 C502,299 505,301 509,301 C513,300 517,302 521,306 C525,311 533,322 533,326 C533,329 530,330 528,328 C527,328 525,326 523,326 C522,325 520,323 519,322 C517,318 510,312 508,311 C507,311 505,311 504,312 C502,313 501,313 500,311 C499,310 499,308 499,307 C499,306 499,302 498,299 C497,292 496,274 497,264 C497,258 498,255 501,256 C505,258 511,258 513,256 C515,256 516,255 516,255 C516,255 516,253 515,252 C514,249 515,248 518,245 C522,240 522,237 517,233 C514,230 513,229 508,230 C499,230 495,233 492,237 C488,243 487,261 489,279 C489,287 489,290 488,291 C487,291 487,291 488,291 C489,291 489,292 489,293 C489,293 487,294 485,294 C480,294 470,297 465,300 C462,302 460,304 460,304 C458,303 451,312 448,317 C446,320 445,323 445,327 C444,332 445,333 447,336 C450,339 453,339 458,334 C459,333 463,330 465,329 C467,328 469,327 470,326 C470,325 474,323 478,321 C482,319 486,317 486,316 C487,315 488,315 489,315 C491,315 491,321 492,352 C492,365 493,379 493,382 C494,385 494,390 494,392 L493,395 L485,397 C479,398 471,399 462,399 C447,399 450,398 431,408 C428,409 427,413 428,416 C429,417 430,423 432,428 C433,434 434,439 435,441 C438,447 441,454 441,459 L441,467 C445,482 447,487 452,496 C454,501 457,506 457,507 C457,507 455,508 452,507 C446,506 444,507 443,510 C443,513 443,513 422,514 C416,514 410,514 409,515 C407,516 407,518 410,520 L413,521 L410,522 C406,523 404,525 406,527 C407,528 408,529 414,528 C418,528 422,528 423,529 C425,530 450,531 454,531 C455,531 462,530 469,530 L469,530 Z M797,530 C807,529 817,529 818,529 C822,529 834,527 839,526 C851,523 853,522 853,521 C853,521 854,518 857,516 C862,510 864,505 866,497 C866,494 867,490 868,488 C868,486 869,485 869,484 C870,482 872,476 874,472 C875,470 876,466 876,464 C876,462 877,458 878,457 C880,453 880,451 882,438 C882,434 883,432 884,431 C885,429 885,426 884,421 C883,414 880,411 876,411 C874,411 871,410 869,409 C867,408 861,407 854,407 C848,407 843,406 842,406 C841,404 834,403 828,403 L821,403 C820,402 820,396 819,386 C819,380 819,371 818,367 C818,362 817,349 818,338 L818,313 C818,309 817,295 817,281 C816,253 816,251 821,252 C826,254 829,257 833,266 C835,271 838,277 838,280 C839,282 841,287 842,290 C842,293 844,299 845,303 C845,307 846,311 847,311 C847,312 848,313 848,314 C848,316 850,318 854,322 C857,325 864,329 866,329 C870,329 873,326 873,321 C873,319 874,316 874,316 C876,311 877,302 877,288 C876,274 876,270 874,266 C873,262 872,258 871,256 C871,254 870,251 869,250 C869,249 868,247 867,245 C866,241 863,237 854,228 C847,221 844,219 834,215 C833,215 831,214 830,213 C829,212 828,212 825,213 C823,214 821,215 821,214 C821,214 821,209 822,202 C823,188 826,174 832,163 C834,160 835,160 836,163 C840,173 839,180 833,186 C828,191 828,193 831,196 C833,198 836,198 839,195 C841,193 843,192 843,192 C845,191 854,182 858,177 C860,175 861,171 862,168 C863,158 864,156 865,156 C868,154 874,168 872,172 C871,174 871,175 873,177 C874,180 874,182 874,184 C873,189 875,194 878,193 C880,193 886,185 889,178 C891,172 891,170 891,163 C891,156 890,154 887,148 C884,142 884,140 885,139 C886,139 891,140 891,142 C891,142 892,143 893,143 C895,143 898,143 901,144 C907,146 910,145 909,140 C908,133 907,131 903,126 C900,123 898,120 898,120 C898,119 891,111 887,108 C885,106 882,105 878,105 C873,104 872,104 869,101 C868,99 866,97 866,97 C866,97 865,94 864,92 C862,88 860,87 858,87 C854,86 849,89 847,94 C845,98 844,98 838,96 C834,94 821,91 813,90 C811,89 809,90 808,91 C805,93 802,99 802,101 C802,103 800,104 798,105 C796,107 795,107 796,111 L797,115 L791,118 C780,124 765,137 758,146 C753,152 756,161 762,161 C770,160 775,159 779,155 C782,152 785,150 787,150 C788,150 791,148 793,147 C797,144 815,135 816,136 C816,136 814,139 811,142 C801,152 795,168 799,174 C801,177 802,177 809,174 C812,172 815,171 816,171 C816,171 818,170 819,169 C820,168 821,168 821,168 C821,170 818,179 817,182 C816,182 815,188 814,193 C814,198 813,203 812,203 C811,203 812,203 812,203 C813,204 813,206 812,214 C812,219 811,223 811,223 C811,223 809,223 807,222 C805,221 803,221 801,221 C799,221 797,222 796,222 C788,224 774,229 771,231 C770,232 768,234 767,234 C762,235 746,251 742,260 C740,262 739,265 738,267 C734,274 732,279 732,284 C731,292 734,300 737,301 C740,302 745,302 746,301 C747,300 749,299 753,298 C756,297 760,295 762,292 C764,290 767,288 768,287 C771,285 784,267 784,265 C784,264 798,250 800,251 C801,251 803,251 805,252 L809,253 L809,264 C809,323 809,357 810,377 L811,402 L806,402 C783,402 766,403 757,405 C752,406 747,407 745,407 C741,408 739,411 739,415 L739,419 C736,420 738,428 742,438 C744,442 747,456 749,468 C750,476 753,488 757,500 C757,502 758,504 758,505 C758,506 759,507 759,508 C760,510 759,510 752,510 C749,509 747,510 745,511 C744,512 741,513 734,513 C728,513 725,513 724,514 C723,516 720,516 707,516 C693,516 691,516 691,518 C690,521 693,522 701,522 C705,521 716,522 725,522 L741,523 L742,526 L742,529 L759,530 C769,530 777,530 777,531 L778,531 C778,531 787,531 797,530 L797,530 Z M125,171 C125,170 127,170 128,170 C131,170 142,166 142,164 L143,164 C144,164 145,163 145,163 C145,162 146,161 148,160 C150,158 153,156 154,154 C156,151 156,150 154,147 C152,144 148,140 140,137 C138,136 135,134 135,133 L130,133 C127,133 126,132 126,131 C126,130 128,127 131,124 L139,116 C141,113 147,104 147,102 C147,101 140,90 138,88 C134,85 128,84 117,85 C111,86 106,87 105,87 C105,88 103,88 102,88 C101,88 98,90 97,91 C94,93 94,94 94,98 C94,101 94,102 97,102 C99,103 100,104 101,106 C102,110 101,155 100,161 C99,164 100,164 102,167 C104,168 106,170 108,170 C109,170 111,170 111,171 C111,171 114,172 118,172 C122,172 125,171 125,171 L125,171 Z M246,159 C253,156 257,151 260,145 C262,139 263,108 261,105 C259,103 257,103 253,105 C250,106 250,106 251,112 C252,123 252,137 249,142 C247,147 244,149 239,150 C231,152 231,152 227,143 C223,136 222,134 222,127 C221,122 221,117 220,117 C220,116 219,111 219,105 C219,95 219,95 216,94 C214,93 213,93 211,94 C209,96 209,96 209,106 L209,120 C210,123 211,128 211,131 C213,137 214,140 219,150 C222,157 225,159 230,161 C234,162 241,162 246,159 L246,159 Z M343,160 C344,158 342,149 340,147 C339,145 338,121 339,113 C340,105 339,102 336,101 C335,101 335,100 335,99 C335,98 331,98 330,100 C328,102 328,105 328,125 C328,148 328,149 330,153 C333,158 338,163 340,163 C341,163 342,162 343,160 L343,160 Z M467,151 C482,149 489,148 495,148 C499,148 502,148 504,147 C506,146 506,142 503,140 C501,138 496,138 464,140 L454,141 L453,137 C451,133 451,125 452,124 C453,123 454,118 454,112 C454,102 454,100 453,99 C449,95 445,96 444,102 C443,107 442,122 442,133 C441,143 443,148 447,151 C449,153 458,153 467,151 L467,151 Z M587,145 C588,144 590,144 592,143 C595,142 601,140 602,139 C603,138 605,137 607,136 C610,135 612,134 612,133 C612,133 613,132 614,132 C617,131 624,124 626,119 C628,116 628,106 626,104 C626,104 624,101 623,100 C621,98 620,96 620,95 L618,95 C618,95 616,93 613,92 C609,89 603,88 589,87 C582,86 580,87 580,87 C580,88 578,89 577,89 C574,88 570,91 570,94 C570,94 570,96 571,97 C572,98 572,99 578,98 L585,97 L587,102 C588,106 589,110 589,120 C588,135 588,136 580,135 C573,135 571,139 576,144 C578,147 584,148 587,145 L587,145 Z M101,528 C100,528 101,528 103,528 C106,527 106,528 104,529 C103,529 102,529 101,528 L101,528 Z M219,525 C218,524 216,524 214,524 C213,524 212,523 212,523 C212,522 207,522 201,522 C192,522 191,521 188,519 C186,517 185,517 179,518 L166,518 L161,518 L162,516 C163,514 164,513 167,513 L175,513 C177,514 178,514 179,513 C181,510 181,508 179,506 C177,504 176,504 168,505 C159,505 156,505 156,502 C156,500 159,499 164,500 C168,500 169,500 170,498 C173,494 167,491 157,492 C150,492 147,491 148,487 C148,485 149,485 155,485 C162,484 163,484 164,482 L164,478 C163,478 158,477 153,477 C147,476 142,476 142,475 C142,474 146,474 150,473 C160,473 162,471 156,467 C153,466 152,465 145,466 C139,467 137,466 137,465 C136,463 137,462 143,462 C149,462 151,461 150,459 C149,455 143,453 137,454 C132,455 130,454 131,452 C132,452 132,452 133,453 C133,454 134,454 135,453 C135,452 137,451 139,451 C144,450 145,448 143,445 C141,443 141,441 141,440 C142,438 141,437 139,436 C137,435 136,434 136,433 C136,433 140,432 146,432 C157,432 166,432 217,428 C225,428 236,427 241,425 C246,424 250,424 250,424 C252,425 246,453 243,459 C242,461 240,469 236,483 C235,488 234,493 234,494 C233,495 232,500 231,507 C231,508 231,509 230,510 C230,510 229,513 228,515 C226,524 222,527 219,525 L219,525 Z M145,517 C143,514 143,513 147,513 C151,513 154,515 154,518 C154,520 147,520 145,517 L145,517 Z M138,503 C137,500 142,498 145,501 C147,503 146,505 142,505 C139,506 139,505 138,503 L138,503 Z M132,492 C130,490 130,485 131,485 C132,485 133,484 134,484 C136,483 140,487 140,490 C140,494 135,495 132,492 L132,492 Z M128,476 C127,475 130,474 132,475 C134,476 133,478 131,478 C129,478 128,477 128,476 L128,476 Z M128,443 L128,442 C129,442 130,442 130,443 C130,443 130,444 129,444 C128,444 128,443 128,443 L128,443 Z M131,433 L132,433 C135,433 135,433 133,434 C132,434 131,434 131,433 L131,433 Z M188,417 C188,413 188,412 189,411 C190,411 201,410 215,410 C234,409 240,409 244,411 C246,411 248,412 248,413 C248,414 241,416 231,419 C229,419 225,420 221,420 C213,420 198,421 192,422 L188,423 L188,417 L188,417 Z M170,416 C168,415 169,415 171,414 C175,412 178,413 177,415 C176,417 173,417 170,416 L170,416 Z M422,522 C419,521 419,521 422,521 C424,521 426,521 426,522 C426,523 425,523 422,522 L422,522 Z M431,521 L431,520 C432,520 433,520 433,521 L433,522 C432,522 431,521 431,521 L431,521 Z M473,512 C474,511 475,511 476,512 C477,513 476,514 475,514 C473,514 472,513 473,512 L473,512 Z M487,513 C487,512 488,512 490,511 C495,511 497,511 497,513 C497,514 488,514 487,513 L487,513 Z M507,509 C508,504 506,503 492,503 C481,503 481,503 481,502 C481,500 481,500 484,500 C486,500 489,501 491,501 C495,502 498,500 498,497 C498,494 495,493 484,493 C475,493 474,492 472,490 C470,489 470,487 470,487 C470,485 479,485 481,487 C482,489 484,489 486,486 C487,484 487,484 486,481 C484,478 479,477 470,478 C465,478 465,478 463,475 C462,473 462,472 462,472 C463,471 469,471 475,470 C482,470 486,469 488,468 C490,467 489,467 486,464 C484,463 482,462 482,462 C480,462 479,459 480,457 C480,456 479,455 477,454 C474,452 472,451 462,452 C453,452 451,452 450,450 C449,447 451,446 460,446 C471,446 473,445 472,442 C472,438 464,437 450,439 C447,440 447,439 447,438 C447,437 448,437 453,437 C460,437 460,436 461,434 C462,430 459,429 451,428 C443,428 441,428 442,425 C443,423 443,422 451,422 C466,422 476,422 496,419 C507,418 522,416 529,416 C536,416 546,415 552,414 C563,413 564,413 563,419 C562,420 561,425 560,428 C557,435 556,441 555,445 C555,447 553,453 551,458 C549,464 547,471 546,474 C546,477 545,480 545,481 C544,481 543,484 543,487 C542,490 541,494 540,495 C539,496 538,499 538,501 C537,504 535,505 530,508 C525,511 523,512 515,512 L506,513 L507,509 L507,509 Z M467,504 C466,503 467,503 468,503 C470,503 471,504 470,505 C469,505 468,505 467,504 L467,504 Z M460,492 C457,489 457,488 459,487 C459,487 461,487 462,489 C465,493 463,495 460,492 L460,492 Z M459,463 C455,462 455,460 458,459 C463,458 475,460 472,462 C472,463 461,463 459,463 L459,463 Z M505,410 C504,408 505,403 506,402 C508,401 534,401 540,401 L544,402 L540,404 C538,406 535,407 530,407 C522,408 509,409 507,410 L505,410 L505,410 Z M456,322 C456,321 457,318 461,314 C468,307 478,302 485,302 C492,302 492,304 485,308 C481,309 479,311 478,311 C477,312 475,313 470,316 C469,316 466,318 463,320 C457,324 457,324 456,322 L456,322 Z M801,517 C801,516 801,516 802,516 C803,516 803,516 803,517 L802,518 L801,517 L801,517 Z M826,516 C825,515 823,515 820,515 C817,515 816,514 816,514 C816,513 815,512 814,511 C813,509 811,509 804,509 C799,508 796,508 796,507 C795,506 796,505 800,506 C804,506 805,506 806,504 C807,503 807,502 805,500 C803,499 801,498 795,498 C788,497 788,497 787,495 C786,493 786,492 786,491 C787,490 795,489 798,490 C803,492 807,489 804,485 C803,483 799,482 790,483 C781,485 778,484 779,482 C779,480 781,480 787,479 C791,478 796,478 798,478 C802,477 803,476 801,473 C799,471 798,471 786,472 L773,472 L772,470 C770,466 771,466 776,466 C781,466 786,468 785,470 C784,470 786,470 787,469 C791,467 792,465 789,461 C787,459 787,458 780,458 L770,458 C766,458 765,456 765,453 C764,451 768,450 776,451 C783,451 784,451 785,449 C786,448 786,447 783,445 C780,442 779,442 764,444 C760,445 760,445 760,443 C760,441 760,441 766,440 C773,439 776,438 775,436 C775,433 771,431 763,432 C756,433 755,433 755,431 C755,429 754,429 753,429 L753,427 C754,426 763,426 804,426 C832,426 858,426 862,425 L871,425 C871,426 869,433 865,441 C864,443 863,447 862,449 C862,451 861,454 860,455 C859,455 858,459 857,462 C856,465 855,468 855,469 C853,469 845,491 844,494 C843,499 840,505 839,504 C839,503 838,503 839,504 C839,506 838,509 836,511 L832,515 C830,518 827,518 826,516 L826,516 Z M846,513 C846,512 846,511 847,509 C848,508 849,506 849,505 C849,504 849,502 851,500 C852,498 853,496 853,495 C853,492 856,484 858,485 C858,486 859,485 858,485 C857,483 860,475 862,473 C863,472 864,473 864,474 C864,476 863,477 862,477 C861,477 861,478 861,479 C862,480 860,486 858,491 C857,493 857,496 857,497 C857,498 856,500 854,502 C853,505 852,505 851,504 C851,503 851,504 851,505 C851,506 851,509 850,510 C848,514 847,514 846,513 L846,513 Z M771,509 C769,507 772,506 778,506 C784,506 786,507 784,509 C783,511 772,511 771,509 L771,509 Z M766,497 C766,494 766,494 771,494 C775,493 776,494 777,495 C779,498 778,499 771,499 L765,500 L766,497 L766,497 Z M761,484 C761,483 760,479 759,475 C758,469 758,467 759,467 C761,466 764,468 763,470 C763,471 763,472 764,472 C764,472 765,473 765,475 C765,477 765,479 766,479 C767,479 768,481 769,482 C771,484 771,485 769,486 C767,487 763,487 761,484 L761,484 Z M864,469 C864,467 866,461 867,460 C869,459 869,465 867,467 C865,470 864,470 864,469 L864,469 Z M808,418 C806,418 804,417 802,417 L798,416 L801,414 L804,411 C804,410 806,411 808,413 C812,416 813,417 812,418 L808,418 L808,418 Z M822,418 C821,417 821,416 821,414 C821,411 821,411 823,411 C826,411 827,412 825,413 C823,414 823,415 824,416 C825,416 826,417 826,418 C826,419 823,419 822,418 L822,418 Z M844,418 L840,417 L844,415 C848,414 850,413 855,415 C861,416 864,417 861,417 C853,418 846,418 844,418 L844,418 Z M854,416 C854,415 853,416 852,416 C851,417 851,417 853,417 C854,417 854,416 854,416 L854,416 Z M857,301 C856,298 856,290 857,277 C857,272 856,270 854,267 C853,265 851,263 851,262 C851,261 851,260 850,259 C848,257 848,255 848,254 C847,250 839,237 834,233 C830,229 830,227 832,226 C834,223 841,226 847,232 C854,237 859,246 859,252 C859,254 860,256 861,257 C866,261 867,266 867,280 C867,287 867,293 866,295 C865,296 864,299 863,301 C862,303 861,305 860,305 C859,305 858,303 857,301 L857,301 Z M748,287 C747,286 747,284 747,284 C747,282 755,270 759,265 C766,257 778,246 779,246 C779,246 780,245 780,244 C780,242 779,242 775,242 C772,242 771,242 768,245 C766,247 764,248 764,248 L763,248 C763,249 760,253 756,257 L753,259 L755,257 C760,246 781,232 794,231 C798,230 799,231 797,232 C793,234 783,243 780,247 C777,249 776,251 775,251 C775,251 774,253 774,259 C774,264 770,270 764,276 C762,279 760,281 760,282 C759,282 751,289 750,289 L748,287 L748,287 Z M845,271 C844,269 844,267 844,267 C845,266 847,271 846,272 C846,273 846,273 845,271 L845,271 Z M842,265 L842,263 C843,262 844,263 843,265 C843,266 843,266 842,265 L842,265 Z M834,252 C827,244 826,241 826,239 C826,237 827,237 827,237 C829,237 833,242 836,247 C838,250 840,258 839,257 L834,252 L834,252 Z M820,226 C820,224 820,224 822,224 C825,224 825,224 823,226 C821,228 820,228 820,226 L820,226 Z M846,166 C845,159 845,159 848,159 C850,159 851,159 851,161 C851,162 851,162 852,162 C853,161 852,167 851,169 C848,172 847,171 846,166 L846,166 Z M883,161 C883,160 881,158 880,155 C878,153 877,151 877,150 C877,149 875,148 874,146 C871,143 870,141 871,139 C872,138 878,142 878,144 C878,145 879,147 880,148 C882,149 884,159 883,161 C883,162 883,162 883,161 L883,161 Z M810,159 C810,158 810,156 811,156 C811,156 812,156 812,157 C812,158 811,160 811,160 C810,160 810,160 810,159 L810,159 Z M814,153 C814,151 818,147 819,147 C819,147 821,145 824,143 C828,140 831,140 831,144 C831,148 830,148 829,148 C827,147 818,150 816,152 C815,154 814,154 814,153 L814,153 Z M765,150 C764,148 774,138 786,129 C787,128 790,126 801,121 C806,118 810,117 816,117 L823,116 L827,120 C833,125 832,127 826,124 C816,120 798,125 785,136 C782,138 779,140 778,140 C778,140 775,142 772,145 C768,148 765,150 765,150 L765,150 Z M845,138 C844,138 843,135 841,133 C839,129 839,128 840,126 C842,123 847,121 851,122 C853,122 855,121 856,121 C858,120 859,120 860,121 C861,123 861,123 860,126 C859,128 858,130 857,131 C856,131 856,133 856,133 C856,135 848,138 845,138 L845,138 Z M881,128 C881,126 883,126 883,128 C883,129 883,130 882,130 C881,130 881,129 881,128 L881,128 Z M879,119 C874,118 872,116 875,114 C876,112 880,112 883,115 C887,118 887,120 885,119 L879,119 L879,119 Z M837,112 C836,111 833,109 831,108 C828,107 825,105 824,103 C821,100 818,100 817,102 C815,104 814,103 814,100 C814,98 816,98 824,100 C836,103 845,107 845,110 C845,111 843,112 842,112 C839,114 839,114 837,112 L837,112 Z M828,103 C828,103 827,102 826,102 C825,102 825,102 825,103 C826,103 828,104 828,103 L828,103 Z M857,112 C852,111 852,110 855,105 C856,103 857,102 857,102 C857,101 859,102 860,102 C863,104 865,110 863,112 C863,113 862,113 862,113 C861,113 859,113 857,112 L857,112 Z M114,160 C113,160 113,157 113,155 C113,153 112,151 112,151 C110,150 110,143 112,142 C114,140 131,143 137,146 C142,149 143,151 140,153 C138,155 131,159 129,159 C128,159 128,159 127,160 C127,161 115,162 114,160 L114,160 Z M112,124 C111,123 111,118 111,111 C111,95 111,95 121,95 C131,94 134,96 134,102 C134,107 133,108 128,113 C126,116 123,119 122,119 C121,119 120,119 119,120 C118,123 113,125 112,124 L112,124 Z M600,127 C600,127 599,122 599,116 C598,111 597,104 597,102 C596,98 596,98 599,98 C604,98 608,100 613,104 C616,107 617,108 617,112 C617,116 616,117 613,120 C609,123 602,129 601,129 C601,129 600,128 600,127 L600,127 Z" id="Fill-1" fill="#FDFDFD"></path>
                <path d="M151,538 C150,536 149,536 122,536 C92,536 93,536 93,531 C93,529 92,529 86,530 L79,530 C76,528 84,524 93,523 C101,522 103,520 95,520 C88,521 83,519 84,517 C84,516 85,515 89,514 C97,513 125,511 127,511 L130,511 C131,510 128,501 125,497 C124,496 124,494 124,493 L123,491 C122,490 117,471 117,467 C117,465 116,461 114,458 C113,454 111,451 111,450 C111,450 111,448 110,446 C108,442 105,434 105,428 C104,423 107,417 111,416 C119,414 121,413 123,412 C123,411 126,410 129,410 C132,410 137,409 142,408 C146,408 152,407 156,407 C165,406 175,405 176,404 C177,403 177,398 175,396 C175,396 173,395 171,395 C165,395 164,393 164,389 C164,387 165,386 167,384 C169,382 172,381 172,381 C173,381 174,379 174,375 L174,370 L178,370 C180,370 183,369 185,368 C189,366 192,366 194,369 C198,374 194,382 186,385 C184,386 184,387 184,393 C184,404 184,403 201,403 C223,402 245,402 247,403 C248,404 251,405 253,405 C260,407 261,410 261,423 L261,434 C260,434 259,437 259,442 C258,447 257,452 256,454 C255,455 254,461 253,465 C253,470 252,475 251,476 C251,477 250,482 250,487 C250,492 249,498 249,501 C248,504 247,509 247,512 C246,520 244,524 239,527 C237,528 235,530 234,532 C232,535 231,535 227,536 L214,536 C210,535 206,535 205,535 C204,536 197,537 190,537 C183,537 176,538 175,538 C174,538 168,539 163,539 C154,540 153,540 151,538 L151,538 Z M106,528 L103,528 L101,528 C103,529 106,529 106,528 L106,528 Z M225,522 C226,520 228,517 228,515 C229,513 230,510 230,510 C231,509 231,508 231,507 C232,500 233,495 234,494 C234,493 235,488 236,483 C240,469 242,461 243,459 C246,453 252,425 250,424 C250,424 246,424 241,425 C236,427 225,428 217,428 C166,432 157,432 146,432 C140,432 136,433 136,433 C136,434 137,435 139,436 C141,437 142,438 141,440 C141,441 141,443 143,445 C145,448 144,450 139,451 C137,451 135,452 135,453 C134,454 133,454 133,453 C132,452 132,452 131,452 C130,454 132,455 137,454 C143,453 149,455 150,459 C151,461 149,462 143,462 C137,462 136,463 137,465 C137,466 139,467 145,466 C152,465 153,466 156,467 C162,471 160,473 150,473 C146,474 142,474 142,475 C142,476 147,476 153,477 C158,477 163,478 164,478 L164,482 C163,484 162,484 155,485 C149,485 148,485 148,487 C147,491 150,492 157,492 C167,491 173,494 170,498 C169,500 168,500 164,500 C159,499 156,500 156,502 C156,505 159,505 168,505 C176,504 177,504 179,506 C181,508 181,510 179,513 C178,514 177,514 175,513 L167,513 C164,513 163,514 162,516 L161,518 L166,518 L179,518 C185,517 186,517 188,519 C191,521 192,522 201,522 C207,522 212,522 212,523 C212,523 213,524 214,524 C216,524 218,524 219,525 C221,526 223,526 225,522 L225,522 Z M154,518 C154,515 151,513 147,513 C143,513 143,514 145,517 C147,520 154,520 154,518 L154,518 Z M146,504 C147,502 144,499 142,500 C139,500 137,501 138,503 C139,505 139,506 142,505 C144,505 146,504 146,504 L146,504 Z M138,493 C139,493 140,491 140,490 C140,487 136,483 134,484 C133,484 132,485 131,485 C130,485 130,490 132,492 C134,494 135,494 138,493 L138,493 Z M133,476 C134,475 131,474 129,475 C127,476 128,478 131,478 C132,478 133,477 133,476 L133,476 Z M130,443 C130,442 129,442 128,442 C128,442 128,442 128,443 C128,443 128,444 129,444 C130,444 130,443 130,443 L130,443 Z M135,433 L132,433 L131,433 C132,434 135,434 135,433 L135,433 Z M205,421 C210,420 217,420 221,420 C225,420 229,419 231,419 C241,416 248,414 248,413 C248,412 246,411 244,411 C240,409 234,409 215,410 C201,410 190,411 189,411 C188,412 188,413 188,417 L188,423 L192,422 C194,422 200,421 205,421 L205,421 Z M177,415 C178,413 175,412 171,414 C169,415 168,415 170,416 C173,417 176,417 177,415 L177,415 Z M439,531 C431,530 424,530 423,529 C422,528 418,528 414,528 C408,529 407,528 406,527 C404,525 406,523 410,522 L413,521 L410,520 C407,518 407,516 409,515 C410,514 416,514 422,514 C443,513 443,513 443,510 C444,507 446,506 452,507 C455,508 457,507 457,507 C457,506 454,501 452,496 C447,487 445,482 441,467 L441,459 C441,454 438,447 435,441 C434,439 433,434 432,428 C430,423 429,417 428,416 C427,413 428,409 431,408 C450,398 447,399 462,399 C471,399 479,398 485,397 L493,395 L494,392 C494,390 494,385 493,382 C493,379 492,365 492,352 C491,321 491,315 489,315 C488,315 487,315 486,316 C486,317 482,319 478,321 C474,323 470,325 470,326 C469,327 467,328 465,329 C463,330 459,333 458,334 C453,339 450,339 447,336 C445,333 444,332 445,327 C445,323 446,320 448,317 C451,312 458,303 460,304 C460,304 462,302 465,300 C470,297 480,294 485,294 C487,294 489,293 489,293 C489,292 489,291 488,291 C487,291 487,291 488,291 C489,290 489,287 489,279 C487,261 488,243 492,237 C495,233 499,230 508,230 C513,229 514,230 517,233 C522,237 522,240 518,245 C515,248 514,249 515,252 C516,253 516,255 516,255 C516,255 515,256 513,256 C511,258 505,258 501,256 C498,255 497,258 497,264 C496,274 497,292 498,299 C499,302 499,306 499,307 C499,308 499,310 500,311 C501,313 502,313 504,312 C505,311 507,311 508,311 C510,312 517,318 519,322 C520,323 522,325 523,326 C525,326 527,328 528,328 C530,330 533,329 533,326 C533,322 525,311 521,306 C517,302 513,300 509,301 C505,301 502,299 503,296 C503,293 504,293 507,293 C514,292 519,294 525,301 C529,304 532,308 533,310 C534,312 535,314 536,314 C536,314 537,317 539,319 C540,322 541,324 541,332 C540,340 540,341 538,343 C537,344 536,344 535,344 L529,340 C527,337 523,334 520,332 C518,330 514,327 512,325 C509,322 507,321 504,321 L499,321 L500,338 C500,347 501,359 501,364 C501,369 502,378 503,383 L504,393 L512,394 C516,394 525,394 531,393 C542,393 552,395 557,398 C559,399 561,399 564,399 C567,399 569,399 571,400 C575,402 575,403 575,408 C575,411 575,413 576,414 C576,415 575,425 573,431 C572,434 571,439 570,443 C569,446 568,450 567,452 C564,458 564,460 562,467 C562,471 560,476 559,478 C558,480 557,485 556,489 C555,493 554,496 553,497 C553,498 552,501 552,505 C551,514 547,522 543,522 C542,523 540,522 538,521 C536,519 530,520 525,522 C522,524 512,527 506,528 C499,529 490,529 469,530 C462,530 455,531 454,531 L439,531 L439,531 Z M426,522 C426,521 424,521 422,521 C419,521 419,521 422,522 C425,523 426,523 426,522 L426,522 Z M433,521 C433,520 432,520 431,520 C431,520 431,520 431,521 C431,521 432,522 433,522 L433,521 L433,521 Z M476,512 C475,511 474,511 473,512 C472,513 473,514 475,514 C476,514 477,513 476,512 L476,512 Z M497,513 C497,511 495,511 490,511 C488,512 487,512 487,513 C488,514 497,514 497,513 L497,513 Z M530,508 C535,505 537,504 538,501 C538,499 539,496 540,495 C541,494 542,490 543,487 C543,484 544,481 545,481 C545,480 546,477 546,474 C547,471 549,464 551,458 C553,453 555,447 555,445 C556,441 557,435 560,428 C561,425 562,420 563,419 C564,413 563,413 552,414 C546,415 536,416 529,416 C522,416 507,418 496,419 C476,422 466,422 451,422 C443,422 443,423 442,425 C441,428 443,428 451,428 C459,429 462,430 461,434 C460,436 460,437 453,437 C448,437 447,437 447,438 C447,439 447,440 450,439 C464,437 472,438 472,442 C473,445 471,446 460,446 C451,446 449,447 450,450 C451,452 453,452 462,452 C472,451 474,452 477,454 C479,455 480,456 480,457 C479,459 480,462 482,462 C482,462 484,463 486,464 C489,467 490,467 488,468 C486,469 482,470 475,470 C469,471 463,471 462,472 C462,472 462,473 463,475 C465,478 465,478 470,478 C479,477 484,478 486,481 C487,484 487,484 486,486 C484,489 482,489 481,487 C479,485 470,485 470,487 C470,487 470,489 472,490 C474,492 475,493 484,493 C495,493 498,494 498,497 C498,500 495,502 491,501 C489,501 486,500 484,500 C481,500 481,500 481,502 C481,503 481,503 492,503 C506,503 508,504 507,509 L506,513 L515,512 C523,512 525,511 530,508 L530,508 Z M470,503 L468,503 C467,503 466,503 467,504 C469,506 471,505 470,503 L470,503 Z M463,492 C463,490 460,486 459,487 C457,488 457,489 460,492 C462,494 464,494 463,492 L463,492 Z M472,462 C475,460 463,458 458,459 C455,460 455,462 459,463 C461,463 472,463 472,462 L472,462 Z M516,408 C521,408 527,407 530,407 C535,407 538,406 540,404 L544,402 L540,401 C534,401 508,401 506,402 C505,403 504,408 505,410 L507,410 C508,410 512,409 516,408 L516,408 Z M463,320 C466,318 469,316 470,316 C475,313 477,312 478,311 C479,311 481,309 485,308 C492,304 492,302 485,302 C478,302 468,307 461,314 C457,318 456,321 456,322 C457,324 457,324 463,320 L463,320 Z M777,531 C777,530 769,530 759,530 L742,529 L742,526 L741,523 L725,522 C716,522 705,521 701,522 C693,522 690,521 691,518 C691,516 693,516 707,516 C720,516 723,516 724,514 C725,513 728,513 734,513 C741,513 744,512 745,511 C747,510 749,509 752,510 C759,510 760,510 759,508 C759,507 758,506 758,505 C758,504 757,502 757,500 C753,488 750,476 749,468 C747,456 744,442 742,438 C738,428 736,420 739,419 L739,415 C739,411 741,408 745,407 C747,407 752,406 757,405 C766,403 783,402 806,402 L811,402 L810,377 C809,357 809,323 809,264 L809,253 L805,252 C803,251 801,251 800,251 C798,250 784,264 784,265 C784,267 771,285 768,287 C767,288 764,290 762,292 C760,295 756,297 753,298 C749,299 747,300 746,301 C745,302 740,302 737,301 C734,300 731,292 732,284 C732,279 734,274 738,267 C739,265 740,262 742,260 C746,251 762,235 767,234 C768,234 770,232 771,231 C774,229 788,224 796,222 C797,222 799,221 801,221 C803,221 805,221 807,222 C809,223 811,223 811,223 C811,223 812,219 812,214 C813,206 813,204 812,203 C812,203 811,203 812,203 C813,203 814,198 814,193 C815,188 816,182 817,182 C818,179 821,170 821,168 C821,168 820,168 819,169 C818,170 816,171 816,171 C815,171 812,172 809,174 C802,177 801,177 799,174 C795,168 801,152 811,142 C814,139 816,136 816,136 C815,135 797,144 793,147 C791,148 788,150 787,150 C785,150 782,152 779,155 C775,159 770,160 762,161 C756,161 753,152 758,146 C765,137 780,124 791,118 L797,115 L796,111 C795,107 796,107 798,105 C800,104 802,103 802,101 C802,99 805,93 808,91 C809,90 811,89 813,90 C821,91 834,94 838,96 C844,98 845,98 847,94 C849,89 854,86 858,87 C860,87 862,88 864,92 C865,94 866,97 866,97 C866,97 868,99 869,101 C872,104 873,104 878,105 C882,105 885,106 887,108 C891,111 898,119 898,120 C898,120 900,123 903,126 C907,131 908,133 909,140 C910,145 907,146 901,144 C898,143 895,143 893,143 C892,143 891,142 891,142 C891,140 886,139 885,139 C884,140 884,142 887,148 C890,154 891,156 891,163 C891,170 891,172 889,178 C886,185 880,193 878,193 C875,194 873,189 874,184 C874,182 874,180 873,177 C871,175 871,174 872,172 C874,168 868,154 865,156 C864,156 863,158 862,168 C861,171 860,175 858,177 C854,182 845,191 843,192 C843,192 841,193 839,195 C836,198 833,198 831,196 C828,193 828,191 833,186 C839,180 840,173 836,163 C835,160 834,160 832,163 C826,174 823,188 822,202 C821,209 821,214 821,214 C821,215 823,214 825,213 C828,212 829,212 830,213 C831,214 833,215 834,215 C844,219 847,221 854,228 C863,237 866,241 867,245 C868,247 869,249 869,250 C870,251 871,254 871,256 C872,258 873,262 874,266 C878,275 877,307 874,316 C874,316 873,319 873,321 C873,326 870,329 866,329 C864,329 857,325 854,322 C850,318 848,316 848,314 C848,313 847,312 847,311 C846,311 845,307 845,303 C844,299 842,293 842,290 C841,287 839,282 838,280 C838,277 835,271 833,266 C829,257 826,254 821,252 C816,251 816,253 817,281 C817,295 818,309 818,313 L818,338 C817,349 818,362 818,367 C819,371 819,380 819,386 C820,396 820,402 821,403 L828,403 C834,403 841,404 842,406 C843,406 848,407 854,407 C861,407 867,408 869,409 C871,410 874,411 876,411 C880,411 883,414 884,421 C885,426 885,429 884,431 C883,432 882,434 882,438 C880,451 880,453 878,457 C877,458 876,462 876,464 C876,466 875,470 874,472 C872,476 870,482 869,484 C869,485 868,486 868,488 C867,490 866,494 866,497 C864,505 862,510 857,516 C854,518 853,521 853,521 C853,522 851,523 839,526 C834,527 822,529 818,529 C817,529 807,529 797,530 C787,531 778,531 778,531 C778,531 778,531 777,531 L777,531 Z M803,517 C803,516 803,516 802,516 C801,516 801,516 801,517 L802,518 L803,517 L803,517 Z M832,515 L836,511 C838,509 839,506 839,504 C838,503 839,503 839,504 C840,505 843,499 844,494 C845,491 853,469 855,469 C855,468 856,465 857,462 C858,459 859,455 860,455 C861,454 862,451 862,449 C863,447 864,443 865,441 C869,433 871,426 871,425 L862,425 C858,426 832,426 804,426 C763,426 754,426 753,427 L753,429 C754,429 755,429 755,431 C755,433 756,433 763,432 C771,431 775,433 775,436 C776,438 773,439 766,440 C760,441 760,441 760,443 C760,445 760,445 764,444 C779,442 780,442 783,445 C786,447 786,448 785,449 C784,451 783,451 776,451 C768,450 764,451 765,453 C765,456 766,458 770,458 L780,458 C787,458 787,459 789,461 C792,465 791,467 787,469 C786,470 784,470 785,470 C786,468 781,466 776,466 C771,466 770,466 772,470 L773,472 L786,472 C798,471 799,471 801,473 C803,476 802,477 798,478 C796,478 791,478 787,479 C781,480 779,480 779,482 C778,484 781,485 790,483 C799,482 803,483 804,485 C807,489 803,492 798,490 C795,489 787,490 786,491 C786,492 786,493 787,495 C788,497 788,497 795,498 C801,498 803,499 805,500 C807,502 807,503 806,504 C805,506 804,506 800,506 C796,505 795,506 796,507 C796,508 799,508 804,509 C811,509 813,509 814,511 C815,512 816,513 816,514 C816,514 817,515 820,515 C823,515 825,515 826,516 C827,518 830,518 832,515 L832,515 Z M850,510 C851,509 851,506 851,505 L851,504 C852,505 853,505 854,502 C856,500 857,498 857,497 C857,496 857,493 858,491 C860,486 862,480 861,479 C861,478 861,477 862,477 C863,477 864,476 864,474 C864,473 863,472 862,473 C860,475 857,483 858,485 C859,485 858,486 858,485 C856,484 853,492 853,495 C853,496 852,498 851,500 C849,502 849,504 849,505 C849,506 848,508 847,509 C845,511 846,514 848,514 C848,514 849,512 850,510 L850,510 Z M784,509 C786,507 784,506 778,506 C772,506 769,507 771,509 C772,511 783,511 784,509 L784,509 Z M778,498 C778,497 778,496 777,495 C776,494 775,493 771,494 C766,494 766,494 766,497 L765,500 L771,499 C774,499 777,498 778,498 L778,498 Z M769,486 C771,485 771,484 769,482 C768,481 767,479 766,479 C765,479 765,477 765,475 C765,473 764,472 764,472 C763,472 763,471 763,470 C764,468 761,466 759,467 C758,467 758,469 759,475 C760,484 762,487 765,486 L769,486 L769,486 Z M867,467 C869,465 869,459 867,460 C866,461 864,467 864,469 C864,470 865,470 867,467 L867,467 Z M813,417 C813,416 810,414 808,413 C806,411 804,410 804,411 L801,414 L798,416 L802,417 C810,418 813,418 813,417 L813,417 Z M826,418 C826,417 825,416 824,416 C823,415 823,414 825,413 C827,412 826,411 823,411 C821,411 821,411 821,414 C821,416 821,417 822,418 C823,419 826,419 826,418 L826,418 Z M861,417 C864,417 861,416 855,415 C850,413 848,414 844,415 L840,417 L844,418 C846,418 853,418 861,417 L861,417 Z M863,301 C864,299 865,296 866,295 C867,293 867,287 867,280 C867,266 866,261 861,257 C860,256 859,254 859,252 C859,246 854,237 847,232 C841,226 834,223 832,226 C830,227 830,229 834,233 C839,237 847,250 848,254 C848,255 848,257 850,259 C851,260 851,261 851,262 C851,263 853,265 854,267 C856,270 857,272 857,277 C856,296 857,305 860,305 C861,305 862,303 863,301 L863,301 Z M755,286 C757,284 759,282 760,282 C760,281 762,279 764,276 C770,270 774,264 774,259 C774,253 775,251 775,251 C776,251 777,249 780,247 C783,243 793,234 797,232 C799,231 798,230 794,231 C781,232 760,246 755,257 L753,259 L756,257 C760,253 763,249 763,248 L764,248 C764,248 766,247 768,245 C771,242 772,242 775,242 C779,242 780,242 780,244 C780,245 779,246 779,246 C778,246 766,257 759,265 C755,270 747,282 747,284 C747,285 750,289 750,289 C750,289 753,287 755,286 L755,286 Z M845,268 C844,265 843,267 845,271 C846,273 846,273 846,272 C846,271 846,270 845,268 L845,268 Z M843,263 C842,262 841,263 842,265 C843,266 843,266 843,265 C844,264 843,263 843,263 L843,263 Z M839,254 C838,249 830,237 827,237 C826,237 826,241 828,244 C830,247 839,257 839,257 C840,257 839,256 839,254 L839,254 Z M823,226 C825,224 825,224 822,224 C820,224 820,224 820,226 C820,228 821,228 823,226 L823,226 Z M851,169 C852,167 853,161 852,162 C851,162 851,162 851,161 C851,159 850,159 848,159 C845,159 845,159 846,166 C847,171 848,172 851,169 L851,169 Z M883,154 C882,151 881,148 880,148 C879,147 878,145 878,144 C878,142 872,138 871,139 C870,141 871,143 874,146 C875,148 877,149 877,150 C877,151 878,153 880,155 C881,158 883,160 883,161 C883,162 883,162 883,161 L883,154 L883,154 Z M812,157 C812,156 811,156 811,156 C810,156 810,158 810,159 C810,160 810,160 811,160 C811,160 812,158 812,157 L812,157 Z M816,152 C818,150 827,147 829,148 C830,148 831,148 831,144 C831,140 828,140 824,143 C821,145 819,147 819,147 C818,147 814,151 814,153 C814,154 815,154 816,152 L816,152 Z M778,140 C779,140 782,138 785,136 C798,125 816,120 826,124 C832,127 833,125 827,120 L823,116 L816,117 C810,117 806,118 801,121 C790,126 787,128 786,129 C774,138 764,148 765,150 C765,150 768,148 772,145 C775,142 778,140 778,140 L778,140 Z M854,135 C855,135 856,134 856,133 C856,133 856,131 857,131 C858,130 859,128 860,126 C861,123 861,123 860,121 C859,120 858,120 856,121 C855,121 853,122 851,122 C847,121 842,123 840,126 C839,128 839,129 841,133 C844,139 847,139 854,135 L854,135 Z M883,128 C883,126 881,126 881,128 C881,129 881,130 882,130 C883,130 883,129 883,128 L883,128 Z M887,119 C887,117 880,113 878,113 C877,113 875,113 875,114 C872,116 874,118 879,119 L885,119 L887,119 L887,119 Z M842,112 C843,112 845,111 845,110 C845,107 836,103 824,100 C816,98 814,98 814,100 C814,103 815,104 817,102 C818,100 821,100 824,103 C825,105 828,107 831,108 C833,109 836,111 837,112 C839,114 839,114 842,112 L842,112 Z M863,112 C865,110 863,104 860,102 C859,102 857,101 857,102 C857,102 856,103 855,105 C851,111 851,111 862,113 C862,113 863,113 863,112 L863,112 Z M111,171 C111,170 109,170 108,170 C106,170 104,168 102,167 C100,164 99,164 100,161 C101,155 102,110 101,106 C100,104 99,103 97,102 C94,102 94,101 94,98 C94,94 94,93 97,91 C98,90 101,88 102,88 C103,88 105,88 105,87 C106,87 111,86 117,85 C128,84 134,85 138,88 C140,90 147,101 147,102 C147,104 141,113 139,116 L131,124 C128,127 126,130 126,131 C126,132 127,133 130,133 L135,133 C135,134 138,136 140,137 C148,140 152,144 154,147 C156,150 156,151 154,154 C153,156 150,158 148,160 C146,161 145,162 145,163 C145,163 144,164 143,164 L142,164 C142,166 131,170 128,170 C127,170 125,170 125,171 C125,171 122,172 118,172 C114,172 111,171 111,171 L111,171 Z M127,160 C128,159 128,159 129,159 C131,159 138,155 140,153 C143,151 142,149 137,146 C131,143 114,140 112,142 C110,143 110,150 112,151 C112,151 113,153 113,155 C113,161 114,162 121,161 C124,161 127,160 127,160 L127,160 Z M119,120 C120,119 121,119 122,119 C123,119 126,116 128,113 C133,108 134,107 134,102 C134,96 131,94 121,95 C111,95 111,95 111,111 C111,118 111,123 112,124 C113,125 118,123 119,120 L119,120 Z M230,161 C225,159 222,157 219,150 C214,140 213,137 211,131 C211,128 210,123 209,120 L209,106 C209,96 209,96 211,94 C213,93 214,93 216,94 C219,95 219,95 219,105 C219,111 220,116 220,117 C221,117 221,122 222,127 C222,134 223,136 227,143 C231,152 231,152 239,150 C244,149 247,147 249,142 C252,137 252,123 251,112 C250,106 250,106 253,105 C254,104 256,104 257,104 C261,104 262,106 262,123 C261,144 260,148 252,155 C247,160 236,163 230,161 L230,161 Z M335,160 C334,158 332,155 330,153 C328,149 328,148 328,125 C328,105 328,102 330,100 C331,98 335,98 335,99 C335,100 335,101 336,101 C339,102 340,105 339,113 C338,121 339,145 340,147 C341,147 342,150 342,153 C345,162 341,165 335,160 L335,160 Z M447,151 C442,147 440,137 443,114 C444,96 446,93 453,99 C454,100 454,102 454,112 C454,118 453,123 452,124 C451,125 451,133 453,137 L454,141 L464,140 C496,138 501,138 503,140 C506,142 506,146 504,147 C502,148 499,148 495,148 C489,148 482,149 467,151 C458,153 449,153 447,151 L447,151 Z M576,144 C571,139 573,135 580,135 C588,136 588,135 589,120 C589,110 588,106 587,102 L585,97 L578,98 C572,99 572,98 571,97 C570,96 570,94 570,94 C570,91 574,88 577,89 C578,89 580,88 580,87 C580,87 582,86 589,87 C603,88 609,89 613,92 C616,93 618,95 618,95 L620,95 C620,96 621,98 623,100 C624,101 626,104 626,104 C628,106 628,116 626,119 C624,124 617,131 614,132 C613,132 612,133 612,133 C612,134 610,135 607,136 C605,137 603,138 602,139 C601,140 595,142 592,143 C590,144 588,144 587,145 C584,148 578,147 576,144 L576,144 Z M605,126 C607,125 611,122 613,120 C616,117 617,116 617,112 C617,108 616,107 613,104 C608,100 604,98 599,98 C596,98 596,98 597,102 C597,104 598,111 599,116 C600,127 600,129 601,129 C601,129 603,127 605,126 L605,126 Z M852,416 C853,416 854,415 854,416 C854,416 854,417 853,417 C851,417 851,417 852,416 L852,416 Z M825,103 C825,102 825,102 826,102 C828,103 828,104 827,104 C826,104 825,103 825,103 L825,103 Z" id="Fill-2" fill="#434343"></path>
            </g>
        </g>
    </g>
</svg>