<?xml version="1.0" encoding="UTF-8" standalone="no"?>
<svg width="306px" height="466px" viewBox="0 0 306 466" version="1.1" xmlns="http://www.w3.org/2000/svg" xmlns:xlink="http://www.w3.org/1999/xlink">
    <!-- Generator: Sketch 3.8.3 (29802) - http://www.bohemiancoding.com/sketch -->
    <title>canvas</title>
    <desc>Created with Sketch.</desc>
    <defs></defs>
    <g id="Page-1" stroke="none" stroke-width="1" fill="none" fill-rule="evenodd">
        <g id="Canvas" transform="translate(-249.000000, -225.000000)" fill="#434343">
            <path d="M510,690 C507,689 504,685 505,683 L511,683 C519,683 527,679 525,675 C525,674 522,673 520,672 C514,670 508,665 507,662 L507,656 C508,651 515,646 520,646 C525,646 530,649 530,652 C531,655 530,655 528,654 C520,652 520,652 516,655 C513,658 513,658 514,661 C515,662 516,664 517,664 C523,666 530,670 531,671 C533,674 533,679 530,683 C527,688 517,691 510,690 L510,690 Z M281,685 C279,683 276,681 275,678 C273,674 272,673 273,669 C274,662 277,657 281,652 C288,645 296,644 301,649 C305,653 304,657 299,659 C295,660 292,659 295,656 C296,654 295,652 291,653 C286,655 280,665 280,670 C279,673 282,678 284,679 C287,681 293,681 297,679 C301,677 305,678 305,681 C305,686 288,688 281,685 L281,685 Z M338,682 C336,680 335,679 336,676 C336,673 336,673 333,673 C329,674 327,675 326,678 C326,681 323,682 321,680 C319,678 319,678 320,673 C321,670 323,667 324,665 C325,663 326,659 326,657 C326,655 328,652 329,651 C330,650 331,649 331,648 C331,646 334,645 336,647 C338,649 340,654 341,661 C341,663 343,666 344,667 C346,668 346,668 344,670 C342,672 342,673 343,675 C344,676 345,679 345,681 C345,684 344,685 342,685 C341,685 339,683 338,682 L338,682 Z M335,663 C335,661 332,661 332,664 C331,665 332,666 333,666 C334,666 335,665 335,663 L335,663 Z M359,678 C358,676 358,674 359,670 C360,667 361,663 361,660 C362,653 363,652 366,652 C368,652 370,654 374,659 C378,664 381,668 382,668 C384,670 384,670 386,660 C387,653 387,652 390,651 C392,649 393,649 394,651 C396,652 396,653 394,658 C393,661 391,666 391,671 C389,683 386,683 376,672 C373,668 370,665 369,665 C369,664 365,677 365,679 C365,682 360,681 359,678 L359,678 Z M481,678 C479,677 479,675 479,674 C479,673 478,673 476,673 C474,673 471,672 470,672 C467,671 467,671 467,674 C467,676 464,680 463,680 C462,680 461,679 460,678 C458,675 458,671 461,664 C462,662 464,659 464,657 C465,653 471,648 474,648 C477,648 479,650 482,657 C483,661 484,662 486,663 C488,664 489,666 488,668 C487,668 487,671 487,674 C487,679 487,680 485,680 C484,680 482,680 481,678 L481,678 Z M476,664 L476,661 L474,658 L472,661 C469,665 469,667 472,666 C474,666 475,665 476,664 L476,664 Z M426,677 C425,677 424,674 424,673 C423,671 422,669 421,668 L421,665 C421,665 419,662 418,660 C416,657 415,652 417,651 L420,651 C422,651 423,653 425,658 C426,662 428,665 428,665 C429,665 431,662 433,659 C438,650 441,647 444,647 C448,647 447,651 443,657 C440,660 435,669 432,676 C431,679 427,679 426,677 L426,677 Z M540,606 C539,604 538,602 538,600 C538,599 536,595 534,593 C532,590 531,587 531,586 C531,583 528,583 514,585 C497,587 488,588 485,586 C482,585 481,585 478,585 C476,586 473,586 471,586 C469,586 468,587 468,587 C468,588 466,588 465,588 C461,587 438,591 435,593 L431,593 C429,592 429,590 428,584 C428,580 428,579 426,578 C423,576 422,575 422,571 C421,568 421,568 434,568 C440,569 446,568 449,568 C456,566 459,567 458,571 L458,574 C459,574 460,573 460,572 C460,571 460,571 460,572 C461,573 462,573 464,573 C466,572 472,571 477,570 C485,569 488,569 492,570 C494,570 498,571 501,571 C503,572 506,573 507,574 C509,575 510,575 511,574 C514,572 517,573 518,575 C519,577 526,577 527,575 C528,573 525,565 522,559 C521,557 519,551 517,545 C516,540 514,533 513,532 C512,530 510,525 509,522 C508,518 505,514 504,512 C503,510 502,507 502,506 C502,506 500,501 498,497 C496,493 493,488 493,487 C492,483 491,481 488,483 L481,483 C478,483 473,484 470,484 C464,486 451,488 444,489 C435,490 427,492 427,493 C427,494 426,501 426,509 C425,525 424,539 423,549 C422,553 421,560 420,565 C420,570 419,575 419,576 C418,577 418,582 419,587 C419,593 419,596 418,597 C418,598 415,599 410,599 C403,599 402,598 399,596 C397,593 397,592 397,584 C397,579 397,574 398,573 C400,568 401,538 401,515 C400,508 400,501 401,499 C402,495 402,495 393,495 L378,495 L369,494 L365,490 C363,488 361,486 361,485 C361,484 360,481 359,478 C356,473 355,470 350,453 C348,448 347,442 346,440 C344,437 344,437 342,438 C341,439 340,442 339,444 C337,446 336,450 335,452 C334,453 330,460 327,467 C324,474 320,480 319,481 C318,482 316,486 314,490 C312,494 309,498 308,499 C307,501 307,502 307,503 C307,504 300,515 290,530 C287,536 283,543 282,546 C280,552 277,555 274,556 C272,556 271,557 270,559 C270,561 269,561 265,560 C250,558 250,558 249,555 C249,552 250,551 255,545 C256,543 258,542 258,541 C258,540 258,539 259,539 C260,538 261,536 261,535 C261,534 262,533 264,532 C266,531 268,529 270,524 C272,521 274,517 276,516 C278,513 294,488 294,486 C294,486 295,483 297,480 C300,475 316,443 319,436 C320,434 321,431 322,430 C322,429 322,428 323,427 C323,426 325,421 328,416 C330,410 332,405 332,404 C332,404 331,398 328,393 C326,387 323,379 322,375 C320,370 318,365 316,362 C312,351 310,344 308,336 C308,333 305,324 303,317 C300,310 298,303 298,301 C297,299 296,297 296,296 C295,294 293,288 293,286 C293,285 294,284 295,283 C297,283 299,281 300,280 C303,278 304,277 313,277 C324,277 325,277 338,275 C348,274 349,273 348,268 C347,264 347,264 350,261 C354,256 359,253 364,252 C366,252 368,251 368,250 C368,249 366,246 365,243 C364,240 363,237 363,236 C364,233 369,229 374,227 C380,225 384,225 386,227 C387,229 391,238 391,241 C391,244 393,245 397,243 C403,241 411,243 411,247 C411,249 415,258 418,260 C421,262 421,262 432,260 C447,258 465,256 468,257 C470,257 472,260 476,267 C479,273 482,277 482,278 C482,278 483,281 484,283 C486,286 488,289 488,291 C488,292 490,296 491,299 C492,302 495,309 496,315 C497,320 499,326 500,328 C501,331 502,335 506,348 C507,352 510,359 511,363 C512,367 514,373 515,376 C518,385 521,393 522,396 C523,397 523,398 523,399 C523,399 523,400 524,402 C525,403 526,405 526,406 C526,407 526,409 527,411 C528,412 530,417 531,420 C534,431 537,438 540,442 C541,443 543,447 543,448 C544,452 546,459 550,466 C553,471 553,471 551,473 C549,476 541,478 529,478 C523,478 518,479 518,479 C518,480 520,483 522,487 C524,491 526,495 526,496 C526,497 526,499 527,500 C529,503 531,513 534,525 C536,536 540,551 542,553 C542,554 544,558 545,563 C547,567 548,571 549,571 C549,571 550,572 550,573 C550,575 551,578 552,581 C554,585 555,588 554,589 C554,590 552,591 550,591 C545,593 545,594 547,601 C548,606 547,609 544,609 C541,609 540,608 540,606 L540,606 Z M411,584 C411,572 412,559 416,545 C417,536 419,495 418,493 L416,493 C414,494 413,502 412,519 C412,528 411,539 411,544 C410,549 409,561 408,570 C407,584 407,588 408,589 C410,591 412,589 411,584 L411,584 Z M543,581 L542,580 L541,580 C541,581 541,582 542,582 L543,581 L543,581 Z M541,573 C541,570 537,563 536,565 C536,565 536,565 536,563 L536,558 C535,558 532,548 530,536 C527,524 523,512 522,509 C521,506 519,501 518,498 C517,494 515,489 513,485 C510,478 509,478 507,478 C505,478 505,478 505,480 C505,482 505,485 507,488 C508,490 509,493 510,495 C510,496 513,504 516,513 C519,522 522,531 523,535 C525,538 527,543 528,547 C530,551 531,556 532,559 C536,570 541,578 541,573 L541,573 Z M267,548 C268,546 268,544 268,544 C267,543 264,545 263,547 C261,551 261,552 264,552 C265,552 266,550 267,548 L267,548 Z M278,530 C282,524 283,520 279,526 C278,527 276,530 275,531 C274,533 273,535 273,536 C273,539 275,537 278,530 L278,530 Z M285,516 C285,516 284,517 284,518 C282,521 282,521 284,519 C285,518 286,517 285,516 L285,516 Z M291,509 L291,508 C290,508 289,509 289,510 C286,515 288,514 291,509 L291,509 Z M377,479 C380,481 403,477 406,475 C407,474 411,473 416,472 C421,472 434,470 444,468 C461,465 465,465 486,465 C500,465 509,464 512,464 C513,463 520,462 526,462 C537,460 540,459 537,457 C536,456 534,453 533,450 C529,436 523,420 522,417 C520,414 519,409 518,405 C516,401 514,395 513,392 C512,388 510,381 508,376 C507,372 505,367 504,365 C503,364 502,361 502,359 C502,357 500,354 499,351 C498,347 497,341 495,336 C494,330 492,324 491,322 C490,320 490,318 490,316 C490,311 472,273 467,267 C465,265 464,265 460,264 C453,264 426,267 419,268 C415,269 409,270 403,271 C398,272 387,274 381,275 C374,276 367,277 366,278 C364,278 362,278 361,280 C359,281 358,282 354,281 C352,281 344,281 336,282 C329,283 320,285 316,285 C305,286 303,286 304,289 C304,291 304,293 305,294 C306,295 307,298 308,301 C309,308 320,340 325,351 C326,354 329,360 330,364 C331,368 334,375 336,380 C339,388 339,390 342,401 C343,405 345,411 347,415 C348,419 349,423 349,425 L354,435 C355,439 357,444 358,446 C359,453 366,472 370,478 C371,480 372,480 373,479 L377,479 L377,479 Z M382,262 C384,262 386,261 387,261 C387,260 389,259 390,259 C392,259 401,257 403,255 C405,254 405,251 403,250 C401,249 374,256 368,259 C366,260 364,261 363,261 C362,261 362,262 362,263 C362,264 369,263 382,262 L382,262 Z M382,239 C382,237 379,235 378,235 C375,235 374,237 375,239 C376,241 382,241 382,239 L382,239 Z M366,567 L351,567 C344,567 337,566 334,566 C330,565 324,564 319,564 C313,563 308,562 307,562 C302,561 289,558 289,558 L289,556 C290,554 291,554 302,555 C309,555 319,556 324,557 C329,557 344,558 357,558 C380,558 381,558 383,560 C385,562 385,562 383,565 C382,567 381,568 377,568 L371,568 C370,568 367,568 366,567 L366,567 Z" id="canvas"></path>
        </g>
    </g>
</svg>