<?xml version="1.0" encoding="UTF-8" standalone="no"?>
<svg width="348px" height="498px" viewBox="0 0 348 498" version="1.1" xmlns="http://www.w3.org/2000/svg" xmlns:xlink="http://www.w3.org/1999/xlink">
    <!-- Generator: Sketch 3.8.3 (29802) - http://www.bohemiancoding.com/sketch -->
    <title>delivery</title>
    <desc>Created with Sketch.</desc>
    <defs></defs>
    <g id="Page-1" stroke="none" stroke-width="1" fill="none" fill-rule="evenodd">
        <g id="Delivery" transform="translate(-226.000000, -193.000000)" fill="#424242">
            <path d="M548,689 C545,686 546,684 548,680 C550,678 551,676 551,675 C551,675 553,672 554,669 C556,666 557,663 556,663 C552,661 545,656 543,652 C539,646 539,645 542,644 C543,643 544,644 546,646 C553,654 553,655 557,655 C561,655 562,654 563,648 C564,645 566,643 567,642 C568,640 569,640 571,642 C572,643 574,644 574,646 C574,649 571,655 569,656 C568,657 555,685 555,687 C555,688 552,691 550,691 C549,691 548,690 548,689 L548,689 Z M490,685 C489,683 489,675 490,663 C492,648 493,646 501,644 C509,642 514,642 516,645 C519,650 516,656 509,660 C506,661 504,662 504,662 C503,663 512,672 515,673 C516,674 519,674 521,674 C523,673 524,674 525,675 C528,678 521,682 514,681 C512,681 509,678 505,674 C501,670 498,667 498,668 C498,668 497,672 497,676 C496,680 496,684 495,684 C494,686 491,686 490,685 L490,685 Z M506,653 C510,651 510,649 506,649 C501,650 499,651 499,654 C499,656 502,656 506,653 L506,653 Z M444,681 C443,680 442,679 441,678 C440,676 440,650 441,649 C442,647 455,645 461,645 C467,645 473,647 471,649 C471,650 466,650 460,651 C455,651 450,652 449,653 C448,653 448,655 448,657 C448,660 448,661 452,661 C454,661 457,660 458,659 C460,658 464,660 464,662 C464,664 461,665 455,666 C449,667 448,668 448,671 L448,674 L456,675 C460,675 465,676 466,676 C468,677 468,680 466,681 C465,682 447,682 444,681 L444,681 Z M279,680 C274,679 274,674 276,660 C277,656 277,654 277,652 C275,648 276,647 280,647 C281,647 286,646 290,644 C299,642 303,642 303,646 C303,647 302,649 301,649 C297,649 286,651 286,652 C284,653 284,660 285,661 L291,661 C298,660 299,660 300,662 C301,665 299,666 291,667 C283,669 281,670 282,672 C283,674 284,674 291,673 C296,673 299,673 300,674 C302,676 301,679 298,680 C294,681 281,681 279,680 L279,680 Z M407,680 C405,679 402,674 399,668 C397,663 394,657 393,656 C391,654 391,651 394,650 C397,649 399,652 404,663 C407,668 409,673 410,673 C411,673 414,666 417,657 C419,650 422,648 424,651 C426,652 426,653 424,656 C423,658 423,660 423,660 C423,663 416,677 414,679 C411,682 409,682 407,680 L407,680 Z M230,679 C226,678 226,674 228,673 C230,673 231,673 233,674 L236,674 C236,674 237,668 237,662 C237,652 237,649 236,649 C235,649 235,647 235,646 C235,644 235,643 238,642 C244,639 251,641 257,647 C263,652 264,658 261,665 C259,670 254,675 247,678 C242,681 233,681 230,679 L230,679 Z M248,670 C257,665 259,653 250,649 C248,648 247,648 246,649 C244,651 243,672 245,672 C245,672 247,671 248,670 L248,670 Z M367,676 C365,674 364,672 364,668 C364,652 365,648 369,650 C371,651 372,653 372,657 L372,670 C373,678 373,679 371,679 C370,679 368,677 367,676 L367,676 Z M324,676 L322,674 L324,663 C327,647 328,646 331,647 C335,647 335,651 333,656 C332,658 331,662 331,665 L330,670 L339,669 C350,669 354,671 350,675 C348,676 346,676 339,676 C335,676 330,677 329,677 C328,677 326,677 324,676 L324,676 Z M322,607 C321,607 319,606 317,606 C312,605 307,602 308,599 C308,598 308,597 307,596 C306,594 306,593 307,591 C308,589 310,584 311,580 C312,575 313,567 315,563 C317,554 320,538 321,530 C321,528 322,526 323,525 C324,525 324,523 324,522 C324,520 325,517 326,515 C327,512 329,504 330,497 C333,487 333,484 332,483 C331,482 329,481 321,482 C316,482 309,483 307,483 C303,484 302,483 299,480 C295,476 294,476 294,467 C293,462 293,442 293,423 C293,403 292,385 292,382 C292,379 293,359 293,337 C294,284 294,260 293,246 L292,234 L295,231 L298,228 L332,228 C354,228 366,227 367,226 C368,226 369,224 369,221 C369,217 369,216 380,213 C384,212 389,211 389,211 C390,211 390,210 389,208 C387,205 387,205 391,200 C393,197 396,194 396,194 C397,193 401,193 404,193 C412,194 413,197 414,205 C414,210 414,212 415,212 C416,212 418,213 421,214 C425,216 426,216 427,215 C428,215 429,215 431,216 C434,218 434,218 433,224 L432,230 L450,230 C491,230 505,231 507,233 C508,234 509,237 509,250 C508,258 508,269 508,274 C505,296 503,338 503,348 C504,375 503,409 501,449 C500,455 501,461 501,464 C502,469 502,470 501,472 C500,473 500,475 500,476 C500,479 496,482 490,482 C487,482 484,483 483,482 L468,482 C456,481 454,482 454,483 C454,484 455,487 458,491 C462,497 475,522 475,523 L475,526 C476,527 477,531 478,534 C479,537 483,545 486,552 C489,558 492,564 492,565 L494,571 C495,574 497,578 498,581 C500,584 501,588 502,589 C504,592 505,602 503,603 L499,603 C497,603 494,604 492,605 C487,607 483,607 481,605 C480,604 478,604 477,604 C475,604 474,604 473,603 C471,602 463,585 461,579 C460,576 459,572 458,571 C457,569 457,567 457,566 C457,565 453,557 449,549 C445,540 440,529 438,525 C437,520 434,514 432,511 C430,508 426,500 424,494 C421,487 418,481 417,481 C416,480 412,480 405,480 L395,480 L394,487 C393,490 392,495 391,498 C390,504 388,517 388,521 L388,545 C388,561 387,566 386,568 C384,574 383,577 385,578 C386,579 387,580 386,584 L386,589 L413,588 C428,588 442,587 444,587 C448,586 452,589 451,593 C451,594 450,597 450,599 C451,605 449,605 442,603 C438,601 434,601 413,601 C397,601 384,602 374,603 C365,604 355,605 351,605 C343,605 343,605 343,603 C342,600 343,599 347,598 C349,598 350,598 350,595 L350,591 C351,591 355,590 360,590 L369,589 L368,584 C368,581 368,578 369,578 C369,578 369,577 368,575 L368,571 L368,569 C365,569 364,552 367,543 C367,540 368,528 368,510 C369,481 369,481 367,481 C364,481 360,488 358,496 C357,500 356,506 354,510 C352,516 342,551 338,566 C333,581 332,584 333,587 C333,588 333,591 332,593 C331,595 330,598 330,601 C330,604 329,607 328,607 C327,609 323,609 322,607 L322,607 Z M490,597 C493,596 495,596 496,595 C496,595 495,590 492,585 C490,579 487,572 486,568 C484,564 482,557 479,553 C477,549 473,540 471,533 C463,513 452,492 444,484 C442,481 440,481 438,481 L435,481 C435,481 436,486 439,491 C441,496 444,504 446,509 C448,513 451,521 453,526 C455,530 458,537 460,541 C462,545 464,550 466,553 C467,555 469,560 470,564 C472,567 473,570 474,571 C474,572 475,575 476,578 C477,581 478,586 480,589 C481,591 481,594 481,596 C481,598 481,599 482,598 C483,597 486,597 490,597 L490,597 Z M323,595 C324,594 325,591 325,590 C325,587 328,573 333,559 C338,544 343,526 347,510 C349,503 351,494 353,490 C354,486 355,482 355,481 L351,481 C347,482 347,483 345,488 C343,491 342,495 341,496 C340,498 337,508 335,520 C332,529 329,542 327,548 C324,555 322,563 319,577 C315,596 315,595 318,596 C321,598 322,598 323,595 L323,595 Z M437,595 C435,593 434,593 434,595 L436,595 L437,595 L437,595 Z M443,595 C443,594 442,594 441,594 C440,594 439,594 439,595 C439,595 439,596 440,596 C442,596 443,595 443,595 L443,595 Z M380,559 C380,558 381,553 381,545 C381,533 381,532 379,532 C378,531 378,532 378,536 C378,539 379,542 379,544 C380,546 379,546 376,547 C373,549 373,549 373,554 L373,560 C374,561 378,561 380,559 L380,559 Z M382,517 L381,517 C380,517 380,518 380,519 L381,519 C381,519 382,518 382,517 L382,517 Z M455,474 L448,474 C446,474 448,474 452,474 L455,474 L455,474 Z M320,466 C340,467 371,466 372,465 C372,465 372,464 371,464 C370,463 370,461 370,460 C370,459 369,457 368,457 C367,456 347,456 329,457 C324,457 317,458 314,459 C310,461 306,461 305,461 C302,460 302,461 304,465 C304,467 305,467 305,467 C306,466 310,466 320,466 L320,466 Z M482,465 C482,465 483,464 483,463 C483,462 475,459 472,459 C471,459 468,458 465,457 C457,455 447,453 444,454 C441,454 421,452 417,451 C415,450 415,451 415,458 L415,466 L418,466 C419,466 421,465 421,464 L421,464 C422,464 432,465 443,465 C455,465 465,466 465,466 C466,466 481,466 482,465 L482,465 Z M493,464 L493,460 C493,458 493,457 492,458 C491,458 490,465 491,465 C492,465 493,464 493,464 L493,464 Z M400,457 C405,456 406,456 407,453 C408,448 411,434 412,430 C412,428 414,421 415,416 C417,409 418,405 417,405 C416,403 378,404 375,406 C373,407 373,407 376,408 C378,409 379,410 378,412 C378,413 378,415 379,416 C381,419 380,421 377,422 C374,423 374,425 376,425 C378,425 382,427 382,429 L380,431 C378,432 379,432 381,434 C383,436 385,437 385,438 C385,439 385,440 387,441 C388,442 389,443 389,444 C389,446 385,447 381,447 C377,448 374,449 375,450 C375,451 378,451 381,451 C386,451 386,451 386,454 C387,455 387,457 388,458 C390,460 391,460 400,457 L400,457 Z M305,456 C305,455 304,455 304,455 C303,454 303,455 303,456 C303,457 303,458 304,457 C304,457 305,457 305,456 L305,456 Z M494,452 C494,451 494,443 495,434 C496,423 496,404 496,376 C497,328 497,319 500,281 C502,259 502,241 501,239 C500,239 492,238 483,238 L466,238 L466,241 C467,245 466,247 460,250 L455,253 L460,254 C466,255 475,258 479,262 C483,266 487,275 486,279 C485,283 484,284 476,282 L473,281 L474,286 C475,293 472,298 465,305 C458,311 455,312 453,308 C452,306 452,306 453,303 C455,300 454,291 452,289 C450,288 450,289 449,295 C449,297 448,300 446,301 C444,303 444,305 444,315 C444,321 443,327 443,327 C443,328 442,330 441,333 C440,338 437,342 430,349 C424,356 419,358 417,355 C416,354 416,352 416,352 C416,351 417,346 417,340 C417,329 416,325 411,318 C404,310 398,306 393,306 C388,306 382,314 379,328 C376,338 376,368 379,378 C379,379 380,383 380,386 L381,390 L396,390 C414,390 416,391 422,398 C425,401 426,402 425,406 C425,408 423,414 421,419 C420,424 419,429 419,430 C419,431 418,433 417,435 C415,439 415,447 417,446 C417,446 418,445 418,443 C419,442 419,441 419,440 C420,440 424,440 428,441 C434,441 436,441 438,440 C440,439 441,439 446,440 C449,441 454,442 456,443 C459,444 460,444 461,443 C462,441 463,441 469,443 C473,444 478,444 480,444 C485,444 490,447 490,451 C490,454 490,455 492,455 C493,455 494,454 494,452 L494,452 Z M317,446 C318,445 321,445 325,445 C328,445 332,444 332,443 C333,442 334,442 338,444 C341,445 346,445 354,445 L365,445 L365,442 C365,441 363,435 361,428 C355,411 354,408 352,405 C351,404 351,402 351,401 C351,399 359,394 367,393 C373,392 374,392 374,390 C370,366 369,344 371,332 C372,324 373,320 377,313 C378,311 378,309 378,309 C377,308 368,314 366,317 C365,319 362,322 360,324 C359,326 358,328 358,329 C358,330 355,332 352,334 C346,339 343,344 343,349 C343,354 341,355 336,353 C330,349 326,343 323,332 C321,322 321,322 322,318 C323,316 326,311 329,308 C334,302 335,301 344,296 C355,291 361,290 368,292 C370,293 375,294 380,294 C389,295 390,295 393,293 C396,291 397,290 398,287 C399,283 398,283 395,284 C391,286 390,286 385,282 C382,279 382,279 382,273 L382,268 C383,268 386,265 389,262 C394,257 397,255 402,254 L408,252 L400,252 C393,252 391,251 391,248 C391,247 394,245 399,243 C403,241 406,239 406,238 C405,236 379,234 354,234 C337,235 305,236 305,237 C304,237 304,251 304,267 C304,283 303,303 303,312 C302,320 302,329 303,331 C303,333 303,338 302,343 C301,348 301,352 301,353 C301,354 301,375 302,401 L302,448 C303,449 315,447 317,446 L317,446 Z M373,433 L371,433 L372,433 L373,433 L373,433 Z M370,425 C370,424 369,424 369,424 C368,424 367,424 367,425 C367,425 367,426 368,426 C369,426 370,425 370,425 L370,425 Z M367,417 C367,416 366,416 366,416 C365,416 365,416 365,417 C365,417 365,418 366,418 L367,417 L367,417 Z M371,407 L369,407 L370,407 L371,407 L371,407 Z M433,333 C434,331 435,327 435,323 C436,317 435,316 434,316 C434,316 432,316 432,318 C431,319 430,320 429,320 C427,320 428,325 431,328 C433,330 432,332 429,332 C426,332 425,333 427,335 C429,338 431,337 433,333 L433,333 Z M348,324 C350,321 353,317 354,316 L360,310 C363,309 367,306 369,304 C372,303 374,301 374,301 C374,300 371,299 367,299 L360,297 L357,300 C354,303 352,304 350,304 C345,304 343,305 347,306 C350,307 350,310 348,312 C347,312 347,314 347,315 C347,316 346,317 344,319 C340,321 340,322 340,325 C340,329 341,330 343,330 C343,330 345,328 348,324 L348,324 Z M332,322 C332,321 331,321 331,321 C330,321 330,322 330,323 C330,323 330,324 331,324 C331,324 332,323 332,322 L332,322 Z M427,309 C429,304 429,303 426,300 C424,298 422,297 419,298 C416,298 415,298 415,300 C414,301 415,302 417,302 C420,302 421,303 421,307 C420,310 422,313 424,313 C425,313 426,311 427,309 L427,309 Z M442,293 C442,291 441,291 440,291 C439,291 439,292 439,294 C439,297 439,298 440,297 C441,296 442,294 442,293 L442,293 Z M465,291 C468,288 468,287 466,284 C464,280 464,280 460,280 L456,280 C456,281 457,283 458,286 C459,289 461,292 461,293 C461,294 461,296 462,296 C463,296 464,294 465,291 L465,291 Z M431,292 C431,290 427,285 425,286 C423,287 423,290 426,292 C430,295 431,295 431,292 L431,292 Z M397,274 C399,272 404,269 407,267 C414,263 415,262 410,261 C406,260 402,262 398,266 C390,274 389,280 397,274 L397,274 Z M478,275 C479,274 476,269 473,267 C470,263 465,262 460,261 C456,261 455,261 455,263 C454,264 455,265 457,265 C461,265 464,266 471,271 C476,276 477,276 478,275 L478,275 Z M441,271 C443,270 444,267 444,265 C445,262 445,262 441,261 C434,260 431,261 431,267 C431,269 431,271 433,272 C436,275 438,274 441,271 L441,271 Z M417,261 C418,260 417,259 416,261 C415,262 415,263 415,263 C416,263 417,262 417,261 L417,261 Z M421,250 C418,247 415,246 413,246 C412,246 411,246 411,247 L411,248 C412,248 414,250 417,252 C421,256 422,256 424,255 C426,254 426,254 421,250 L421,250 Z M443,251 C444,250 447,248 450,247 C453,245 456,244 456,243 C457,242 452,242 448,244 C444,246 436,252 436,253 C435,254 441,253 443,251 L443,251 Z M435,245 C436,243 439,241 441,240 C442,240 444,239 444,238 C444,236 442,236 437,237 C434,237 431,238 430,239 C429,240 428,240 426,239 C423,237 418,237 419,238 C419,240 429,247 431,247 C431,247 433,246 435,245 L435,245 Z M415,227 C417,226 419,226 420,227 C421,227 422,227 421,226 C421,225 406,221 397,219 C390,218 388,219 384,220 C382,222 380,223 380,223 C380,224 385,225 391,225 C398,225 405,226 407,226 C411,228 412,228 415,227 L415,227 Z M406,204 C406,201 405,200 403,201 C399,201 398,205 402,207 C405,209 406,209 406,204 L406,204 Z" id="delivery"></path>
        </g>
    </g>
</svg>