<?xml version="1.0" encoding="UTF-8" standalone="no"?>
<svg width="340px" height="451px" viewBox="0 0 340 451" version="1.1" xmlns="http://www.w3.org/2000/svg" xmlns:xlink="http://www.w3.org/1999/xlink">
    <!-- Generator: Sketch 3.8.3 (29802) - http://www.bohemiancoding.com/sketch -->
    <title>discovery</title>
    <desc>Created with Sketch.</desc>
    <defs></defs>
    <g id="Page-1" stroke="none" stroke-width="1" fill="none" fill-rule="evenodd">
        <g id="Discovery" transform="translate(-235.000000, -240.000000)" fill="#434343">
            <path d="M236,689 C235,686 236,685 242,684 C245,683 248,682 248,681 C249,680 249,677 249,670 C248,665 248,660 248,658 C249,656 248,655 247,654 C245,651 246,649 250,648 C264,644 278,655 276,667 C275,671 274,673 271,676 C264,682 258,686 250,688 C240,691 237,691 236,689 L236,689 Z M263,675 C271,669 272,661 265,656 C257,651 254,654 255,667 C256,674 257,678 258,678 C259,678 261,676 263,675 L263,675 Z M556,686 C556,682 557,678 559,673 L561,667 L553,659 C545,651 543,647 544,645 C546,642 549,643 551,647 C554,652 561,659 563,658 C564,658 565,655 566,652 C569,643 569,642 572,642 C576,642 575,647 568,669 C561,688 562,688 559,688 C558,688 556,687 556,686 L556,686 Z M286,685 C284,683 284,683 285,664 C286,652 287,650 289,650 C292,650 292,653 292,670 L292,686 L289,686 C288,686 286,686 286,685 L286,685 Z M472,684 C470,683 466,682 462,682 C458,682 455,681 454,681 C453,680 453,671 454,667 C454,665 455,661 455,658 C456,650 458,645 461,644 C465,643 475,643 477,645 C482,648 479,652 473,650 C468,649 465,650 464,654 C461,661 462,662 470,662 C475,663 477,663 477,666 C477,669 472,670 466,669 C461,668 461,668 462,671 C462,674 463,674 468,675 C478,678 481,679 480,682 C480,686 477,686 472,684 L472,684 Z M522,682 C519,681 516,678 515,677 C513,676 511,674 509,674 C507,673 507,673 507,677 C507,682 504,684 501,683 C499,682 498,678 499,669 C501,656 501,656 499,654 C494,651 501,645 511,644 C523,643 526,654 516,664 C514,666 512,668 513,668 C516,671 525,675 528,676 C534,677 535,680 531,683 C528,685 527,685 522,682 L522,682 Z M512,658 C516,655 516,650 513,650 C511,650 509,652 508,656 C507,660 508,661 509,661 C510,661 511,659 512,658 L512,658 Z M345,681 C336,674 334,663 340,655 C344,648 355,644 358,648 C360,650 359,653 356,653 C353,653 347,656 345,659 C342,665 344,670 349,675 C351,678 352,678 358,677 C365,677 368,677 368,680 C368,682 362,684 355,684 C350,684 348,683 345,681 L345,681 Z M305,680 C304,679 304,677 304,676 C304,674 305,674 310,673 C319,673 320,671 317,668 C310,661 308,657 308,653 C308,649 310,646 317,646 C321,645 323,646 324,647 C328,650 327,653 322,652 C319,652 315,654 315,656 C315,656 317,659 320,662 C326,668 328,671 325,675 C322,680 309,684 305,680 L305,680 Z M379,676 C374,672 373,665 377,657 C380,651 380,651 385,650 C389,649 390,650 392,651 C393,652 394,653 394,654 C394,655 395,657 396,660 C400,666 399,670 395,674 C392,677 391,678 387,678 C382,679 381,678 379,676 L379,676 Z M390,669 C392,667 393,666 392,664 C390,658 387,657 383,662 C381,666 381,668 383,670 C386,672 388,672 390,669 L390,669 Z M418,677 C416,676 415,672 412,662 L410,652 C412,649 418,652 418,656 C418,659 420,665 421,665 C422,665 423,663 424,661 C425,659 428,655 431,652 C436,648 437,646 439,647 C444,647 443,650 436,656 C432,660 429,664 427,669 C423,677 421,679 418,677 L418,677 Z M247,558 C245,556 245,553 244,539 C244,530 243,521 242,520 C242,518 242,515 243,510 C244,499 244,436 243,433 C242,432 241,429 241,426 C241,423 241,421 242,420 C244,418 245,418 257,419 C265,419 276,419 282,418 C299,417 301,417 328,416 C341,416 353,415 354,414 C354,414 362,414 371,413 C386,413 387,413 389,415 C390,416 390,418 390,421 C390,423 389,430 389,435 C389,441 388,446 388,448 C387,449 386,461 385,474 C384,495 384,507 386,543 C386,553 385,556 382,557 L374,557 C370,556 362,556 357,556 C351,556 332,556 316,557 C280,558 254,559 251,560 C249,560 248,560 247,558 L247,558 Z M277,549 C278,549 277,547 277,546 C276,544 275,543 270,544 C267,544 265,545 264,546 C262,547 260,547 258,544 C257,541 259,538 263,535 C267,532 268,530 264,531 C257,533 256,533 255,530 L253,527 L252,529 C250,532 250,532 252,533 C253,534 254,536 254,541 C254,545 254,549 255,549 C256,550 276,550 277,549 L277,549 Z M317,550 C321,549 322,549 321,547 C320,543 320,543 314,542 C311,542 309,542 308,544 C307,545 305,546 304,547 C303,549 303,549 304,550 C307,551 311,551 317,550 L317,550 Z M356,548 C360,548 362,547 362,546 C363,543 361,541 355,541 C350,541 349,541 346,544 C344,546 341,547 340,548 C338,548 340,548 344,548 L356,548 L356,548 Z M290,543 C290,542 292,540 294,539 C298,537 301,533 302,530 C302,528 303,526 304,526 C304,525 305,522 305,518 L306,512 L302,511 C300,511 298,510 296,508 C295,507 293,507 293,507 C291,507 288,514 287,522 C286,526 285,530 284,530 C284,531 283,534 283,536 C283,540 284,542 286,544 L288,546 C288,546 289,545 290,543 L290,543 Z M338,539 L335,539 C334,539 334,539 336,539 L338,539 L338,539 Z M371,535 C374,533 373,531 370,531 C369,531 367,530 367,529 C364,526 363,527 362,531 C360,537 360,538 365,537 C367,537 370,536 371,535 L371,535 Z M277,525 C277,523 276,522 275,522 C274,521 274,522 274,525 C274,527 273,529 272,529 C272,529 272,530 273,531 C274,533 274,532 275,530 C276,528 276,526 277,525 L277,525 Z M348,523 C348,514 347,511 340,499 C337,495 334,494 334,498 C334,499 332,502 329,505 C323,510 323,512 325,516 C328,523 333,528 341,530 C345,531 348,532 348,532 C349,532 349,528 348,523 L348,523 Z M372,522 C376,520 376,520 375,518 C374,516 373,516 372,517 C370,518 369,519 368,519 C366,519 365,520 365,522 C363,525 364,527 366,525 C367,524 370,523 372,522 L372,522 Z M255,520 C258,518 258,517 255,516 C252,515 251,516 251,519 C251,521 251,521 255,520 L255,520 Z M375,508 L375,504 C375,501 375,501 372,501 C369,501 366,501 365,502 C363,502 362,503 363,505 C363,507 364,509 365,509 C366,511 374,510 375,508 L375,508 Z M267,505 C275,501 282,495 283,491 C283,489 284,487 285,487 L285,482 C285,478 285,478 281,478 C273,477 261,487 259,496 C259,498 258,501 257,503 C256,504 256,505 257,507 C258,509 259,509 267,505 L267,505 Z M306,494 C306,493 305,491 304,490 C303,490 302,488 301,486 C299,482 295,481 296,485 C296,486 297,487 298,487 C299,487 299,487 299,488 L299,489 C300,489 301,489 301,490 C301,494 302,496 304,496 C305,496 306,495 306,494 L306,494 Z M366,495 C366,494 368,494 371,493 C373,492 375,492 375,491 C374,489 358,492 358,494 C358,496 365,496 366,495 L366,495 Z M317,492 C321,491 320,490 317,490 C315,490 314,491 314,491 C313,493 314,493 317,492 L317,492 Z M355,486 C357,485 360,484 360,484 C360,483 359,482 358,481 C356,479 355,479 353,481 C350,483 347,486 348,487 C349,488 349,488 355,486 L355,486 Z M259,479 C265,473 265,471 258,474 C254,475 253,478 253,482 C253,484 254,484 259,479 L259,479 Z M311,481 C311,478 309,476 307,477 C307,477 306,477 307,477 C308,475 304,472 302,472 C300,473 300,473 305,478 C308,481 311,484 311,484 L311,481 L311,481 Z M324,482 C324,481 323,481 323,481 C321,481 320,482 321,483 C322,484 324,484 324,482 L324,482 Z M338,476 C338,475 340,474 341,474 C344,473 357,461 358,458 C358,457 359,456 359,456 C361,456 364,447 363,445 C363,444 362,444 361,444 C359,444 349,447 349,447 C348,448 346,449 344,449 C339,451 329,461 329,464 C329,466 329,467 331,469 C332,470 333,472 334,474 C335,478 336,478 338,476 L338,476 Z M367,472 C368,471 367,471 366,471 C366,471 365,471 366,471 C366,470 366,469 367,469 C368,469 369,469 370,468 C371,466 373,465 375,465 C378,464 378,461 379,440 C380,424 380,423 374,423 C370,422 369,423 365,427 C362,430 361,432 361,434 C361,439 361,440 366,440 C370,440 371,440 373,442 C375,445 376,446 375,451 C375,454 374,457 373,458 C372,459 372,460 372,460 C372,461 369,464 366,467 C363,470 361,473 361,474 L364,474 C366,474 367,473 367,472 L367,472 Z M269,471 C269,470 268,470 268,470 C268,470 267,470 267,471 C267,472 267,473 268,473 C268,473 269,472 269,471 L269,471 Z M315,470 C316,468 315,468 312,468 C309,468 309,468 311,470 C313,472 314,472 315,470 L315,470 Z M293,461 C294,460 295,459 295,458 C296,456 280,441 277,440 C270,438 268,437 268,438 C268,439 266,439 264,439 C258,438 259,442 265,448 C266,449 267,451 267,451 C267,452 270,455 273,458 L278,463 L284,463 C290,463 291,463 293,461 L293,461 Z M255,454 C256,452 254,449 253,450 C252,451 252,455 253,455 C254,455 255,454 255,454 L255,454 Z M309,451 C309,450 312,447 314,445 C318,440 324,429 324,426 C324,425 322,425 315,425 L303,425 L300,426 L300,431 C300,438 302,448 303,448 C304,449 305,450 305,451 C305,454 307,454 309,451 L309,451 Z M340,442 C343,441 343,440 343,439 C343,438 342,436 342,435 C341,433 341,431 340,431 C339,430 339,428 339,427 C339,426 338,425 337,425 C336,425 335,428 334,434 C334,436 333,439 332,440 C331,441 331,443 331,444 C331,445 331,446 334,445 C335,445 338,444 340,442 L340,442 Z M291,433 C291,426 289,425 276,427 C272,428 271,429 274,430 C277,431 287,436 287,437 C287,437 288,438 289,438 C290,438 291,436 291,433 L291,433 Z M257,431 C258,431 259,430 259,429 C259,427 252,427 251,429 C250,431 253,432 257,431 L257,431 Z M418,553 C410,549 410,550 410,524 C409,469 409,420 410,418 C411,416 415,416 417,418 C419,418 424,418 440,417 C473,413 486,412 519,413 L550,413 L554,416 L557,419 L557,460 C557,482 556,508 556,519 C556,529 556,538 557,538 C557,538 558,540 558,543 C559,547 558,549 552,552 C549,553 547,553 542,553 C537,552 535,553 531,554 C528,556 527,556 523,554 C518,553 514,552 488,553 C454,553 437,554 429,555 C423,555 421,555 418,553 L418,553 Z M432,546 L432,542 C431,540 431,538 429,538 C427,537 425,534 426,532 C426,531 428,531 429,531 C432,531 433,529 430,527 C428,526 428,525 428,523 C429,520 431,519 433,520 C435,521 439,520 438,518 C438,516 431,514 426,514 C424,514 422,513 422,512 L420,512 C418,513 418,527 420,530 C420,531 421,534 421,538 C422,546 423,548 428,547 C430,547 431,546 432,546 L432,546 Z M485,544 L478,537 C471,530 470,529 469,526 C468,524 467,525 467,529 C467,530 466,532 466,533 C465,534 464,537 464,540 L463,545 L474,545 C480,545 485,544 485,544 L485,544 Z M499,542 L498,542 C497,542 497,542 497,543 C497,544 497,544 498,544 C498,544 499,543 499,542 L499,542 Z M539,544 C540,543 540,542 538,538 C537,536 535,533 534,533 C532,532 534,528 537,526 C540,525 540,525 538,525 C537,525 535,523 534,522 C532,520 532,519 534,517 C535,515 535,515 534,515 C533,515 531,514 530,513 C528,510 529,507 532,507 C533,507 535,506 535,506 C535,505 534,505 533,505 C532,505 530,503 528,502 L526,499 L528,498 C530,496 530,495 530,493 C529,489 531,488 541,487 C547,486 549,485 546,484 C545,483 544,484 544,484 C543,486 541,486 541,485 C541,484 538,484 535,484 C528,484 525,482 526,479 C526,478 527,477 530,477 C531,476 534,476 534,475 C535,475 538,474 542,475 L548,475 L548,471 C547,465 547,465 545,466 C545,467 538,467 530,467 C518,467 516,467 516,466 C514,462 514,461 517,460 C519,459 520,459 519,457 C518,453 520,451 529,451 C537,450 540,451 540,455 C540,458 540,458 543,459 C545,460 547,460 548,460 C548,460 549,456 549,453 L549,447 L539,447 L530,447 L531,443 C532,439 532,439 538,439 C541,439 543,439 543,438 C544,437 542,437 539,437 C535,437 533,436 532,435 C530,433 529,433 529,434 C529,436 521,445 519,445 C518,445 517,445 516,447 C516,448 515,449 514,449 C514,449 511,450 507,451 C504,453 500,455 499,455 C497,456 497,459 499,459 C501,459 511,467 516,474 C522,481 524,491 521,498 C521,500 520,501 518,500 C516,500 515,500 515,501 C514,501 518,510 520,511 C521,512 522,513 522,514 C522,515 522,516 523,516 C524,517 525,519 525,521 C525,522 526,524 527,524 C528,525 529,527 531,535 C532,543 535,546 539,544 L539,544 Z M519,536 C520,535 519,533 519,532 C518,531 517,528 516,525 C515,523 513,521 513,521 C512,521 512,520 512,519 C512,518 511,516 510,515 C508,513 508,512 508,511 C508,510 505,506 501,503 C493,495 492,496 494,504 C495,510 495,525 494,530 C494,531 494,533 495,534 C497,536 498,536 500,535 C503,534 503,533 501,531 C498,529 498,525 500,524 L506,524 C513,524 517,528 513,532 C511,533 511,534 514,536 C516,539 519,539 519,536 L519,536 Z M455,535 L455,530 C459,523 459,523 458,518 C457,515 455,511 453,508 L450,504 L449,508 C447,513 447,518 448,525 C450,534 452,538 454,538 C455,538 456,537 455,535 L455,535 Z M480,517 C483,512 484,508 481,503 C480,501 478,498 476,496 C474,494 472,492 471,490 L470,488 L467,491 C464,493 464,494 466,496 C467,497 468,500 468,504 C470,511 475,520 477,520 C477,520 479,519 480,517 L480,517 Z M546,515 C548,514 548,506 546,505 C543,503 542,504 544,507 L544,513 C543,516 543,516 546,515 L546,515 Z M429,506 C433,505 435,506 436,506 C437,507 438,507 438,505 C439,502 438,499 436,499 C432,501 427,501 425,499 C424,498 424,497 424,496 C424,494 427,493 430,493 C433,493 439,491 439,490 C439,489 435,488 428,487 C424,486 423,486 423,484 C423,483 424,482 429,480 C434,478 434,478 437,480 C439,482 439,482 442,478 C443,477 444,474 444,473 C444,471 444,471 437,472 C432,472 427,473 425,473 C422,474 421,473 421,472 C420,470 420,469 421,468 C423,466 434,464 444,463 L450,462 L454,457 C456,453 458,450 458,448 C458,446 458,444 461,441 C462,440 464,437 465,435 C466,433 467,432 468,432 C469,432 472,430 475,429 C477,428 480,426 481,426 L487,424 L492,422 L483,422 C471,422 453,423 444,425 L436,426 L445,427 C450,427 454,428 455,429 C456,430 457,431 458,431 C459,431 459,431 458,433 C457,434 453,434 443,435 C422,436 418,436 418,439 C418,440 418,440 424,440 C428,440 435,440 441,439 C451,438 455,439 455,443 C455,446 451,447 441,447 L431,447 C431,448 428,448 425,448 C422,448 419,449 418,449 C418,450 417,453 417,457 C417,465 418,506 419,507 L422,507 C423,507 426,506 429,506 L429,506 Z M457,484 C458,482 460,480 460,479 C460,478 461,478 462,478 C462,478 463,476 465,473 C466,471 468,467 469,466 C471,461 471,458 467,458 C465,457 464,458 462,461 C460,463 459,465 459,466 C459,467 458,468 458,468 C457,468 457,468 457,469 C457,469 455,472 454,475 C453,477 451,481 451,483 C450,486 451,487 452,487 C454,487 456,485 457,484 L457,484 Z M511,481 C511,479 510,478 505,474 C501,470 500,469 495,466 C492,464 489,463 487,463 C486,463 484,462 484,461 C483,460 482,460 481,462 C478,465 484,475 491,477 C492,478 496,479 499,479 C503,479 505,479 507,480 C510,483 511,483 511,481 L511,481 Z M476,446 C478,443 478,443 486,443 C491,444 499,441 504,438 C506,437 509,436 510,436 C513,436 514,436 514,434 C515,429 506,428 491,432 C488,432 487,433 487,434 C487,434 485,435 482,435 C478,436 470,441 469,444 C468,447 469,449 472,449 C474,449 476,448 476,446 L476,446 Z M546,438 C546,437 545,437 545,437 C545,437 545,437 545,438 L545,440 C546,440 546,439 546,438 L546,438 Z M540,428 C547,428 549,426 547,424 C545,422 518,419 517,421 C516,423 519,426 523,427 C524,427 526,428 526,428 C526,429 526,430 528,430 C529,431 530,431 532,429 C533,428 535,428 540,428 L540,428 Z M306,392 C303,391 302,390 302,391 C301,392 301,392 299,391 C297,391 288,390 279,390 C264,390 256,390 242,392 C240,393 238,392 237,391 C235,389 235,385 237,384 C238,383 238,380 238,375 C238,371 239,365 240,361 C240,356 241,349 242,343 C242,338 243,330 243,326 C245,317 245,266 243,260 C241,250 241,250 243,249 C244,248 247,248 249,248 C252,248 255,247 255,246 C256,246 274,245 320,244 L385,244 C386,244 387,246 388,248 C389,252 390,257 390,307 C390,384 390,384 383,384 C381,384 380,384 380,385 C379,389 374,389 345,390 C321,390 318,390 315,392 C312,394 311,394 306,392 L306,392 Z M302,382 C303,380 300,367 299,366 C297,365 296,361 293,353 C290,344 286,334 284,333 C283,332 282,330 281,328 C281,325 279,321 278,319 C277,316 276,313 276,312 C276,311 275,310 275,310 C274,310 273,308 273,306 C273,304 272,301 271,300 C269,296 268,287 270,286 C270,285 272,284 273,282 C275,279 276,279 279,279 C284,279 306,276 306,275 C307,273 326,272 344,271 C353,271 360,271 360,270 C360,270 362,270 363,271 L367,271 C368,270 371,270 374,271 C380,272 380,271 380,264 C380,257 380,255 376,254 C372,252 290,252 270,253 C263,254 256,255 255,255 C254,256 252,257 251,257 C250,257 249,258 250,261 C251,269 252,294 252,304 C252,310 251,326 250,339 C248,366 248,372 250,374 C250,374 251,376 251,378 C251,379 251,381 252,381 C252,382 260,382 268,382 C277,381 285,382 287,382 C288,383 292,383 295,383 C300,383 302,383 302,382 L302,382 Z M379,378 L379,367 C380,363 381,346 381,330 L382,300 L379,299 C378,299 374,298 372,298 C370,298 364,299 359,299 L327,299 L304,300 L306,302 C308,304 310,304 327,304 C342,305 346,305 347,307 C348,309 348,309 345,310 C342,312 341,313 343,316 C344,318 345,319 344,320 C343,322 341,322 327,322 C312,322 308,322 310,324 C311,325 340,325 344,324 C348,323 349,324 350,325 C353,328 353,330 351,332 C350,333 350,334 351,336 C352,337 352,341 352,344 C352,350 352,351 350,353 L348,354 L351,357 C353,359 353,360 352,362 C352,363 351,364 350,365 L350,367 C351,369 351,370 350,372 C348,373 346,374 340,374 C333,374 330,374 331,376 C332,378 338,378 339,377 C339,377 343,376 348,376 C357,375 357,375 358,378 C359,381 360,381 374,381 L379,381 L379,378 L379,378 Z M343,355 C344,355 339,355 333,355 C321,355 318,356 328,356 C334,357 342,357 343,355 L343,355 Z M335,346 C334,345 327,343 326,344 C324,345 327,347 331,347 C334,347 335,346 335,346 L335,346 Z M306,313 L303,313 C302,313 302,313 304,313 L306,313 L306,313 Z M341,290 L339,290 L340,290 L341,290 L341,290 Z M296,288 C297,286 296,286 291,286 C287,287 287,287 290,288 C293,290 295,290 296,288 L296,288 Z M412,386 C411,384 411,379 411,367 C411,357 411,349 410,349 C409,348 409,343 411,340 C412,338 412,334 412,327 C412,321 413,314 413,311 C414,303 413,274 411,267 C411,263 410,259 410,256 C409,251 410,251 413,247 L416,244 L444,243 C459,242 474,241 477,241 L513,241 C530,241 544,240 546,240 C552,240 553,240 557,241 C564,243 564,243 563,271 C563,285 562,302 562,310 C561,320 562,324 563,325 C564,326 563,332 561,333 C560,334 559,338 559,355 C559,371 559,377 560,378 C561,379 561,380 560,381 C559,384 555,385 552,384 C544,382 532,381 507,381 C481,381 467,382 439,384 C434,385 428,385 426,385 C424,384 422,385 422,386 C420,388 413,388 412,386 L412,386 Z M478,374 C479,373 480,331 479,330 C478,329 477,329 474,332 C472,334 468,337 466,338 C464,339 460,341 459,342 C457,343 455,344 455,344 C454,345 452,346 449,348 C439,353 435,356 435,359 C434,361 433,362 431,363 C427,364 427,364 425,362 C423,360 421,360 420,362 C420,364 420,373 421,374 C421,375 430,375 450,375 C465,375 478,374 478,374 L478,374 Z M547,374 C549,373 549,375 550,347 L550,341 L544,341 C536,340 526,338 521,335 C517,332 511,327 506,322 L503,319 C502,319 497,311 497,310 C497,310 496,309 496,308 C495,308 493,306 492,304 L490,301 L489,304 C487,307 487,330 488,336 C489,338 489,343 489,347 C489,351 490,356 490,358 C491,363 493,372 493,373 C493,374 502,374 547,374 L547,374 Z M429,342 C431,341 435,339 438,338 C440,337 444,336 446,335 C447,334 449,333 450,333 C452,333 458,330 465,325 C467,323 469,321 469,319 C470,317 471,316 472,316 C472,316 473,315 473,314 C473,313 472,313 472,313 C471,313 470,314 468,314 C466,315 465,316 465,317 C465,318 447,330 445,330 C444,330 442,330 441,332 C439,333 437,334 436,334 L434,334 C434,335 431,337 427,339 C421,342 419,344 421,346 C422,347 424,346 429,342 L429,342 Z M428,330 C430,328 432,327 433,326 C433,325 435,324 437,323 C439,323 443,320 446,318 C449,316 452,315 453,315 C454,315 455,314 455,313 C456,310 467,305 471,306 C473,306 473,306 474,304 L474,301 C473,300 460,301 456,302 C455,303 453,304 451,304 C450,305 448,306 447,306 C445,306 442,308 437,313 C435,314 433,316 432,317 C429,318 423,328 423,330 C423,332 423,332 428,330 L428,330 Z M543,328 C542,327 541,326 539,325 C530,318 525,311 525,306 C525,305 523,303 522,301 C517,295 516,293 516,292 C516,292 515,291 513,291 C512,291 509,288 506,285 C500,280 495,279 496,283 C497,287 506,299 510,302 C513,304 515,306 515,307 C515,307 516,310 518,312 C520,314 522,317 522,317 C522,318 534,327 537,328 C541,329 544,329 543,328 L543,328 Z M553,312 C553,306 553,305 550,303 C549,301 548,300 548,299 C548,298 547,297 547,296 C546,295 545,293 545,292 C545,291 543,290 542,290 C541,289 539,288 539,288 L539,284 C538,276 526,268 511,267 C506,266 501,266 500,266 C493,267 493,268 493,269 C493,270 494,271 497,271 C499,271 502,272 502,273 C502,273 503,274 505,274 C506,274 507,274 507,275 C507,275 507,276 508,276 C513,278 527,292 530,297 C531,299 532,301 532,302 C533,302 534,303 534,305 C535,308 544,318 548,320 C551,322 552,320 553,312 L553,312 Z M427,307 C429,304 449,295 451,295 C452,295 454,294 454,293 C455,292 462,292 473,292 C477,292 477,291 478,288 C478,286 478,281 477,278 C477,274 476,269 476,268 C476,266 476,263 475,262 C475,261 474,258 474,255 L474,249 L457,250 C436,251 422,252 420,254 C419,255 419,259 420,271 C421,280 422,292 422,298 C423,309 423,310 427,307 L427,307 Z M554,272 C554,265 555,259 555,258 L555,255 C552,251 532,247 515,248 L498,248 C491,249 489,250 488,255 L487,259 L492,258 C502,256 523,258 527,260 C527,261 530,262 533,263 C537,265 545,271 545,273 C545,274 552,284 554,284 L554,272 L554,272 Z M306,450 C306,448 306,448 307,449 C307,450 308,451 307,451 C307,451 306,451 306,450 L306,450 Z M421,461 C420,461 419,460 419,459 C419,458 421,456 423,455 C425,455 440,453 441,452 C442,451 446,455 446,457 C446,459 442,461 436,461 C433,461 430,461 430,462 C429,463 425,463 421,461 L421,461 Z" id="discovery"></path>
        </g>
    </g>
</svg>