<?xml version="1.0" encoding="UTF-8" standalone="no"?>
<svg width="1000px" height="600px" viewBox="0 0 1000 600" version="1.1" xmlns="http://www.w3.org/2000/svg" xmlns:xlink="http://www.w3.org/1999/xlink">
    <!-- Generator: Sketch 3.8.3 (29802) - http://www.bohemiancoding.com/sketch -->
    <title>organise</title>
    <desc>Created with Sketch.</desc>
    <defs></defs>
    <g id="Page-1" stroke="none" stroke-width="1" fill="none" fill-rule="evenodd">
        <g id="Organise">
            <g id="organise">
                <path d="M0,300 L0,0 L500,0 L1000,0 L1000,300 L1000,600 L500,600 L0,600 L0,300 L0,300 Z M218,477 C219,477 222,478 224,478 C227,478 229,478 232,476 C239,473 240,471 236,468 C233,466 233,465 233,461 C234,456 233,456 228,452 C225,449 221,447 219,446 C217,446 214,445 213,444 C209,442 188,445 183,448 C181,450 176,459 176,462 C176,466 177,469 180,469 C181,469 182,470 183,471 C184,473 189,477 192,477 C196,477 197,474 197,468 C198,461 198,460 202,460 C206,460 207,462 203,462 C199,463 197,466 200,469 C202,470 203,472 203,473 C203,474 204,475 205,477 C207,478 208,479 211,478 C213,478 216,477 218,477 L218,477 Z M273,472 C274,472 276,471 279,471 L288,471 C293,470 294,470 295,468 C295,467 297,464 298,461 C301,458 301,456 301,454 C300,452 301,451 303,449 C304,448 306,446 306,445 C306,445 306,443 308,441 C310,439 310,438 309,434 C308,432 308,429 308,427 C308,425 308,424 307,422 C305,420 305,419 305,418 C305,417 296,410 291,407 C285,404 274,406 269,411 C267,412 265,414 264,414 C260,414 253,419 250,424 C245,431 244,434 245,437 C246,438 247,441 247,443 C247,447 251,461 253,463 C253,464 255,465 257,465 C260,465 261,466 259,468 C257,469 257,470 259,473 C261,474 262,475 266,474 C269,474 272,473 273,472 L273,472 Z M147,472 C149,471 151,471 152,472 C154,473 161,473 164,471 C165,470 165,469 165,462 C164,456 164,455 165,453 C166,452 167,452 168,452 C169,452 170,450 171,449 C172,446 170,444 167,444 C164,444 163,442 160,436 C158,432 156,431 148,428 C146,427 142,425 139,423 C136,421 134,421 129,421 C122,420 116,423 108,431 C100,439 96,447 96,458 C95,467 97,470 102,471 C104,472 108,469 109,466 C109,464 114,467 116,470 C116,472 117,472 119,472 C123,471 124,470 123,467 C122,464 123,464 129,463 C134,462 134,462 133,465 C132,469 133,472 135,471 C136,471 138,471 139,472 C141,474 142,474 147,472 L147,472 Z M795,470 C796,468 797,468 799,468 C803,469 805,467 805,458 C805,452 805,449 806,448 C807,447 807,445 807,444 C808,442 804,437 801,435 C799,434 795,431 792,428 C789,425 785,421 783,420 C778,417 777,417 765,417 C751,417 751,417 745,420 C741,422 736,425 735,426 C729,429 719,440 718,443 C718,445 716,447 715,449 C713,452 714,454 718,456 C719,457 721,459 722,460 C725,467 727,468 731,464 C732,462 734,462 735,462 C738,462 738,464 735,466 C733,466 732,467 732,468 C732,471 734,473 736,472 C738,471 754,470 769,469 C779,468 781,469 784,470 C786,471 788,472 788,473 C788,473 789,474 790,474 C793,474 794,473 795,470 L795,470 Z M440,465 C443,464 445,462 446,461 C448,457 453,456 456,460 C459,463 462,463 467,462 C470,461 471,461 472,462 C474,464 478,463 481,460 C483,456 485,456 487,459 C489,461 493,461 495,459 C496,458 497,456 496,454 C496,452 495,445 495,438 C495,427 494,426 492,424 C490,422 486,422 486,425 C485,427 484,427 479,424 C477,422 475,421 473,422 C472,422 470,422 468,421 C461,417 458,417 450,417 C436,419 419,431 416,441 C415,443 416,444 418,446 C420,448 422,450 422,451 C422,452 423,453 425,455 C427,456 429,457 429,459 C429,462 432,467 434,466 C434,466 437,466 440,465 L440,465 Z M851,464 C854,463 858,463 861,463 C864,463 868,462 869,462 C872,460 880,460 881,462 C882,463 884,463 885,460 C885,458 887,456 889,455 C892,454 892,453 894,446 C895,441 895,437 894,435 C893,430 893,425 896,417 C897,410 897,409 896,407 C895,405 895,403 895,402 C895,401 893,400 892,399 C890,398 885,393 880,389 C875,384 870,379 868,379 C864,377 853,378 849,380 C847,381 845,382 844,382 C843,382 841,383 838,384 C831,388 823,396 820,404 C814,419 814,417 817,422 C819,426 819,426 817,429 C816,430 816,431 816,432 C815,434 818,440 820,442 C821,443 821,444 820,446 C819,448 819,448 821,450 C823,451 824,452 824,454 C824,461 828,466 831,463 C832,461 833,460 832,455 L832,449 C834,450 839,458 839,461 C839,463 841,465 844,465 C844,465 848,465 851,464 L851,464 Z M660,462 L667,462 C671,461 680,458 684,456 C685,455 686,453 686,448 C686,438 690,421 692,419 C693,417 693,411 691,409 C689,407 689,406 689,405 C689,404 683,399 682,399 C681,399 680,398 679,397 C678,395 673,392 668,390 L659,386 L650,387 C638,388 631,390 624,397 C618,402 615,408 615,413 C615,415 614,418 613,419 C611,421 611,423 611,424 C611,426 610,428 609,428 C609,429 609,430 610,433 C611,436 611,439 611,446 C610,454 611,456 612,457 C615,460 617,459 620,456 C623,454 624,453 627,454 C629,455 631,455 632,455 C632,455 633,456 634,458 C636,464 639,465 648,464 C652,464 658,463 660,462 L660,462 Z M383,456 C390,455 401,450 402,448 C403,446 400,442 398,441 C396,440 396,439 395,436 C394,431 394,430 397,430 C399,431 403,429 403,427 C403,426 403,424 404,423 C405,421 405,420 404,418 C403,416 402,412 402,408 C401,402 402,401 404,399 L406,396 L404,392 C400,384 394,379 388,377 C381,375 376,375 366,376 C351,378 344,383 339,394 C338,395 337,399 335,401 C333,405 333,408 335,411 C336,412 337,415 337,420 C337,428 339,433 344,438 C345,440 347,443 347,444 L347,449 C347,454 349,456 351,457 C353,457 354,458 355,459 C357,460 362,460 369,459 C372,458 378,457 383,456 L383,456 Z M549,453 C553,453 559,452 562,452 C565,451 570,451 573,451 C579,452 582,450 581,445 C581,443 581,441 583,439 C584,437 585,435 585,433 C585,432 586,430 587,428 C590,425 590,421 588,416 C587,414 586,409 586,406 C585,399 583,395 577,389 C571,384 571,384 566,385 C562,386 561,385 556,383 C551,381 550,381 545,381 C541,382 537,383 535,383 C530,385 521,392 519,396 C518,398 516,400 515,402 C512,407 512,418 515,424 C516,425 518,426 520,427 C524,428 524,428 522,430 C520,431 519,432 520,434 C520,436 520,437 517,438 C513,441 514,443 519,448 C522,453 523,453 527,452 C530,452 533,452 536,454 C538,455 540,455 541,454 C542,454 545,453 549,453 L549,453 Z M210,434 C217,432 225,424 227,419 C228,415 227,409 225,402 C224,397 221,394 211,389 C206,386 203,386 200,388 C194,392 187,408 186,417 C186,427 194,436 202,436 C203,436 207,436 210,434 L210,434 Z M139,407 C142,406 147,402 150,399 C156,393 156,393 158,382 C160,374 161,370 160,363 C160,359 159,354 158,353 C154,346 141,342 134,346 C130,348 120,357 120,359 C120,360 118,362 117,364 C114,368 113,372 111,382 C110,389 110,391 112,396 C114,402 118,407 122,409 C126,411 133,410 139,407 L139,407 Z M467,406 C472,402 479,392 479,388 C479,384 476,377 472,367 C469,362 468,360 465,359 C462,357 451,356 448,358 C441,360 434,371 433,379 L433,384 C432,386 433,394 435,398 C436,401 439,404 444,407 C446,409 456,410 460,409 C462,409 465,407 467,406 L467,406 Z M779,404 C787,399 793,395 793,393 C793,392 793,391 794,391 C797,388 795,376 790,370 C788,367 787,365 787,365 C787,364 784,363 781,362 C773,358 767,359 759,365 C749,371 744,380 746,391 C746,396 752,404 756,405 C758,406 760,407 761,408 C764,409 772,407 779,404 L779,404 Z M292,395 C302,388 302,387 302,373 C302,361 302,358 298,355 C297,354 296,352 294,350 C292,347 291,347 288,347 C285,347 283,347 281,349 C280,350 278,352 276,353 C273,355 267,364 266,369 C265,371 264,376 264,379 C263,386 265,390 271,395 C279,401 283,401 292,395 L292,395 Z M679,370 C684,365 685,363 685,359 C686,353 684,344 681,339 C679,336 678,335 674,333 C672,333 669,332 669,331 C668,330 662,331 658,333 C650,336 644,346 644,355 C643,363 647,371 653,374 C656,375 662,376 668,376 C673,376 673,375 679,370 L679,370 Z M559,371 C564,368 570,364 570,362 C570,361 570,359 572,356 C573,353 574,351 573,345 C573,341 572,336 572,334 C572,328 566,322 561,322 C556,321 547,327 542,332 C534,341 531,353 536,362 C540,372 549,375 559,371 L559,371 Z M865,368 C870,365 878,359 880,355 C886,346 885,337 879,325 C876,318 866,310 861,310 C853,310 842,319 836,329 C834,334 833,336 833,343 C832,350 833,352 835,356 C839,364 845,368 852,369 C861,370 863,370 865,368 L865,368 Z M384,358 C394,353 397,350 397,340 C397,334 396,333 392,326 C388,319 385,316 382,317 C381,317 378,316 376,314 L372,312 L367,314 C363,316 357,322 354,328 C353,330 352,334 352,338 C351,343 352,345 354,349 C357,355 361,359 365,360 C369,362 378,361 384,358 L384,358 Z M142,240 C149,238 156,234 160,230 C162,229 163,228 164,228 C164,229 165,229 164,228 C164,226 167,218 168,218 C168,219 168,218 168,217 C167,217 167,215 167,213 C168,212 167,209 167,208 C166,207 164,203 163,200 C161,196 159,192 158,192 C156,191 156,190 156,189 C156,188 150,183 146,181 C144,180 141,179 140,178 C138,177 134,177 132,179 C132,179 129,181 127,182 C124,184 121,187 120,189 C118,192 117,194 116,194 C116,194 116,194 116,195 C116,196 115,197 115,197 C114,197 111,202 109,209 C107,214 107,220 110,225 C111,228 113,231 113,231 C113,232 117,237 120,239 C123,241 133,243 136,242 C136,242 139,241 142,240 L142,240 Z M755,235 L763,231 C767,229 776,221 777,218 C779,215 780,206 778,206 L778,204 C778,203 777,203 777,203 C776,203 775,201 774,199 C773,196 764,188 761,188 L758,185 C756,183 754,181 752,180 C750,179 748,178 747,176 C744,173 745,170 749,170 C750,170 752,169 752,168 L754,168 C755,168 756,168 756,169 C756,169 756,170 757,170 C757,170 759,170 760,172 C762,174 764,174 767,171 C770,169 770,167 768,163 C766,159 761,157 753,157 C744,157 737,159 733,163 C730,166 730,166 731,171 C731,175 732,177 734,179 C735,180 735,181 735,181 C735,181 735,182 737,184 C738,185 739,187 740,187 C741,187 742,187 743,189 C743,190 745,191 746,191 C746,191 748,191 749,193 C749,194 751,195 751,195 C752,195 753,195 753,196 C753,196 753,197 754,197 C757,197 767,208 767,211 C767,212 759,220 757,220 C756,220 756,220 756,221 C756,221 755,222 754,222 C753,222 751,222 750,223 C748,225 734,225 734,224 C734,223 733,222 732,221 C729,218 726,218 725,220 C724,221 723,221 723,221 C722,221 722,223 722,226 C723,236 726,237 743,237 C748,237 751,236 755,235 L755,235 Z M228,233 C232,230 233,226 231,224 C230,223 229,222 230,215 C230,210 231,206 231,206 C232,205 238,208 242,211 C243,212 245,214 246,214 C246,214 248,214 249,216 C250,217 252,218 253,218 C254,218 255,218 255,219 C255,219 255,220 256,220 C257,220 260,220 262,222 C265,223 267,224 269,224 L274,224 C277,225 278,225 279,223 C281,222 282,220 282,219 C282,216 279,213 277,213 C276,213 275,212 274,212 C273,211 266,209 264,209 C260,208 249,201 249,199 C249,198 250,197 251,195 C254,192 260,184 260,182 C260,181 260,181 261,181 C262,181 262,173 260,170 C260,169 259,168 259,168 C258,168 257,167 256,166 C253,163 250,161 246,162 C240,162 230,164 224,167 L219,170 L218,180 C218,185 217,193 217,196 C217,199 216,207 216,214 C215,226 216,232 219,233 C222,235 226,235 228,233 L228,233 Z M880,231 C883,229 884,226 883,222 C882,219 881,219 877,218 L870,218 C867,220 858,220 848,219 L842,218 L842,213 C842,201 844,198 860,197 C865,197 869,196 869,196 C870,195 870,195 871,195 C873,195 874,191 872,188 L871,185 L859,186 L846,187 L847,183 C847,180 848,177 848,174 C849,168 850,166 853,166 C854,166 856,165 856,164 C857,163 860,164 876,166 C880,167 882,164 880,160 C878,156 877,156 869,154 C862,153 860,153 852,154 C847,155 842,156 841,157 C838,159 837,163 836,169 C836,172 834,176 833,179 C832,182 832,186 832,188 C832,190 831,192 831,192 C830,193 829,201 829,211 L828,229 L832,230 C833,231 840,232 846,232 L856,232 C856,233 861,233 867,233 C875,233 878,232 880,231 L880,231 Z M371,226 L377,224 C379,224 388,212 388,211 C388,210 388,210 389,210 C389,210 390,209 390,208 L390,205 C391,204 392,199 392,193 C393,181 392,179 387,179 C386,179 384,178 384,177 C383,177 382,177 379,180 C376,183 375,184 370,184 C365,185 361,185 359,185 C359,185 358,186 357,187 C354,189 354,196 356,198 C357,200 364,200 365,199 C366,197 376,197 378,198 C381,200 377,210 370,214 C367,216 356,217 352,216 C351,215 348,212 347,210 C344,205 343,204 343,196 C343,192 344,188 344,187 C345,187 346,185 346,184 C346,183 346,182 347,182 C347,182 348,181 348,180 C348,179 348,179 349,179 C349,179 350,178 350,177 C350,177 351,175 353,174 C355,172 357,170 359,169 C361,167 364,167 366,170 C370,175 377,168 375,162 C373,157 362,152 362,156 C362,156 361,157 360,157 C357,157 347,162 344,165 C339,170 335,179 332,189 C329,197 329,201 332,207 C333,209 333,211 334,212 C334,213 335,215 336,216 C341,222 347,228 349,229 C353,230 366,229 371,226 L371,226 Z M530,226 C531,224 533,222 533,221 L533,218 C533,217 533,215 534,213 C537,194 541,186 543,189 L545,191 C545,192 546,194 548,196 C552,200 555,205 554,207 C553,207 554,208 554,207 C555,207 556,208 558,210 C559,213 562,216 564,218 C566,220 567,222 567,222 C567,222 568,223 570,224 C573,226 574,227 576,225 C583,222 586,215 586,204 L586,196 C587,195 588,191 588,186 C588,180 588,175 590,170 C593,162 593,161 588,157 C587,156 585,155 584,155 C581,155 580,157 580,165 C580,169 579,173 579,173 C578,173 578,175 578,177 C578,180 577,183 577,183 C576,183 576,185 576,186 C576,193 574,206 573,207 C571,209 568,207 566,203 C566,202 564,200 563,198 C562,197 561,195 561,195 C561,194 560,194 560,194 C559,194 558,192 558,191 C558,189 557,187 556,187 L556,185 C556,184 554,182 552,180 C550,178 548,174 547,171 C543,161 535,157 532,164 C531,166 530,168 530,169 C530,170 530,173 529,175 C528,178 527,182 527,185 C526,188 525,193 524,195 C524,197 523,200 523,202 C523,204 522,206 521,206 L521,216 C521,224 521,225 523,227 C526,229 527,229 530,226 L530,226 Z M469,222 C471,221 471,218 472,212 L472,203 C469,201 471,195 475,195 C476,195 477,194 477,194 C477,193 477,193 479,193 C481,193 484,190 484,188 C484,185 481,184 476,184 C472,184 468,180 467,175 C466,171 464,167 463,167 L463,165 C463,164 460,161 458,159 C454,155 453,154 450,154 C447,154 446,155 443,163 C442,164 441,166 441,168 C440,169 439,171 438,173 C438,175 437,177 436,177 C436,177 436,177 436,179 C436,180 435,181 435,181 C434,181 434,182 434,183 C434,184 433,186 433,186 C432,186 432,186 432,187 C432,189 431,190 431,190 C430,190 430,191 430,193 C430,194 429,195 429,195 C428,195 428,195 428,196 C428,197 426,200 424,204 C422,208 421,212 421,213 C421,214 420,214 419,214 C418,213 421,218 423,220 C424,221 426,222 428,222 C432,222 434,219 434,216 C434,215 435,213 437,211 C438,209 439,207 439,205 C439,204 439,203 441,203 C442,203 444,202 444,201 C444,201 445,200 446,200 C448,200 450,200 451,199 C453,197 457,197 458,199 C458,200 458,203 457,207 C456,213 456,214 458,218 C459,221 460,222 462,223 C466,225 467,225 469,222 L469,222 Z M664,222 L664,217 C663,211 663,183 664,181 C666,179 666,171 664,168 C662,166 659,166 655,169 C653,172 653,173 653,177 C653,180 652,183 652,183 C651,184 650,191 649,205 C648,214 648,215 651,218 C655,223 655,223 659,223 C662,223 663,223 664,222 L664,222 Z M273,435 C271,433 269,432 269,432 C268,430 274,427 277,427 C280,428 280,430 278,431 L278,434 C278,438 277,438 273,435 L273,435 Z M125,450 L125,446 C125,442 125,442 128,442 C130,441 131,442 132,444 C132,446 132,447 131,448 C130,450 126,451 125,450 L125,450 Z M747,451 L747,443 C747,438 748,437 749,438 L750,438 C750,437 752,436 754,436 C755,436 755,438 753,442 C752,446 753,449 759,449 C761,449 763,449 763,450 C763,451 762,451 760,451 C758,451 755,452 753,452 C746,454 746,454 747,451 L747,451 Z M442,438 C442,435 441,435 455,435 C463,435 467,436 460,437 C458,437 455,438 454,438 C443,440 442,440 442,438 L442,438 Z M841,447 C841,446 841,446 843,447 C845,448 844,450 842,450 C841,450 841,449 841,447 L841,447 Z M839,426 L839,417 C839,412 839,407 838,406 C838,405 838,404 841,402 C844,398 846,398 848,400 C848,401 850,401 851,401 C853,401 854,401 855,405 C855,407 856,409 856,409 C856,410 854,411 851,412 C847,413 846,414 846,416 C846,418 846,418 852,418 L857,418 L855,419 L852,421 L855,422 L857,423 L854,424 C852,424 850,425 848,426 C844,427 840,427 839,426 L839,426 Z M645,422 C644,421 642,421 641,421 C639,421 638,420 639,418 C639,416 639,413 638,411 C636,407 636,407 643,403 C649,400 652,400 655,401 C656,402 655,403 653,403 C647,404 646,411 652,411 C654,411 655,413 655,417 C655,422 655,422 651,423 C648,424 647,424 645,422 L645,422 Z M628,416 C628,415 629,414 629,414 C630,413 631,414 630,416 C630,417 629,418 629,418 C628,419 627,418 628,416 L628,416 Z M626,405 C626,405 626,404 627,403 C628,402 628,402 628,404 C627,405 626,406 626,405 L626,405 Z M662,402 C662,401 663,401 663,401 C663,401 664,401 664,402 C664,402 663,403 662,403 L662,402 L662,402 Z M362,425 L362,423 C363,422 369,425 368,426 C367,427 362,427 362,425 L362,425 Z M366,425 C366,425 365,424 364,424 C363,424 363,424 363,425 C364,425 366,426 366,425 L366,425 Z M350,420 C350,418 350,417 351,417 C351,417 352,418 352,419 C352,420 351,422 351,422 C350,422 350,421 350,420 L350,420 Z M357,406 C357,405 359,403 362,401 C367,398 368,398 373,398 C376,399 378,398 379,398 C380,396 384,396 384,398 C384,400 382,401 379,402 C377,402 373,404 370,405 C361,407 357,408 357,406 L357,406 Z M548,431 C548,430 548,430 549,430 C550,430 550,430 550,431 C550,431 549,432 548,432 L548,431 L548,431 Z M544,420 C544,419 545,419 546,419 C548,419 548,419 548,420 C548,420 547,421 545,421 C544,421 544,420 544,420 L544,420 Z M534,402 C533,401 536,398 539,398 C542,398 542,399 538,401 C536,403 534,403 534,402 L534,402 Z M195,422 C193,419 193,412 195,408 C198,401 201,397 204,396 C206,394 207,394 210,396 C214,398 218,405 217,409 C216,413 208,422 203,424 C197,426 197,426 195,422 L195,422 Z M128,399 C124,398 123,397 122,392 C120,381 120,374 122,368 C125,363 129,358 131,358 C132,358 133,357 133,356 C133,354 138,352 143,352 C147,352 147,352 148,354 C150,357 150,369 148,379 C147,387 147,387 142,392 C134,399 132,401 128,399 L128,399 Z M445,401 C442,397 440,392 440,386 C439,381 440,379 442,374 C443,370 445,368 448,367 C451,364 452,364 454,367 C455,368 455,369 455,370 C456,370 457,369 458,367 L460,364 L462,368 C465,374 467,382 466,388 C465,391 464,393 461,395 C453,402 448,404 445,401 L445,401 Z M757,398 C754,397 752,393 752,388 C752,381 759,370 765,369 C767,368 768,369 770,371 C771,373 772,373 774,372 C779,370 781,372 781,378 C781,381 780,385 780,386 L777,392 C775,397 763,401 757,398 L757,398 Z M277,390 C271,388 269,377 274,367 C277,361 283,356 286,356 C288,356 289,358 289,361 C289,363 289,365 291,366 C294,370 294,378 290,383 C289,385 286,387 285,388 C284,388 282,389 281,390 C280,391 278,391 277,390 L277,390 Z M654,366 C649,361 650,348 657,341 C660,338 661,338 664,339 C665,340 667,341 669,341 C672,342 672,342 672,347 C673,355 672,360 669,363 C663,369 657,370 654,366 L654,366 Z M545,364 C541,361 539,349 543,344 C546,337 552,333 552,336 L550,336 C550,335 550,336 551,337 C553,340 555,340 558,337 C561,335 561,335 562,339 C562,341 562,343 563,343 C564,343 562,350 560,354 C558,356 556,359 554,359 L550,363 C548,366 548,366 545,364 L545,364 Z M847,360 C841,357 839,353 840,344 C840,335 842,331 849,324 C853,320 854,320 856,320 C859,321 860,322 859,325 C858,326 857,329 857,331 C857,335 860,336 864,331 C865,329 867,328 868,328 C868,329 871,342 871,345 C871,346 869,349 868,351 C865,355 854,363 852,362 C851,362 849,362 847,360 L847,360 Z M361,349 C358,344 358,339 360,334 C364,324 371,319 374,322 C375,323 377,324 378,324 C380,324 381,325 381,326 C382,329 382,330 380,336 C377,346 375,349 372,350 C370,350 368,351 367,351 C365,353 363,353 361,349 L361,349 Z M130,230 C123,229 119,221 121,214 C122,213 123,210 123,208 L123,205 C124,205 125,204 125,203 C126,200 131,195 134,194 C136,193 143,194 147,196 C150,197 155,204 155,206 C155,207 155,209 156,209 C157,209 157,210 156,211 C155,212 155,215 155,216 C155,218 154,220 154,220 C153,220 153,220 153,221 C153,223 147,227 143,228 C142,228 141,228 140,229 C136,230 133,230 130,230 L130,230 Z M230,185 C229,178 231,176 235,176 C236,176 238,175 238,175 C239,174 246,174 247,175 C248,176 248,177 247,179 C246,180 246,181 246,181 C246,183 240,189 237,190 C232,193 231,192 230,185 L230,185 Z M449,184 C449,184 449,182 450,180 C453,175 457,177 455,183 C454,184 449,185 449,184 L449,184 Z M453,181 C453,181 452,181 452,182 C452,184 452,184 453,183 C453,182 454,181 453,181 L453,181 Z" id="Fill-1" fill="#FEFEFE"></path>
                <path d="M205,477 C204,475 203,474 203,473 C203,472 202,470 200,469 C197,466 199,463 203,462 C207,462 206,460 202,460 C198,460 198,461 197,468 C197,474 196,477 192,477 C189,477 184,473 183,471 C182,470 181,469 180,469 C177,469 176,466 176,462 C176,459 181,450 183,448 C188,445 209,442 213,444 C214,445 217,446 219,446 C221,447 225,449 228,452 C233,456 234,456 233,461 C233,465 233,466 236,468 C240,471 239,473 232,476 C229,478 227,478 224,478 C219,477 216,477 211,478 C208,479 207,478 205,477 L205,477 Z M259,473 C257,470 257,469 259,468 C261,466 260,465 257,465 C255,465 253,464 253,463 C251,461 247,447 247,443 C247,441 246,438 245,437 C244,434 245,431 250,424 C253,419 260,414 264,414 C265,414 267,412 269,411 C274,406 285,404 291,407 C296,410 305,417 305,418 C305,419 305,420 307,422 C308,424 308,425 308,427 C308,429 308,432 309,434 C310,438 310,439 308,441 C306,443 306,445 306,445 C306,446 304,448 303,449 C301,451 300,452 301,454 C301,456 301,458 298,461 C297,464 295,467 295,468 C294,470 293,470 288,471 L279,471 C276,471 274,472 273,472 C272,473 269,474 266,474 C262,475 261,474 259,473 L259,473 Z M278,434 L278,431 C280,430 280,428 277,427 C274,427 268,430 269,432 C269,433 276,437 277,437 C278,437 278,436 278,434 L278,434 Z M139,472 C138,471 136,471 135,471 C133,472 132,469 133,465 C134,462 134,462 129,463 C123,464 122,464 123,467 C124,470 123,471 119,472 C117,472 116,472 116,470 C114,467 109,464 109,466 C108,469 104,472 102,471 C97,470 95,467 96,458 C96,447 100,439 108,431 C116,423 122,420 129,421 C134,421 136,421 139,423 C142,425 146,427 148,428 C156,431 158,432 160,436 C163,442 164,444 167,444 C170,444 172,446 171,449 C170,450 169,452 168,452 C167,452 166,452 165,453 C164,455 164,456 165,462 C165,469 165,470 164,471 C161,473 154,473 152,472 C151,471 149,471 147,472 C142,474 141,474 139,472 L139,472 Z M131,448 C132,447 132,446 132,444 C131,442 130,441 128,442 C125,442 125,442 125,446 L125,450 C126,451 130,450 131,448 L131,448 Z M788,473 C788,472 786,471 784,470 C781,469 779,468 769,469 C754,470 738,471 736,472 C734,473 732,471 732,468 C732,467 733,466 735,466 C738,464 738,462 735,462 C734,462 732,462 731,464 C727,468 725,467 722,460 C721,459 719,457 718,456 C714,454 713,452 715,449 C716,447 718,445 718,443 C719,440 729,429 735,426 C736,425 741,422 745,420 C751,417 751,417 765,417 C777,417 778,417 783,420 C785,421 789,425 792,428 C795,431 799,434 801,435 C804,437 808,442 807,444 C807,445 807,447 806,448 C805,449 805,452 805,458 C805,467 803,469 799,468 C797,468 796,468 795,470 C794,473 793,474 790,474 C789,474 788,473 788,473 L788,473 Z M753,452 C755,452 758,451 760,451 C762,451 763,451 763,450 C763,449 761,449 759,449 C753,449 752,446 753,442 C755,438 755,436 754,436 C752,436 750,437 750,438 C750,438 750,438 749,438 C748,437 747,438 747,443 L747,451 C746,454 746,454 753,452 L753,452 Z M431,464 C429,462 429,460 429,459 C429,457 427,456 425,455 C423,453 422,452 422,451 C422,450 420,448 418,446 C416,444 415,443 416,441 C417,437 420,433 426,428 C435,421 442,418 450,417 C458,417 461,417 468,421 C470,422 472,422 473,422 C475,421 477,422 479,424 C484,427 485,427 486,425 C486,422 490,422 492,424 C494,426 495,427 495,438 C495,445 496,452 496,454 C497,456 496,458 495,459 C493,461 489,461 487,459 C485,456 483,456 481,460 C478,463 474,464 472,462 C471,461 470,461 467,462 C462,463 459,463 456,460 C453,456 448,457 446,461 C445,463 437,466 434,466 C433,466 432,465 431,464 L431,464 Z M454,438 C455,438 458,437 460,437 C467,436 463,435 455,435 C441,435 442,435 442,438 C442,440 443,440 454,438 L454,438 Z M840,464 C839,464 839,462 839,461 C839,458 834,450 832,449 L832,455 C833,460 832,461 831,463 C828,466 824,461 824,454 C824,452 823,451 821,450 C819,448 819,448 820,446 C821,444 821,443 820,442 C818,440 815,434 816,432 C816,431 816,430 817,429 C819,426 819,426 817,422 C814,417 814,419 820,404 C823,396 831,388 838,384 C841,383 843,382 844,382 C845,382 847,381 849,380 C853,378 864,377 868,379 C870,379 875,384 880,389 C885,393 890,398 892,399 C893,400 895,401 895,402 C895,403 895,405 896,407 C897,409 897,410 896,417 C893,425 893,430 894,435 C895,437 895,441 894,446 C892,453 892,454 889,455 C887,456 885,458 885,460 C884,463 882,463 881,462 C880,460 872,460 869,462 C868,462 864,463 861,463 C858,463 854,463 851,464 C844,466 843,466 840,464 L840,464 Z M844,449 C844,448 844,447 843,447 C841,446 841,446 841,447 C841,450 843,450 844,449 L844,449 Z M848,426 C850,425 852,424 854,424 L857,423 L855,422 L852,421 L855,419 L857,418 L852,418 C846,418 846,418 846,416 C846,414 847,413 851,412 C854,411 856,410 856,409 C856,409 855,407 855,405 C854,401 853,401 851,401 C850,401 848,401 848,400 C846,398 844,398 841,402 C838,404 838,405 838,406 C839,407 839,412 839,417 L839,426 C840,427 844,427 848,426 L848,426 Z M638,463 C636,462 635,460 634,458 C633,456 632,455 632,455 C631,455 629,455 627,454 C624,453 623,454 620,456 C617,459 615,460 612,457 C611,456 610,454 611,446 C611,439 611,436 610,433 C609,430 609,429 609,428 C610,428 611,426 611,424 C611,423 611,421 613,419 C614,418 615,415 615,413 C615,408 618,402 624,397 C631,390 638,388 650,387 L659,386 L668,390 C673,392 678,395 679,397 C680,398 681,399 682,399 C683,399 689,404 689,405 C689,406 689,407 691,409 C693,411 693,417 692,419 C690,421 686,438 686,448 C686,453 685,455 684,456 C680,458 671,461 667,462 L660,462 C658,463 652,464 648,464 C642,464 640,464 638,463 L638,463 Z M654,422 C655,422 655,420 655,417 C655,413 654,411 652,411 C646,411 647,404 653,403 C655,403 656,402 655,401 C652,400 649,400 643,403 C636,407 636,407 638,411 C639,413 639,416 639,418 C638,420 639,421 641,421 C642,421 644,421 645,422 C647,424 648,424 651,423 C652,423 654,422 654,422 L654,422 Z M630,416 C631,414 630,413 629,414 C629,414 628,415 628,416 C627,418 628,419 629,418 C629,418 630,417 630,416 L630,416 Z M628,404 C628,402 628,402 627,403 C625,405 625,406 626,406 C627,406 628,405 628,404 L628,404 Z M664,402 C664,401 663,401 663,401 C663,401 662,401 662,402 L662,403 C663,403 664,402 664,402 L664,402 Z M359,460 C357,459 356,459 355,459 C354,458 353,457 351,457 C349,456 347,454 347,449 L347,444 C347,443 345,440 344,438 C339,433 337,428 337,420 C337,415 336,412 335,411 C333,408 333,405 335,401 C337,399 338,395 339,394 C344,383 351,378 366,376 C376,375 381,375 388,377 C394,379 400,384 404,392 L406,396 L404,399 C402,401 401,402 402,408 C402,412 403,416 404,418 C405,420 405,421 404,423 C403,424 403,426 403,427 C403,429 399,431 397,430 C394,430 394,431 395,436 C396,439 396,440 398,441 C400,442 403,446 402,448 C401,450 390,455 383,456 C378,457 372,458 369,459 C365,459 361,460 359,460 L359,460 Z M368,426 C369,425 363,422 362,423 L362,425 C362,427 367,427 368,426 L368,426 Z M352,419 C352,418 351,417 351,417 C350,417 350,418 350,420 C350,421 350,422 351,422 C351,422 352,420 352,419 L352,419 Z M370,405 C373,404 377,402 379,402 C382,401 384,400 384,398 C384,396 380,396 379,398 C378,398 376,399 373,398 C368,398 367,398 362,401 C355,405 355,408 360,407 C362,407 366,406 370,405 L370,405 Z M536,454 C533,452 530,452 527,452 C523,453 522,453 519,448 C514,443 513,441 517,438 C520,437 520,436 520,434 C519,432 520,431 522,430 C524,428 524,428 520,427 C518,426 516,425 515,424 C512,418 512,407 515,402 C516,400 518,398 519,396 C521,392 530,385 535,383 C537,383 541,382 545,381 C550,381 551,381 556,383 C561,385 562,386 566,385 C571,384 571,384 577,389 C583,395 585,399 586,406 C586,409 587,414 588,416 C590,421 590,425 587,428 C586,430 585,432 585,433 C585,435 584,437 583,439 C581,441 581,443 581,445 C582,450 579,452 573,451 C570,451 565,451 562,452 C559,452 553,453 549,453 C545,453 542,454 541,454 C540,455 538,455 536,454 L536,454 Z M550,431 C550,430 550,430 549,430 C548,430 548,430 548,431 L548,432 C549,432 550,431 550,431 L550,431 Z M548,420 C548,419 548,419 546,419 C545,419 544,419 544,420 C544,420 544,421 545,421 C547,421 548,420 548,420 L548,420 Z M541,398 C542,397 537,398 535,399 C532,402 534,404 538,401 C539,400 541,399 541,398 L541,398 Z M197,435 C193,433 192,432 189,427 C187,423 186,421 186,417 C187,408 194,392 200,388 C203,386 206,386 211,389 C221,394 224,397 225,402 C227,409 228,415 227,419 C225,424 217,432 210,434 C204,437 201,437 197,435 L197,435 Z M203,424 C208,422 216,413 217,409 C218,405 214,398 210,396 C207,394 206,394 204,396 C201,397 198,401 195,408 C193,412 193,419 195,422 C197,426 197,426 203,424 L203,424 Z M122,409 C118,407 114,402 112,396 C110,391 110,389 111,382 C113,372 114,368 117,364 C118,362 120,360 120,359 C120,357 130,348 134,346 C141,342 154,346 158,353 C159,354 160,359 160,363 C161,370 160,374 158,382 C156,393 156,393 150,399 C141,409 129,413 122,409 L122,409 Z M142,392 C147,387 147,387 148,379 C150,369 150,357 148,354 C147,352 147,352 143,352 C138,352 133,354 133,356 C133,357 132,358 131,358 C129,358 125,363 122,368 C120,374 120,381 122,392 C123,397 124,398 128,399 C132,401 134,399 142,392 L142,392 Z M451,409 C448,409 445,408 444,407 C439,404 436,401 435,398 C433,394 432,386 433,384 L433,379 C434,371 441,360 448,358 C451,356 462,357 465,359 C468,360 469,362 472,367 C476,377 479,384 479,388 C479,392 472,402 467,406 C462,409 458,410 451,409 L451,409 Z M454,401 C461,396 465,392 466,388 C467,382 465,374 462,368 L460,364 L458,367 C457,369 456,370 455,370 C455,369 455,368 454,367 C452,364 451,364 448,367 C445,368 443,370 442,374 C438,383 439,393 445,401 C447,403 450,403 454,401 L454,401 Z M761,408 C760,407 758,406 756,405 C752,404 746,396 746,391 C744,380 749,371 759,365 C767,359 773,358 781,362 C784,363 787,364 787,365 C787,365 788,367 790,370 C795,376 797,388 794,391 C793,391 793,392 793,393 C793,395 787,399 779,404 C772,407 764,409 761,408 L761,408 Z M771,397 C774,395 776,393 777,392 L780,386 C780,385 781,381 781,378 C781,372 779,370 774,372 C772,373 771,373 770,371 C768,369 767,368 765,369 C759,370 752,381 752,388 C752,399 760,403 771,397 L771,397 Z M278,399 C273,397 268,392 265,389 C264,386 263,384 264,379 C264,376 265,371 266,369 C267,364 273,355 276,353 C278,352 280,350 281,349 C283,347 285,347 288,347 C291,347 292,347 294,350 C296,352 297,354 298,355 C302,358 302,361 302,373 C302,387 302,388 292,395 C285,400 282,401 278,399 L278,399 Z M285,388 C286,387 289,385 290,383 C294,378 294,370 291,366 C289,365 289,363 289,361 C289,358 288,356 286,356 C283,356 277,361 274,367 C269,377 271,388 277,390 C278,391 280,391 281,390 C282,389 284,388 285,388 L285,388 Z M659,376 C654,375 651,373 648,369 C644,364 642,355 645,348 C647,341 653,335 658,333 C662,331 668,330 669,331 C669,332 672,333 674,333 C678,335 679,336 681,339 C684,344 686,353 685,359 C685,363 684,365 679,370 C673,375 673,376 668,376 L659,376 L659,376 Z M664,367 C671,362 673,358 672,347 C672,342 672,342 669,341 C667,341 665,340 664,339 L661,339 C658,339 654,344 652,350 C648,363 655,372 664,367 L664,367 Z M542,370 C537,366 533,359 533,353 C533,342 542,329 553,324 C559,321 562,321 566,323 C570,326 572,330 572,334 C572,336 573,341 573,345 C574,351 573,353 572,356 C570,359 570,361 570,362 C570,364 564,368 559,371 C553,373 547,373 542,370 L542,370 Z M550,363 L554,359 C556,359 558,356 560,354 C562,350 564,343 563,343 C562,343 562,341 562,339 C561,335 561,335 558,337 C555,340 553,340 551,337 C550,336 550,335 550,336 L552,336 C552,333 546,337 543,344 C539,349 541,361 545,364 C548,366 548,366 550,363 L550,363 Z M852,369 C845,368 839,364 835,356 C833,352 832,350 833,343 C833,336 834,334 836,329 C842,319 853,310 861,310 C866,310 876,318 879,325 C887,341 885,354 872,363 C863,370 864,370 852,369 L852,369 Z M859,359 C866,354 871,348 871,345 C871,342 868,329 868,328 C867,328 865,329 864,331 C860,336 857,335 857,331 C857,329 858,326 859,325 C860,322 859,321 856,320 C854,320 853,320 849,324 C842,331 840,335 840,344 C839,351 840,352 841,355 C843,358 849,362 852,362 C853,362 856,361 859,359 L859,359 Z M365,360 C361,359 357,355 354,349 C352,345 351,343 352,338 C352,334 353,330 354,328 C357,322 363,316 367,314 L372,312 L376,314 C378,316 381,317 382,317 C385,316 388,319 392,326 C396,333 397,334 397,340 C397,344 396,347 395,349 C391,357 373,364 365,360 L365,360 Z M367,351 C368,351 370,350 372,350 C375,349 377,346 380,336 C382,330 382,329 381,326 C381,325 380,324 378,324 C377,324 375,323 374,322 C371,319 364,324 360,334 C358,339 358,344 361,349 C363,353 365,353 367,351 L367,351 Z M129,241 C126,241 122,240 120,239 C117,237 113,232 113,231 C113,231 111,228 110,225 C107,220 107,214 109,209 C111,202 114,197 115,197 C115,197 116,196 116,195 L116,194 C117,194 118,192 120,189 C121,187 124,184 127,182 C129,181 132,179 132,179 C134,177 138,177 140,178 C141,179 144,180 146,181 C150,183 156,188 156,189 C156,190 156,191 158,192 C159,192 161,196 163,200 C164,203 166,207 167,208 C167,209 168,212 167,213 C167,215 167,217 168,217 L168,218 C167,218 164,226 164,228 C165,229 164,229 164,228 C163,228 162,229 160,230 C156,234 149,238 142,240 L136,242 C135,242 132,242 129,241 L129,241 Z M140,229 C141,228 142,228 143,228 C147,227 153,223 153,221 C153,220 153,220 154,220 C154,220 155,218 155,216 C155,215 155,212 156,211 C157,210 157,209 156,209 C155,209 155,207 155,206 C155,204 150,197 147,196 C143,194 136,193 134,194 C131,195 126,200 125,203 C125,204 124,205 123,205 L123,208 C123,210 122,213 121,214 C120,218 121,224 124,227 C127,230 133,231 140,229 L140,229 Z M731,237 C725,236 723,233 722,226 C722,223 722,221 723,221 C723,221 724,221 725,220 C726,218 729,218 732,221 C733,222 734,223 734,224 C734,225 748,225 750,223 C751,222 753,222 754,222 C755,222 756,221 756,221 C756,220 756,220 757,220 C759,220 767,212 767,211 C767,208 757,197 754,197 C753,197 753,196 753,196 C753,195 752,195 751,195 C751,195 749,194 749,193 C748,191 746,191 746,191 C745,191 743,190 743,189 C742,187 741,187 740,187 C739,187 738,185 737,184 C735,182 735,181 735,181 C735,181 735,180 734,179 C732,177 731,175 731,171 C730,166 730,166 733,163 C737,159 744,157 753,157 C761,157 766,159 768,163 C770,167 770,169 767,171 C764,174 762,174 760,172 C759,170 757,170 757,170 C756,170 756,169 756,169 C756,168 755,168 754,168 L752,168 C752,169 750,170 749,170 C745,170 744,173 747,176 C748,178 750,179 752,180 C754,181 756,183 758,185 C759,186 761,188 761,188 C764,188 773,196 774,199 C775,201 776,203 777,203 C777,203 778,203 778,204 L778,206 C780,206 779,215 777,218 C776,221 767,229 763,231 L755,235 C750,237 740,238 731,237 L731,237 Z M219,233 C216,232 215,226 216,214 C216,207 217,199 217,196 C217,193 218,185 218,180 L219,170 L224,167 C230,164 240,162 246,162 C250,161 253,163 256,166 C257,167 258,168 259,168 C259,168 260,169 260,170 C262,173 262,181 261,181 C260,181 260,181 260,182 C260,184 254,192 251,195 C250,197 249,198 249,199 C249,201 260,208 264,209 C266,209 273,211 274,212 C275,212 276,213 277,213 C279,213 282,216 282,219 C282,220 281,222 279,223 C278,225 277,225 274,224 L269,224 C267,224 265,223 262,222 C260,220 257,220 256,220 C255,220 255,219 255,219 C255,218 254,218 253,218 C252,218 250,217 249,216 C248,214 246,214 246,214 C245,214 243,212 242,211 C238,208 232,205 231,206 C231,206 230,210 230,215 C229,222 230,223 231,224 C232,225 232,226 231,228 C229,234 224,236 219,233 L219,233 Z M237,190 C240,189 246,183 246,181 C246,181 246,180 247,179 C248,177 248,176 247,175 C246,174 239,174 238,175 C238,175 236,176 235,176 C231,176 229,178 230,185 C231,192 232,193 237,190 L237,190 Z M856,232 L846,232 C840,232 833,231 832,230 L828,229 L829,211 C829,201 830,193 831,192 C831,192 832,190 832,188 C832,186 832,182 833,179 C834,176 836,172 836,169 C837,163 838,159 841,157 C842,156 847,155 852,154 C860,153 862,153 869,154 C877,156 878,156 880,160 C882,164 880,167 876,166 C860,164 857,163 856,164 C856,165 854,166 853,166 C850,166 849,168 848,174 C848,177 847,180 847,183 L846,187 L859,186 L871,185 L872,188 C874,191 873,195 871,195 C870,195 870,195 869,196 C869,196 865,197 860,197 C844,198 842,201 842,213 L842,218 L848,219 C858,220 867,220 870,218 L877,218 C881,219 882,219 883,222 C885,230 881,232 867,233 C861,233 856,233 856,232 L856,232 Z M349,229 C347,228 341,222 336,216 C335,215 334,213 334,212 C333,211 333,209 332,207 C329,201 329,197 332,189 C335,179 339,170 344,165 C347,162 357,157 360,157 C361,157 362,156 362,156 C362,152 373,157 375,162 C377,168 370,175 366,170 C364,167 361,167 359,169 C357,170 355,172 353,174 C351,175 350,177 350,177 C350,178 349,179 349,179 C348,179 348,179 348,180 C348,181 347,182 347,182 C346,182 346,183 346,184 C346,185 345,187 344,187 C344,188 343,192 343,196 C343,204 344,205 347,210 C348,212 351,215 352,216 C356,217 367,216 370,214 C374,211 377,207 379,203 C380,200 380,199 378,198 C376,197 366,197 365,199 C364,200 357,200 356,198 C354,196 354,189 357,187 C358,186 359,185 359,185 C361,185 365,185 370,184 C375,184 376,183 379,180 C382,177 383,177 384,177 C384,178 386,179 387,179 C392,179 393,181 392,193 C392,199 391,204 390,205 L390,208 C390,209 389,210 389,210 C388,210 388,210 388,211 C388,212 379,224 377,224 L371,226 C366,229 353,230 349,229 L349,229 Z M523,227 C521,225 521,224 521,216 L521,206 C522,206 523,204 523,202 C523,200 524,197 524,195 C525,193 526,188 527,185 C527,182 528,178 529,175 C530,173 530,170 530,169 C530,168 531,166 532,164 C535,157 543,161 547,171 C548,174 550,178 552,180 C554,182 556,184 556,185 L556,187 C557,187 558,189 558,191 C558,192 559,194 560,194 C560,194 561,194 561,195 C561,195 562,197 563,198 C564,200 566,202 566,203 C568,207 571,209 573,207 C574,206 576,193 576,186 C576,185 576,183 577,183 C577,183 578,180 578,177 C578,175 578,173 579,173 C579,173 580,169 580,165 C580,153 584,151 591,161 C592,162 592,164 590,170 C588,175 588,180 588,186 C588,191 587,195 586,196 L586,204 C586,215 583,222 576,225 C574,227 573,226 570,224 C568,223 567,222 567,222 C567,222 566,220 564,218 C562,216 559,213 558,210 C556,208 555,207 554,207 C554,208 553,207 554,207 C555,205 552,200 548,196 C546,194 545,192 545,191 L543,189 C541,186 537,194 534,213 C533,215 533,217 533,218 L533,221 C532,223 528,229 526,228 C526,228 524,228 523,227 L523,227 Z M462,223 C460,222 459,221 458,218 C456,214 456,213 457,207 C458,203 458,200 458,199 C457,197 453,197 451,199 C450,200 448,200 446,200 C445,200 444,201 444,201 C444,202 442,203 441,203 C439,203 439,204 439,205 C439,207 438,209 437,211 C435,213 434,215 434,216 C434,219 432,222 428,222 C426,222 424,221 423,220 C421,218 418,213 419,214 C420,214 421,214 421,213 C421,212 422,208 424,204 C426,200 428,197 428,196 C428,195 428,195 429,195 C429,195 430,194 430,193 C430,191 430,190 431,190 C431,190 432,189 432,187 C432,186 432,186 433,186 C433,186 434,184 434,183 C434,182 434,181 435,181 C435,181 436,180 436,179 L436,177 C437,177 438,175 438,173 C439,171 440,169 441,168 C441,166 442,164 443,163 C446,155 447,154 450,154 C453,154 454,155 458,159 C460,161 463,164 463,165 L463,167 C464,167 466,171 467,175 C468,180 472,184 476,184 C481,184 484,185 484,188 C484,190 481,193 479,193 C477,193 477,193 477,194 C477,194 476,195 475,195 C471,195 469,201 472,203 L472,212 C471,218 471,221 469,222 C467,225 466,225 462,223 L462,223 Z M455,183 C457,177 453,175 450,180 C448,184 448,185 451,185 C453,185 455,184 455,183 L455,183 Z M654,222 C648,216 648,215 649,205 C650,191 651,184 652,183 C652,183 653,180 653,177 C653,173 653,172 655,169 C659,166 662,166 664,168 C666,171 666,179 664,181 C663,183 663,211 664,217 C665,222 664,224 659,223 C657,223 655,223 654,222 L654,222 Z M363,425 C363,424 363,424 364,424 C366,425 366,426 365,426 C364,426 363,425 363,425 L363,425 Z M452,182 C452,181 453,181 453,181 C454,181 453,182 453,183 C452,184 452,184 452,182 L452,182 Z" id="Fill-2" fill="#424242"></path>
            </g>
        </g>
    </g>
</svg>