<?xml version="1.0" encoding="UTF-8" standalone="no"?>
<svg width="585px" height="532px" viewBox="0 0 585 532" version="1.1" xmlns="http://www.w3.org/2000/svg" xmlns:xlink="http://www.w3.org/1999/xlink">
    <!-- Generator: Sketch 3.8.3 (29802) - http://www.bohemiancoding.com/sketch -->
    <title>review</title>
    <desc>Created with Sketch.</desc>
    <defs></defs>
    <g id="Page-1" stroke="none" stroke-width="1" fill="none" fill-rule="evenodd">
        <g id="Review" transform="translate(-134.000000, -157.000000)" fill="#434343">
            <path d="M235,688 C234,687 235,679 237,676 C238,674 241,650 240,646 C240,639 244,636 253,636 C258,636 259,636 262,639 C266,643 266,644 266,648 C267,654 267,654 260,660 L254,666 L257,669 C259,671 261,673 263,674 C265,675 267,677 268,678 C269,679 271,680 272,680 C279,681 281,685 276,687 C274,688 273,688 270,686 C268,685 266,684 266,684 C266,683 265,682 263,681 C260,680 255,676 252,672 L244,666 C244,667 243,671 243,676 C243,681 242,686 241,687 C240,689 237,690 235,688 L235,688 Z M256,656 C260,653 261,652 261,649 C261,644 258,642 254,642 C249,642 247,644 246,651 C244,660 248,662 256,656 L256,656 Z M464,688 C462,686 462,685 464,679 C466,673 466,655 463,649 C462,646 462,645 463,644 C464,643 475,641 487,640 C493,639 493,639 494,641 C495,643 495,644 495,644 C495,645 490,646 485,646 C480,646 474,647 473,648 C471,648 470,649 471,652 C472,661 472,661 479,660 C485,660 487,660 488,662 C489,663 489,664 489,664 C489,665 481,667 476,667 C475,667 474,667 474,668 C473,669 470,680 471,681 C471,681 474,681 486,679 L492,676 C495,674 498,675 498,678 C498,682 487,687 475,688 C474,688 471,689 469,689 C467,689 465,689 464,688 L464,688 Z M364,679 C363,676 361,670 359,666 C357,661 356,658 355,658 C355,659 354,658 355,658 C355,657 355,655 354,653 C351,646 351,642 355,642 C357,642 358,645 360,649 C360,651 364,662 367,670 C368,672 371,670 371,668 C371,667 371,664 372,662 C374,661 376,655 378,651 C381,645 382,643 384,644 C385,644 386,645 387,646 C388,647 387,648 384,651 C382,653 380,654 380,655 C380,655 380,658 379,660 C376,666 374,674 374,678 C374,681 373,682 371,683 C367,684 367,684 364,679 L364,679 Z M296,681 C294,679 294,679 296,661 C297,656 297,650 297,647 L297,640 C307,639 316,639 317,641 C318,643 315,646 310,646 C308,646 305,646 305,647 C303,648 303,654 304,655 C305,655 308,655 312,654 C319,654 320,654 319,657 C318,660 317,660 312,661 C304,662 303,662 302,666 C301,674 301,674 306,674 C318,674 325,675 326,676 C328,678 328,679 326,681 C324,682 323,682 316,682 C311,681 307,681 305,682 C301,683 298,683 296,681 L296,681 Z M421,680 C419,678 419,677 419,667 C419,660 420,652 420,649 C420,644 420,643 422,643 C423,643 425,643 426,644 C427,646 427,647 426,651 C426,654 425,660 425,665 C425,673 426,675 427,676 C429,679 429,679 427,681 C424,683 423,683 421,680 L421,680 Z M569,680 C568,679 566,676 563,672 C559,665 557,663 557,666 C557,666 556,668 555,668 C554,669 553,672 552,675 C551,677 550,680 550,680 L546,680 L543,681 L538,665 C535,657 532,649 532,648 C532,647 532,645 531,644 C528,638 533,636 537,642 C538,644 539,646 539,648 C539,649 540,653 541,657 C542,661 544,665 545,667 C545,669 546,670 547,670 C548,670 551,664 553,658 C554,653 554,653 556,653 C558,653 564,658 564,660 C564,660 565,663 567,666 C571,672 571,672 572,670 C575,667 586,647 586,644 C586,640 590,638 592,642 C593,643 592,644 590,648 C587,652 585,656 580,671 C576,680 576,681 573,681 C571,681 570,681 569,680 L569,680 Z M393,599 C392,598 392,597 392,595 C393,592 393,592 389,593 C386,593 384,595 382,597 L380,600 L377,597 C375,594 373,594 372,596 C370,598 368,598 365,595 C362,593 362,593 359,595 C356,597 356,597 354,595 C351,592 347,592 343,596 C341,597 339,599 338,599 C336,599 335,598 335,596 C335,594 334,592 333,592 L330,592 C319,590 320,590 317,593 C315,596 313,596 311,593 C310,589 307,588 307,591 C307,593 304,595 302,594 C302,593 300,593 298,593 C297,593 295,592 294,591 C293,589 292,589 289,589 C287,590 284,591 282,593 C279,595 278,595 276,594 L274,592 C274,589 272,589 270,591 C267,594 266,594 264,592 C263,591 262,590 260,591 C259,591 257,591 256,590 C254,588 254,588 251,589 C249,590 246,592 245,593 C243,594 242,594 241,593 C239,591 239,588 241,588 L241,587 C241,586 239,586 238,586 C235,587 234,586 234,584 C233,582 230,580 219,578 C218,578 216,577 216,576 L211,576 C207,576 205,573 207,570 C209,567 208,566 202,565 C194,565 192,565 193,562 C193,559 193,559 199,559 C204,560 208,558 208,555 C208,554 204,554 202,556 C200,557 199,557 197,555 C196,554 194,553 193,552 C192,552 191,551 191,550 C191,548 192,548 206,548 C218,549 221,549 221,547 C221,544 218,539 214,533 C212,530 210,527 211,526 C211,526 210,524 209,523 C207,519 204,514 200,505 C197,499 195,494 194,492 C193,490 191,488 188,486 C185,485 182,484 180,483 C179,482 177,482 176,482 C173,482 172,477 173,471 C175,462 176,455 174,452 C172,448 173,440 176,438 C179,435 179,430 177,423 C168,399 168,398 165,397 C164,397 162,395 161,393 C160,391 157,387 154,384 C147,377 143,371 143,370 C143,369 141,368 139,366 C134,361 134,360 137,356 C139,354 139,353 139,350 C138,348 139,347 140,346 C142,345 142,344 138,339 C133,334 133,333 137,329 C140,326 142,324 155,318 C159,316 164,313 166,311 C169,308 170,308 174,309 C177,309 180,310 181,311 C182,312 184,313 188,313 L192,313 L202,322 C208,327 213,332 214,333 C217,336 222,342 222,344 C221,346 225,348 238,354 C258,365 271,372 280,376 C284,378 288,380 289,380 C290,379 292,370 293,365 C294,361 297,347 302,328 C303,322 305,316 305,313 C305,310 306,308 307,307 C307,306 308,303 309,299 C311,290 315,275 319,264 C324,250 329,229 329,223 C329,217 329,217 327,217 C323,216 322,213 321,205 C320,196 321,194 329,194 C335,195 336,194 335,192 C332,179 330,160 332,158 C332,157 334,157 336,157 C338,157 349,158 360,158 C386,158 386,158 386,175 C385,186 386,188 387,191 C390,194 390,194 395,194 C403,194 406,199 401,204 C400,205 399,207 399,209 C399,210 398,213 396,214 C395,216 394,218 394,219 L398,227 C401,231 405,237 407,241 C409,245 413,251 415,255 C417,258 420,262 420,264 C421,265 424,269 426,274 C429,278 431,282 432,284 C432,286 436,293 440,300 C446,313 450,322 455,334 C459,343 462,348 464,349 C464,349 467,346 470,344 C479,336 497,321 500,320 C501,319 505,315 509,312 C513,309 518,305 521,303 C524,301 528,298 530,295 C535,291 535,291 533,288 C531,286 531,285 533,282 C534,280 536,276 538,275 C542,270 544,267 548,260 C551,256 552,254 555,254 L560,254 C561,255 562,253 562,249 C563,245 564,243 570,243 C574,242 575,243 577,245 L580,248 C581,248 584,249 588,251 C592,253 597,256 599,256 C601,256 603,258 605,260 C606,262 608,264 610,265 C612,268 612,272 610,273 C606,275 609,281 614,282 C617,283 623,286 623,288 C622,290 617,296 615,296 C610,295 600,304 596,312 C594,315 594,318 594,371 C594,402 594,428 595,428 C596,429 618,422 620,421 C621,420 625,419 629,417 C639,414 648,410 650,409 C652,407 650,406 646,408 C644,409 643,409 642,407 C640,404 642,401 650,398 C656,395 659,394 662,395 L666,395 C666,394 670,394 675,394 C682,393 683,393 688,390 L694,386 L696,388 C701,392 705,397 708,402 C709,404 712,409 714,411 C719,416 719,418 717,419 C715,420 713,422 710,425 C707,427 705,429 704,429 C703,429 701,429 699,430 C697,432 697,433 698,436 C702,444 701,446 691,449 C688,450 685,451 684,452 C681,455 678,456 675,454 L671,452 C670,453 668,456 665,460 C662,464 657,471 654,475 C645,487 636,502 620,528 C617,533 614,539 612,541 L609,545 L612,548 C614,550 615,551 614,552 C613,554 613,555 616,557 C618,559 621,561 622,561 C626,563 624,568 619,567 C617,567 616,567 615,569 C613,571 612,571 606,569 C605,568 605,569 605,571 C605,573 604,574 602,574 C601,574 599,576 598,577 C598,578 597,579 595,578 C592,578 591,578 590,580 C589,581 587,582 585,581 C584,581 582,581 581,582 C580,582 578,583 576,582 C573,582 571,582 570,584 C568,586 566,587 563,586 C561,586 558,587 556,588 C553,589 553,589 551,586 C548,582 547,582 546,585 C546,586 545,587 545,587 C544,588 542,589 541,589 C535,592 521,591 512,586 C508,584 505,584 506,587 C506,589 506,590 505,591 C503,593 500,592 498,588 C497,586 495,586 494,589 C493,590 492,590 491,590 C490,590 489,590 488,592 C487,593 486,594 484,593 C482,593 480,592 479,592 C477,592 476,591 475,590 C475,589 474,589 473,589 C471,589 471,589 471,592 C472,596 472,596 464,594 C462,593 459,592 458,591 C455,589 451,589 451,591 L451,594 C450,595 447,595 445,592 C442,589 439,589 439,591 C438,594 436,595 434,594 C432,592 431,592 430,595 C430,596 429,597 427,596 C425,596 425,595 423,590 C421,587 420,587 419,593 C418,596 418,597 416,596 C414,596 413,595 412,593 C412,590 412,590 409,590 C407,590 406,590 406,593 C405,596 404,597 402,597 C401,597 399,597 398,598 C396,601 394,601 393,599 L393,599 Z M372,586 C373,585 372,584 370,585 C369,585 368,586 368,587 C367,588 368,589 370,588 C371,588 372,587 372,586 L372,586 Z M356,587 C356,586 354,586 353,586 C353,587 353,588 354,588 C355,588 356,587 356,587 L356,587 Z M465,581 L463,581 L464,581 L465,581 L465,581 Z M426,577 C435,577 445,576 450,576 C454,576 463,575 471,575 C478,575 489,574 496,574 C514,573 525,573 532,571 L539,571 C540,571 544,571 549,570 C554,569 560,568 563,568 C569,567 570,566 568,564 C567,563 566,560 565,557 C560,543 557,538 555,537 C553,536 550,535 547,535 L537,535 C514,530 509,530 503,530 C498,530 496,530 496,531 C495,533 494,533 490,531 C485,529 481,529 444,530 C422,530 402,531 400,531 C397,531 391,532 386,532 C375,533 356,535 345,537 C341,537 335,538 332,538 C318,538 281,543 269,545 C261,547 243,554 241,556 L241,560 C240,564 239,566 236,566 C234,566 234,565 234,563 C234,559 232,558 230,560 C228,562 229,564 234,567 C236,568 239,570 241,571 C244,573 248,573 258,574 C265,574 274,575 278,575 C281,575 304,576 329,576 C354,576 381,577 389,577 C396,578 405,578 407,578 C408,578 417,577 426,577 L426,577 Z M590,562 C595,559 594,557 588,553 C585,552 583,550 583,549 C582,547 566,540 565,541 C564,542 571,556 573,559 C574,560 575,562 576,563 C576,564 577,564 581,564 C584,564 588,563 590,562 L590,562 Z M236,548 C237,548 238,545 239,542 C240,538 243,530 246,523 C248,516 252,506 254,500 C256,495 259,485 261,480 C263,474 265,469 265,468 C267,465 265,464 257,463 C253,463 247,462 244,461 C241,460 235,459 231,459 L224,459 L222,465 C221,468 221,473 221,478 C220,487 220,488 209,487 C199,486 199,486 202,494 C203,496 205,501 206,505 C208,508 211,514 213,517 C218,523 221,528 221,530 C221,531 222,535 224,539 C226,543 227,547 228,548 C229,550 233,550 236,548 L236,548 Z M253,544 C258,542 275,536 287,531 C292,530 298,528 300,526 C307,523 312,521 314,521 C315,521 316,520 317,520 C326,515 341,510 359,505 C363,504 370,502 373,501 C376,500 380,500 381,500 C384,500 399,495 401,493 C403,492 400,491 393,490 C390,490 383,488 379,487 C375,486 368,484 364,484 C360,483 356,482 355,481 C354,481 351,480 349,480 C347,480 342,479 338,478 L330,476 L322,482 C318,486 313,490 311,491 C309,492 305,496 301,499 C297,502 292,506 290,508 C288,509 283,514 278,518 C273,523 268,528 266,529 C264,531 262,532 261,533 C260,533 258,536 255,538 C253,539 251,542 251,542 L251,543 C250,543 249,543 248,544 C247,546 248,546 253,544 L253,544 Z M609,537 C612,533 615,528 617,525 C620,519 621,517 631,502 C635,496 640,487 643,483 C646,479 649,474 650,473 C651,471 653,469 654,468 C654,466 657,462 660,458 C669,445 668,446 666,444 C659,439 650,425 650,419 C650,418 649,417 649,417 C648,417 628,423 617,427 C614,429 609,430 605,431 C597,434 594,436 595,438 C595,439 596,443 596,448 C597,456 598,468 600,484 C602,498 602,508 603,528 C603,539 603,545 604,545 C604,545 607,541 609,537 L609,537 Z M596,528 C598,511 597,498 593,473 C592,464 591,453 591,448 C590,443 590,438 589,438 C588,436 581,438 573,441 C569,442 564,444 561,445 C558,445 555,446 553,447 C551,448 548,449 545,450 C540,451 524,457 522,458 C521,459 521,460 526,471 C529,476 532,482 532,483 C532,483 534,486 535,488 C536,490 540,496 542,501 C545,505 548,510 549,512 C550,514 552,516 552,518 C554,523 563,528 568,529 C576,529 580,530 581,532 C582,534 583,535 583,536 C585,537 594,539 595,539 C595,538 596,534 596,528 L596,528 Z M300,537 C303,536 309,535 312,535 C315,535 322,534 326,533 C331,532 336,531 339,531 L348,531 C350,530 356,529 360,529 C364,529 368,528 369,528 C370,527 392,526 410,525 C427,524 505,524 517,525 L523,525 C522,525 520,524 518,523 C515,521 497,517 481,513 C476,512 470,510 468,510 C467,509 465,509 464,509 C462,509 435,501 422,497 C415,495 414,495 408,497 C406,498 403,499 401,499 C399,499 395,501 391,502 C387,503 383,505 381,505 C380,505 377,505 375,506 C373,507 367,508 363,510 C344,514 334,518 319,524 C315,526 312,528 311,528 C310,528 307,529 304,530 C298,533 292,535 289,536 C285,537 287,539 291,538 C293,538 297,537 300,537 L300,537 Z M266,522 C271,517 280,510 284,506 C292,499 308,487 317,479 C323,475 323,473 319,474 C317,474 315,473 314,473 C313,472 309,471 304,471 C300,470 295,469 292,469 C284,467 272,465 272,466 C271,466 270,470 268,474 C267,478 265,484 263,488 C262,492 260,498 259,501 C258,504 257,507 256,508 C256,509 255,513 254,517 C252,521 251,526 250,527 C249,529 248,531 248,533 L247,536 L251,533 C254,532 260,527 266,522 L266,522 Z M542,519 C535,512 521,502 505,494 C499,490 493,487 492,486 C490,484 489,484 488,484 L482,480 C475,476 472,476 460,480 C455,482 446,485 439,487 C433,489 428,491 428,492 C428,494 434,495 446,498 C459,501 468,503 472,505 C474,505 475,506 487,508 C491,509 496,510 498,511 C499,512 503,513 506,513 C510,514 516,515 518,517 C519,517 523,518 528,519 C533,521 539,522 541,523 C548,526 548,525 542,519 L542,519 Z M543,511 C543,511 542,509 541,508 C537,502 523,476 520,469 C518,465 517,462 516,461 C516,461 511,462 505,464 C499,466 492,469 489,470 C483,472 481,473 484,475 C485,476 489,478 492,480 C495,482 500,485 504,487 C507,488 515,494 523,499 C532,505 538,508 539,508 C539,507 540,508 539,508 C539,508 539,509 540,510 C541,512 543,512 543,511 L543,511 Z M421,488 C426,486 432,484 435,483 C437,482 443,481 448,479 C458,476 466,473 468,472 C468,471 467,470 463,468 C461,466 458,465 458,465 C457,465 457,464 456,464 C456,463 451,461 445,458 C418,444 414,443 411,441 C409,441 406,439 405,438 C402,437 394,433 388,431 C384,429 384,430 372,439 C369,442 364,446 362,448 C360,450 355,454 351,458 C346,462 342,466 342,466 C341,467 339,468 338,469 C334,472 336,473 341,474 C344,474 350,476 355,477 C359,478 366,480 369,481 C372,481 378,483 383,484 C387,485 393,487 397,487 C401,488 405,489 406,489 C409,491 412,491 421,488 L421,488 Z M210,478 C212,477 215,471 215,469 C215,468 213,469 209,472 C205,476 202,478 201,478 C198,478 198,479 201,480 C205,480 209,480 210,478 L210,478 Z M200,471 C205,468 209,464 209,462 C209,461 207,458 206,457 C201,450 190,454 190,463 C190,468 191,471 194,472 L196,472 C196,472 198,472 200,471 L200,471 Z M333,467 C336,465 342,459 347,455 C351,451 357,445 360,444 C368,437 378,428 378,427 C378,427 374,425 371,424 C367,422 361,420 358,418 C346,413 345,413 344,413 C343,413 341,411 339,410 C337,409 333,407 330,406 C328,404 323,403 321,401 C318,400 315,398 314,398 C310,395 294,389 293,389 C293,389 293,391 292,393 C292,395 291,399 290,403 C287,416 285,422 285,425 C282,433 279,442 277,450 C275,455 274,459 274,460 C274,461 280,462 288,463 C300,466 312,468 320,469 C326,471 328,471 333,467 L333,467 Z M481,468 C483,467 489,465 494,463 C509,458 512,456 513,456 C513,455 512,452 511,448 C509,444 508,441 508,441 C508,440 494,416 490,411 C488,407 485,402 484,399 C474,380 463,359 462,359 C461,359 459,360 457,362 C455,364 453,367 452,368 C451,368 440,378 428,390 C407,410 400,416 393,422 C389,425 389,426 392,427 C393,428 398,430 403,432 C418,440 430,445 436,448 C440,449 445,452 447,453 C450,455 455,457 459,459 C462,461 467,464 470,466 C476,470 476,470 481,468 L481,468 Z M218,458 C218,456 217,456 216,456 C213,456 213,456 215,459 C216,462 218,461 218,458 L218,458 Z M272,449 C274,444 276,436 277,432 C279,427 280,422 281,419 C284,409 288,388 288,386 C288,386 285,384 282,383 C277,380 272,378 264,374 C260,372 255,369 252,368 C248,366 243,364 242,363 C240,361 236,360 233,358 C230,357 227,356 227,355 C223,353 213,349 210,348 C208,348 208,349 207,353 C205,359 204,361 198,367 C193,372 182,378 174,380 C168,381 168,380 175,399 C177,406 180,416 182,421 C185,433 187,436 193,436 C198,436 198,436 200,438 C202,442 200,444 194,443 C190,443 189,443 190,444 C190,446 192,446 196,447 C205,448 206,447 205,444 C204,440 205,439 212,440 C217,441 218,441 219,443 C221,448 227,452 233,453 C236,454 241,455 245,456 C250,457 260,459 267,459 C268,459 269,457 272,449 L272,449 Z M529,450 C534,448 542,446 548,444 C553,443 557,441 558,440 C558,440 560,439 561,439 C564,439 586,432 588,431 C589,429 590,335 589,327 C588,322 588,322 584,321 C576,319 568,313 568,309 C568,307 566,307 561,307 C554,307 546,299 546,294 C546,291 543,291 541,294 C539,296 528,305 521,310 C519,312 513,316 508,320 C504,323 496,330 491,333 C487,337 479,343 475,347 C465,355 466,354 471,363 L477,375 C479,379 483,387 486,392 C489,397 492,401 492,401 C492,402 494,405 496,409 C498,413 501,417 501,417 C501,417 502,420 504,422 C505,424 507,427 507,427 C507,429 519,454 520,454 C520,454 524,452 529,450 L529,450 Z M185,445 C185,443 182,440 181,441 C181,442 182,447 183,447 C184,447 185,446 185,445 L185,445 Z M687,444 C689,443 690,441 690,441 C691,439 687,439 686,440 C686,441 686,441 687,441 C689,440 689,441 688,441 C687,442 685,442 684,442 C682,441 680,443 680,445 C680,446 684,445 687,444 L687,444 Z M674,435 C676,431 669,419 662,418 C660,417 658,416 657,416 C653,414 658,427 664,434 C668,438 672,439 674,435 L674,435 Z M682,425 C682,424 681,424 680,424 C679,423 679,424 679,425 C679,427 681,427 682,425 L682,425 Z M395,414 C397,412 400,409 402,408 C404,406 415,396 427,384 C439,372 451,361 454,358 L459,353 L455,345 C453,340 448,331 445,325 C429,291 423,279 412,261 C406,250 401,241 401,241 C401,241 398,237 395,233 C393,229 389,223 388,220 L386,215 L380,217 C374,219 369,219 350,219 C337,218 337,218 335,228 C334,233 327,256 325,261 C324,263 322,271 321,278 C320,279 319,282 318,284 C317,286 317,289 317,290 C317,293 316,296 313,304 C312,307 311,313 310,318 C309,323 307,328 307,330 C306,332 305,336 304,341 C303,345 302,351 300,356 C296,371 294,383 294,383 C295,384 298,386 302,387 C305,388 313,392 319,395 C330,400 344,407 356,412 C359,414 366,417 371,418 C375,420 380,422 382,422 C384,423 387,421 395,414 L395,414 Z M683,411 C682,408 685,406 687,407 C689,409 690,409 695,404 C698,401 699,400 698,399 C697,398 696,397 694,397 C691,396 678,401 677,403 C676,403 679,409 681,411 C682,413 683,413 683,411 L683,411 Z M176,372 C179,372 183,370 185,369 C189,367 199,356 200,353 C200,351 201,349 201,348 C201,348 201,346 199,344 C197,341 193,341 189,344 L185,346 L183,344 C180,342 177,343 171,349 C167,353 165,355 164,360 C160,373 163,375 176,372 L176,372 Z M146,360 C146,359 146,358 144,358 C144,358 144,358 144,360 C144,362 145,362 146,360 L146,360 Z M160,353 C160,351 156,347 155,347 C153,347 153,347 156,351 C157,353 160,354 160,353 L160,353 Z M166,343 C166,342 165,341 164,341 C162,340 162,341 162,343 C162,344 162,345 164,344 C165,344 166,343 166,343 L166,343 Z M176,336 C177,334 175,332 173,333 C170,334 170,338 172,338 C173,338 175,337 176,336 L176,336 Z M148,331 C150,329 153,327 154,327 C155,326 156,325 155,325 C153,325 144,331 144,333 C144,335 144,335 148,331 L148,331 Z M187,332 C187,332 186,330 186,329 C184,326 182,326 180,328 C179,329 179,330 181,331 C183,332 187,333 187,332 L187,332 Z M587,310 C586,308 586,306 586,305 C585,304 575,305 574,307 C572,308 581,315 585,314 C587,314 587,314 587,310 L587,310 Z M576,300 C580,300 584,299 584,298 C585,298 585,295 585,292 C585,289 586,286 586,285 C587,285 587,283 586,281 C585,278 583,278 578,280 C576,281 575,281 573,279 C572,276 572,276 565,278 C558,280 557,281 555,284 C551,292 551,291 554,295 C558,301 564,303 576,300 L576,300 Z M598,293 C598,291 594,290 593,291 C592,292 594,293 596,293 L598,293 L598,293 Z M597,284 C598,283 596,279 594,278 C592,276 591,277 592,281 C593,285 593,285 595,285 C596,285 597,284 597,284 L597,284 Z M556,265 C556,264 555,264 554,264 C554,264 554,264 554,265 C554,265 554,266 555,266 C556,266 556,265 556,265 L556,265 Z M579,258 C577,253 575,252 572,255 C570,257 571,259 575,260 C579,261 580,261 579,258 L579,258 Z M375,212 C376,211 378,210 378,209 C378,208 351,209 346,210 C342,211 341,212 345,213 C351,214 372,213 375,212 L375,212 Z M332,207 L331,206 L330,206 C330,207 330,208 331,208 L332,207 L332,207 Z M370,202 C370,201 368,201 367,201 C365,201 363,201 363,200 C359,200 353,201 353,202 L361,202 L370,202 L370,202 Z M356,192 C356,192 356,191 355,190 C354,189 354,187 354,186 C354,185 353,185 352,185 C350,185 349,182 351,180 C351,179 354,179 360,179 C365,179 369,178 369,178 C370,176 366,176 352,176 C346,177 344,176 343,175 C342,174 341,174 340,174 C340,174 340,174 341,173 C342,171 342,170 341,169 C340,168 339,169 339,171 C338,173 339,180 343,188 L345,194 L350,193 C352,193 355,192 356,192 L356,192 Z M360,170 C360,168 348,168 347,170 C347,170 349,171 353,171 C357,171 360,170 360,170 L360,170 Z" id="review"></path>
        </g>
    </g>
</svg>