<?xml version="1.0" encoding="UTF-8" standalone="no"?>
<svg width="280px" height="428px" viewBox="0 0 280 428" version="1.1" xmlns="http://www.w3.org/2000/svg" xmlns:xlink="http://www.w3.org/1999/xlink">
    <!-- Generator: Sketch 3.8.3 (29802) - http://www.bohemiancoding.com/sketch -->
    <title>shape</title>
    <desc>Created with Sketch.</desc>
    <defs></defs>
    <g id="Page-1" stroke="none" stroke-width="1" fill="none" fill-rule="evenodd">
        <g id="Shape" transform="translate(-262.000000, -257.000000)" fill="#424242">
            <path d="M304,684 C301,683 297,680 297,678 C297,677 297,676 299,675 C301,673 301,673 303,676 C304,678 306,679 308,679 C314,679 322,674 322,670 C322,667 316,662 311,661 C302,657 298,651 302,646 C306,640 320,637 325,641 C328,644 326,647 321,647 C313,646 311,646 309,648 C308,649 308,650 308,651 C308,651 311,653 314,655 C322,660 327,665 328,669 C329,673 326,679 320,681 C315,684 308,685 304,684 L304,684 Z M363,682 C361,680 361,679 361,672 L361,665 L358,665 L352,665 C350,666 350,667 350,672 C350,677 349,679 347,680 C345,683 344,683 342,680 C341,678 340,677 341,675 C343,673 345,658 344,654 C343,649 344,646 346,646 C349,646 350,648 350,654 C349,659 350,660 357,659 L362,658 L363,652 C363,647 363,647 366,647 C368,647 368,648 368,651 C369,652 368,658 367,664 C366,673 366,674 368,677 C369,680 369,681 368,683 C367,685 365,685 363,682 L363,682 Z M434,683 C433,682 433,680 434,676 C434,672 434,664 435,659 C435,649 435,648 437,646 C441,643 452,639 454,640 C460,642 461,652 457,657 C455,660 447,665 443,666 C441,666 441,667 441,674 C441,678 440,682 440,683 C439,685 435,685 434,683 L434,683 Z M449,656 C450,656 451,654 452,652 C455,647 450,645 445,649 C443,650 443,652 443,655 C443,659 443,659 445,658 C447,658 449,657 449,656 L449,656 Z M404,681 C403,679 402,677 403,673 C403,668 403,668 401,668 C398,667 394,670 392,673 C391,676 390,677 387,677 C385,678 383,673 385,671 C388,667 392,659 394,653 C396,645 400,642 404,643 C406,644 410,651 410,655 C410,660 411,661 415,661 C419,661 421,662 420,664 C420,665 418,666 416,666 C411,666 409,669 410,676 C411,679 410,681 409,682 C407,683 406,683 404,681 L404,681 Z M403,660 C404,657 404,655 402,655 C401,655 397,661 398,662 C399,663 403,662 403,660 L403,660 Z M473,681 C469,678 470,671 473,655 C475,651 475,646 475,645 C474,641 476,639 483,638 C493,636 496,636 498,638 C499,639 500,640 500,641 C500,641 497,642 494,642 C483,643 482,644 480,656 L479,660 L487,659 C494,659 496,659 497,661 C498,663 497,664 490,664 C482,665 479,667 477,670 C476,674 478,676 484,676 C495,675 497,675 498,677 C499,678 499,679 497,680 C496,681 493,682 485,682 C476,683 475,682 473,681 L473,681 Z M393,535 C381,535 369,534 365,533 C355,531 344,528 341,526 C339,524 332,522 323,520 C315,518 314,518 307,511 C302,506 300,504 298,504 C293,504 293,505 285,487 C284,482 280,475 277,470 C274,465 272,459 271,458 C271,456 270,451 269,447 C268,443 267,438 266,437 C266,436 265,434 265,433 C265,431 265,426 264,421 C261,409 262,383 265,372 C266,368 268,362 269,358 C270,353 272,348 273,345 C275,341 276,337 277,335 C279,331 286,318 290,313 C292,311 295,307 296,305 C302,298 312,288 318,284 C321,282 324,280 324,281 C324,281 326,280 327,279 C331,276 355,266 363,264 C371,261 385,259 396,258 C405,257 422,259 432,262 C435,263 442,264 449,264 C455,264 461,265 463,266 C464,267 468,268 471,269 C474,270 479,272 481,273 C483,274 486,275 487,276 C490,276 501,284 506,290 C518,303 525,316 529,332 C540,371 542,380 542,412 C541,443 541,452 537,457 C536,458 535,461 535,464 C533,471 531,474 528,477 C527,479 524,484 522,488 C518,495 507,508 504,508 C504,508 500,509 496,512 C478,522 477,522 444,533 C434,536 421,537 393,535 L393,535 Z M342,519 L338,517 C336,516 332,514 329,513 C326,511 323,511 322,511 C321,511 324,513 330,515 C339,519 342,520 342,519 L342,519 Z M371,518 C373,517 376,515 379,515 C382,515 385,514 386,514 C387,513 390,513 393,513 C399,513 399,513 400,510 C400,507 401,507 404,506 C405,506 408,505 408,504 C409,504 411,503 413,503 C417,501 416,499 412,499 C409,499 408,498 408,497 C407,495 406,495 402,495 C397,495 397,494 397,493 C397,490 396,490 389,493 C383,495 380,496 381,498 L381,498 C380,498 379,499 377,501 C376,502 374,504 372,505 C371,507 370,508 370,509 C371,509 370,510 370,509 C368,508 366,512 366,516 C366,520 367,521 371,518 L371,518 Z M465,514 C468,513 473,509 477,507 C481,504 486,501 489,499 C499,492 503,488 498,488 C495,488 487,479 484,473 C480,465 478,454 480,446 C481,443 480,442 478,442 C472,439 471,439 467,443 C465,445 463,447 463,448 C463,448 463,448 462,448 C461,448 459,449 456,451 C452,454 445,455 443,454 C440,452 432,440 430,436 C428,429 427,421 429,413 C430,408 431,405 432,405 C432,404 435,402 437,400 C440,397 441,397 445,397 C448,397 450,396 451,395 C452,394 453,394 459,394 C467,395 470,396 472,402 C474,404 475,407 477,409 C478,411 479,413 479,417 C479,423 479,423 481,424 C485,425 488,425 489,422 C491,416 496,408 499,407 C504,405 513,402 520,402 L527,402 C529,401 525,380 521,363 C519,357 518,356 517,359 C516,360 513,362 511,363 C505,365 505,365 493,361 C490,360 485,358 484,358 C482,358 478,356 476,355 C471,353 469,353 469,356 C469,357 469,358 471,359 C472,359 473,361 474,362 C475,364 476,365 475,367 C474,370 474,371 474,372 C478,378 461,394 456,390 C454,388 448,390 444,393 L440,396 L435,393 C428,389 424,385 424,383 C424,382 423,380 421,378 C419,376 419,375 421,371 C421,369 422,365 421,361 C421,356 421,354 423,351 C425,347 433,340 437,339 C438,339 440,338 440,337 L443,337 C445,337 446,336 445,333 C445,331 444,325 444,318 C444,305 445,302 451,290 C453,285 453,283 452,282 C452,281 451,281 450,281 C449,281 446,280 444,279 C439,277 439,277 438,279 C436,281 434,290 434,296 C434,299 433,300 432,301 C431,302 428,304 426,307 C423,310 420,312 419,313 C418,313 418,314 418,314 C418,315 418,315 417,315 C415,315 402,324 403,325 C404,325 403,326 403,325 C402,325 399,327 399,328 C399,329 400,330 403,331 C408,333 411,335 411,338 C411,339 412,340 414,341 C417,342 418,343 419,349 C419,351 419,353 417,354 C416,355 414,357 414,358 C414,359 413,362 412,365 C410,367 409,371 409,373 C408,376 408,377 405,378 C403,378 400,380 398,382 C395,384 394,384 392,383 L387,383 C385,383 384,383 382,380 C381,379 378,377 375,376 C365,371 363,365 367,355 C369,347 370,345 374,341 L377,337 L375,334 L373,330 L364,330 C359,330 354,329 353,329 C351,328 349,327 347,327 C345,327 343,325 342,323 C340,320 339,320 333,318 C330,317 323,316 318,315 C313,314 308,313 307,313 C306,313 305,314 301,319 C298,322 296,326 295,328 C293,331 293,331 299,336 C302,340 306,344 307,345 C307,347 310,349 313,351 C318,354 319,357 320,366 C321,372 322,376 325,379 C328,382 329,382 331,379 C332,376 338,374 343,373 C345,373 347,373 349,372 C352,370 356,370 359,372 C361,373 362,376 369,385 C372,390 373,391 373,398 C373,405 372,407 370,411 C367,417 360,424 357,424 C356,424 353,424 350,426 C345,428 341,428 337,423 C335,421 332,419 330,417 C329,416 327,413 326,410 C325,407 325,405 323,405 L319,405 C318,406 312,420 312,421 C312,422 309,425 306,428 C303,431 299,436 296,439 C294,442 290,445 287,446 C283,448 282,449 282,450 C282,452 288,464 294,474 C301,484 312,496 319,501 C323,503 327,506 328,506 C331,507 364,490 369,485 C372,482 373,482 374,484 C376,485 377,485 381,484 C387,481 389,480 389,475 C389,471 388,470 386,470 L382,466 C381,464 378,461 376,459 C372,456 372,455 372,451 C372,449 372,447 374,445 L378,437 C379,433 381,430 384,428 C386,425 388,422 389,421 C390,419 392,419 405,418 C410,418 411,418 412,420 C413,421 415,422 416,423 C417,423 418,424 419,426 C420,430 421,432 424,437 C426,440 426,442 426,447 C426,452 426,454 423,459 C419,465 414,471 412,472 C411,472 411,474 410,476 C410,480 410,481 411,481 C412,481 415,482 418,483 C421,485 425,487 427,487 C431,488 446,504 449,511 C451,514 452,516 453,517 C454,518 459,517 465,514 L465,514 Z M360,499 C361,497 361,497 359,498 C358,498 357,499 357,499 C356,501 358,501 360,499 L360,499 Z M297,488 C297,487 296,486 295,485 C292,483 292,484 294,487 C295,489 297,489 297,488 L297,488 Z M510,477 C510,475 511,471 512,466 C514,456 514,456 511,455 C510,455 509,454 510,452 C511,449 510,449 508,450 C506,450 505,450 502,447 C498,443 496,443 495,447 C495,449 494,449 492,449 C489,449 489,449 490,453 C491,461 493,467 497,470 C498,471 500,473 500,474 C500,475 501,478 503,479 C507,483 507,483 509,481 C510,480 510,478 510,477 L510,477 Z M398,479 C398,478 398,476 397,475 C397,473 396,473 395,473 C394,474 394,476 395,480 C396,482 397,482 398,479 L398,479 Z M403,467 C404,466 405,465 405,460 C405,454 405,453 407,452 C408,451 409,450 409,448 C409,445 404,438 400,436 C396,434 395,434 390,435 C386,436 385,437 383,440 C380,446 382,458 388,463 C391,466 399,468 403,467 L403,467 Z M460,442 C466,439 471,430 468,428 C467,428 466,425 466,423 C465,418 464,417 461,419 C459,420 457,420 457,420 C456,419 454,418 452,418 C447,417 445,419 445,423 C445,425 444,427 443,428 C442,430 441,432 442,434 C442,436 442,437 441,438 C440,440 440,440 441,440 C442,441 443,441 444,442 C445,444 457,444 460,442 L460,442 Z M482,436 C482,435 481,434 480,434 C477,432 476,434 478,435 C480,437 482,437 482,436 L482,436 Z M498,435 C498,435 499,431 499,427 C500,420 500,419 498,420 C495,423 493,429 493,433 C493,436 493,436 495,436 C496,436 498,436 498,435 L498,435 Z M357,406 L357,400 C356,399 356,397 358,395 C360,390 360,383 356,381 C352,379 343,381 337,387 C334,390 334,392 336,400 C338,407 341,408 350,408 C356,408 356,408 357,406 L357,406 Z M298,404 L298,400 C298,399 297,398 297,398 C296,398 296,397 296,387 L296,379 C297,378 297,375 297,372 C297,365 299,362 302,364 C303,365 304,368 304,372 L304,378 C306,379 305,393 304,395 C303,396 303,397 303,399 C304,401 305,402 307,402 C309,402 309,402 310,395 L310,380 C310,373 310,373 306,366 C300,359 292,352 289,353 C288,353 287,354 285,358 C283,365 283,367 285,366 C288,365 291,367 290,370 C290,372 291,375 292,376 C293,378 293,381 293,382 C293,385 294,401 295,404 C296,406 298,405 298,404 L298,404 Z M327,393 C328,392 327,391 326,392 L325,393 C324,394 325,395 326,394 L327,393 L327,393 Z M533,386 C532,384 532,384 532,386 L532,391 L533,393 L533,390 L533,386 L533,386 Z M275,378 C275,377 275,377 275,379 L275,381 L275,378 L275,378 Z M439,373 C441,371 443,369 444,368 C445,367 447,366 452,366 C460,365 461,363 454,356 C451,353 449,352 444,351 C439,349 439,349 434,352 C427,357 424,364 427,372 C429,380 433,380 439,373 L439,373 Z M386,367 C388,363 388,363 386,360 C383,357 384,353 387,351 C389,350 389,349 388,347 C387,345 387,343 387,342 C388,338 384,339 380,343 C375,347 372,353 372,360 C372,366 372,367 375,369 C379,373 383,372 386,367 L386,367 Z M458,348 C458,346 456,345 454,346 C454,346 454,347 455,348 C456,350 458,350 458,348 L458,348 Z M515,344 C515,343 514,343 514,343 C513,343 511,341 508,339 C497,329 494,328 504,338 C509,343 511,345 513,345 C515,345 515,344 515,344 L515,344 Z M469,336 C469,335 468,333 467,333 C466,332 466,330 466,329 C466,327 465,325 465,323 C464,321 465,321 467,321 C468,321 469,320 470,319 C470,316 473,316 475,318 C480,323 488,327 484,323 C483,321 482,321 481,321 C481,322 480,321 481,321 C481,321 480,318 477,315 C473,310 473,309 475,308 C477,307 477,306 475,304 C474,302 472,300 471,300 C469,298 469,295 471,294 C472,293 474,294 476,296 C480,300 481,300 481,297 C481,293 478,291 469,288 C463,286 462,286 460,287 C459,288 459,289 459,290 C460,290 459,291 459,290 C458,290 457,291 456,293 C454,297 454,299 454,306 C454,314 454,316 457,322 C460,329 466,338 468,338 C468,338 469,337 469,336 L469,336 Z M384,333 C385,331 383,326 382,326 C380,325 379,328 380,331 C381,334 383,334 384,333 L384,333 Z M383,317 C386,316 388,315 388,314 C388,313 386,313 383,313 L379,313 C379,314 379,314 378,314 C377,314 374,315 372,315 C370,316 369,315 369,315 C369,312 374,307 376,306 C379,305 379,303 376,304 C375,304 373,303 372,303 C370,302 368,302 367,302 C366,302 364,301 363,301 C362,300 360,300 357,300 C353,300 352,300 352,298 C351,297 354,296 364,292 C368,290 369,289 366,289 C365,289 364,288 364,287 C364,286 363,286 360,286 C357,287 357,286 356,284 C355,282 355,282 352,283 C349,284 348,285 348,286 C349,286 348,287 348,286 C346,285 339,289 340,290 C340,290 340,290 339,290 C336,289 336,292 340,300 C347,314 356,319 371,319 C377,319 380,319 383,317 L383,317 Z M318,307 C318,305 315,304 313,306 C311,307 311,309 315,309 C317,309 318,308 318,307 L318,307 Z M500,304 C499,302 498,302 498,303 C498,304 499,306 500,306 L500,304 L500,304 Z M322,291 C322,290 318,293 318,294 C318,294 319,294 320,293 L322,291 L322,291 Z M333,285 C342,280 356,273 360,272 C361,272 363,271 363,270 C363,268 360,268 357,271 C355,272 351,274 347,275 C343,277 339,278 338,279 C338,280 337,281 336,281 C335,281 325,288 325,288 C325,289 327,288 333,285 L333,285 Z M375,278 C387,274 388,273 381,274 C378,274 375,275 375,275 C374,276 373,276 372,276 C371,276 369,276 369,277 C368,278 367,278 366,278 L367,278 C368,276 367,276 365,277 C364,277 364,278 364,279 C365,279 364,280 364,279 C363,279 361,279 360,280 L357,282 L362,281 C364,281 370,279 375,278 L375,278 Z M412,280 C412,279 411,279 411,279 C410,279 409,279 409,280 C409,280 409,281 410,281 C411,281 412,280 412,280 L412,280 Z M450,272 C450,270 445,268 443,269 C442,270 443,271 446,272 C447,273 449,273 449,273 C449,273 450,273 450,272 L450,272 Z M494,433 L496,433 C497,433 496,433 495,433 L494,433 L494,433 Z M296,402 L296,400 L296,403 C296,403 296,403 296,402 L296,402 Z M475,316 C474,315 473,315 474,315 C475,315 476,315 476,316 C477,317 476,317 475,316 L475,316 Z M474,292 C473,292 472,291 472,291 C472,290 475,292 476,293 C477,294 477,294 474,292 L474,292 Z M367,317 C367,316 368,316 371,316 C373,317 375,317 375,317 C375,317 373,318 371,318 C368,318 367,317 367,317 L367,317 Z" id="shape"></path>
        </g>
    </g>
</svg>