<?xml version="1.0" encoding="UTF-8" standalone="no"?>
<svg width="384px" height="508px" viewBox="0 0 384 508" version="1.1" xmlns="http://www.w3.org/2000/svg" xmlns:xlink="http://www.w3.org/1999/xlink">
    <!-- Generator: Sketch 3.8.3 (29802) - http://www.bohemiancoding.com/sketch -->
    <title>spotlight</title>
    <desc>Created with Sketch.</desc>
    <defs></defs>
    <g id="Page-1" stroke="none" stroke-width="1" fill="none" fill-rule="evenodd">
        <g id="Spotlight" transform="translate(-234.000000, -178.000000)" fill="#434343">
            <path d="M241,685 C236,683 233,679 235,676 C237,673 241,674 242,676 C243,679 246,680 248,678 C252,675 252,673 247,668 C240,660 239,658 239,652 C239,645 241,644 250,644 C257,644 261,645 261,649 C261,650 260,651 255,650 C249,649 246,651 246,654 C246,657 248,662 251,664 C254,665 258,671 258,675 C258,679 254,683 249,685 C246,686 245,686 241,685 L241,685 Z M282,683 C280,681 279,680 280,672 C280,666 279,662 279,661 C278,659 278,658 279,658 C280,657 280,656 280,652 C280,648 280,647 283,645 C289,641 298,641 302,647 C306,652 302,658 291,663 L286,666 L287,675 C288,683 287,684 286,685 C285,685 283,685 282,683 L282,683 Z M294,654 C298,650 297,648 291,649 C289,649 288,649 288,651 C288,652 289,654 289,655 C289,657 290,657 294,654 L294,654 Z M491,682 C484,678 481,665 484,657 C487,650 490,646 494,644 C500,642 505,644 505,650 C505,654 503,654 502,652 C500,650 498,650 495,652 C489,657 488,673 494,677 C496,678 501,676 504,672 C507,668 507,667 503,667 C502,667 501,666 499,664 C496,661 498,659 504,659 C515,659 516,674 504,681 C499,684 495,684 491,682 L491,682 Z M320,681 C315,680 312,674 312,668 C312,659 320,649 327,649 C329,649 334,652 337,656 C341,660 340,669 337,673 C336,675 334,677 332,678 C329,679 322,681 320,681 L320,681 Z M328,672 C332,670 334,667 334,662 C334,656 330,654 324,657 C318,661 316,675 322,675 C323,675 325,674 328,672 L328,672 Z M362,679 C362,678 361,673 361,667 L361,657 L358,657 L353,657 C351,656 350,654 351,651 C352,650 352,650 354,650 C355,650 361,650 368,648 C381,646 383,646 385,647 C387,649 384,651 377,653 C372,654 368,655 368,655 C368,656 368,661 369,666 C369,679 369,682 366,682 C365,682 363,681 362,679 L362,679 Z M410,680 C407,679 407,680 408,659 C409,651 409,649 411,649 C412,649 413,650 414,651 C416,653 416,654 415,660 C414,663 414,668 414,670 L414,674 L418,674 C421,674 424,673 424,673 C425,671 431,673 432,674 C433,677 430,679 422,680 C412,682 413,682 410,680 L410,680 Z M449,679 C448,678 446,675 446,673 C445,670 446,658 448,649 C449,646 451,646 454,648 C456,650 456,651 454,657 C453,664 453,672 454,676 C455,678 455,679 454,680 C453,682 451,682 449,679 L449,679 Z M531,679 C529,677 528,661 529,652 C530,646 530,646 532,646 C535,646 536,647 536,652 L536,656 L540,656 C543,656 546,655 547,654 C550,653 550,653 550,649 C549,644 551,642 554,643 C557,644 558,648 558,657 C558,662 559,668 559,670 C561,673 561,674 560,675 C558,677 557,677 555,675 C554,673 552,670 551,667 C550,662 550,661 548,662 C547,662 544,663 542,663 C537,664 536,666 536,671 C536,679 534,682 531,679 L531,679 Z M590,675 C589,674 589,670 589,660 L589,646 L582,646 C575,646 574,646 574,644 C574,643 574,642 575,641 C578,638 616,639 617,642 C618,645 614,647 605,646 L596,646 L596,658 C596,672 596,672 594,674 C592,677 592,677 590,675 L590,675 Z M399,600 C397,598 398,594 402,590 C405,587 405,585 402,585 C390,583 391,583 390,586 C390,588 389,590 388,590 C388,591 387,593 386,595 C385,598 380,602 379,600 C376,597 377,594 380,589 C382,586 383,584 383,583 C382,582 378,582 378,584 C378,585 375,587 373,589 C371,590 367,593 366,595 C363,598 361,598 359,596 C357,594 359,590 364,587 C367,585 369,583 369,582 C369,582 367,581 365,581 C363,581 360,580 359,580 C358,580 358,580 358,581 C358,582 356,584 354,587 C352,590 351,591 348,591 C345,591 345,590 345,588 C345,586 346,585 348,583 C351,580 352,579 351,578 L345,578 C341,578 340,578 337,581 C336,584 333,586 333,587 C331,589 330,589 329,589 C326,588 325,585 327,583 C328,582 329,580 329,578 C329,576 329,576 326,576 C323,575 323,576 322,578 C321,582 313,585 311,582 C310,582 310,580 310,578 C310,576 310,575 309,576 L308,577 C308,578 308,578 307,578 C307,578 305,579 303,579 L300,579 C300,578 299,577 298,576 C297,574 296,574 295,575 C294,577 293,576 291,575 C287,572 288,569 294,565 C297,564 298,562 299,560 C299,557 299,557 304,557 C306,557 309,556 309,556 C310,555 305,554 303,554 C302,554 300,553 299,552 C298,551 298,551 299,548 C301,545 300,543 298,543 C297,543 295,542 295,541 C294,540 297,538 300,538 C301,538 303,537 305,535 C308,531 314,521 314,520 L310,520 C308,521 305,524 304,528 C303,530 299,530 297,527 C297,526 295,524 294,523 C289,520 291,517 297,517 C301,517 304,514 306,510 C308,508 308,508 305,508 C303,508 301,509 299,511 C295,515 293,515 293,512 C293,511 292,509 291,508 C289,506 290,504 294,503 C296,503 303,490 302,489 L297,489 C295,490 292,490 291,490 C288,489 287,485 290,483 C292,482 301,470 300,469 C300,468 299,468 297,468 C291,469 288,465 291,462 C292,462 293,460 293,459 C293,457 293,455 295,453 C297,451 297,450 295,450 C291,449 290,448 290,444 C289,438 289,436 287,433 C285,430 285,429 291,428 C294,428 296,426 300,422 C303,419 306,416 306,415 C306,414 304,413 302,413 C300,412 299,413 297,415 C296,416 295,418 295,419 C295,420 294,422 293,422 C291,422 289,419 289,417 C289,415 288,415 285,414 C280,414 281,411 288,409 C291,408 293,407 294,406 C295,405 304,392 304,391 L300,391 C296,390 296,391 294,395 C293,397 292,399 291,399 C289,400 285,397 286,394 L286,392 C285,392 285,391 285,389 C285,388 286,387 289,385 C293,384 297,378 296,377 C296,377 292,377 288,378 C283,379 281,379 280,378 C278,377 278,375 281,374 C282,373 283,371 284,368 C285,366 287,363 288,362 C291,361 290,360 285,359 C278,358 276,356 279,351 C282,347 282,347 278,339 C276,335 276,333 280,327 C282,324 284,322 284,321 C284,320 282,321 278,322 C277,322 276,322 275,320 C274,318 274,318 275,315 C276,313 278,310 280,308 C283,305 283,304 281,303 C278,301 278,300 282,298 C286,297 286,297 285,293 C284,284 284,284 271,297 C265,304 258,311 256,313 C254,315 251,316 250,316 C248,316 244,314 245,312 C245,311 255,301 261,297 C267,292 270,288 276,280 C280,275 280,274 279,268 C279,263 277,259 273,250 C270,244 266,237 265,236 C264,233 264,229 263,225 C263,216 265,214 270,213 C272,213 276,213 278,212 C280,212 285,211 288,211 C296,210 300,209 300,207 C300,205 298,195 296,188 C294,181 295,179 298,179 C302,178 303,182 306,202 L307,207 L315,207 C324,208 326,208 327,213 C329,219 337,241 339,246 C340,248 343,252 344,255 C346,257 347,260 347,261 C348,262 351,267 353,267 C353,267 357,268 360,271 C366,275 372,277 378,278 C386,280 390,283 391,288 C391,292 386,291 375,286 C364,280 350,278 350,281 C350,284 353,286 362,286 C369,286 370,286 372,288 C374,291 374,293 371,294 C367,296 367,298 372,297 C374,297 376,296 376,296 C377,294 380,294 383,297 C386,301 386,302 383,304 C380,305 378,310 378,313 C378,316 383,315 385,312 C386,310 387,310 389,311 C390,311 390,312 390,316 C390,318 389,321 388,322 C387,323 386,325 386,328 C386,332 386,332 389,332 C404,330 408,330 409,332 C410,335 407,336 402,337 C397,337 396,338 397,342 C397,344 398,345 399,344 C400,344 404,343 408,343 C414,343 415,343 417,345 C419,346 419,347 417,349 C416,350 414,351 413,351 C411,351 410,351 409,354 C406,358 408,360 413,359 C420,358 426,358 427,360 C430,362 427,366 422,366 C420,366 419,366 418,369 C416,373 416,376 418,377 C422,377 425,376 427,374 C429,372 432,372 432,375 C432,376 433,377 435,378 C441,381 439,384 432,384 C428,384 428,384 427,390 C427,392 426,394 425,394 C422,396 424,397 427,396 C429,396 431,394 433,391 C435,389 436,388 437,388 C438,388 438,390 438,392 L438,396 L443,396 C447,396 449,397 450,398 C451,400 451,403 449,403 C449,403 449,403 449,404 C450,406 450,408 450,409 C449,411 450,412 452,412 C454,412 457,412 458,414 C460,416 461,416 460,418 C459,420 459,421 459,421 C460,421 461,422 461,423 C461,425 462,426 465,427 C468,427 470,428 470,429 C471,431 469,434 467,434 C462,433 457,434 456,435 C454,438 454,445 456,446 C457,447 458,446 458,446 C459,444 466,436 466,436 C468,436 469,441 467,442 C465,445 467,446 475,446 C482,446 482,446 482,448 C483,450 482,453 481,456 C479,458 479,461 479,461 L483,461 C489,460 492,461 494,464 C495,467 493,468 485,468 C474,467 471,470 475,475 C477,477 477,478 484,477 C489,477 492,476 493,475 C496,473 497,473 499,475 C499,476 501,477 503,478 C505,479 506,480 506,481 C506,483 505,483 500,483 C494,484 493,484 491,487 C490,489 490,491 490,492 C490,494 491,495 494,495 C499,495 499,495 503,490 C505,487 507,488 507,492 L507,496 L513,496 C518,496 521,496 523,497 C526,499 526,500 524,502 C523,502 520,503 513,502 C506,502 503,502 503,503 C501,505 501,510 502,512 C503,514 504,513 506,510 C507,507 509,506 510,506 C512,506 513,508 513,510 C513,511 515,511 521,512 C527,512 530,513 531,514 C534,516 531,518 527,518 C524,518 523,518 523,520 C522,522 523,522 531,521 C539,521 539,521 540,523 C541,526 540,527 527,528 C521,529 521,529 520,533 C519,536 521,539 522,537 C522,536 524,536 526,536 C528,536 531,535 532,534 C534,532 535,532 537,533 C538,534 541,535 544,535 C551,535 551,536 545,539 C543,541 542,542 542,543 C542,543 549,544 560,543 C575,543 577,543 580,545 C582,546 583,548 583,550 C583,551 583,554 584,555 C587,560 585,562 579,561 C573,561 570,562 570,564 C570,566 573,566 577,564 C580,563 580,564 582,566 C584,568 584,570 584,571 C584,574 584,574 578,574 C572,573 570,575 571,579 C571,580 570,581 567,583 C565,584 564,585 564,586 C564,587 562,588 561,590 C558,592 557,593 556,592 C554,591 553,590 554,587 C554,583 552,583 548,586 C544,590 541,590 538,587 C535,583 534,584 529,590 C526,596 524,597 522,594 C520,592 521,587 523,585 C526,583 525,582 520,583 C515,584 511,588 509,593 C508,597 505,600 503,599 C502,599 501,597 502,593 L502,587 L497,587 C487,588 487,588 483,595 C481,601 480,602 478,601 C474,601 474,598 476,593 C477,591 478,589 477,589 C477,589 473,588 468,588 C459,588 458,588 460,590 C460,591 460,592 458,595 C454,601 449,598 452,592 C453,589 452,588 444,587 C437,586 436,587 436,589 C436,590 434,592 433,594 C432,595 431,597 431,598 C431,599 430,600 428,599 C426,599 425,598 424,596 C424,594 424,593 426,590 C428,589 429,587 428,587 C428,587 424,586 420,586 C412,586 412,586 412,588 C412,590 403,602 401,602 C400,602 399,601 399,600 L399,600 Z M499,580 C505,579 512,578 516,577 C521,575 525,575 525,575 C527,575 537,568 538,567 C540,562 535,558 531,560 C528,561 526,560 524,555 C520,549 518,548 509,549 C503,549 501,549 500,547 C498,545 493,544 443,544 C409,544 403,544 396,546 C391,547 383,548 379,549 C374,550 367,551 364,552 C361,554 356,555 353,556 C347,558 346,559 346,562 C346,566 348,568 355,571 C361,573 366,574 382,576 C421,580 482,583 499,580 L499,580 Z M562,573 C563,571 560,571 557,574 L555,576 L558,575 C561,575 562,574 562,573 L562,573 Z M335,569 C335,568 334,568 333,568 C332,568 332,568 332,569 C332,569 332,570 333,570 C334,570 335,569 335,569 L335,569 Z M307,568 C307,567 307,567 306,567 C305,567 303,567 303,568 C303,568 303,569 304,569 C305,569 307,568 307,568 L307,568 Z M561,563 C563,560 561,560 558,562 C556,564 556,565 558,565 C559,565 560,564 561,563 L561,563 Z M573,552 L570,552 L572,552 L573,552 L573,552 Z M331,550 C333,549 333,546 332,546 C331,546 329,546 327,547 C324,549 324,549 326,550 C329,551 329,551 331,550 L331,550 Z M360,547 C370,544 394,539 410,538 L444,538 C456,538 475,539 487,539 C498,539 508,540 509,540 C513,541 511,537 506,531 C503,528 499,521 496,516 C490,506 487,502 485,502 C483,502 481,498 480,495 C479,490 471,481 467,481 C463,480 462,479 463,475 C464,472 464,471 459,464 C457,460 453,456 452,455 C448,453 448,452 448,449 C448,447 445,442 441,437 C438,431 434,425 432,423 C431,420 428,417 426,415 C425,414 424,412 424,411 C424,410 422,407 420,404 C418,402 415,397 413,393 C411,389 408,385 407,384 C405,383 405,382 405,381 C405,380 400,373 393,363 C390,359 386,353 383,349 C381,346 379,342 378,341 C377,341 375,337 373,334 C372,330 369,326 367,323 C365,321 364,318 363,316 C363,315 362,314 361,314 L361,312 C361,312 348,293 342,284 C341,282 340,280 339,279 C338,277 337,277 325,279 C314,280 312,281 305,284 C299,287 297,288 295,287 C291,286 291,285 295,303 C297,310 299,319 299,323 C300,335 303,346 308,352 C309,355 309,355 308,357 C306,360 306,360 308,367 C311,379 314,397 315,404 C318,415 319,421 320,425 L320,431 C320,433 322,440 325,452 C325,454 326,461 327,466 C328,472 329,477 329,478 C329,480 331,491 332,499 C337,530 341,548 342,549 C345,551 350,550 360,547 L360,547 Z M317,544 C320,543 322,541 322,540 L321,539 L315,539 C312,539 311,540 310,542 C309,543 309,545 309,545 C309,546 311,545 317,544 L317,544 Z M330,527 C328,516 326,516 319,526 C315,531 315,533 320,532 C322,531 323,532 325,533 L327,536 L329,533 C330,532 331,530 330,527 L330,527 Z M519,521 C522,519 521,519 515,519 C510,519 509,520 510,523 C510,525 516,524 519,521 L519,521 Z M323,512 C327,511 327,511 327,507 C327,506 326,503 326,501 C325,498 325,498 323,499 C322,499 321,500 322,503 C322,507 322,507 319,507 C315,508 312,511 313,512 C313,513 315,513 316,513 C317,513 320,512 323,512 L323,512 Z M318,496 C321,493 324,490 324,489 C324,488 323,488 317,488 L311,488 L308,492 C304,501 304,501 309,501 C312,501 314,500 318,496 L318,496 Z M486,485 C486,484 484,484 483,484 C483,485 483,486 484,486 C485,486 486,485 486,485 L486,485 Z M315,476 C320,471 322,467 319,467 L314,467 C310,467 310,468 306,474 C303,477 302,480 302,481 C302,481 303,482 305,482 C308,482 310,481 315,476 L315,476 Z M322,479 C322,475 320,475 319,477 C317,480 318,482 321,482 C322,482 323,481 322,479 L322,479 Z M470,461 C471,460 475,455 475,454 C475,452 466,452 465,454 C463,455 463,458 465,460 C467,463 468,463 470,461 L470,461 Z M319,459 C318,451 317,449 314,448 C308,446 303,450 301,457 C301,460 301,461 303,461 C305,461 307,459 310,457 C311,455 314,453 315,452 C316,452 316,452 316,456 L316,461 C317,462 319,461 319,459 L319,459 Z M304,440 C305,438 308,435 309,434 L312,430 L307,431 C301,432 298,433 298,435 C298,436 297,438 297,438 C296,439 295,440 295,441 C294,444 294,444 298,443 C301,443 303,441 304,440 L304,440 Z M316,440 C316,439 315,439 314,439 C313,439 313,439 313,440 C313,440 313,441 314,441 C315,441 316,440 316,440 L316,440 Z M454,424 C457,420 456,419 450,419 C446,419 445,419 444,421 C443,426 443,428 447,428 C451,428 452,427 454,424 L454,424 Z M312,422 C312,421 311,421 310,421 C309,421 308,422 309,423 C310,425 312,424 312,422 L312,422 Z M440,412 C442,410 444,405 443,403 L437,403 C434,403 433,403 432,406 C430,411 435,416 440,412 L440,412 Z M309,404 C309,398 306,397 305,402 C304,404 305,405 306,406 C308,407 309,407 309,404 L309,404 Z M421,387 C422,385 419,384 417,385 C416,387 417,390 419,389 C420,389 421,388 421,387 L421,387 Z M411,367 C410,366 406,368 406,370 C406,371 406,372 407,373 C409,375 409,374 410,371 C411,369 411,367 411,367 L411,367 Z M300,368 C300,365 299,362 298,362 C297,362 292,368 292,370 L296,370 C300,370 300,370 300,368 L300,368 Z M402,357 C403,355 404,352 404,352 C405,351 403,351 401,351 C395,351 394,353 397,357 C399,362 401,361 402,357 L402,357 Z M293,352 C296,351 297,351 297,349 C297,346 295,345 292,345 C290,345 289,346 288,350 C287,353 288,353 293,352 L293,352 Z M391,343 C392,339 392,339 389,339 C385,339 385,339 387,343 C389,346 390,346 391,343 L391,343 Z M288,337 C291,334 293,330 292,328 C290,327 287,328 285,333 C282,339 284,342 288,337 L288,337 Z M380,325 C381,322 380,322 377,322 C374,322 374,322 376,325 C378,328 379,328 380,325 L380,325 Z M290,311 C290,310 289,310 289,310 C288,310 288,310 288,311 C288,311 288,312 289,312 L290,311 L290,311 Z M371,309 C373,306 373,306 370,306 C366,306 365,307 366,309 C368,312 370,312 371,309 L371,309 Z M311,269 C318,268 323,266 329,264 C330,264 333,263 333,263 C335,262 334,261 330,260 C327,259 326,257 327,255 C328,254 328,254 326,252 C324,249 325,246 328,246 C331,245 331,245 329,242 C329,241 328,240 326,241 L322,241 C320,240 320,236 323,235 C325,233 325,232 323,232 C320,232 317,229 317,227 C317,226 318,225 319,224 C322,223 321,222 316,221 C314,221 313,220 313,218 C312,216 312,216 310,216 L307,216 L308,224 C308,229 309,235 310,238 C312,245 312,245 308,249 C304,254 301,254 297,249 C293,245 293,242 296,238 C300,235 301,231 300,223 L300,217 L296,217 C293,217 288,217 285,218 C280,220 280,220 280,223 C280,224 279,226 279,227 C278,228 278,228 280,229 C281,230 282,231 283,232 C284,234 282,236 278,236 C275,235 275,236 277,239 C277,240 278,240 281,240 C284,239 285,240 287,241 C289,244 289,245 285,247 C281,248 281,250 285,250 C290,250 291,255 287,257 C285,257 284,260 285,261 C286,261 288,261 289,260 C291,259 292,259 293,261 C294,262 294,264 294,266 C294,267 294,269 295,270 C296,272 297,272 300,271 C302,271 307,270 311,269 L311,269 Z" id="spotlight"></path>
        </g>
    </g>
</svg>