<?xml version="1.0" encoding="UTF-8" standalone="no"?>
<svg width="477px" height="460px" viewBox="0 0 477 460" version="1.1" xmlns="http://www.w3.org/2000/svg" xmlns:xlink="http://www.w3.org/1999/xlink">
    <!-- Generator: Sketch 3.8.3 (29802) - http://www.bohemiancoding.com/sketch -->
    <title>transform</title>
    <desc>Created with Sketch.</desc>
    <defs></defs>
    <g id="Page-1" stroke="none" stroke-width="1" fill="none" fill-rule="evenodd">
        <g id="Transform" transform="translate(-174.000000, -227.000000)" fill="#444444">
            <path d="M212,684 C210,682 210,680 209,671 C209,665 208,660 208,660 C208,660 206,660 204,661 C199,663 197,662 197,659 C197,657 201,654 204,654 C206,654 208,652 210,651 C214,649 214,649 216,651 C218,652 220,653 224,652 C233,652 236,654 232,658 C230,659 229,659 224,659 C222,658 218,658 218,658 C216,659 215,663 217,674 C218,683 218,685 216,686 C214,687 214,687 212,684 L212,684 Z M256,685 C255,684 255,680 255,672 C256,664 255,659 255,659 C250,656 259,646 267,645 C272,645 274,646 276,649 C280,654 279,658 274,663 C271,666 270,668 270,669 C270,670 271,671 272,671 C273,671 275,671 277,672 C279,673 282,675 284,675 C287,676 289,677 289,679 C290,682 289,684 285,683 C282,683 279,682 275,680 C265,673 261,673 264,679 C265,681 265,682 263,683 C261,686 258,687 256,685 L256,685 Z M267,661 C269,660 271,656 271,654 C271,653 269,653 268,653 C264,653 263,654 262,658 C262,661 262,662 264,662 C264,662 265,662 267,661 L267,661 Z M532,683 C530,681 531,666 532,664 C533,664 534,662 534,660 C534,659 534,657 535,656 C536,654 536,654 539,657 C542,660 542,660 545,658 C551,654 550,648 544,652 C541,654 538,654 537,652 C535,646 540,642 548,643 C556,643 558,646 557,652 C557,657 556,659 548,664 L546,665 L548,668 C550,669 553,671 555,671 C563,673 566,677 562,681 C560,682 560,682 556,681 C554,680 550,678 549,676 C547,675 544,673 542,673 C540,672 539,672 539,674 L539,679 C539,681 539,682 538,683 C537,685 533,685 532,683 L532,683 Z M342,682 C341,680 342,669 344,660 C347,652 348,649 350,650 C352,650 358,655 361,660 C365,665 368,669 369,669 C370,669 371,667 371,664 L371,652 C372,644 372,643 374,642 C376,641 377,641 378,643 C380,644 380,645 378,650 C377,653 376,658 377,663 C377,672 376,675 373,677 C370,678 367,676 360,668 C357,665 354,663 353,663 C351,663 350,670 350,676 C350,679 349,681 348,682 C345,684 343,684 342,682 L342,682 Z M321,680 C321,679 320,676 320,672 C319,666 319,666 316,666 C314,667 310,671 310,673 C310,677 305,679 303,676 C300,671 308,648 314,646 C317,645 319,647 324,655 C328,662 328,662 328,670 C328,676 328,678 326,680 C324,682 323,682 321,680 L321,680 Z M401,679 C398,678 395,675 397,673 C397,672 399,672 402,672 C407,673 413,671 412,669 C412,669 410,667 407,666 C405,665 401,662 399,659 C395,655 394,654 395,651 C397,643 410,638 417,644 C420,646 420,648 418,649 C417,650 415,650 414,649 C412,647 406,648 404,650 C401,653 403,656 410,660 C419,665 422,667 422,670 C422,673 421,674 416,676 C411,678 406,679 401,679 L401,679 Z M444,676 C443,674 443,667 443,660 L444,647 L449,647 C452,647 458,646 463,646 C473,645 477,646 477,649 C477,651 473,652 466,653 C454,653 448,655 452,659 C453,660 454,661 459,660 C464,660 466,660 468,661 L470,663 L467,665 C466,666 463,667 458,667 C451,667 450,668 451,673 C452,679 445,682 444,676 L444,676 Z M492,676 C484,670 485,656 493,648 C496,645 497,645 501,645 C507,645 507,645 509,649 C510,651 511,653 511,654 C513,654 515,663 514,666 C513,670 508,674 502,677 C495,679 496,679 492,676 L492,676 Z M505,668 C509,663 508,656 502,653 C500,652 499,653 497,654 C494,657 493,663 494,667 C495,670 496,671 499,671 C501,671 503,670 505,668 L505,668 Z M579,674 C578,673 578,671 578,668 C578,666 579,660 579,655 C579,650 580,646 580,645 C582,644 585,646 586,649 C587,651 587,651 589,648 C592,644 595,645 598,650 C599,652 600,655 601,655 C601,656 604,653 607,650 C611,646 613,645 614,645 C618,646 619,650 620,659 C621,663 622,668 622,669 C622,670 622,671 620,672 C617,674 617,674 615,671 C613,669 612,668 612,662 L612,655 C611,655 610,656 609,658 C607,660 606,662 606,662 C605,662 604,664 602,667 C598,675 593,672 593,662 C593,659 592,656 592,656 C591,655 587,665 586,670 C586,672 585,674 584,675 C582,676 580,676 579,674 L579,674 Z M176,485 C174,481 174,479 177,477 C180,474 180,470 179,461 C178,455 178,454 179,453 C181,452 185,452 187,454 C188,455 188,455 188,466 L189,475 L196,475 C207,475 211,476 210,479 C210,481 209,481 204,482 C201,483 196,484 195,484 C186,485 184,485 180,486 C177,487 176,486 176,485 L176,485 Z M275,485 C273,483 272,478 273,475 C274,474 275,472 277,472 C278,471 280,469 280,468 C280,467 282,464 285,461 C302,443 309,434 309,430 C309,428 310,427 311,426 C313,426 315,423 317,420 C319,416 321,413 323,411 C324,410 326,407 327,405 C329,403 336,393 343,384 C361,360 370,346 377,334 C378,332 382,327 385,324 C390,319 392,318 394,318 C396,318 397,317 396,316 L396,313 C397,311 408,311 443,313 C479,314 489,314 519,314 C530,313 542,314 547,314 C551,315 556,315 559,315 C561,315 577,314 595,314 C619,314 628,313 634,312 C638,311 641,311 642,311 C644,310 651,317 651,319 C651,320 649,322 647,324 C642,328 634,339 634,341 C634,341 632,343 631,345 C629,346 626,351 623,355 C621,358 616,364 613,367 C610,370 608,373 608,374 C608,374 604,378 601,382 C597,386 594,390 594,390 C594,391 592,393 589,396 C583,404 578,410 575,416 C574,418 571,424 568,427 C557,441 552,448 546,458 C542,463 539,468 537,470 C536,472 535,474 534,475 C534,476 532,478 529,480 L524,483 L492,483 C474,483 456,483 452,484 C446,485 425,485 357,486 C351,486 337,485 325,485 C300,484 290,484 287,486 C283,487 276,487 275,485 L275,485 Z M457,473 C462,472 473,471 482,471 C507,470 515,469 517,465 L523,459 C525,457 527,453 529,451 C531,448 534,444 537,441 C539,438 542,434 543,432 C544,429 549,423 556,416 C557,414 559,412 560,411 C561,409 566,402 572,395 C583,380 592,367 592,366 C592,365 597,359 603,352 C606,349 608,346 609,345 C609,344 613,339 617,334 C621,329 625,324 625,323 C625,322 617,322 585,322 C536,322 402,321 399,320 C397,319 392,327 393,329 C394,331 407,331 409,329 C412,328 417,329 417,332 C417,333 416,334 414,336 C411,338 411,338 399,337 C393,336 387,336 387,336 C386,336 386,337 387,338 C387,339 390,339 398,340 C404,340 410,341 411,341 C413,342 414,346 413,347 C412,349 387,348 383,346 C381,345 381,345 379,346 C377,349 374,354 375,354 L395,354 C413,353 415,353 417,354 C418,355 419,356 419,357 C419,359 415,362 413,361 L410,361 C408,362 378,363 375,361 C372,360 371,360 369,363 C367,365 366,366 366,366 C366,366 374,367 383,367 C392,367 403,368 409,368 C419,370 422,371 420,374 C419,376 418,376 413,376 C410,375 398,375 388,375 C364,375 365,375 364,373 C363,370 362,370 361,373 C361,374 358,377 356,380 C352,384 351,385 353,386 C354,387 352,387 385,387 C408,387 410,387 412,389 C415,391 415,393 414,394 C413,394 399,395 383,395 C359,395 353,395 350,394 C348,393 346,393 346,393 C345,394 342,398 339,402 C331,412 325,423 326,424 L337,424 C342,424 351,423 358,423 C381,422 390,421 397,420 C405,418 414,419 416,422 C418,423 418,424 415,427 C412,429 411,430 410,429 C409,428 406,428 400,428 C374,429 350,430 337,431 C329,431 322,432 320,432 C318,433 315,438 316,439 L325,439 C330,438 337,438 340,438 C380,440 409,441 418,440 C426,440 429,440 430,441 C432,443 432,445 430,446 C429,448 409,448 367,446 C357,446 342,445 333,445 C320,445 317,445 316,443 C314,441 314,441 311,444 C308,447 303,454 303,455 C303,456 305,456 310,456 C314,456 332,456 351,457 C382,458 405,457 411,455 C413,455 414,455 416,457 C421,463 418,465 404,464 C399,464 393,464 392,465 L369,465 C341,465 306,463 302,461 C299,459 299,459 296,463 C293,467 292,470 294,471 L305,471 C320,472 352,472 352,473 C353,474 450,473 457,473 L457,473 Z M229,480 C228,479 228,477 228,476 C228,475 231,474 234,474 C241,473 249,472 253,471 C256,470 261,473 261,475 C261,477 257,478 252,479 C250,479 246,479 243,480 C241,481 239,481 239,481 C239,481 237,481 235,482 C230,484 231,484 229,480 L229,480 Z M180,435 C178,433 177,429 179,425 C180,422 181,418 180,414 C180,409 180,407 182,406 C183,404 184,404 186,406 L189,408 L188,419 C188,426 187,432 186,434 C184,437 181,437 180,435 L180,435 Z M181,386 C179,384 179,383 181,379 C181,376 182,372 181,366 C180,357 181,355 186,356 C191,357 191,357 190,372 C189,381 188,386 187,387 C185,388 183,388 181,386 L181,386 Z M182,341 C180,339 180,338 182,326 C182,324 183,320 183,316 C183,307 184,306 188,306 L192,306 C193,308 213,309 218,308 C220,307 222,307 225,309 C230,311 230,312 228,315 C227,317 225,317 218,317 C214,317 206,317 202,316 L193,316 C192,317 191,321 191,328 C190,338 190,340 188,341 C185,343 184,343 182,341 L182,341 Z M330,321 C330,321 326,320 321,320 C310,319 306,318 306,316 C305,312 308,311 321,312 C331,312 333,312 336,313 C338,315 340,316 340,317 C340,320 332,323 330,321 L330,321 Z M351,317 C350,315 350,314 351,313 C351,311 353,311 357,311 C361,311 365,310 366,309 C371,308 375,309 375,313 C375,318 372,319 361,319 C353,319 351,318 351,317 L351,317 Z M250,317 C249,315 249,311 251,310 C254,309 269,308 272,308 C274,309 279,313 278,315 C278,317 276,317 264,317 L250,317 L250,317 Z M468,275 C467,272 468,268 472,266 C481,260 483,258 482,257 C481,256 464,256 461,257 C460,257 459,257 459,256 C453,254 436,253 401,253 C380,252 361,252 359,251 C353,250 300,251 291,252 C283,253 280,252 280,249 C280,246 281,245 289,244 C300,243 438,245 457,246 C469,248 480,248 481,247 C482,246 481,245 476,241 C471,238 469,233 471,230 C474,226 477,227 484,233 C487,236 491,239 492,239 C494,239 497,241 499,243 C502,244 505,246 507,247 C510,248 510,249 510,251 C510,254 509,256 499,262 C486,269 480,273 480,274 C480,275 474,278 471,278 C470,278 469,277 468,275 L468,275 Z M343,413 C341,412 341,409 342,408 C345,406 365,404 382,404 C413,405 423,406 420,411 C419,413 417,413 413,413 C370,412 365,412 349,414 C346,414 344,414 343,413 L343,413 Z" id="transform"></path>
        </g>
    </g>
</svg>